<svg xmlns="http://www.w3.org/2000/svg" viewBox="0 0 500 500"><g id="freepik--background-complete--inject-75"><path d="M359.7,176.46c-7-6.22-15.73-8.35-22.15-6a5.74,5.74,0,0,1-5.54-.87c-7.77-6.35-20.36-7.11-25.58-1.11a12.57,12.57,0,0,0-1.5,2.15,7.75,7.75,0,0,1-3.08,3.06,8.9,8.9,0,0,0-2.38,1.91,9.85,9.85,0,0,0-2.24,7.06,1.93,1.93,0,0,1-1.3,1.85,8.94,8.94,0,0,0-3.59,2.48c-4.23,4.85-2.36,13.5,4.17,19.32,5.82,5.19,13.38,6.38,17.95,3.14a1.24,1.24,0,0,1,1.38,0c3.29,2.23,7.11,2.25,9.1-.17h0a1.2,1.2,0,0,1,1.61-.17c3.39,2.57,7.49,2.71,9.58.17a5.11,5.11,0,0,0,.85-1.51,1.13,1.13,0,0,1,1.39-.6,6,6,0,0,0,5.87-.94,1.2,1.2,0,0,1,1.25-.17c7.61,3.44,15.62,2.78,20.08-2.34C371.53,196.83,368.9,184.65,359.7,176.46Z" style="fill:#e0e0e0"></path><path d="M305,246.44l9,8.33c-.72,11.76-1.4,43.27-1.4,43.27l-2.82,39.16,28.12.26s-1.66-36.22-1.66-37.09-5.43-31.48-5.43-31.48l-3.09-29.73,14.49-4.41,2.65-7.65,10.65-6,5.21-8-2-.49L353,220l-6.71,1.45,2.87-6.8h-3.19l-8,15.76-10.29,2.11L329,203.41c-8.23,3.84-10.86-2.56-10.86-2.56s-2.13,44.87-3.33,48.26h0a21.54,21.54,0,0,1-8.49-7.69l-2.57-4.06h-2.55Z" style="fill:#f0f0f0"></path><path d="M299.22,221.59a4.94,4.94,0,0,0-5.62,7c-2.65.33-4.9,2.88-5.53,5.48a6.64,6.64,0,0,0,10.23,7,7.94,7.94,0,0,0,6.81,2,8.66,8.66,0,0,0,6-4.38,9.06,9.06,0,0,0,4.12-7.14,7.1,7.1,0,0,0-2-5.64,4.92,4.92,0,0,0-5.71-.8,6,6,0,0,0-3.07-3.7A7,7,0,0,0,299.22,221.59Z" style="fill:#e0e0e0"></path><path d="M330.27,232l-2.61.54L329,203.41c-.47.22-.93.4-1.36.56l-2.07,29.15Z" style="fill:#fff"></path><path d="M343.79,225.88l-3.85,7.48-16.72,5.23.86,15.32s1.71-4.61,1.71-4,.86,25,.86,25l2.77,20.77-2.05,41.72,10.54.1s-1.66-36.22-1.66-37.09-5.43-31.48-5.43-31.48l-3.09-29.73,14.49-4.41,2.65-7.65,10.65-6,5.21-8-1.24-.3c-2.17,3.26-5.22,8.19-5.22,8.19Z" style="fill:#fff"></path><path d="M298.08,337.45c-2.3-8-5.77-21.7-6.77-30q-4.19-34.83-8.38-69.67c-.74-6.13-2.65-13.46-8.63-15q-4.51-19.53-9-39.05a15.69,15.69,0,0,0-2.29-6c-1.29-1.73-2.85-3.87-4.9-3.21-2.59-5.24-2.47-11.36-3.62-17.09S250,144.88,244.3,143.78c-2.86-3-7.75-3.38-11.67-1.93s-7.09,4.36-10.15,7.2c-1.54,1.43-4.12,1.81-5.65,3.23a4.5,4.5,0,0,0-4.55.62,13.51,13.51,0,0,0-3.09,3.67c-6,9.24-11.58,20.09-12.27,31.09-14.11,11.33-16.25,30.84-25.39,46.46A180.43,180.43,0,0,0,147,322.49c-.06,5.22-1.82,9.79-2.62,15Z" style="fill:#f5f5f5"></path><path d="M137.7,337.49c-9.2-54.88,30.43-90.29,71.47-104.6,24.7-8.62,67.88-8.09,75.08-7.69,16,.89-6.78,112.29-6.78,112.29Z" style="fill:#e6e6e6"></path><path d="M226.51,213.06a4.41,4.41,0,0,0,1.24-.27c5.19-1.83,7.08-7.61,7.65-10a50.85,50.85,0,0,0,1-6.67,55.05,55.05,0,0,1,.82-6c1-4.84,3.48-8.43,6.72-9.85l-.31-.71c-3.47,1.53-6.08,5.32-7.17,10.4a57.24,57.24,0,0,0-.83,6,50.26,50.26,0,0,1-1,6.57c-1.13,4.74-3.81,8.28-7.16,9.46a2.34,2.34,0,0,1-1.94.05l-.38.67A2.27,2.27,0,0,0,226.51,213.06Z" style="fill:#ebebeb"></path><path d="M226.45,212.92a1.25,1.25,0,0,0-.24-1.56,4.84,4.84,0,0,0-1.48-.85,2.53,2.53,0,0,1-1.31-1.07l.27,1.08a2.32,2.32,0,0,1-1.89-1.43,2.85,2.85,0,0,0,1.4,3.11A1.43,1.43,0,0,1,222,212a2.77,2.77,0,0,0,1.91,1.9A2.54,2.54,0,0,0,226.45,212.92Z" style="fill:#e0e0e0"></path><path d="M270.6,199.74a175,175,0,0,1-.21,23.91.94.94,0,0,0-.09,1,.93.93,0,0,0,.83.54c1.91,0,3.89-.19,5.8-.23a1.49,1.49,0,0,0,.38-1.79,2,2,0,0,0-2-.75c.47-10.5,1-19.57,1-28.48Z" style="fill:#e6e6e6"></path><path d="M267.85,174.79l-7.39.45a6.83,6.83,0,0,0-4.72,2.32l-2.55,2.93c-1.08,1.24-3.2,2.55-3.2,4.2l0,14.95c0,.93,1.61,2.13,1.77,3.05h0a16.85,16.85,0,0,1,0,5.35l-.56,3.67a2.72,2.72,0,0,0,0,.7l.86,14.09,5.72-.35.05-1.15a1.54,1.54,0,0,0-1.21-1.56h0l-.93-9.89,3.25-10,2.24-3a6,6,0,0,0,1-2.16Z" style="fill:#e6e6e6"></path><path d="M257.72,201.82h0c-3.12.19-6.49-.69-8.05-3.39l-4-4.46s5.94-14.83,6.29-14.52,4.9-.3,4.9-.3Z" style="fill:#ebebeb"></path><path d="M262,200.26A175,175,0,0,0,265.16,224a1,1,0,0,1-.54,1.65c-1.9.19-3.89.28-5.79.47a1.48,1.48,0,0,1-.59-1.72,1.93,1.93,0,0,1,1.87-1,276.3,276.3,0,0,1-4.46-28.14Z" style="fill:#ebebeb"></path><path d="M255.11,175.57l-7.52.45a6.54,6.54,0,0,0-4.52,2.23l-2.69,3.1a6.45,6.45,0,0,0-1.6,4.29l0,15.08a16.55,16.55,0,0,0,.23,2.72v.07a16.29,16.29,0,0,1,0,5.26l-.57,3.74a3.54,3.54,0,0,0,0,.65l.86,14.12,5.73-.35,0-1.4a1.25,1.25,0,0,0-1-1.26l-.24-.05-.94-9.89,3.26-10,2.27-3a5.59,5.59,0,0,0,1-2.05Z" style="fill:#ebebeb"></path><path d="M254.76,194.05c.12.07.34.25.45.33a8.48,8.48,0,0,0,3.28,7.71c-.5-.72-.41-1.08-.24-2,.65,2.73,2.8,4.59,4.94,6.4s4.38,3.87,4.88,6.63c.11-.48.25-.69.36-1.18a9.29,9.29,0,0,1,.43,1.29c.07.21.13.43.2.63,0-.15.06-.31.08-.47a12.23,12.23,0,0,1,.31-1.51c.17.47.32.66.5,1.13.16-2.8,2.13-5.12,4-7.18s3.81-4.17,4.12-6.95a2,2,0,0,1,0,2,8.49,8.49,0,0,0,2.32-8.06c.1-.09.3-.3.4-.38l1.37,1.39c-1.68-2.69-1.38-6.12-1.32-9.29a51.61,51.61,0,0,0-2-15.34,16.87,16.87,0,0,0-2.06-4.86,7.21,7.21,0,0,0-4.15-3.11c-2.21-.53-6.59.77-6.81,1.17-.21-.38-4.67-1.14-6.81-.34a7.27,7.27,0,0,0-3.74,3.59,16.77,16.77,0,0,0-1.45,5.07,52.77,52.77,0,0,0-.12,15.47c.46,3.29,1.17,6.64-.18,9.39Z" style="fill:#e0e0e0"></path><path d="M273.35,170.22A33.32,33.32,0,0,1,270.87,182c-.09.21-.29.21-.51.2l-.2,0h0L267,180.69l-.08,0-.08,0-2.95,1.8v0l-.1,0c-.21.05-.4.07-.52-.12a33.85,33.85,0,0,1-3.89-11.34,25.09,25.09,0,0,1,5.45-4.78c.55-.42,1-.65,1.24-.49.22-.19.68,0,1.26.34A24.66,24.66,0,0,1,273.35,170.22Z" style="fill:#f0f0f0"></path><path d="M270.16,182.11h0a3.84,3.84,0,0,1-6.24.4v0l2.95-1.8.08,0,.08,0Z" style="fill:#ebebeb"></path><polygon points="266.85 180.68 266.77 180.64 266.84 180.6 266.85 180.68" style="fill:#ebebeb"></polygon><path d="M263.34,182.58h0a1.77,1.77,0,0,0,.4-.08l.22-.09a4.4,4.4,0,0,0,.89-.61l.19-.18a3.48,3.48,0,0,1,1.63-1h.06c0-.38,0-.78,0-1.18h0c0-.22,0-.45,0-.68h0v0h-.13l-.1,0h0c0,.43.05,1,.08,1.39a5.82,5.82,0,0,0-1.41,1.17,3,3,0,0,1-1.56.93.47.47,0,0,1-.35,0,.21.21,0,0,1-.07-.3l-.13-.14A.8.8,0,0,0,263.34,182.58Z" style="fill:#e0e0e0"></path><polygon points="266.77 180.64 266.69 180.69 266.68 180.61 266.77 180.64" style="fill:#ebebeb"></polygon><path d="M269.75,171.63a.6.6,0,0,1,.47-.57h0a.43.43,0,0,0-.48.13,1.25,1.25,0,0,0-.24.49c-.18.56-.36,1.12-.53,1.68.48-.4.88-.76,1.35-1.1A.6.6,0,0,1,269.75,171.63Z" style="fill:#e6e6e6"></path><path d="M270.32,172.26h0a.61.61,0,0,0,.63-.58.6.6,0,0,0-.58-.63.43.43,0,0,0-.16,0,.61.61,0,0,0,.1,1.2Z" style="fill:#e0e0e0"></path><path d="M262.88,172.05a.61.61,0,0,0-.54-.51h0a.43.43,0,0,1,.5.07,1.44,1.44,0,0,1,.29.46c.24.53.49,1.06.73,1.6-.53-.34-1-.65-1.47-.93A.61.61,0,0,0,262.88,172.05Z" style="fill:#e6e6e6"></path><path d="M262.39,172.74h0a.6.6,0,1,1-.2-1.19h.16a.61.61,0,0,1,.05,1.2Z" style="fill:#e0e0e0"></path><path d="M269,176.73l-.81,1.27s-.44-.57-.67-.13a3.59,3.59,0,0,1-.7.83l0,0s0,0,0,0l0,0-.08.07,0,0-.07,0s0,0-.06,0l0,0a.35.35,0,0,1-.09-.06l0,0h0l0,0a3.61,3.61,0,0,1-.8-.75c-.28-.41-.65.22-.65.22l-1-1.15.71.37.58-.26.78.26.44,0h.11l.43,0,.76-.36.6.19Z" style="fill:#e0e0e0"></path><path d="M266.5,178.72h0v0c.05.53.15,1.07.22,1.6,0,.09,0,.18,0,.26h.05s0,0,0,0h0a3.56,3.56,0,0,1,1.71.81l.14.1a4.38,4.38,0,0,0,.92.51,1.58,1.58,0,0,0,.37.11,1.51,1.51,0,0,0,.37,0s0,0,0,0a.78.78,0,0,0,.16-.86l-.1.16a.22.22,0,0,1,0,.31.56.56,0,0,1-.34.09,3,3,0,0,1-1.66-.74,5.86,5.86,0,0,0-1.54-1c0-.43-.07-1-.09-1.38h-.26Z" style="fill:#e0e0e0"></path><path d="M274.51,166.75a2.93,2.93,0,0,0-1-2.94.77.77,0,0,1,.1.8.53.53,0,0,0-.55-.41,1.21,1.21,0,0,1,.45,1.17.42.42,0,0,0-.43-.29,3.93,3.93,0,0,0,.57,1.14l-.74-.09c.13.27.26.62.39.89a.84.84,0,0,1-.52-.22,4.38,4.38,0,0,1,.53.88,1.69,1.69,0,0,0-1.21-.55c-.07,0-.14.07-.19.12l.23.24-.46.06a.44.44,0,0,1,.23,0,.19.19,0,0,1,.14.16.13.13,0,0,1-.16.12c.08,0,.14.12.15.2a1.62,1.62,0,0,1,1.51-.06A2.18,2.18,0,0,0,274.51,166.75Z" style="fill:#ebebeb"></path><path d="M257.28,167.8a2.94,2.94,0,0,1,.67-3.05.76.76,0,0,0,0,.81.52.52,0,0,1,.49-.47,1.22,1.22,0,0,0-.31,1.21.46.46,0,0,1,.4-.34,3.78,3.78,0,0,1-.44,1.2l.73-.17c-.09.28-.18.65-.27.93a.9.9,0,0,0,.48-.28,3.66,3.66,0,0,0-.41.93,1.65,1.65,0,0,1,1.13-.69c.06,0,.14.06.2.09l-.2.27h.46a.79.79,0,0,0-.22,0,.22.22,0,0,0-.12.18c0,.08.11.14.17.1s-.12.14-.12.22a1.62,1.62,0,0,0-1.51.12A2.17,2.17,0,0,1,257.28,167.8Z" style="fill:#ebebeb"></path><path d="M347.94,268.51a2.07,2.07,0,0,0-1.17,3.77v7.24H318.51v-7.24a2.07,2.07,0,1,0-2.34,0v7.24H287.91v-7.24a2.07,2.07,0,1,0-2.34,0v7.24H257.5v-7.24a2.07,2.07,0,0,0-1.17-3.77h-.2a2.07,2.07,0,0,0-1.17,3.77v7.24H226.9v-7.24a2.07,2.07,0,1,0-2.35,0v7.24H196.29v-7.24a2.06,2.06,0,1,0-2.34,0v7.24H165.69v-7.24a2.07,2.07,0,1,0-2.34,0v7.24H161v2.73h2.32v42H161v6h2.32v7.66h2.34v-7.66H194v7.66h2.34v-7.66h28.26v7.66h2.35v-7.66H255v7.66h2.54v-7.66h28.07v7.66h2.34v-7.66h28.26v7.66h2.34v-7.66h28.26v7.66h2.34V272.28a2.07,2.07,0,0,0-1.17-3.77ZM194,324.23H165.69v-42H194Zm30.6,0H196.29v-42h28.26Zm30.41,0H226.9v-42H255Zm30.61,0H257.5v-42h28.07Zm30.6,0H287.91v-42h28.26Zm30.6,0H318.51v-42h28.26Z" style="fill:#f5f5f5"></path><rect x="416.78" y="398.49" width="33.12" height="0.25" style="fill:#ebebeb"></rect><rect x="322.53" y="401.21" width="8.69" height="0.25" style="fill:#ebebeb"></rect><rect x="396.59" y="389.21" width="19.19" height="0.25" style="fill:#ebebeb"></rect><rect x="52.46" y="390.89" width="43.19" height="0.25" style="fill:#ebebeb"></rect><rect x="104.56" y="390.89" width="6.33" height="0.25" style="fill:#ebebeb"></rect><rect x="131.47" y="395.11" width="93.68" height="0.25" style="fill:#ebebeb"></rect><path d="M238.4,337.8H45.3a5.71,5.71,0,0,1-5.71-5.71V60.66A5.71,5.71,0,0,1,45.3,55H238.4a5.71,5.71,0,0,1,5.71,5.71V332.09A5.71,5.71,0,0,1,238.4,337.8ZM45.3,55.2a5.47,5.47,0,0,0-5.46,5.46V332.09a5.47,5.47,0,0,0,5.46,5.46H238.4a5.47,5.47,0,0,0,5.46-5.46V60.66a5.47,5.47,0,0,0-5.46-5.46Z" style="fill:#ebebeb"></path><path d="M454.7,337.8H261.6a5.71,5.71,0,0,1-5.71-5.71V60.66A5.71,5.71,0,0,1,261.6,55H454.7a5.71,5.71,0,0,1,5.71,5.71V332.09A5.71,5.71,0,0,1,454.7,337.8ZM261.6,55.2c-3,0-5.46,2.45-5.71,6.41V333c.25,2.06,2.7,4.51,5.71,4.51H454.7a5.47,5.47,0,0,0,5.46-5.46V60.66a5.47,5.47,0,0,0-5.46-5.46Z" style="fill:#ebebeb"></path><rect y="382.4" width="500" height="0.25" style="fill:#ebebeb"></rect></g><g id="freepik--Shadow--inject-75"><ellipse id="freepik--path--inject-75" cx="250" cy="415.69" rx="193.89" ry="11.32" style="fill:#f5f5f5"></ellipse></g><g id="freepik--Sign--inject-75"><path d="M116.26,126.42l-2.43-1.76L139.9,88.75a2.12,2.12,0,0,1,2.31-.8,2.06,2.06,0,0,1,1.53,1.86L145.91,121l-3,.21-2-28.76ZM142.34,90.5h0Z" style="fill:#EC407A"></path><path d="M146.73,121.69,144.28,120l24.53-34.7a2.11,2.11,0,0,1,2.31-.81,2.07,2.07,0,0,1,1.54,1.86l2.17,30.9-3,.21-2-28.42Z" style="fill:#EC407A"></path><path d="M175.71,118.05l-2.43-1.75,24.79-34.45a2.14,2.14,0,0,1,2.31-.81,2.08,2.08,0,0,1,1.54,1.87l2.16,31.28-3,.2-2-28.83Zm24.8-34.46h0Z" style="fill:#EC407A"></path><path d="M105.78,96.41l-.5-3c.8-.14,81-13.76,123.55-14.23l0,3C186.58,82.69,106.58,96.27,105.78,96.41Z" style="fill:#EC407A"></path><path d="M105.78,128.58l-.5-3c.8-.14,81-13.76,123.55-14.23l0,3C186.58,114.86,106.58,128.44,105.78,128.58Z" style="fill:#EC407A"></path><path d="M376.43,126.42l-24.66-34-2,28.76-3-.21,2.16-31.18A2.08,2.08,0,0,1,350.48,88a2.15,2.15,0,0,1,2.32.81l26.05,35.9ZM350.36,90.51h0Z" style="fill:#EC407A"></path><path d="M346,121.69,322.85,89l-2,28.42-3-.21L320,86.32a2.06,2.06,0,0,1,1.54-1.87,2.11,2.11,0,0,1,2.31.81L348.41,120Z" style="fill:#EC407A"></path><path d="M317,118.05,293.59,85.56l-2,28.83-3-.2,2.17-31.28A2.08,2.08,0,0,1,292.31,81a2.14,2.14,0,0,1,2.31.82l24.79,34.44ZM292.18,83.6h0Z" style="fill:#EC407A"></path><path d="M386.91,96.41c-.81-.14-80.8-13.72-123.08-14.19l0-3c42.52.47,122.75,14.09,123.55,14.23Z" style="fill:#EC407A"></path><path d="M386.91,128.58c-.81-.14-80.8-13.72-123.08-14.19l0-3c42.52.47,122.75,14.09,123.55,14.23Z" style="fill:#EC407A"></path><path d="M316.07,95c-2.26,9.36-10.69,16.25-19.81,19.35s-19,3-28.61,3l-61.81-.51c-7.35-.06-15.88-.71-20.06-6.77-3.67-5.32-2.13-13,1.91-18s11.08-7.63,16.94-10.38c3-5.78,8.91-9.61,15.14-11.52S232.59,68,239.1,67.73l55.46-1.84A12.75,12.75,0,0,1,304.7,71c2.23,3.06,3.36,6.82,5.66,9.82,1.41,1.83,3.22,3.34,4.51,5.25S316.62,92.71,316.07,95Z"></path><path d="M316.07,95c-2.26,9.36-10.69,16.25-19.81,19.35s-19,3-28.61,3l-61.81-.51c-7.35-.06-15.88-.71-20.06-6.77-3.67-5.32-2.13-13,1.91-18s11.08-7.63,16.94-10.38c3-5.78,8.91-9.61,15.14-11.52S232.59,68,239.1,67.73l55.46-1.84A12.75,12.75,0,0,1,304.7,71c2.23,3.06,3.36,6.82,5.66,9.82,1.41,1.83,3.22,3.34,4.51,5.25S316.62,92.71,316.07,95Z" style="fill:#fff;opacity:0.7000000000000001"></path><g style="opacity:0.2"><path d="M238.45,98.39v5.52H219.07V99.54l9.65-11.21h-9.34V82.81H238v4.37l-9.64,11.21Z"></path><path d="M239.53,93.36c0-6.39,5-11,11.91-11s11.9,4.64,11.9,11-5,11-11.9,11S239.53,99.75,239.53,93.36Zm16.64,0c0-3.28-2.11-5.27-4.73-5.27s-4.73,2-4.73,5.27,2.11,5.28,4.73,5.28S256.17,96.65,256.17,93.36Z"></path><path d="M265.08,93.36c0-6.39,5-11,11.91-11s11.9,4.64,11.9,11-5,11-11.9,11S265.08,99.75,265.08,93.36Zm16.64,0c0-3.28-2.11-5.27-4.73-5.27s-4.73,2-4.73,5.27,2.11,5.28,4.73,5.28S281.72,96.65,281.72,93.36Z"></path></g><path d="M236.89,96.63v5.51H217.51V97.77l9.64-11.21h-9.34V81.05H236.4v4.37l-9.64,11.21Z" style="fill:#EC407A"></path><path d="M238,91.59c0-6.38,5-11,11.9-11s11.9,4.65,11.9,11-5,11-11.9,11S238,98,238,91.59Zm16.63,0c0-3.28-2.11-5.27-4.73-5.27s-4.73,2-4.73,5.27,2.11,5.28,4.73,5.28S254.6,94.88,254.6,91.59Z" style="fill:#EC407A"></path><path d="M263.52,91.59c0-6.38,5-11,11.9-11s11.91,4.65,11.91,11-5,11-11.91,11S263.52,98,263.52,91.59Zm16.63,0c0-3.28-2.11-5.27-4.73-5.27s-4.73,2-4.73,5.27,2.11,5.28,4.73,5.28S280.15,94.88,280.15,91.59Z" style="fill:#EC407A"></path></g><g id="freepik--Zoo--inject-75"><path d="M63.51,227.08a10.26,10.26,0,0,1,10.26-10.26h0A10.27,10.27,0,0,1,84,207.43a10.38,10.38,0,0,1,3.54.63,16.48,16.48,0,0,1,16.47-16,10.26,10.26,0,0,1,20.18-2.59,10.23,10.23,0,0,1,18.87,7,10.26,10.26,0,0,1,15.86,8.6,12.08,12.08,0,0,1-.1,1.35,16.48,16.48,0,0,1,13,24.09,10.24,10.24,0,0,1,1.84,19.09,9.46,9.46,0,0,1,.06,1.07,10.27,10.27,0,0,1-10.26,10.26,10.86,10.86,0,0,1-1.63-.14,10.23,10.23,0,0,1-8.63,4.73,10.79,10.79,0,0,1-2.29-.26,16.47,16.47,0,0,1-30.2-4.33h-1.59a10.25,10.25,0,0,1-16.89,9.66,10.23,10.23,0,0,1-13.51-7.75,16.45,16.45,0,0,1-21.74-14.69A10.24,10.24,0,0,1,66,233.73,10.2,10.2,0,0,1,63.51,227.08Z" style="fill:#EC407A"></path><path d="M63.51,240.39a10.23,10.23,0,0,1,2.39-6.56,10.08,10.08,0,0,1,4.89-1.27c.23,0,.47,0,.7,0A10,10,0,0,1,88.14,231a11.34,11.34,0,0,1,22,3.51h0A11.34,11.34,0,0,1,131,228.71a10,10,0,0,1,17.74,4.22,10.07,10.07,0,0,1,6.64,5.93,10,10,0,0,1,17.37,2.63,11.06,11.06,0,0,1,6.54.8,10.25,10.25,0,0,1-5.54,7.29,9.46,9.46,0,0,1,.06,1.07,10.27,10.27,0,0,1-10.26,10.26,10.86,10.86,0,0,1-1.63-.14,10.23,10.23,0,0,1-8.63,4.73,10.79,10.79,0,0,1-2.29-.26,16.47,16.47,0,0,1-30.2-4.33h-1.59a10.25,10.25,0,0,1-16.89,9.66,10.23,10.23,0,0,1-13.51-7.75,16.45,16.45,0,0,1-21.74-14.69A10.25,10.25,0,0,1,63.51,240.39Z" style="opacity:0.1"></path><path d="M148.85,215.7a7.53,7.53,0,0,1,3.36-.25,7.37,7.37,0,0,1,6.07,6.07,7.53,7.53,0,0,1-.25,3.36,1.6,1.6,0,0,1-2.93.25,15.78,15.78,0,0,0-6.5-6.5A1.6,1.6,0,0,1,148.85,215.7Z" style="opacity:0.1"></path><path d="M120.33,207.18a7.3,7.3,0,0,1,12.86,1.68,1.59,1.59,0,0,1-2.16,2,15.79,15.79,0,0,0-9.12-1.19A1.6,1.6,0,0,1,120.33,207.18Z" style="opacity:0.1"></path><path d="M98.08,208.73a9.75,9.75,0,0,1,16-6.67,2.14,2.14,0,0,1-1.17,3.74,21,21,0,0,0-11.34,4.73A2.13,2.13,0,0,1,98.08,208.73Z" style="opacity:0.1"></path><path d="M59.08,382.34l-.59-155.69a70.92,70.92,0,0,1,1.56-15.16l19.34-90.38C82,109,87.55,98.88,94.82,92.14c8.27-7.67,21.73-1.72,21.73,9.57V382.34Z" style="fill:#263238"></path><g style="opacity:0.6000000000000001"><path d="M59.08,382.34l-.59-155.69a70.92,70.92,0,0,1,1.56-15.16l19.34-90.38C82,109,87.55,98.88,94.82,92.14c8.27-7.67,21.73-1.72,21.73,9.57V382.34Z" style="fill:#fff"></path></g><path d="M442.92,382.38l.59-155.69A70.85,70.85,0,0,0,442,211.53l-19.34-90.38c-2.73-12.79-8.77-23.31-16.62-30a12.47,12.47,0,0,0-20.54,9.51V382.38Z" style="fill:#263238"></path><g style="opacity:0.6000000000000001"><path d="M442.92,382.38l.59-155.69A70.85,70.85,0,0,0,442,211.53l-19.34-90.38c-2.73-12.79-8.77-23.31-16.62-30a12.47,12.47,0,0,0-20.54,9.51V382.38Z" style="fill:#fff"></path></g><path d="M42.66,295.05v-35a24.55,24.55,0,0,1,2.75-11.3l11-21.16,58.53,9,35.24,35.3,38.57,1.19,5.74,26.35-39.42,43H42.66Z" style="fill:#263238"></path><g style="opacity:0.5"><path d="M42.66,295.05V261a28.29,28.29,0,0,1,3.16-13l10.54-20.36,58.53,9,35.24,35.3,38.57,1.19,5.74,26.35-39.42,43H42.66Z" style="fill:#fff"></path></g><path d="M188.07,382.51H42.66V314.32l74,.25,49.52,25.79c18.71,0,22.08,7.88,21.9,12.61Z" style="fill:#263238"></path><g style="opacity:0.4"><path d="M188.07,382.51H42.66V314.32l74,.25,49.52,25.79c18.71,0,22.08,7.88,21.9,12.61Z" style="fill:#fff"></path></g><g id="freepik--Well--inject-75"><path d="M115.78,251.2A11.85,11.85,0,0,0,128,248.41a15.64,15.64,0,0,0,4.37-12.06,23.33,23.33,0,0,0-4.68-12.19c-3.09-4.24-7.48-7.77-12.63-8.75s-11,1.07-13.62,5.63v29.82Z" style="fill:#263238"></path><path d="M115.78,251.2A11.85,11.85,0,0,0,128,248.41a15.64,15.64,0,0,0,4.37-12.06,23.33,23.33,0,0,0-4.68-12.19c-3.09-4.24-7.48-7.77-12.63-8.75s-11,1.07-13.62,5.63v29.82Z" style="fill:#263238"></path><path d="M115.78,251.2A11.85,11.85,0,0,0,128,248.41a15.64,15.64,0,0,0,4.37-12.06,23.33,23.33,0,0,0-4.68-12.19c-3.09-4.24-7.48-7.77-12.63-8.75s-11,1.07-13.62,5.63v29.82Z" style="fill:#fff;opacity:0.7000000000000001"></path><path d="M98.3,131.88a18.81,18.81,0,0,0,1.87-6.21s-18.11,3.1-22,7.15c-7,7.17-2.65,99-2.65,99l19.71.07S89.22,137.69,98.3,131.88Z" style="fill:#EC407A"></path><path d="M98.3,131.88a18.81,18.81,0,0,0,1.87-6.21s-18.11,3.1-22,7.15c-7,7.17-2.65,99-2.65,99l19.71.07S89.22,137.69,98.3,131.88Z" style="fill:#fff;opacity:0.4"></path><g style="opacity:0.30000000000000004"><path d="M87.73,139.27c-2.89,4.82-.23,88.56.28,92.63h1.5C87.28,217.23,87.73,139.27,87.73,139.27Z" style="fill:#fff"></path><path d="M81,231.87h1.84c-2.54-22.59,3-99.64,6.68-101.25v-.1a20.86,20.86,0,0,0-7.52,4C77.89,138,80.51,226.72,81,231.87Z" style="fill:#fff"></path></g><path d="M63.61,222.33a13.24,13.24,0,0,0-9.43,3.9,20.92,20.92,0,0,0-5.21,9c-.61,2-1,4.3,0,6.14,1.34,2.39,4.44,3,7.17,3.3a73.36,73.36,0,0,0,9.61.24,19.39,19.39,0,0,0,6.24-1,7.9,7.9,0,0,0,4.57-4.15,8.07,8.07,0,0,0-.33-6.17C74.12,228.5,69.49,222.53,63.61,222.33Z" style="fill:#263238"></path><path d="M63.61,222.33a13.24,13.24,0,0,0-9.43,3.9,20.92,20.92,0,0,0-5.21,9c-.61,2-1,4.3,0,6.14,1.34,2.39,4.44,3,7.17,3.3a73.36,73.36,0,0,0,9.61.24,19.39,19.39,0,0,0,6.24-1,7.9,7.9,0,0,0,4.57-4.15,8.07,8.07,0,0,0-.33-6.17C74.12,228.5,69.49,222.53,63.61,222.33Z" style="fill:#fff;opacity:0.7000000000000001"></path><path d="M66.88,240.09l60.55,2.39c0-.11-4.11-12.56-4.12-12.68a2.63,2.63,0,0,0-2.87-2.37,2.7,2.7,0,0,0-1.06.34,4.86,4.86,0,0,0-9.13.12,3.52,3.52,0,0,0-.86,0,7.67,7.67,0,0,0-8.22-9.31,7.59,7.59,0,0,0-3.31,1.13,4.21,4.21,0,0,0-6.47.4,6,6,0,0,0-9.76,4.24,4.1,4.1,0,0,0-1.88-.26,4.24,4.24,0,0,0-3.82,3.76,2.62,2.62,0,0,0-4.78,1.38,2.12,2.12,0,0,0-1.53-.62C66.8,228.35,66.35,240,66.88,240.09Z" style="fill:#EC407A"></path><g style="opacity:0.5"><path d="M66.88,240.09l60.55,2.39c0-.11-4.11-12.56-4.12-12.68a2.63,2.63,0,0,0-2.87-2.37,2.7,2.7,0,0,0-1.06.34,4.86,4.86,0,0,0-9.13.12,3.52,3.52,0,0,0-.86,0,7.67,7.67,0,0,0-8.22-9.31,7.59,7.59,0,0,0-3.31,1.13,4.21,4.21,0,0,0-6.47.4,6,6,0,0,0-9.76,4.24,4.1,4.1,0,0,0-1.88-.26,4.24,4.24,0,0,0-3.82,3.76,2.62,2.62,0,0,0-4.78,1.38,2.12,2.12,0,0,0-1.53-.62C66.8,228.35,66.35,240,66.88,240.09Z" style="fill:#fff"></path></g><ellipse cx="99.4" cy="242.89" rx="30.33" ry="8.71" style="fill:#EC407A"></ellipse><path d="M73.83,242.79a32.68,32.68,0,0,1,19.47-6,25.14,25.14,0,0,0-13.63,5.43,14.59,14.59,0,0,1-2.91,2.11,3.54,3.54,0,0,1-3.43-.06C73.32,244,73.83,243.11,73.83,242.79Z" style="fill:#fff;opacity:0.2"></path><path d="M93.29,240a36.41,36.41,0,0,1,18.36,1.68,5.07,5.07,0,0,0,2.12.47,1.6,1.6,0,0,0,1.51-1.32c.06-.93-1-1.52-1.83-1.84a25.9,25.9,0,0,0-11.08-1.76,32.79,32.79,0,0,0-4.05.75C96.63,238.4,94.89,239.76,93.29,240Z" style="fill:#fff;opacity:0.2"></path><path d="M55.35,238.54a8.67,8.67,0,0,0-5.5,1.84,9.68,9.68,0,0,0-3,4.25,3.12,3.12,0,0,0,0,2.91c.78,1.13,2.59,1.44,4.18,1.56a50,50,0,0,0,5.61.11,13.38,13.38,0,0,0,3.64-.49,4.4,4.4,0,0,0,2.67-2,3.19,3.19,0,0,0-.2-2.92C61.48,241.46,58.78,238.63,55.35,238.54Z" style="fill:#263238"></path><path d="M55.35,238.54a8.67,8.67,0,0,0-5.5,1.84,9.68,9.68,0,0,0-3,4.25,3.12,3.12,0,0,0,0,2.91c.78,1.13,2.59,1.44,4.18,1.56a50,50,0,0,0,5.61.11,13.38,13.38,0,0,0,3.64-.49,4.4,4.4,0,0,0,2.67-2,3.19,3.19,0,0,0-.2-2.92C61.48,241.46,58.78,238.63,55.35,238.54Z" style="fill:#fff;opacity:0.7000000000000001"></path><path d="M66.92,238.11A9.81,9.81,0,0,0,60,241a15.4,15.4,0,0,0-3.85,6.63,5.85,5.85,0,0,0,0,4.54c1,1.77,3.28,2.25,5.29,2.44a54.47,54.47,0,0,0,7.11.18,14.37,14.37,0,0,0,4.61-.76A5.87,5.87,0,0,0,76.53,251a6,6,0,0,0-.25-4.57C74.69,242.68,71.27,238.26,66.92,238.11Z" style="fill:#263238"></path><path d="M66.92,238.11A9.81,9.81,0,0,0,60,241a15.4,15.4,0,0,0-3.85,6.63,5.85,5.85,0,0,0,0,4.54c1,1.77,3.28,2.25,5.29,2.44a54.47,54.47,0,0,0,7.11.18,14.37,14.37,0,0,0,4.61-.76A5.87,5.87,0,0,0,76.53,251a6,6,0,0,0-.25-4.57C74.69,242.68,71.27,238.26,66.92,238.11Z" style="fill:#fff;opacity:0.7000000000000001"></path><path d="M91.39,247.19A40.74,40.74,0,0,0,78.56,249a16.09,16.09,0,0,0-7.09,4.24c-.84,1-1.35,2,0,2.91,1.83,1.13,6,1.44,9.75,1.56,4.35.14,8.72.18,13.08.12a73,73,0,0,0,8.49-.49c2.68-.36,5.14-1,6.23-2s.68-2-.46-2.93C105.68,250.12,99.39,247.29,91.39,247.19Z" style="fill:#263238"></path><path d="M91.39,247.19A40.74,40.74,0,0,0,78.56,249a16.09,16.09,0,0,0-7.09,4.24c-.84,1-1.35,2,0,2.91,1.83,1.13,6,1.44,9.75,1.56,4.35.14,8.72.18,13.08.12a73,73,0,0,0,8.49-.49c2.68-.36,5.14-1,6.23-2s.68-2-.46-2.93C105.68,250.12,99.39,247.29,91.39,247.19Z" style="fill:#fff;opacity:0.7000000000000001"></path><path d="M125.29,235.15a10.69,10.69,0,0,0-7.77,3.33,18.13,18.13,0,0,0-4.28,7.66c-.51,1.72-.81,3.68,0,5.25,1.11,2,3.65,2.6,5.9,2.82a57.87,57.87,0,0,0,7.9.21,15.42,15.42,0,0,0,5.14-.88A6.6,6.6,0,0,0,136,250a7.13,7.13,0,0,0-.27-5.27C133.93,240.42,130.12,235.32,125.29,235.15Z" style="fill:#263238"></path><path d="M125.29,235.15a10.69,10.69,0,0,0-7.77,3.33,18.13,18.13,0,0,0-4.28,7.66c-.51,1.72-.81,3.68,0,5.25,1.11,2,3.65,2.6,5.9,2.82a57.87,57.87,0,0,0,7.9.21,15.42,15.42,0,0,0,5.14-.88A6.6,6.6,0,0,0,136,250a7.13,7.13,0,0,0-.27-5.27C133.93,240.42,130.12,235.32,125.29,235.15Z" style="fill:#fff;opacity:0.7000000000000001"></path><path d="M115.88,246.25a8.72,8.72,0,0,0-5.5,1.84,9.68,9.68,0,0,0-3,4.25,3.12,3.12,0,0,0,0,2.91c.78,1.13,2.59,1.44,4.18,1.56a52.53,52.53,0,0,0,5.61.12,13.78,13.78,0,0,0,3.64-.49,4.45,4.45,0,0,0,2.67-2,3.19,3.19,0,0,0-.19-2.92C122,249.17,119.31,246.34,115.88,246.25Z" style="fill:#263238"></path><path d="M115.88,246.25a8.72,8.72,0,0,0-5.5,1.84,9.68,9.68,0,0,0-3,4.25,3.12,3.12,0,0,0,0,2.91c.78,1.13,2.59,1.44,4.18,1.56a52.53,52.53,0,0,0,5.61.12,13.78,13.78,0,0,0,3.64-.49,4.45,4.45,0,0,0,2.67-2,3.19,3.19,0,0,0-.19-2.92C122,249.17,119.31,246.34,115.88,246.25Z" style="fill:#fff;opacity:0.7000000000000001"></path></g><path d="M395.32,237.46a11.51,11.51,0,0,1-4.72-1l.59-1.33c8.12,3.62,18.25-5.22,20.36-8.53,2.31-3.62,3.23-7.93,4.12-12.11l3.38-15.86c2.18-10.25,4.44-20.86,3-31.41l1.44-.2c1.5,10.81-.89,22-3,31.91l-3.39,15.86c-.87,4.1-1.86,8.75-4.31,12.59C410.63,230.77,402.92,237.46,395.32,237.46Z" style="fill:#EC407A"></path><path d="M373,210.09a7.41,7.41,0,0,1-6.88-2.14,13.17,13.17,0,0,1-1.68-2.45,10.49,10.49,0,0,0-1.81-2.5,10.28,10.28,0,0,0-3-1.66c-.5-.21-1-.43-1.52-.67-3.83-1.88-6.85-5.64-8.51-10.6-1.45-4.35-1.72-8.94-2-13.38l1.48-.08c.25,4.34.52,8.83,1.91,13,.88,2.65,3.07,7.44,7.75,9.73.45.23.93.42,1.43.63a8.85,8.85,0,0,1,5.55,4.79,12.56,12.56,0,0,0,1.49,2.19,6,6,0,0,0,6.59,1.33l.62,1.35A7.17,7.17,0,0,1,373,210.09Z" style="fill:#EC407A"></path><path d="M395.36,229a3.1,3.1,0,0,1-1.51-.28l-4.16-2,5.7,1a4,4,0,0,0,2.69-2.06,18,18,0,0,0,.87-1.82,11,11,0,0,1,1.78-3.12c2.23-2.49,5.65-2.44,9-2.39,1,0,2.05,0,3,0,6.77-.44,13.19-5.73,16.37-13.47,2.91-7.09,3.06-15.25,3.18-22.44l1.25,0c-.13,7.31-.28,15.59-3.28,22.9-3.35,8.17-10.2,13.76-17.44,14.24-1,.07-2.08.05-3.12,0-3.17-.05-6.16-.09-8,2a9.85,9.85,0,0,0-1.55,2.78,17.42,17.42,0,0,1-.94,1.95,5.87,5.87,0,0,1-2.3,2.26Z" style="fill:#EC407A"></path><path d="M380.36,176.48a5.61,5.61,0,0,0-5.21,4.82c-3,21.75-12,136.48-14.61,167.67a36.53,36.53,0,0,1-8.28,20.38l-10.83,13h58.79l-3.39-5.06a27.57,27.57,0,0,1-4.65-16.1l-1.87-88.66a7.23,7.23,0,0,1,3.57-6l6.79-4a3.3,3.3,0,0,0,1.56-3.49l-1.34-6.68a3.28,3.28,0,0,0-3.67-2.6l-4.52.62a1.53,1.53,0,0,1-1.74-1.55l1.64-67a5.61,5.61,0,0,0-6-5.74Z" style="fill:#263238"></path><path d="M380.36,176.48a5.61,5.61,0,0,0-5.21,4.82c-3,21.75-12,136.48-14.61,167.67a36.53,36.53,0,0,1-8.28,20.38l-10.83,13h58.79l-3.39-5.06a27.57,27.57,0,0,1-4.65-16.1l-1.87-88.66a7.23,7.23,0,0,1,3.57-6l6.79-4a3.3,3.3,0,0,0,1.56-3.49l-1.34-6.68a3.28,3.28,0,0,0-3.67-2.6l-4.52.62a1.53,1.53,0,0,1-1.74-1.55l1.64-67a5.61,5.61,0,0,0-6-5.74Z" style="fill:#fff;opacity:0.30000000000000004"></path><path d="M381.52,382.37l1.86-41.23a1.06,1.06,0,0,0-2.11-.24l-4.56,24.74a1.06,1.06,0,0,1-2.1-.17L374,322.6a1.06,1.06,0,0,0-2.12-.1L365,382.37Z" style="opacity:0.2"></path><path d="M324.85,151.1a11,11,0,0,1,11-11h0a11,11,0,0,1,14.72-9.37,17.65,17.65,0,0,1,17.64-17.14,11,11,0,0,1,21.6-2.77,11,11,0,0,1,20.36,5.7,11.55,11.55,0,0,1-.16,1.78,11,11,0,0,1,17,9.2,9.9,9.9,0,0,1-.11,1.45,17.66,17.66,0,0,1,16,17.58,17.45,17.45,0,0,1-2,8.21,11,11,0,0,1,2,20.44,10.6,10.6,0,0,1,.06,1.14,10.92,10.92,0,0,1-12.72,10.83,11,11,0,0,1-9.25,5.06,10.86,10.86,0,0,1-2.44-.28,17.63,17.63,0,0,1-32.33-4.63h-1.71a11,11,0,0,1-18.07,10.34,11,11,0,0,1-14.46-8.3,17.42,17.42,0,0,1-5.66.95,17.65,17.65,0,0,1-17.61-16.67,10.93,10.93,0,0,1-1.16-15.41A10.93,10.93,0,0,1,324.85,151.1Z" style="fill:#EC407A"></path><path d="M324.85,165.35a10.89,10.89,0,0,1,2.56-7,10.64,10.64,0,0,1,5.23-1.36c.26,0,.5,0,.75,0a10.76,10.76,0,0,1,17.83-1.71,12.14,12.14,0,0,1,23.52,3.75h0a12.15,12.15,0,0,1,22.3-6.2,10.75,10.75,0,0,1,19,4.52,10.78,10.78,0,0,1,7.11,6.34,10.74,10.74,0,0,1,18.6,2.82,11.81,11.81,0,0,1,2.07-.19,12,12,0,0,1,4.92,1,11,11,0,0,1-5.92,7.81,10.6,10.6,0,0,1,.06,1.14,10.92,10.92,0,0,1-12.72,10.83,11,11,0,0,1-9.25,5.06,10.86,10.86,0,0,1-2.44-.28,17.63,17.63,0,0,1-32.33-4.63h-1.71a11,11,0,0,1-18.07,10.34,11,11,0,0,1-14.46-8.3,17.42,17.42,0,0,1-5.66.95,17.65,17.65,0,0,1-17.61-16.67A10.94,10.94,0,0,1,324.85,165.35Z" style="opacity:0.1"></path><path d="M416.21,138.93a8,8,0,0,1,3.59-.27A7.84,7.84,0,0,1,426,148.75a1.72,1.72,0,0,1-3.14.27,16.83,16.83,0,0,0-6.95-7A1.71,1.71,0,0,1,416.21,138.93Z" style="opacity:0.1"></path><path d="M385.67,129.8a8,8,0,0,1,2.69-2.4,7.85,7.85,0,0,1,11.09,4.2,1.72,1.72,0,0,1-2.32,2.13,16.8,16.8,0,0,0-9.76-1.28A1.72,1.72,0,0,1,385.67,129.8Z" style="opacity:0.1"></path><path d="M361.86,131.46A10.44,10.44,0,0,1,379,124.32a2.29,2.29,0,0,1-1.25,4,22.45,22.45,0,0,0-12.13,5.06A2.29,2.29,0,0,1,361.86,131.46Z" style="opacity:0.1"></path><path d="M388.74,250.89A43.58,43.58,0,0,0,403,244.71a2,2,0,0,0,.83-.84c.11-.33,0-.62-.48-.7-4.14,3.24-10.91,4.94-17.29,4.34-.8.66-1.57,1.75-1,2.5A4.28,4.28,0,0,0,388.74,250.89Z" style="fill:#EC407A"></path><path d="M388.74,250.89A43.58,43.58,0,0,0,403,244.71a2,2,0,0,0,.83-.84c.11-.33,0-.62-.48-.7-4.14,3.24-10.91,4.94-17.29,4.34-.8.66-1.57,1.75-1,2.5A4.28,4.28,0,0,0,388.74,250.89Z" style="fill:#fff;opacity:0.4"></path><path d="M391.57,233.13l-.48-5.26,0-.52-.1-1c.73-2.29-2.32-13-17-13.08a42.14,42.14,0,0,0-11.22,1.67h0s-9.52,2.79-12.44,0a1.91,1.91,0,0,1-.33-.37,3.13,3.13,0,0,1-.23-.37c-1.52-3.13,7.06-4.94,7.06-4.94l5.93.49h0a3.69,3.69,0,0,0,.72-.08,11.41,11.41,0,0,0,1.12-.28c.52-.14,1.12-.31,1.84-.47s1.36-.29,2-.41q1.86-.35,3.54-.54h0l.29,0,1-.1a32.53,32.53,0,0,1,7.33.09h.11l.9.15.12,0a17.82,17.82,0,0,1,7.38,3h0c.36.26.7.52,1,.79a22.44,22.44,0,0,1,2.24,2.22c.16.19.32.4.49.58a18.56,18.56,0,0,1,3.45,5.38c.16.42.29.82.4,1.22C398.78,228.82,391.57,233.13,391.57,233.13Z" style="fill:#EC407A"></path><g style="isolation:isolate;opacity:0.4"><path d="M391.57,233.13l-.48-5.26,0-.52-.1-1c.73-2.29-2.32-13-17-13.08a42.14,42.14,0,0,0-11.22,1.67h0s-9.52,2.79-12.44,0a1.91,1.91,0,0,1-.33-.37,3.13,3.13,0,0,1-.23-.37c-1.52-3.13,7.06-4.94,7.06-4.94l5.93.49h0a3.69,3.69,0,0,0,.72-.08,11.41,11.41,0,0,0,1.12-.28c.52-.14,1.12-.31,1.84-.47s1.36-.29,2-.41q1.86-.35,3.54-.54h0l.29,0,1-.1a32.53,32.53,0,0,1,7.33.09h.11l.9.15.12,0a17.82,17.82,0,0,1,7.38,3h0c.36.26.7.52,1,.79a22.44,22.44,0,0,1,2.24,2.22c.16.19.32.4.49.58a18.56,18.56,0,0,1,3.45,5.38c.16.42.29.82.4,1.22C398.78,228.82,391.57,233.13,391.57,233.13Z" style="fill:#fff"></path></g><path d="M346.3,215c-.41,0-.95-.06-1.34-.07a12.09,12.09,0,0,1,4.78-.73,3.13,3.13,0,0,0,.23.37,1.91,1.91,0,0,0,.33.37,18.29,18.29,0,0,0-5.35,1.27A5.59,5.59,0,0,1,346.3,215Z" style="fill:#263238"></path><path d="M358.6,212.21a.89.89,0,1,1-.88-.88A.89.89,0,0,1,358.6,212.21Z" style="fill:#263238"></path><path d="M394.73,245.86a3.51,3.51,0,0,1-2.59,4.23c-6.9,1.66-14.47,2.48-22,.83a8.67,8.67,0,0,1-4.47-2c-1.62-1.64-1.8-4.3-1-6.48a17.85,17.85,0,0,1,3.81-5.72c-.06,1.06-.06,2,.88,2.47a8.29,8.29,0,0,0,3.08.74c4.57.5,17.74.23,19.73,1.56A7.77,7.77,0,0,1,394.73,245.86Z" style="fill:#EC407A"></path><path d="M394.73,245.86a3.51,3.51,0,0,1-2.59,4.23c-6.9,1.66-14.47,2.48-22,.83a8.67,8.67,0,0,1-4.47-2c-1.62-1.64-1.8-4.3-1-6.48a17.85,17.85,0,0,1,3.81-5.72c-.06,1.06-.06,2,.88,2.47a8.29,8.29,0,0,0,3.08.74c4.57.5,17.74.23,19.73,1.56A7.77,7.77,0,0,1,394.73,245.86Z" style="fill:#fff;opacity:0.30000000000000004"></path><path d="M393.89,237.59a3.52,3.52,0,0,1-2.92,4c-7,1.12-11.94.75-19.3-1.48a8.68,8.68,0,0,1-4.3-2.36c-1.49-1.77-1.46-4.43-.54-6.55a17.72,17.72,0,0,1,4.25-5.4c-.15,1.05-.22,2,.68,2.53a8.51,8.51,0,0,0,3,1c4.52.85,15,2.2,16.87,3.68A7.8,7.8,0,0,1,393.89,237.59Z" style="fill:#EC407A"></path><path d="M393.89,237.59a3.52,3.52,0,0,1-2.92,4c-7,1.12-11.94.75-19.3-1.48a8.68,8.68,0,0,1-4.3-2.36c-1.49-1.77-1.46-4.43-.54-6.55a17.72,17.72,0,0,1,4.25-5.4c-.15,1.05-.22,2,.68,2.53a8.51,8.51,0,0,0,3,1c4.52.85,15,2.2,16.87,3.68A7.8,7.8,0,0,1,393.89,237.59Z" style="fill:#fff;opacity:0.4"></path></g><g id="freepik--Zebra--inject-75"><path d="M424.35,306.35c0,.17-.06.36-.1.55a5.25,5.25,0,0,1-.16.59c-.06.2-.14.41-.23.63-.19.45-.35.91-.51,1.39-.08.25-.15.49-.22.74,0,0,0,0,0,0-.05.17-.09.34-.14.52-.1.41-.2.85-.29,1.29l-.09.5c-.05.27-.1.54-.14.82a52.74,52.74,0,0,0-.52,7.93c0,.73,0,1.46,0,2.2,0,1.14.06,2.29.11,3.44h0c.05,1.12.11,2.24.16,3.34.05.78.09,1.56.13,2.32.12,2.33.23,4.57.24,6.64,0,.85,0,1.68,0,2.45a17,17,0,0,1-1.21,6.55,5.33,5.33,0,0,1-.63,1,14,14,0,0,0-1,1.5,36.32,36.32,0,0,0-2.79,5.92c-.25.62-.49,1.26-.7,1.9-.77,2.18-1.44,4.38-2,6.38-.15.54-.29,1.07-.43,1.58-.23.87-.43,1.67-.61,2.39a4.29,4.29,0,0,1-.3.85,5.46,5.46,0,0,1-1.45,1.92,7.2,7.2,0,0,1-1.15.81,3.25,3.25,0,0,0-1.46,2.18,9,9,0,0,0-.21,2,10.16,10.16,0,0,0,.13,1.65l-.08.41-.71,3.55H397.44a.54.54,0,0,1,0-.17.62.62,0,0,1,0-.13c0-.06,0-.11,0-.19h0a1.41,1.41,0,0,1,.07-.28,8.62,8.62,0,0,1,.42-1.15c.07-.16.15-.33.24-.5s.19-.37.28-.56.23-.42.37-.64c.33-.56.74-1.2,1.23-1.93.69-1,1.56-2.19,2.66-3.56,5.7-7.08,9.89-22.76,9.55-30.82,0-.11,0-.22,0-.34,0-.37-.06-.76-.11-1.16a52.6,52.6,0,0,0-1.47-7.14l-.24-.92c-.69-2.53-1.48-5.14-2.23-7.58l-.12-.39c-.25-.83-.5-1.63-.73-2.39-.46-1.48-.87-2.84-1.19-4A4,4,0,0,0,406,318a2.49,2.49,0,0,0-.11-.29c-.06-.15-.11-.28-.17-.41s-.11-.24-.16-.35a5,5,0,0,0-.25-.46,3.21,3.21,0,0,0-.19-.31l-.17-.26a9.63,9.63,0,0,0-1.2-1.46l-.38-.34a2.73,2.73,0,0,0-.37-.32l-.38-.29a7.32,7.32,0,0,0-.75-.53c-.26-.16-.51-.31-.77-.45a2.61,2.61,0,0,0-.37-.19,7.84,7.84,0,0,0-.72-.35l-.36-.15a1.75,1.75,0,0,0-.32-.12l-.32-.12a2,2,0,0,0-.34-.12l-.29-.1-.27-.08a5.17,5.17,0,0,0-.74-.18l-.08,0,.43-6.13.31-.09.38-.1,1.4-.35.68-.16c.4-.1.84-.21,1.31-.3l2.16-.48,1.61-.31c.85-.17,1.76-.33,2.67-.47s1.77-.27,2.67-.38c.69-.09,1.39-.16,2.08-.22.27,0,.53-.05.8-.06l.93-.06.44,0,1.32,0c.42,0,.82,0,1.21,0l.78.05.38,0,.72.09.7.11c.22,0,.43.09.64.15l.61.18.55.22a3.68,3.68,0,0,1,.45.21l.31.18.19.14a1.83,1.83,0,0,1,.31.24,2,2,0,0,1,.25.26l.16.18a2.23,2.23,0,0,1,.27.41,3.08,3.08,0,0,1,.21.53,2.09,2.09,0,0,1,.08.34A3.71,3.71,0,0,1,424.35,306.35Z" style="fill:#EC407A"></path><path d="M424.35,306.35c0,.17-.06.36-.1.55a5.25,5.25,0,0,1-.16.59c-.06.2-.14.41-.23.63-.19.45-.35.91-.51,1.39-.08.25-.15.49-.22.74,0,0,0,0,0,0-.05.17-.09.34-.14.52-.1.41-.2.85-.29,1.29l-.09.5c-.05.27-.1.54-.14.82a52.74,52.74,0,0,0-.52,7.93c0,.73,0,1.46,0,2.2,0,1.14.06,2.29.11,3.44h0c.05,1.12.11,2.24.16,3.34.05.78.09,1.56.13,2.32.12,2.33.23,4.57.24,6.64,0,.85,0,1.68,0,2.45a17,17,0,0,1-1.21,6.55,5.33,5.33,0,0,1-.63,1,14,14,0,0,0-1,1.5,36.32,36.32,0,0,0-2.79,5.92c-.25.62-.49,1.26-.7,1.9-.77,2.18-1.44,4.38-2,6.38-.15.54-.29,1.07-.43,1.58-.23.87-.43,1.67-.61,2.39a4.29,4.29,0,0,1-.3.85,5.46,5.46,0,0,1-1.45,1.92,7.2,7.2,0,0,1-1.15.81,3.25,3.25,0,0,0-1.46,2.18,9,9,0,0,0-.21,2,10.16,10.16,0,0,0,.13,1.65l-.08.41-.71,3.55H397.44a.54.54,0,0,1,0-.17.62.62,0,0,1,0-.13c0-.06,0-.11,0-.19h0a1.41,1.41,0,0,1,.07-.28,8.62,8.62,0,0,1,.42-1.15c.07-.16.15-.33.24-.5s.19-.37.28-.56.23-.42.37-.64c.33-.56.74-1.2,1.23-1.93.69-1,1.56-2.19,2.66-3.56,5.7-7.08,9.89-22.76,9.55-30.82,0-.11,0-.22,0-.34,0-.37-.06-.76-.11-1.16a52.6,52.6,0,0,0-1.47-7.14l-.24-.92c-.69-2.53-1.48-5.14-2.23-7.58l-.12-.39c-.25-.83-.5-1.63-.73-2.39-.46-1.48-.87-2.84-1.19-4A4,4,0,0,0,406,318a2.49,2.49,0,0,0-.11-.29c-.06-.15-.11-.28-.17-.41s-.11-.24-.16-.35a5,5,0,0,0-.25-.46,3.21,3.21,0,0,0-.19-.31l-.17-.26a9.63,9.63,0,0,0-1.2-1.46l-.38-.34a2.73,2.73,0,0,0-.37-.32l-.38-.29a7.32,7.32,0,0,0-.75-.53c-.26-.16-.51-.31-.77-.45a2.61,2.61,0,0,0-.37-.19,7.84,7.84,0,0,0-.72-.35l-.36-.15a1.75,1.75,0,0,0-.32-.12l-.32-.12a2,2,0,0,0-.34-.12l-.29-.1-.27-.08a5.17,5.17,0,0,0-.74-.18l-.08,0,.43-6.13.31-.09.38-.1,1.4-.35.68-.16c.4-.1.84-.21,1.31-.3l2.16-.48,1.61-.31c.85-.17,1.76-.33,2.67-.47s1.77-.27,2.67-.38c.69-.09,1.39-.16,2.08-.22.27,0,.53-.05.8-.06l.93-.06.44,0,1.32,0c.42,0,.82,0,1.21,0l.78.05.38,0,.72.09.7.11c.22,0,.43.09.64.15l.61.18.55.22a3.68,3.68,0,0,1,.45.21l.31.18.19.14a1.83,1.83,0,0,1,.31.24,2,2,0,0,1,.25.26l.16.18a2.23,2.23,0,0,1,.27.41,3.08,3.08,0,0,1,.21.53,2.09,2.09,0,0,1,.08.34A3.71,3.71,0,0,1,424.35,306.35Z" style="fill:#fff;opacity:0.7000000000000001"></path><path d="M422,323.53c-.61.16-1.22.29-1.83.42-1.63.35-3.26.61-4.9.81s-3.06.32-4.62.42c-.79.05-1.57.08-2.38.11l-.12-.39c2.26-.47,4.49-1,6.71-1.56,1.43-.36,2.86-.75,4.28-1.16l.14,0c.9-.25,1.8-.53,2.69-.81C421.94,322.06,422,322.79,422,323.53Z" style="opacity:0.7000000000000001"></path><path d="M397.74,304.92l-.42,6.13s7.2,1.34,8.88,7.46c.32,1.16.73,2.52,1.18,4,3-1.89,10-6.26,15-8.76a23.05,23.05,0,0,1,1.45-5.64C428.76,296.31,397.74,304.92,397.74,304.92Z" style="opacity:0.2"></path><path d="M348.37,314c-.17.29-.34.57-.53.84s-.37.53-.57.79v0c-.2.26-.4.49-.61.73l-.18.2-.21.23L346,317l0,.05-.68.63c-.14.11-.26.22-.4.35h0l-.31.26,0,0-.73.55c-.27.18-.52.36-.8.53l0,0-.79.46c-.27.17-.56.31-.84.46l0,0c-.27.14-.54.28-.82.4l-.89.4-.06,0-.86.34-1,.38c-.6.21-1.21.41-1.82.59-.35.11-.69.22-1,.31h0c-8.3,2.35-17.21,2.9-19.63,8-1.8,3.76,8.17,14.54,8.17,14.54,1.37,4.92,2.85,6,4.06,5.69a1.81,1.81,0,0,0,.53-.24l.26-.17a4.4,4.4,0,0,0,.45-.42,4,4,0,0,0,.42-.5c.13-.17.25-.34.35-.5l.24-.4.13-.25a.41.41,0,0,0,.05-.09l.1-.2.05-.1,5.87,8.93-.65.25-.62.21c-.19.07-.37.13-.56.18s-.52.14-.78.2a21,21,0,0,1-3.55.6c-.53.05-1,.07-1.39.08a11.13,11.13,0,0,1-1.13,0c-.3-.41-.62-.8-.93-1.17a15.48,15.48,0,0,0-3.76-3.13,14.15,14.15,0,0,0-1.68-.86l-.48-.2a6.12,6.12,0,0,1-3.08-2.59,5.46,5.46,0,0,1-.51-1.06c-.18-.48-.37-.94-.58-1.38a21.64,21.64,0,0,0-2.08-3.45c-.51-.7-1-1.39-1.59-2.08-.91-1.14-1.82-2.29-2.65-3.52a22.49,22.49,0,0,1-1.18-2,15.93,15.93,0,0,1-1.47-4,14.12,14.12,0,0,1-.28-1.52c-.07-.51-.12-1.05-.15-1.61a7.51,7.51,0,0,1,.32-2.46,11.39,11.39,0,0,1,1.08-2.49h0a23.41,23.41,0,0,1,3.66-4.66c.51-.52,1-1,1.59-1.52,1.25-1.15,2.6-2.25,4-3.29l2.1-1.53c1.39-1,2.79-1.9,4.1-2.73.59-.37,1.17-.73,1.72-1.05l.34-.21.15-.09c.89-.53,1.74-1,2.49-1.43l1.33-.75.34-.18.71-.38.52-.27.05,0,.78-.4,15.66,7.09Z" style="fill:#EC407A"></path><path d="M348.37,314c-.17.29-.34.57-.53.84s-.37.53-.57.79v0c-.2.26-.4.49-.61.73l-.18.2-.21.23L346,317l0,.05-.68.63c-.14.11-.26.22-.4.35h0l-.31.26,0,0-.73.55c-.27.18-.52.36-.8.53l0,0-.79.46c-.27.17-.56.31-.84.46l0,0c-.27.14-.54.28-.82.4l-.89.4-.06,0-.86.34-1,.38c-.6.21-1.21.41-1.82.59-.35.11-.69.22-1,.31h0c-8.3,2.35-17.21,2.9-19.63,8-1.8,3.76,8.17,14.54,8.17,14.54,1.37,4.92,2.85,6,4.06,5.69a1.81,1.81,0,0,0,.53-.24l.26-.17a4.4,4.4,0,0,0,.45-.42,4,4,0,0,0,.42-.5c.13-.17.25-.34.35-.5l.24-.4.13-.25a.41.41,0,0,0,.05-.09l.1-.2.05-.1,5.87,8.93-.65.25-.62.21c-.19.07-.37.13-.56.18s-.52.14-.78.2a21,21,0,0,1-3.55.6c-.53.05-1,.07-1.39.08a11.13,11.13,0,0,1-1.13,0c-.3-.41-.62-.8-.93-1.17a15.48,15.48,0,0,0-3.76-3.13,14.15,14.15,0,0,0-1.68-.86l-.48-.2a6.12,6.12,0,0,1-3.08-2.59,5.46,5.46,0,0,1-.51-1.06c-.18-.48-.37-.94-.58-1.38a21.64,21.64,0,0,0-2.08-3.45c-.51-.7-1-1.39-1.59-2.08-.91-1.14-1.82-2.29-2.65-3.52a22.49,22.49,0,0,1-1.18-2,15.93,15.93,0,0,1-1.47-4,14.12,14.12,0,0,1-.28-1.52c-.07-.51-.12-1.05-.15-1.61a7.51,7.51,0,0,1,.32-2.46,11.39,11.39,0,0,1,1.08-2.49h0a23.41,23.41,0,0,1,3.66-4.66c.51-.52,1-1,1.59-1.52,1.25-1.15,2.6-2.25,4-3.29l2.1-1.53c1.39-1,2.79-1.9,4.1-2.73.59-.37,1.17-.73,1.72-1.05l.34-.21.15-.09c.89-.53,1.74-1,2.49-1.43l1.33-.75.34-.18.71-.38.52-.27.05,0,.78-.4,15.66,7.09Z" style="fill:#fff;opacity:0.7000000000000001"></path><path d="M335.86,357.1,330,348.17s-1.1,2.49-2.59,2.87a18.25,18.25,0,0,1,2.3,7.51A21,21,0,0,0,335.86,357.1Z" style="fill:#263238"></path><path d="M348.37,314c-.17.29-.34.57-.53.84s-.37.53-.57.79v0c-.2.26-.4.49-.61.73a.77.77,0,0,1-.18.18c-.14.17-.29.33-.44.49l0,.05-.68.63-.41.35h0l-.31.26,0,0-.73.55c-.27.18-.52.36-.8.53l0,0-.79.46c-.27.17-.56.31-.84.46l0,0c-.27.14-.54.28-.82.4l-.89.4-.06,0-.86.34-1,.38c-.6.21-1.21.41-1.82.59-.42-.22-.84-.47-1.23-.72a22.74,22.74,0,0,1-6.13-5.82,27.45,27.45,0,0,1-3.17-5.68l.34-.21.15-.08h0c.89-.53,1.74-1,2.49-1.43l1.33-.75.34-.18.71-.38.52-.27.05,0,.78-.4,15.66,7.09Z" style="opacity:0.2"></path><path d="M288.27,245.89s-4.31-9.57-3.83-11.77,4.93,4.55,7.43,5S293.24,245.89,288.27,245.89Z" style="fill:#EC407A"></path><path d="M288.27,245.89s-4.31-9.57-3.83-11.77,4.93,4.55,7.43,5S293.24,245.89,288.27,245.89Z" style="fill:#fff;opacity:0.7000000000000001"></path><path d="M354.76,264.74l-.3.35L340,281.89l-4.33,5-6.52,7.56-1.41,1.65-1,1.13c-.16-.7-.33-1.4-.52-2.08-.13-.48-.27-1-.41-1.44h0c-.06-.23-.13-.45-.2-.67-.12-.4-.24-.78-.37-1.16a2.41,2.41,0,0,0-.08-.25c-.06-.2-.12-.39-.19-.58l-.27-.77c-.27-.76-.56-1.51-.85-2.25q-.33-.84-.69-1.65c-.83-2-1.73-3.83-2.68-5.6-.38-.72-.76-1.41-1.15-2.09a84.62,84.62,0,0,0-6.19-9.32c-.3-.39-.59-.78-.88-1.14-1.22-1.53-2.37-2.89-3.38-4-.21-.23-.4-.45-.61-.67l-.68-.74c-.21-.23-.42-.46-.63-.67l-.57-.59c-.09-.1-.18-.18-.26-.26-.38-.4-.71-.72-1-1l-.25-.23a.92.92,0,0,0-.14-.14,4.64,4.64,0,0,0-.36-.32l0,0h0l-2.64-.65-1.19-.3-4.42-19.08-.33-1.45-.2-.82,0-.1.52-.14a26.47,26.47,0,0,1,6.13-.81,33.28,33.28,0,0,1,4.2.15,40.54,40.54,0,0,1,9.23,2.06c1.2.41,2.4.88,3.61,1.42a48.89,48.89,0,0,1,6,3.22,51.17,51.17,0,0,1,6.18,4.57c.74.62,1.48,1.28,2.2,2,1,.94,1.93,1.82,2.86,2.64h0c2.53,2.26,4.85,4.14,6.93,5.69a.05.05,0,0,1,0,0l.39.28h0c1.44,1.06,2.76,2,3.94,2.71a45.78,45.78,0,0,0,6.29,3.48l.64.27Z" style="fill:#EC407A"></path><path d="M354.76,264.74l-.3.35L340,281.89l-4.33,5-6.52,7.56-1.41,1.65-1,1.13c-.16-.7-.33-1.4-.52-2.08-.13-.48-.27-1-.41-1.44h0c-.06-.23-.13-.45-.2-.67-.12-.4-.24-.78-.37-1.16a2.41,2.41,0,0,0-.08-.25c-.06-.2-.12-.39-.19-.58l-.27-.77c-.27-.76-.56-1.51-.85-2.25q-.33-.84-.69-1.65c-.83-2-1.73-3.83-2.68-5.6-.38-.72-.76-1.41-1.15-2.09a83.83,83.83,0,0,0-5.4-8.28c-.27-.35-.54-.69-.79-1l-.52-.68-.36-.46c-.66-.83-1.29-1.59-1.9-2.31s-1-1.2-1.48-1.73c-.21-.23-.4-.45-.61-.67l-.11-.12-.57-.62c-.21-.23-.42-.46-.63-.67l-.57-.59c-.09-.1-.18-.18-.26-.26-.38-.4-.71-.72-1-1l-.25-.23a.92.92,0,0,0-.14-.14,4.64,4.64,0,0,0-.36-.32l0,0h0l-2.64-.65-1.19-.3-4.42-19.08-.33-1.45-.2-.82,0-.1.52-.14a26.47,26.47,0,0,1,6.13-.81,33.28,33.28,0,0,1,4.2.15,40.54,40.54,0,0,1,9.23,2.06c1.2.41,2.4.88,3.61,1.42a48.89,48.89,0,0,1,6,3.22,51.17,51.17,0,0,1,6.18,4.57c.74.62,1.48,1.28,2.2,2,1,.94,1.93,1.82,2.86,2.64h0c2.53,2.26,4.85,4.14,6.93,5.69a.05.05,0,0,1,0,0l.39.28h0c1.44,1.06,2.76,2,3.94,2.71a45.78,45.78,0,0,0,6.29,3.48l.64.27Z" style="fill:#fff;opacity:0.7000000000000001"></path><path d="M303.88,246.87l-1.91,5.4-.26,6.64,2.64.66a75.09,75.09,0,0,1,8.79,9.84C310.28,252.45,303.88,246.87,303.88,246.87Z" style="opacity:0.2"></path><path d="M305.15,260.31c-2.9,3.6-7.78,5.28-8.6,5.61-1.24.49-3.3,3.14-5,5.55-.8,1.16-1.51,2.27-2,3a3,3,0,0,1-4,1c-6.05,3.38-7.7-1-8.43-4.11-.34-1.45,1.06-5.32,2.66-9,1.84-4.28,3.93-8.36,3.93-8.36a36.79,36.79,0,0,1,3.77-9.91,19.91,19.91,0,0,1,1.85-2.69,13.76,13.76,0,0,1,1-1.11l.4-.4c.31-.3.62-.57.91-.8s.37-.29.54-.4a7.89,7.89,0,0,1,3.28-1.54l.12.1.73.61.13.11c5.52,4.66,8.55,8.64,9.94,12h0C308.22,254.46,307.15,257.84,305.15,260.31Z" style="fill:#EC407A"></path><path d="M305.15,260.31c-2.9,3.6-7.78,5.28-8.6,5.61-1.24.49-3.3,3.14-5,5.55-.8,1.16-1.51,2.27-2,3a3,3,0,0,1-4,1c-6.05,3.38-7.7-1-8.43-4.11-.34-1.45,1.06-5.32,2.66-9,1.84-4.28,3.93-8.36,3.93-8.36a36.79,36.79,0,0,1,3.77-9.91,19.91,19.91,0,0,1,1.85-2.69,13.76,13.76,0,0,1,1-1.11l.4-.4c.31-.3.62-.57.91-.8s.37-.29.54-.4a7.89,7.89,0,0,1,3.28-1.54l.12.1.73.61.13.11c5.52,4.66,8.55,8.64,9.94,12h0C308.22,254.46,307.15,257.84,305.15,260.31Z" style="fill:#fff;opacity:0.7000000000000001"></path><path d="M290.91,253.37c.09.64-.18,1.23-.62,1.29s-.85-.44-.93-1.09.19-1.24.62-1.29S290.84,252.71,290.91,253.37Z" style="fill:#263238"></path><path d="M292.34,251.32a.37.37,0,0,1-.39,0,3,3,0,0,0-2.67-.63.39.39,0,0,1-.48-.24h0a.38.38,0,0,1,.24-.48h0a3.84,3.84,0,0,1,3.39.76.4.4,0,0,1,.06.54Z" style="fill:#263238"></path><path d="M279.86,274.21s-2.11-3.83-.87-5.36S279.08,271.83,279.86,274.21Z" style="opacity:0.7000000000000001"></path><path d="M286.45,273.88a.38.38,0,0,1,.15-.36,3,3,0,0,0,1.33-2.41.37.37,0,0,1,.36-.39h0a.38.38,0,0,1,.4.36h0a3.8,3.8,0,0,1-1.64,3.06.38.38,0,0,1-.53-.09Z" style="opacity:0.7000000000000001"></path><path d="M291.58,271.47c-.8,1.16-1.51,2.27-2,3a3,3,0,0,1-4,1c-6.05,3.38-7.7-1-8.43-4.11-.34-1.45,1.06-5.32,2.66-9a9.77,9.77,0,0,1,2-1.11,2.77,2.77,0,0,1,3,.48c.82.9.67,2.28.62,3.5s.21,2.7,1.36,3.13a8.63,8.63,0,0,0,2,.1A3.39,3.39,0,0,1,291.58,271.47Z" style="opacity:0.7000000000000001"></path><path d="M354.76,264.74c-2.88-1.49-6.7-3.69-11-6.19l-6.78-4c-1.92-1.12-3.87-2.26-5.8-3.37s-4-2.29-5.9-3.36-4-2.21-5.93-3.19c-1.52-.78-3-1.5-4.33-2.14-3.34-1.54-6.1-2.55-7.91-2.7l-.39,0a17,17,0,0,1-3.72-.47c-4.59-1.08-6.62-3.24-13.69,2.1l-6.64-1.63s2.6-11,16.15-9.08c.8.12,1.62.24,2.44.4,1.61.3,3.21.65,4.8,1.06a102.37,102.37,0,0,1,10.44,3.3c1.25.45,2.42.91,3.48,1.35,2.56,1,4.55,1.93,5.68,2.46.68.32,1,.51,1,.51l3.57,1.36h0l5.09,2,6.49,2.5,3.42,5.4Z" style="fill:#EC407A"></path><path d="M354.76,264.74c-2.88-1.49-6.7-3.69-11-6.19l-6.78-4c-1.92-1.12-3.87-2.26-5.8-3.37s-4-2.29-5.9-3.36-4-2.21-5.93-3.19c-1.52-.78-3-1.5-4.33-2.14-3.34-1.54-6.1-2.55-7.91-2.7l-.39,0a17,17,0,0,1-3.72-.47c-4.59-1.08-6.62-3.24-13.69,2.1l-6.64-1.63s2.6-11,16.15-9.08c.8.12,1.62.24,2.44.4,1.61.3,3.21.65,4.8,1.06a102.37,102.37,0,0,1,10.44,3.3c1.25.45,2.42.91,3.48,1.35,2.56,1,4.55,1.93,5.68,2.46.68.32,1,.51,1,.51l3.57,1.36h0l5.09,2,6.49,2.5,3.42,5.4Z" style="fill:#fff;opacity:0.6000000000000001"></path><path d="M285.88,234.23l5.05,6.2s3-2.62,5.5-2.44-3-7.51-3-7.51A16.44,16.44,0,0,0,285.88,234.23Z" style="opacity:0.7000000000000001"></path><path d="M291.43,242.92s-4.3-9.57-3.82-11.77,4.92,4.54,7.43,5S296.41,242.92,291.43,242.92Z" style="fill:#EC407A"></path><path d="M291.43,242.92s-4.3-9.57-3.82-11.77,4.92,4.54,7.43,5S296.41,242.92,291.43,242.92Z" style="fill:#fff;opacity:0.7000000000000001"></path><path d="M288.9,234a.18.18,0,0,1,.34-.12c1,2.1,2.67,5.21,4.32,5.88,2.54,1-1.36,3.57-2.63.64A50.12,50.12,0,0,1,288.9,234Z" style="opacity:0.7000000000000001"></path><path d="M336.64,280.6c-.94,3.28-4.39,9.06-7.51,13.89l-1.41,1.65-1,1.13c-.16-.7-.33-1.39-.52-2.08-.13-.48-.27-1-.41-1.44h0c-.2-.7-.42-1.39-.65-2.08-.06-.18-.12-.36-.19-.55l-.27-.8c-.27-.74-.56-1.49-.85-2.22q-.33-.85-.69-1.68c.25-.27.51-.54.79-.82a34.58,34.58,0,0,1,6.77-5.35c.79-.47,1.62-.91,2.49-1.33h0c.43-.2.87-.4,1.32-.58C336.82,277.41,337.26,278.48,336.64,280.6Z" style="opacity:0.2"></path><path d="M425.67,271.11a34.65,34.65,0,0,0,13.77,2.65c7.91-.09,16.08,12.34,14.39,30.41-.94,10.15-1.66,18.16-1.75,23.19-.07,3.93.54,6-.24,6C450.05,333.32,449,326,449,326a66.7,66.7,0,0,0,.12,7.78c.35,4.25,1.17,8.58-.1,8.3-2.45-.54-4.59-18.45-4.59-18.45a17.63,17.63,0,0,0-.75,4c-.1,2.23.32,4.5-.69,4.35-1.93-.31-3-12.72-1.58-22.92,1.72-12,4.85-31.23-9.09-31.94Z" style="fill:#263238"></path><path d="M438.7,306.28s-6.15,1.76-15.58,4c-3.27.78-6.95,1.61-10.91,2.44-2.69.57-5.52,1.14-8.43,1.7A280.8,280.8,0,0,1,369.72,319h0l-1.76.1-1.34.07c-1.09.05-2.17.09-3.23.11l-1.25,0c-1.35,0-2.67,0-4,0l-1,0c-.64,0-1.26,0-1.89-.08-.43,0-.85,0-1.27-.07-.95,0-1.87-.11-2.78-.19s-1.81-.18-2.69-.29l-.69-.1-1.62-.24-1.31-.23h0a31.37,31.37,0,0,1-12-4.53,14.26,14.26,0,0,1-4.55-4.94,12.46,12.46,0,0,1-1-2.31,32.15,32.15,0,0,1-1.5-12.53h0a28.42,28.42,0,0,1,4.91-13.5c7.39-10.93,20.33-15.89,20.33-15.89s1.4.06,3.68.38h0l1.76.28c1.1.19,2.32.45,3.62.76a52.27,52.27,0,0,1,10.05,3.54s.2.07.65.19c.61.16,1.71.41,3.3.68,1.31.22,3,.45,5,.64l1.8.17c1.43.1,3,.2,4.8.26,1.28.06,2.64.09,4.1.1,3.79,0,8.2-.07,13.27-.37h0c3.08-.18,6.4-.45,10-.81,2.42-.24,5-.52,7.62-.86a28,28,0,0,1,7.07,2.32l.06,0c.43.21.86.42,1.29.66h0l.26.14a23.94,23.94,0,0,1,6.59,5.37,19.33,19.33,0,0,1,2.14,3.08l.05.06C441.32,286.51,442.53,294.57,438.7,306.28Z" style="fill:#EC407A"></path><path d="M438.7,306.28s-6.15,1.76-15.58,4c-3.27.78-6.95,1.61-10.91,2.44-2.69.57-5.52,1.14-8.43,1.7A280.8,280.8,0,0,1,369.72,319h0l-1.76.1-1.34.07c-1.09.05-2.17.09-3.23.11l-1.25,0c-1.35,0-2.67,0-4,0l-1,0c-.64,0-1.26,0-1.89-.08-.43,0-.85,0-1.27-.07-.95,0-1.87-.11-2.78-.19s-1.81-.18-2.69-.29l-.69-.1-1.62-.24-1.31-.23h0a31.37,31.37,0,0,1-12-4.53,14.26,14.26,0,0,1-4.55-4.94,12.46,12.46,0,0,1-1-2.31,32.15,32.15,0,0,1-1.5-12.53h0a28.42,28.42,0,0,1,4.91-13.5c7.39-10.93,20.33-15.89,20.33-15.89s1.4.06,3.68.38h0l1.76.28c1.1.19,2.32.45,3.62.76a52.27,52.27,0,0,1,10.05,3.54s.2.07.65.19c.61.16,1.71.41,3.3.68,1.31.22,3,.45,5,.64l1.8.17c1.43.1,3,.2,4.8.26,1.28.06,2.64.09,4.1.1,3.79,0,8.2-.07,13.27-.37h0c3.08-.18,6.4-.45,10-.81,2.42-.24,5-.52,7.62-.86a28,28,0,0,1,7.07,2.32l.06,0c.43.21.86.42,1.29.66h0l.26.14a23.94,23.94,0,0,1,6.59,5.37,19.33,19.33,0,0,1,2.14,3.08l.05.06C441.32,286.51,442.53,294.57,438.7,306.28Z" style="fill:#fff;opacity:0.7000000000000001"></path><path d="M443.23,373.77a6,6,0,0,0-.48.53,6.54,6.54,0,0,0-.4.52,4.93,4.93,0,0,0-.41.64c-.08.12-.15.25-.22.38a11.47,11.47,0,0,0-.55,1.26,8.24,8.24,0,0,0-.32,1.12v0c-.07.31-.13.6-.18.89,0,.11,0,.21,0,.3s0,.28-.05.42,0,.18,0,.27a10.87,10.87,0,0,0,.06,2.25H430.4a6.7,6.7,0,0,1,.23-1.33c0-.06,0-.12.05-.17a7.17,7.17,0,0,1,.79-1.74l.3-.46c.11-.16.21-.32.33-.47.23-.32.47-.63.74-1a64.15,64.15,0,0,0,4.2-5.46c1.89-2.83,2.47-7.78,2.23-12.61,0-.22,0-.44,0-.67,0-.07,0-.16,0-.24,0-.42-.06-.85-.1-1.26s-.09-.89-.15-1.33c0-.11,0-.2,0-.31-.05-.37-.1-.72-.17-1.07,0-.12,0-.24-.06-.36-.07-.41-.14-.82-.23-1.21-.14-.65-.29-1.27-.46-1.86s-.3-1-.47-1.48l-.23-.62c-.08-.2-.16-.39-.25-.57-.26-.56-.55-1.12-.87-1.69-.13-.26-.29-.53-.45-.79-.25-.44-.53-.89-.81-1.34l-1-1.44c-.35-.51-.72-1-1.1-1.55l-.14-.18c-3.13-4.27-7.05-8.93-10.61-14.21h0c-.54-.82-1.08-1.64-1.6-2.49-.27-.43-.54-.86-.81-1.31a1.19,1.19,0,0,0-.09-.15c-.28-.5-.58-1-.85-1.51s-.56-1-.83-1.53a26.16,26.16,0,0,0-1.69-2.85,22.09,22.09,0,0,0-4-4.42A17.13,17.13,0,0,0,402,308.49l3.64-5.36,6.31-9.31s15.26-25.94,26.23-12.89l.05.06c3.83,4.6,4.27,11,3.47,17.75-.08.64-.16,1.29-.25,1.94s-.26,1.55-.4,2.34c-.06.35-.12.72-.19,1.07s-.16.79-.23,1.18c-.12.56-.24,1.12-.35,1.67,0,.12-.05.25-.08.37-.07.35-.15.71-.23,1.06-1,4.69-2.19,9.22-2.71,13.08,0,.29-.08.56-.11.84q-.11.84-.15,1.62c0,.26,0,.51,0,.76a13.58,13.58,0,0,0,0,1.43c0,.23,0,.46.05.68a.76.76,0,0,0,0,.15c0,.22.05.43.09.64l.06.35c0,.11,0,.22.07.33s.09.36.14.54.1.29.15.42.09.25.14.37a4.16,4.16,0,0,0,.24.47,2.75,2.75,0,0,0,.31.52c.86,1.23,1.62,2.34,2.29,3.37l1,1.57c.31.5.59,1,.85,1.44l.05.08c.25.45.48.88.69,1.3l.15.3c.1.19.18.39.27.59a11.15,11.15,0,0,1,.53,1.33c0,.11.08.21.11.32a13.08,13.08,0,0,1,.54,2.2h0a12.81,12.81,0,0,1,.16,1.65c0,.23,0,.45,0,.68a23.25,23.25,0,0,1-.26,3.29,2.89,2.89,0,0,1,0,.29c-.05.39-.1.81-.14,1.25,0,.22,0,.43-.05.66l0,.44c0,.12,0,.25,0,.38q0,.9-.06,1.89h0c0,.95,0,2,0,3,0,.54,0,1.09.05,1.64,0,.12,0,.23,0,.35h0c0,1,.09,1.93.14,2.88,0,.48,0,.95.08,1.41,0,.69.09,1.37.14,2,.08,1.24.18,2.38.27,3.37l.06.69A6.11,6.11,0,0,1,443.23,373.77Z" style="fill:#EC407A"></path><path d="M443.23,373.77a6,6,0,0,0-.48.53,6.54,6.54,0,0,0-.4.52,4.93,4.93,0,0,0-.41.64c-.08.12-.15.25-.22.38a11.47,11.47,0,0,0-.55,1.26,8.24,8.24,0,0,0-.32,1.12v0c-.07.31-.13.6-.18.89,0,.11,0,.21,0,.3s-.05.43-.06.63a.13.13,0,0,0,0,.06,10.87,10.87,0,0,0,.06,2.25H430.4a6.7,6.7,0,0,1,.23-1.33c0-.06,0-.12.05-.17a7.17,7.17,0,0,1,.79-1.74l.3-.46c.11-.16.21-.32.33-.47.23-.32.47-.63.74-1a64.15,64.15,0,0,0,4.2-5.46c1.89-2.83,2.47-7.78,2.23-12.61,0-.22,0-.44,0-.67,0-.07,0-.16,0-.24,0-.42-.06-.85-.1-1.26s-.09-.9-.15-1.33c0-.11,0-.2,0-.31-.05-.37-.1-.72-.17-1.07,0-.12,0-.24-.06-.36-.07-.41-.14-.82-.23-1.21-.14-.65-.29-1.27-.46-1.86s-.3-1-.47-1.48l-.23-.62a6.09,6.09,0,0,0-.25-.57c-.26-.56-.55-1.12-.87-1.69-.13-.26-.29-.53-.45-.79-.25-.44-.53-.89-.81-1.34l-1-1.44c-.35-.51-.72-1-1.1-1.55l-.14-.18c-3.13-4.27-7.05-8.93-10.61-14.21h0c-.54-.82-1.08-1.64-1.6-2.49-.27-.43-.54-.86-.81-1.31a1.19,1.19,0,0,0-.09-.15c-.28-.5-.58-1-.85-1.51s-.56-1-.83-1.53a26.16,26.16,0,0,0-1.69-2.85,22.09,22.09,0,0,0-4-4.42A17.13,17.13,0,0,0,402,308.49l3.64-5.36,6.31-9.31s15.26-25.94,26.23-12.89l.05.06c3.83,4.6,4.27,11,3.47,17.75-.08.64-.16,1.29-.25,1.94s-.26,1.55-.4,2.34c-.06.35-.12.72-.19,1.07s-.16.79-.23,1.18c-.12.56-.24,1.12-.35,1.67,0,.12-.05.25-.08.37-.07.35-.15.71-.23,1.06-1,4.69-2.19,9.22-2.71,13.08,0,.29-.08.56-.11.84q-.11.84-.15,1.62c0,.26,0,.51,0,.76a13.58,13.58,0,0,0,0,1.43c0,.23,0,.46.05.68a.76.76,0,0,0,0,.15c0,.22.05.43.09.64l.06.35c0,.11,0,.22.07.33s.09.36.14.54.1.29.15.42.09.25.14.37a4.16,4.16,0,0,0,.24.47,2.75,2.75,0,0,0,.31.52c.86,1.23,1.62,2.34,2.29,3.37l1,1.57c.31.5.59,1,.85,1.44l.05.08c.25.45.48.88.69,1.3l.15.3c.1.19.18.39.27.59a11.15,11.15,0,0,1,.53,1.33c0,.11.08.21.11.32a13.08,13.08,0,0,1,.54,2.2h0a12.81,12.81,0,0,1,.16,1.65c0,.23,0,.45,0,.68a23.25,23.25,0,0,1-.26,3.29,2.89,2.89,0,0,1,0,.29c-.05.39-.1.81-.14,1.25,0,.21,0,.43-.05.66l0,.44c0,.12,0,.25,0,.38q0,.9-.06,1.89h0c0,.95,0,2,0,3,0,.54,0,1.09.05,1.64,0,.12,0,.23,0,.35h0c0,1,.09,1.93.14,2.88,0,.48,0,.95.08,1.41,0,.69.09,1.37.14,2,.08,1.24.18,2.38.27,3.37l.06.69A6.11,6.11,0,0,1,443.23,373.77Z" style="fill:#fff;opacity:0.7000000000000001"></path><path d="M369.72,319c-18.19-2.28-19-10.54-19-10.54l-4.09,7.07-.41,2.78A107.27,107.27,0,0,0,369.72,319Z" style="opacity:0.2"></path><path d="M354.6,302.75a40.29,40.29,0,0,0-3.45,7.09,69.66,69.66,0,0,0-2.63,8.78h0c-4.29,18.16-3.86,41.19-3.54,49.35a7.23,7.23,0,0,1-1.33,4.6,5.5,5.5,0,0,0-.69,1.19,3.94,3.94,0,0,0-.34,1.44,3.41,3.41,0,0,0,.79,2.43l-.79,1.4-1.75,3.48H330.66a4.52,4.52,0,0,1,.12-.62,14.05,14.05,0,0,1,.44-1.69c.06-.15.12-.28.19-.43a20.64,20.64,0,0,1,1.82-3.11,37.24,37.24,0,0,1,2.45-3.14c.42-.49.8-.9,1.09-1.22s.63-.66.63-.66c.27-1.57.48-3.18.63-4.82.08-.75.15-1.51.2-2.28h0c.22-2.92.28-5.92.25-9,0-.78,0-1.57-.05-2.36-.09-3-.28-5.91-.54-8.83-.07-.85-.15-1.69-.24-2.53-.29-2.83-.64-5.61-1-8.3-.12-.83-.24-1.65-.38-2.46-.44-2.91-.93-5.68-1.42-8.25h0c-.07-.35-.14-.69-.2-1-.62-3.13-1.23-5.93-1.77-8.29-.68-2.95-1.25-5.2-1.6-6.55l-.4-1.42Z" style="fill:#EC407A"></path><path d="M354.6,302.75a40.29,40.29,0,0,0-3.45,7.09,69.66,69.66,0,0,0-2.63,8.78h0c-4.29,18.16-3.86,41.19-3.54,49.35a7.23,7.23,0,0,1-1.33,4.6,5.5,5.5,0,0,0-.69,1.19,3.94,3.94,0,0,0-.34,1.44,3.41,3.41,0,0,0,.79,2.43l-.79,1.4-1.75,3.48H330.66a4.52,4.52,0,0,1,.12-.62,14.05,14.05,0,0,1,.44-1.69c.06-.15.12-.28.19-.43a20.64,20.64,0,0,1,1.82-3.11,37.24,37.24,0,0,1,2.45-3.14c.42-.49.8-.9,1.09-1.22s.63-.66.63-.66c.27-1.57.48-3.18.63-4.82.08-.75.15-1.51.2-2.28h0c.22-2.92.28-5.92.25-9,0-.78,0-1.57-.05-2.36-.09-3-.28-5.91-.54-8.83-.07-.85-.15-1.69-.24-2.53-.29-2.83-.64-5.61-1-8.3-.12-.83-.24-1.65-.38-2.46-.44-2.91-.93-5.68-1.42-8.25h0c-.07-.35-.14-.69-.2-1-.62-3.13-1.23-5.93-1.77-8.29-.68-2.95-1.25-5.2-1.6-6.55l-.4-1.42Z" style="fill:#fff;opacity:0.7000000000000001"></path><path d="M333.23,376.67a15.78,15.78,0,0,0-2.57,5.85h10.21l1.74-3.48A17.37,17.37,0,0,1,333.23,376.67Z" style="fill:#263238"></path><path d="M432.84,377.23c-1.38,1.72-2.29,3.1-2.43,5.14h10.2a11.45,11.45,0,0,1,.05-3.24A27.59,27.59,0,0,1,432.84,377.23Z" style="fill:#263238"></path><path d="M400.1,376.8c-2.9,4.23-2.66,5.57-2.66,5.57H408l.72-3.55A35.51,35.51,0,0,1,400.1,376.8Z" style="fill:#263238"></path><path d="M313,255.9c-3-1.43-3.83-5.14-4.53-8.35s-2.08-6.92-5.27-7.71c0-.17-.08-.34-.12-.52-.58-2.34-1.16-5.65-1.74-8.21,1.61.3,3.21.65,4.8,1.06.22,2.29.58,5,1,7.64a45.13,45.13,0,0,0,1.18,5.08A59.14,59.14,0,0,0,313,255.9Z" style="opacity:0.7000000000000001"></path><path d="M319.42,244.08l0,.57A32.87,32.87,0,0,1,317.2,255l-.27.68,1.82-1.49a19.72,19.72,0,0,0-2,6.67,22.29,22.29,0,0,0,.38,7.56c-2.41-2.52-3-6.66-3.16-10.39-.07-2.28.4-9.79,1.06-15.51a41,41,0,0,0-.07-7.61c1.25.46,2.91,1,4,1.48C319.52,238,319.48,242.44,319.42,244.08Z" style="opacity:0.7000000000000001"></path><path d="M331.44,247.64a22.25,22.25,0,0,1-.15,3.06,2.51,2.51,0,0,1,0,.27l0,.23a34.25,34.25,0,0,1-5.9,15.14c-.23.33-.46.63-.69.94l2.69-5.81a25,25,0,0,0-5.59,9.43,26,26,0,0,0-1.25,9.91c-.38-.72-.76-1.41-1.15-2.09a26.13,26.13,0,0,1-.5-9,52.54,52.54,0,0,1,2.38-11.28c1.07-2.52,2.4-4.88,3-7.69a7.35,7.35,0,0,0,1.09-2.95s0-.07,0-.1a39.91,39.91,0,0,0-.07-4.67,27.71,27.71,0,0,1,.44-3.79c.68.32,1,.51,1,.51l3.57,1.36h0A25.67,25.67,0,0,1,331.44,247.64Z" style="opacity:0.7000000000000001"></path><path d="M343.87,258.21a.07.07,0,0,1,0,.06l-.06.28a40.29,40.29,0,0,1-10.55,20.35l-.05.05v0l1.12-3.15c.81-2.32,1.63-4.62,2.44-6.93A32.17,32.17,0,0,0,327.58,281c-.3.67-.57,1.36-.82,2a32.79,32.79,0,0,0-1.79,8.05v0l-.27-.8c-.27-.74-.56-1.49-.85-2.22v0c0-.82,0-1.64.1-2.47a29.12,29.12,0,0,1,.58-4,30.64,30.64,0,0,1,6.2-13.05c2-2.39,4.34-4.54,5.64-7.35a10.36,10.36,0,0,0,.65-6.58c0-.13,0-.26-.08-.38-.13-.65-.28-1.29-.44-1.93h0c-.51-2-1.42-7-1.1-9.14l6.49,2.5c.7,2.06,1.36,8,2.13,11.76A2.26,2.26,0,0,1,343.87,258.21Z" style="opacity:0.7000000000000001"></path><path d="M354.76,264.74c-.75,7.22-6,13.56-10.49,19.26s-9,12.21-8.63,19.47a30,30,0,0,1,8.93-24.83c-11.41,6.2-16.82,21.53-11.84,33.52-7.06-7.85-6.75-21.22.65-28.74,4.23-4.29,10.37-6.87,13.13-12.23,2.92-5.64,1.29-13.18-.56-19.25Z" style="opacity:0.7000000000000001"></path><path d="M361.55,314.69a21.13,21.13,0,0,1-5.86-4.79,24,24,0,0,1-2.8-4.06,23,23,0,0,1-1.2-2.44,2.52,2.52,0,0,1-.12-.29,32.6,32.6,0,0,1-2.36-15c.14-2,2.1-10,4.63-16.85a56.69,56.69,0,0,1,2.68-6.24c1.1.19,2.32.45,3.62.76-1.17,2.89-2.36,5.76-3.43,8.67a58.21,58.21,0,0,0-3.49,13.83,37.65,37.65,0,0,0,1.15,14.33c0,.06,0,.11.05.16l.06.18a28.42,28.42,0,0,0,2.66,6.2A24.67,24.67,0,0,0,361.55,314.69Z" style="opacity:0.7000000000000001"></path><path d="M370.29,313.15l.6.51c-.17-.1-.34-.2-.51-.32Z" style="opacity:0.7000000000000001"></path><path d="M368.62,308.69c.6,1.7,1.13,3.27,1.67,4.46a19.69,19.69,0,0,1-3.9-5,42.7,42.7,0,0,1-2.32-4.82c-.27-.64-.51-1.29-.75-2a29.25,29.25,0,0,1-1.63-12.57,15.7,15.7,0,0,1,.43-2.66,56.52,56.52,0,0,1,3.63-8.57,60.29,60.29,0,0,1,3.66-6c.46-.7.94-1.38,1.43-2,.61.16,1.71.41,3.3.68a52.3,52.3,0,0,0-3.55,4.86,35.51,35.51,0,0,0-5.08,12.83,26,26,0,0,0-.37,3.76,35.11,35.11,0,0,0,.94,8.54c.15.67.32,1.33.49,2C367.16,304.43,367.9,306.63,368.62,308.69Z" style="opacity:0.7000000000000001"></path><path d="M380.34,312.61a1.38,1.38,0,0,1-.22.13,3,3,0,0,0,.07-.32Z" style="opacity:0.7000000000000001"></path><path d="M413.2,270.31c-2.47.71-5,1.42-7.45,2.34a31.36,31.36,0,0,0-7.13,3.48A21.05,21.05,0,0,0,390.36,287a15.78,15.78,0,0,0-.67,3.71,31.28,31.28,0,0,0,1.11,8.47c.15.66.29,1.33.43,2a23.48,23.48,0,0,1,.61,6.49c-.15,2-.82,3.7-1.91,4.43a2.54,2.54,0,0,1-.08-.58,21.9,21.9,0,0,1-1.79-6.9c-.25-1.85-.45-3.69-.79-5.31-.15-.68-.27-1.36-.4-2.05-.76-4.19-1.2-8.57.24-12.64a13.17,13.17,0,0,1,1.12-2.44,25.34,25.34,0,0,1,6.41-6.7,34.72,34.72,0,0,1,6.17-3.46c.75-.36,1.52-.69,2.28-1h0c3.08-.18,6.4-.45,10-.81Z" style="opacity:0.7000000000000001"></path><path d="M399.91,282.69c1.84-3.77,5.4-6.48,9.26-8.11a52.68,52.68,0,0,1,12.18-3c3.22-.52,7.2-.75,9.06,1.94-3,.21-6.06.42-9,.89a33.7,33.7,0,0,0-8.65,2.46c-5.49,2.49-10.25,7.51-10.67,13.53-.2,2.85.57,5.66,1.19,8.45s1.08,5.73.3,8.47c-.57,2-1.84,3.83-3.77,4.33-1.57-3.6-.39-10.07-.82-14.19C398.43,292.52,397.65,287.34,399.91,282.69Z" style="opacity:0.7000000000000001"></path><path d="M377.38,291.2a33.6,33.6,0,0,0,1,8.51c.15.65.3,1.32.45,2,.52,2.24,1.07,4.43,1.34,6.5a13.62,13.62,0,0,1,0,4.22,19.3,19.3,0,0,1-3-6c-.57-1.69-1.05-3.44-1.55-5.06-.21-.66-.4-1.34-.58-2a31.78,31.78,0,0,1-1.16-8.77c-2.4-2.92-3.57-7.55-1.51-10.4q3.35-4.67,6.73-9.34l1.8.17a27.3,27.3,0,0,0-5.45,12.53,39.36,39.36,0,0,1,4.69-7,42.51,42.51,0,0,1,4.92-4.76c.21-.19.42-.36.64-.54,1.28.06,2.64.09,4.1.1a35.49,35.49,0,0,0-5.24,4.27,25.53,25.53,0,0,0-6.67,11.83A19.27,19.27,0,0,0,377.38,291.2Z" style="opacity:0.7000000000000001"></path><path d="M438.93,284.22c1.94-3.16-4.26,1.4-6.19,2.91-3.36,2.64-9.37,3.73-12.54,6.6a14.87,14.87,0,0,0-1.1,1.14,25.62,25.62,0,0,0-4.41,7.62A54.42,54.42,0,0,0,412,312a36.05,36.05,0,0,1,5.36-8.28l.42-.52a36,36,0,0,1,7.31-6.9c1.51-1.05,3.44-2.23,5.38-3.52.85-.57,1.75-1.24,2.64-1.92s1.67-1.33,2.43-2C437.28,287.3,438.63,285.7,438.93,284.22Z" style="opacity:0.7000000000000001"></path><path d="M433.16,300.79c-4.89,6.61-9.46,10-15.62,11.72a10.05,10.05,0,0,0,7.31-1.19c2.91-1.53,6.38-3,8.62-6.59.73-1.16,6.18-8,6.86-9.77s.42-1.79.15-3.22C439.27,293,435.16,298.08,433.16,300.79Z" style="opacity:0.7000000000000001"></path><path d="M430.08,319.67a8,8,0,0,0,3.79-1.81,13.34,13.34,0,0,0,2.75-3.17,23.23,23.23,0,0,0,1.43-3.6,7.59,7.59,0,0,0,.32-3.86c-.88,1-1.52,2.95-2.49,4.21a21.71,21.71,0,0,1-4.83,4.32l-4.71,3.41-1.91,1.34C426.17,319.42,428.18,320,430.08,319.67Z" style="opacity:0.7000000000000001"></path><path d="M437.5,329.21a9.39,9.39,0,0,1-1,1.06,7.67,7.67,0,0,1-3.55,1.85c-1.86.36-3.86-.08-5.5.94.54-.45,1.16-.89,1.7-1.34l4.17-3.51a23.73,23.73,0,0,0,3.63-3.54A11.74,11.74,0,0,0,437.5,329.21Z" style="opacity:0.7000000000000001"></path><path d="M442.34,337l0,.26a10.66,10.66,0,0,1-2.25,2.46A6.63,6.63,0,0,1,437,341.1c-1.39.21-2.85-.07-4.14.27l-.14-.18c.3-.2.59-.41.86-.63l3.4-2.9a17.17,17.17,0,0,0,3.45-3.6.75.75,0,0,0,.07-.12l1,1.57C441.8,336,442.08,336.48,442.34,337Z" style="opacity:0.7000000000000001"></path><path d="M444.6,348.7l-.07.05a5.66,5.66,0,0,1-2.58,1c-1.42.14-2.92-.3-4.18.09.33-.28.78-.49,1.12-.76.87-.78,1.76-1.54,2.64-2.31a14.5,14.5,0,0,0,2.68-2.83,6.5,6.5,0,0,0,.47-.87A18.4,18.4,0,0,1,444.6,348.7Z" style="opacity:0.7000000000000001"></path><path d="M444.33,358.6h0l-.44.25a5.52,5.52,0,0,1-2.12.59,12.28,12.28,0,0,1-2.5-.29c0-.22,0-.44,0-.67l1.72-1.56a11.22,11.22,0,0,0,1.92-2.07c.4-.59.64-1.42,1-1.89.13.2.26.41.38.64h0c0,.95,0,2,0,3,0,.54,0,1.09.05,1.64C444.32,358.37,444.33,358.48,444.33,358.6Z" style="opacity:0.7000000000000001"></path><path d="M441.59,369.09a4.31,4.31,0,0,0,1.64-.17,5.49,5.49,0,0,0,1.44-.6c-.38-.57-.74-1.21-1.14-1.86a14.13,14.13,0,0,0-1.34-1.89c-.24.3-.41.79-.66,1.16a9.14,9.14,0,0,1-1.15,1.31l-1.11,1.1c-.11.09-.42.1-.53.19A19.18,19.18,0,0,0,441.59,369.09Z" style="opacity:0.7000000000000001"></path><path d="M436.36,376.79a6.88,6.88,0,0,0,2.19,1.18,5.88,5.88,0,0,0,1.16.26,5.71,5.71,0,0,0,1.17,0l-1.63-1.41-1.63-1.42-1,1.48Z" style="opacity:0.7000000000000001"></path><path d="M338.31,306.39c-1.94,1.24-3,3.54-4.08,5.55a7.7,7.7,0,0,0-.79,6.61,17.53,17.53,0,0,1,1.86-5.44,6.32,6.32,0,0,1,4.56-3.2c2.3-.23,4.5,1.3,5.74,3.25a19.17,19.17,0,0,1,2.18,6.56c1.2-1.44,1-3.65.11-5.33s-3.28-5.3-4.26-6.91c-2.9-4.73,2.58-15.39-.47-14" style="opacity:0.7000000000000001"></path><path d="M343,373.77a3.94,3.94,0,0,0-.34,1.44,13.61,13.61,0,0,1-2.77-.21,13,13,0,0,1-4.17-1.47c.42-.49.8-.9,1.09-1.22A54.55,54.55,0,0,1,343,373.77Z" style="opacity:0.7000000000000001"></path><path d="M342.37,369.43c-.64.14-1.24-.35-1.74-.92a5.83,5.83,0,0,0-1.56-1.54,1.79,1.79,0,0,0-1-.14c.08-.75.15-1.51.2-2.28h0a1.25,1.25,0,0,1,1.17.12,3.23,3.23,0,0,1,.7.93c.29.47.62,1.06.93,1.63A10.65,10.65,0,0,0,342.37,369.43Z" style="opacity:0.7000000000000001"></path><path d="M343,358a.9.9,0,0,1-.56.05,3.57,3.57,0,0,1-1.62-1l-.66-.62a3.53,3.53,0,0,0-1.51-.8l-.21,0c0-.78,0-1.57-.05-2.36a4,4,0,0,1,1.45.44,4,4,0,0,1,.85.83c.37.43.8.93,1.2,1.44a7.84,7.84,0,0,1,.6.94A10.78,10.78,0,0,1,343,358Z" style="opacity:0.7000000000000001"></path><path d="M343.68,346.7a.93.93,0,0,1-.67.1,4.44,4.44,0,0,1-1.94-1.16,10.27,10.27,0,0,0-.84-.67,3.23,3.23,0,0,0-1.93-.62,2.7,2.7,0,0,0-.41,0c-.07-.85-.15-1.69-.24-2.53a3.92,3.92,0,0,1,.52.13,11.68,11.68,0,0,1,2.18.78,5,5,0,0,1,1,.72c.46.4,1,.8,1.47,1.25a2.58,2.58,0,0,1,.62.83A1.78,1.78,0,0,1,343.68,346.7Z" style="opacity:0.7000000000000001"></path><path d="M344.27,335.44a1,1,0,0,1-.77.15,5.44,5.44,0,0,1-2.26-1.28,11.28,11.28,0,0,0-1-.72,3.58,3.58,0,0,0-2.35-.44,3.79,3.79,0,0,0-1.24.42c-.12-.83-.24-1.65-.38-2.46.63-.83.95-.59,1.8-.27s1.82.67,2.74,1.09a12.15,12.15,0,0,1,1.12.63c.57.35,1.18.68,1.75,1.06a1.51,1.51,0,0,1,.64.72A1.14,1.14,0,0,1,344.27,335.44Z" style="opacity:0.7000000000000001"></path><path d="M335,323.52a4.92,4.92,0,0,1,2.51-1.65,3.93,3.93,0,0,1,2.77.28c1.29.63,2.43,2,3.79,2.15a1,1,0,0,0,.88-.2,1,1,0,0,0-.38-1.68L341.24,321l-3.28-1.4c-1.12-.48-1.47-.88-2.27.36a4.73,4.73,0,0,0-.65,1.66A6,6,0,0,0,335,323.52Z" style="opacity:0.7000000000000001"></path><path d="M286.59,256.65l-.39,1.92a2.39,2.39,0,0,1,2.09-.72c.77.06,1.51.3,2.28.38a5.12,5.12,0,0,0,5.3-3.94c.31-1.51-.09-3.07,0-4.61s.6-3.17.75-4.78-.24-3.44-1.58-4.34c.76,1.32,0,3.45-.18,5q-.46,3.1-.92,6.2a10.41,10.41,0,0,1-.66,2.72,3.52,3.52,0,0,1-1.92,1.94,5.25,5.25,0,0,1-2.4.05C288.22,256.33,287.29,256.74,286.59,256.65Z" style="opacity:0.7000000000000001"></path><path d="M290.71,265.34a4.48,4.48,0,0,1,.9,2c0,1.05.05,2.22.08,3.27-.36-1-.31-2.36-1-3.18-.27-.32-.35-.84-.62-1.16a12.85,12.85,0,0,0-3.76.31A13.61,13.61,0,0,1,290.71,265.34Z" style="opacity:0.7000000000000001"></path><path d="M292.84,263.54a14,14,0,0,1,.56,4.79,13,13,0,0,0-1.24-3.93c-.25-.4-2.5-.87-3.27-1a21,21,0,0,0-2.63.16,9.49,9.49,0,0,1,6.12-1.09C292.52,262.8,292.87,263.2,292.84,263.54Z" style="opacity:0.7000000000000001"></path><path d="M294.06,259.83a12.35,12.35,0,0,1,1,6.32,15.42,15.42,0,0,0-1.49-4.68c-.24-.48-4.65-.92-5.93-.77a4.38,4.38,0,0,1-1.49,0,9.61,9.61,0,0,1,7.85-.92C294,259.77,294.14,259.84,294.06,259.83Z" style="opacity:0.7000000000000001"></path><path d="M286.06,259.56a19.16,19.16,0,0,0,.49,7.61,37,37,0,0,0,0-4.21,6.67,6.67,0,0,1,1.11-4.11A1.89,1.89,0,0,0,286.06,259.56Z" style="opacity:0.7000000000000001"></path><path d="M289.72,243.58a12.87,12.87,0,0,0-.66,1.41,12.62,12.62,0,0,0-.48,1.47,12.33,12.33,0,0,0-.39,3.08,2.93,2.93,0,0,0,.87-1.44,15.31,15.31,0,0,0,.38-1.73c.11-.56.18-1.14.28-1.7a9.17,9.17,0,0,1,.42-1.66C290.07,243.08,289.77,243.5,289.72,243.58Z" style="opacity:0.7000000000000001"></path><path d="M291.1,244.05c-.13.76-.25,1.53-.4,2.29-.19,1-.37,2-.49,3.08l.49-.24a2.12,2.12,0,0,0,.35-.23c.14-.64.23-1.3.33-1.94,0-.17.05-.34.08-.51.06-.46.13-.92.19-1.38s.11-.72.18-1.07a4.38,4.38,0,0,0,.1-.79s-.21.16-.26.18A4.9,4.9,0,0,0,291.1,244.05Z" style="opacity:0.7000000000000001"></path><path d="M293.13,243.11c-.05,1-.16,2.08-.31,3.11s-.34,2.06-.58,3.07a.81.81,0,0,1,.45.15,1.66,1.66,0,0,1,.35.35c.12-.9.23-1.8.35-2.7s.23-1.8.35-2.7a2.17,2.17,0,0,0,0-.88C293.65,243.23,293.43,243.13,293.13,243.11Z" style="opacity:0.7000000000000001"></path><path d="M305.8,253.4a8.9,8.9,0,0,0-.31-5.83c-.57-1.37-2.17-4-3.79-4.12.66,1.6,1.82,3.06,2.51,4.7A26.72,26.72,0,0,1,305.8,253.4Z" style="opacity:0.7000000000000001"></path><path d="M296.14,239c0-.2-.38-.29,0-.33,1.38.87,1.27,3.45,1.6,4.89,1.33,5.82,6.21,10.76,7,16.67.6-3.12-.76-6.31-2.11-9.19s-2.95-5.74-3.31-8.9C299.16,240.62,297.56,239.44,296.14,239Z" style="opacity:0.7000000000000001"></path><path d="M297.74,253.64c-.52-1.57-.59-4.14-1.85-5.08-.44-.21-.48-.35-.81-.18a2.9,2.9,0,0,1,2.41,1.16c.13,1.87,1.38,3.38,2.31,5a16.31,16.31,0,0,1,1.46,7.65C300.9,259.12,298.35,256.61,297.74,253.64Z" style="opacity:0.7000000000000001"></path><path d="M297.81,264.27c-.71-1.72-1-4.28-2.1-5.28-.51-.45-1-.83-1.64-.69.55-.73.76-.57,1.64-.82-.1.58.8.74,1.31,1a23.58,23.58,0,0,1,.81,6.09C297.93,264.46,297.72,264.39,297.81,264.27Z" style="opacity:0.7000000000000001"></path><path d="M286.52,251l-3.8,9.21a1.18,1.18,0,0,1,1.63.27,12.38,12.38,0,0,1,1.5-5.07,9.86,9.86,0,0,0,1.24-2.33A1.71,1.71,0,0,0,286.52,251Z" style="opacity:0.7000000000000001"></path><path d="M287.71,244.48A56.21,56.21,0,0,1,281,260.7c1.38-4.09,2.58-8.35,4-12.43C285.48,246.74,286.77,245.79,287.71,244.48Z" style="opacity:0.7000000000000001"></path><path d="M310.36,266c-.51-.62-1-1.2-1.48-1.73-.21-.23-.4-.45-.61-.67l-.11-.12a4.14,4.14,0,0,1-.54-1.07,4,4,0,0,1,0-1.81,50.29,50.29,0,0,1,1.1-6c.79,1.28.69,4.05.59,5.63A13.73,13.73,0,0,0,310.36,266Z" style="opacity:0.7000000000000001"></path><path d="M313.93,270.44c-.27-.35-.54-.69-.79-1l-.52-.68a12,12,0,0,1-.6-4.83c.08-2,0-4,0-5.92.62.89.62,2.28.76,3.38C313.13,264.38,313.52,267.41,313.93,270.44Z" style="opacity:0.7000000000000001"></path><path d="M329.5,316.5c-.35-.15-.68-.32-1-.5a13.09,13.09,0,0,1-4.89-4.63c.59-.37,1.17-.73,1.72-1.05l.34-.21.15-.09h0C326.52,312.55,327.37,315,329.5,316.5Z" style="opacity:0.7000000000000001"></path><path d="M319.5,314.1c.75,2.57,1.6,5.21,3.86,6.48a9,9,0,0,1-6-4.95Z" style="opacity:0.7000000000000001"></path><path d="M317.23,324.63c-2,.31-4.49-1.25-5.38-3.51a3.81,3.81,0,0,1,0-.68c.51-.52,1-1,1.59-1.52C314.16,321.29,315.06,323.75,317.23,324.63Z" style="opacity:0.7000000000000001"></path><path d="M311.31,328.44c-1.2,1.11-3.29.51-4.22-.84a11.39,11.39,0,0,1,1.08-2.49C308.83,326.69,309.75,328.05,311.31,328.44Z" style="opacity:0.7000000000000001"></path><path d="M312.19,330.33a11.13,11.13,0,0,1-1.57,1.28,12,12,0,0,1-1.75,1,12.69,12.69,0,0,1-1.67.6,14.12,14.12,0,0,1-.28-1.52,18,18,0,0,0,1.95-.29A16.86,16.86,0,0,0,312.19,330.33Z" style="opacity:0.7000000000000001"></path><path d="M314.91,335.47a2,2,0,0,1-.47.95c-.26.3-.57.58-.92.91a7.54,7.54,0,0,1-1.71,1.18,8.21,8.21,0,0,1-1.59.59l-.37.09a22.49,22.49,0,0,1-1.18-2,9.91,9.91,0,0,0,1.54,0,10.36,10.36,0,0,0,1.68-.3A9.6,9.6,0,0,0,314.91,335.47Z" style="opacity:0.7000000000000001"></path><path d="M317.56,341.86a10.84,10.84,0,0,1-1,1.18,6.12,6.12,0,0,1-1.68,1.39,5.27,5.27,0,0,1-.81.36c-.51-.7-1-1.39-1.59-2.08a5.66,5.66,0,0,0,.92,0,7.13,7.13,0,0,0,1.65-.35,6,6,0,0,0,2.7-1.75A1.51,1.51,0,0,1,317.56,341.86Z" style="opacity:0.7000000000000001"></path><path d="M320.61,347.3a13.41,13.41,0,0,1-1.05,1.47,5.89,5.89,0,0,1-1.64,1.58,3.7,3.7,0,0,1-.66.33,5.46,5.46,0,0,1-.51-1.06c-.18-.48-.37-.94-.58-1.38l.39,0a5.51,5.51,0,0,0,1.6-.39,4.62,4.62,0,0,0,2.4-2.1A1.65,1.65,0,0,1,320.61,347.3Z" style="opacity:0.7000000000000001"></path><path d="M323.79,350a7.39,7.39,0,0,1-1.29,4.35,14.15,14.15,0,0,0-1.68-.86A9.27,9.27,0,0,0,323.79,350Z" style="opacity:0.7000000000000001"></path><path d="M328.32,358.63a11.13,11.13,0,0,1-1.13,0c-.3-.41-.62-.8-.93-1.17,0-1.4-.06-2.82-.09-4.24C326.88,355,327.61,356.83,328.32,358.63Z" style="opacity:0.7000000000000001"></path><path d="M422.38,332.64a30.64,30.64,0,0,1-3.11.64c-1.1.16-2.22.24-3.32.32s-2.33.16-3.5.18c-.58,0-1.16,0-1.74,0l-.24-.92,0,0q1.62-.25,3.24-.57l1.58-.31,1.64-.35c.8-.17,1.6-.35,2.4-.55,1-.23,1.91-.48,2.87-.74C422.3,331.1,422.34,331.88,422.38,332.64Z" style="opacity:0.7000000000000001"></path><path d="M422.6,341.73a16.83,16.83,0,0,1-2.8.52,27,27,0,0,1-3,.08c-.79,0-1.59,0-2.38,0s-1.43-.11-2.15-.2c0-.37-.06-.76-.11-1.16.81-.08,1.62-.16,2.41-.27l1.44-.18,1.48-.23,2.15-.36c1-.19,2-.39,3-.61C422.64,340.13,422.63,341,422.6,341.73Z" style="opacity:0.7000000000000001"></path><path d="M408.84,374.75a9,9,0,0,0-.21,2c-.42,0-.83,0-1.25-.07a15.07,15.07,0,0,1-2.66-.52c.78-.25,1.55-.52,2.33-.8Z" style="opacity:0.7000000000000001"></path><path d="M412.9,369.84a5.46,5.46,0,0,1-1.45,1.92l-.84-.14a10,10,0,0,1-1.51-.42,9.45,9.45,0,0,1-1.43-.61c1-.08,2-.24,2.92-.41C411.35,370.05,412.11,369.92,412.9,369.84Z" style="opacity:0.7000000000000001"></path><path d="M414.24,365c-.15.54-.29,1.07-.43,1.58l-.08,0a11.22,11.22,0,0,1-1.67-.63,10.91,10.91,0,0,1-1.55-.92,29.34,29.34,0,0,0,3.51,0Z" style="opacity:0.7000000000000001"></path><path d="M416.94,356.74c-.25.62-.49,1.26-.7,1.9h-.05a10.56,10.56,0,0,1-2.11-.67,10.25,10.25,0,0,1-1.91-1.07c.73,0,1.46,0,2.19,0s1.43-.06,2.14-.11Z" style="opacity:0.7000000000000001"></path><path d="M421.39,348.28a5.33,5.33,0,0,1-.63,1,14,14,0,0,0-1,1.5,9.65,9.65,0,0,1-1.08-.13,12.33,12.33,0,0,1-2.53-.7,11.66,11.66,0,0,1-2.31-1.24q1.29,0,2.58-.06c.87,0,1.74-.1,2.59-.17S420.58,348.37,421.39,348.28Z" style="opacity:0.7000000000000001"></path><path d="M436.84,278.22c-.08.12-.17.23-.26.34a6,6,0,0,1-.43.45c-1.95,2-5.48,3.72-9.14,5.31-4.25,1.85-8.7,3.5-11.12,5a17,17,0,0,0-2.1,1.59,16.76,16.76,0,0,0-4.42,6.62,26.38,26.38,0,0,0-1,3.16c-.16.65-.3,1.31-.42,2a60.37,60.37,0,0,0-.8,7c-.09,1.37-1.19,1.17-1.33-.48a51.22,51.22,0,0,1-.14-6.1V303c0-.93.11-1.87.2-2.79.54-5.5,2.07-10.76,4.94-14,2.55-2.86,7.72-4.09,12.23-5.53a23.76,23.76,0,0,0,5.5-2.32c.36-.22,1-.59,1.71-1,.44-.25.91-.5,1.41-.76.66-.34,1.36-.69,2.06-1a22.12,22.12,0,0,1,2.24,2.29A5.78,5.78,0,0,1,436.84,278.22Z" style="opacity:0.7000000000000001"></path></g><g id="freepik--Bird--inject-75"><path d="M162.25,243.48a15.55,15.55,0,0,1-.77,5.41L170.11,260a13.88,13.88,0,0,1,.89,1.27c.91,1.46,2.5,2.71,2.76,5a22,22,0,0,0-2.69-3.7s1.36,3.49.52,5.38c0,0-.15-4.84-2.11-6.88a2.76,2.76,0,0,0-3.16-.42s-.42-1.19,2.81-.63c0,0-8.85-9.9-8.85-10.81s1.06-3.09.71-5.27Z" style="fill:#263238"></path><path d="M157.68,243.8s-1.7,4.17-1.63,5.58c.06,1.19,1.62,16.06,2.1,20.43.08.64-.39,1-1,1.08s-1.68,0-1.74.88H166a8.75,8.75,0,0,0-2.9-1.12c-1,0-3.65.91-3.79-.56s-2.09-16-1.2-21.06a43.37,43.37,0,0,1,2-5.55Z" style="fill:#263238"></path><path d="M155.91,244.7s6.55,2,12.26-1.85,8.09-12,8.09-12l-4.16,1.79L165.17,238l-4.77,3-4.73,3.28Z" style="fill:#EC407A"></path><path d="M155.91,244.7s6.55,2,12.26-1.85,8.09-12,8.09-12l-4.16,1.79L165.17,238l-4.77,3-4.73,3.28Z" style="fill:#fff;opacity:0.5"></path><path d="M151.88,246.64a60.5,60.5,0,0,1,9.6-2.57c4.77-.8,12.39-3.66,14.29-11.28s2.32-9.74-1.89-8.2a7.62,7.62,0,0,0-4.68,6l-6.65,8.19-6.27,3.51s-3.65,1.41-3.74,1.92S151.88,246.64,151.88,246.64Z" style="fill:#263238"></path><path d="M173.74,222.21a9.68,9.68,0,0,0,5.85-9.93c-.7-7.39-6.79-8.23-3.42-15.58,0,0,2.62-9,12-2.15l.24,2.43a37.44,37.44,0,0,1-8.38,1.45,3.32,3.32,0,0,0-.47,4c1.31,2.34,6.42,9.12,4.12,15.07s-3.84,8.56-4.07,11.37a3.65,3.65,0,0,1-.28-2.71,11.7,11.7,0,0,0-.84,3.48c-.05,1.57-.66,6.1-.66,6.1l-.37-5.51s-.35,5.47-1.18,7.07l.29-6s-.89,5.5-1.87,6.34l.51-6.89-1.87-7.1Z" style="fill:#EC407A"></path><path d="M173.74,222.21a9.68,9.68,0,0,0,5.85-9.93c-.7-7.39-6.79-8.23-3.42-15.58,0,0,2.62-9,12-2.15l.24,2.43a37.44,37.44,0,0,1-8.38,1.45,3.32,3.32,0,0,0-.47,4c1.31,2.34,6.42,9.12,4.12,15.07s-3.84,8.56-4.07,11.37a3.65,3.65,0,0,1-.28-2.71,11.7,11.7,0,0,0-.84,3.48c-.05,1.57-.66,6.1-.66,6.1l-.37-5.51s-.35,5.47-1.18,7.07l.29-6s-.89,5.5-1.87,6.34l.51-6.89-1.87-7.1Z" style="fill:#fff;opacity:0.5"></path><path d="M179.59,224.88l.37-2.81-2.24,5.85v-3.8l-1.46,4.73-.49-3.27a26.81,26.81,0,0,1-.62,5.07l0,.16-.51,6.89c1-.84,1.87-6.34,1.87-6.34l-.29,6c.83-1.6,1.18-7.07,1.18-7.07l.37,5.51s.61-4.53.66-6.1a11.7,11.7,0,0,1,.84-3.48,3.65,3.65,0,0,0,.28,2.71c.19-2.23,1.2-4.34,2.75-8.08Z" style="fill:#fff;opacity:0.5"></path><path d="M188.16,194.55c-9.37-6.84-12,2.15-12,2.15h3l.89,1.73a37.44,37.44,0,0,0,8.38-1.45Z" style="fill:#fff;opacity:0.4"></path><path d="M172.41,198.47a2.88,2.88,0,0,0-.22.38Z" style="fill:#EC407A"></path><path d="M182.63,192a19,19,0,0,0-2.53,1.09c-4-.34-6.9,4-7.69,5.35a9.45,9.45,0,0,1,2.78-2.38c-1.83,2.57-1.87,6.51-1.87,6.51,3.18-11.85,7.58-7.77,9-8.76a6.09,6.09,0,0,1,3.68-.68A9.78,9.78,0,0,0,182.63,192Z" style="fill:#263238"></path><polygon points="188.16 194.55 186.47 195.9 188.39 196.98 200.32 196.47 188.16 194.55" style="fill:#263238"></polygon><path d="M184.38,194.92c-.06.37.1.7.34.74s.49-.23.54-.61-.09-.71-.34-.74S184.43,194.54,184.38,194.92Z" style="fill:#263238"></path><path d="M184,193.83a.18.18,0,0,0,.2,0,2.13,2.13,0,0,1,1.68.28.18.18,0,0,0,.25-.06.18.18,0,0,0,0-.24,2.52,2.52,0,0,0-2-.31.17.17,0,0,0-.1.23A.09.09,0,0,0,184,193.83Z" style="fill:#263238"></path><path d="M173.74,222.21s-25.84-5.48-29.35,26.26c0,0,1,2.66,4.31.74s6.36-4.63,11.84-6.6S181.23,238,173.74,222.21Z" style="fill:#EC407A"></path><path d="M173.74,222.21s-25.84-5.48-29.35,26.26c0,0,1,2.66,4.31.74s6.36-4.63,11.84-6.6S181.23,238,173.74,222.21Z" style="fill:#fff;opacity:0.30000000000000004"></path><g style="opacity:0.30000000000000004"><path d="M152.44,233.58s-4.12,2.86-3.41,7A13.18,13.18,0,0,1,152.44,233.58Z" style="fill:#fff"></path><path d="M163,228.39s-4.11,2.86-3.41,7A13.18,13.18,0,0,1,163,228.39Z" style="fill:#fff"></path><path d="M155.38,231.36s-4.12,2.86-3.42,7A13.24,13.24,0,0,1,155.38,231.36Z" style="fill:#fff"></path><path d="M166.52,226.19s-4.12,2.85-3.42,7A13.19,13.19,0,0,1,166.52,226.19Z" style="fill:#fff"></path><path d="M169.81,225.87s-4.39,2.42-4.11,6.59A13.14,13.14,0,0,1,169.81,225.87Z" style="fill:#fff"></path><path d="M157.13,233.16s-4.12,2.85-3.42,7A13.19,13.19,0,0,1,157.13,233.16Z" style="fill:#fff"></path><path d="M160.46,228.39s-3.69,3.4-2.42,7.38A13.18,13.18,0,0,1,160.46,228.39Z" style="fill:#fff"></path></g></g><g id="freepik--Bear--inject-75"><path d="M84.07,229.77s1,5.23.49,5.5-1.36-3.71-2-4.12-3.89,1.21-4.23.81,4.45-3,4.45-3l.79-.15Z" style="fill:#263238"></path><path d="M96.38,216s2,4.66,1.5,4.83-4-1-4-1l-.5.76s.69,3.76.09,4-1.4-.43-1.4-.43a23.2,23.2,0,0,1-6.12,4.4l-.84-1.33-1.73-.64a41.48,41.48,0,0,1,1.33-6.31s-1.47-.52-1.18-1.06,4.15-2.12,4.15-2.12l7.46-1.66Z" style="fill:#263238"></path><path d="M96.38,216s2,4.66,1.5,4.83-4-1-4-1l-.5.76s.69,3.76.09,4-1.4-.43-1.4-.43a23.2,23.2,0,0,1-6.12,4.4l-.84-1.33-1.73-.64a41.48,41.48,0,0,1,1.33-6.31s-1.47-.52-1.18-1.06,4.15-2.12,4.15-2.12l7.46-1.66Z" style="fill:#fff;opacity:0.2"></path><path d="M91,212.11s-5.67.47-5,1.13a6.2,6.2,0,0,0,1.74,1.13l2.42-.57Z" style="fill:#263238"></path><path d="M91,212.11s-5.67.47-5,1.13a6.2,6.2,0,0,0,1.74,1.13l2.42-.57Z" style="fill:#fff;opacity:0.2"></path><path d="M98.51,207.53s1.51,11.73-13.24,20.4a3.06,3.06,0,0,0-1.2,1.84A1,1,0,0,1,82.8,229a5.71,5.71,0,0,0,1.32-2s.27-5.7,5.14-13.19,9.21-7,9.21-7l-1.24.73Z" style="fill:#263238"></path><path d="M98.51,207.53s1.51,11.73-13.24,20.4a3.06,3.06,0,0,0-1.2,1.84A1,1,0,0,1,82.8,229a5.71,5.71,0,0,0,1.32-2s.27-5.7,5.14-13.19,9.21-7,9.21-7l-1.24.73Z" style="fill:#fff;opacity:0.7000000000000001"></path><path d="M84.07,229.77a3.06,3.06,0,0,1,1.2-1.84c14.75-8.67,13.24-20.4,13.24-20.4l-.85-.07-14.4,22.18A1.07,1.07,0,0,0,84.07,229.77Z" style="fill:#263238"></path><path d="M93.38,213.41l-1.19-1.08s-2.55,2.9-2.31,3.56-1.81,2.88-1.46,3.47S93.38,213.41,93.38,213.41Z" style="fill:#263238"></path><path d="M84,229.68a.64.64,0,0,1,.06.18c.13.7,1,5.16.47,5.41s-1.36-3.71-2-4.12-3.89,1.21-4.23.81,4.45-3,4.45-3l.79-.15Z" style="fill:#fff;opacity:0.2"></path><path d="M97.22,212.17s-3.49,1.47-4-2.59c0,0-.65,2.48.92,3.31S97.22,212.17,97.22,212.17Z" style="opacity:0.2"></path><g style="opacity:0.4"><path d="M93.38,213.41l-1.19-1.08s-2.55,2.9-2.31,3.56-1.81,2.88-1.46,3.47S93.38,213.41,93.38,213.41Z" style="fill:#fff"></path></g><path d="M96.41,210.58c-.26-.13-.41-.38-.32-.56s.37-.21.64-.07.41.38.32.55S96.68,210.71,96.41,210.58Z" style="fill:#fff;opacity:0.7000000000000001"></path><path d="M131.94,209.52s3.78-2.69,5-.16a6,6,0,0,1-1.39,7.23Z" style="fill:#EC407A"></path><path d="M131.94,209.52s3.78-2.69,5-.16a6,6,0,0,1-1.39,7.23Z" style="opacity:0.1"></path><path d="M131.94,209.52s3.78-2.69,5-.16a6,6,0,0,1-1.39,7.23Z" style="fill:#fff;opacity:0.7000000000000001"></path><path d="M140.87,236l-4.94-16.72s.59-3.62-1.52-6.11a4.79,4.79,0,0,0-.55-6.32c-3-3.16-7.11.67-7.11.67s-9.85-1.33-11.37.58l-2.58,3.41s-9-3.2-10,.4,0,9.5,7.8,11.49l1.48,4s-2.35,4,.73,10.25l.9,5.12Z" style="fill:#EC407A"></path><g style="opacity:0.8"><path d="M140.87,236l-4.94-16.72s.59-3.62-1.52-6.11a4.79,4.79,0,0,0-.55-6.32c-3-3.16-7.11.67-7.11.67s-9.85-1.33-11.37.58l-2.58,3.41s-9-3.2-10,.4,0,9.5,7.8,11.49l1.48,4s-2.35,4,.73,10.25l.9,5.12Z" style="fill:#fff"></path></g><path d="M119,232a10.37,10.37,0,0,1,8.19.56,1.15,1.15,0,0,1-.14,2.14,32.47,32.47,0,0,0-13.32,8l-.9-5.12c-3.08-6.3-.73-10.25-.73-10.25l-1.48-4c-5.14-1.31-7.33-4.31-7.94-7.24a1.42,1.42,0,0,1,1.74-1.65c4.34,1,14.08-1.9,15.85,2.6C122.42,222.51,113.56,234.17,119,232Z" style="opacity:0.1"></path><path d="M129.35,211.53a2.22,2.22,0,0,0,2.09.16c1.21-.51,2.69-1.56,1.28-3.34-2.15-2.75-5.93,1.23-5.93,1.23l1.27,1.12Z" style="opacity:0.2"></path><path d="M118.46,233.57a14.44,14.44,0,0,0-12.74,4.19c-1.45,1.53-1.23,4.26-1.37,6.43,0,0-8.33-3.79-12.62-5.54l-1.36-9s2.92-5.45,0-5.64a3,3,0,0,0-4.28-.59A4.37,4.37,0,0,0,82,225.81c-1.16,2.53-1.16,7-1.16,7s-3.31,15.33,4.28,21.95S102,264.92,108,268c0,0,.69,12.64,15.68,28.4l-.2,4.67s-8.17,12.26-2.91,19.85l7.2,13.82s-10.9-1.37-9.15,5.06H147a8.69,8.69,0,0,0-2.92-5.84l-1.36-8.37s3.7,6.81,8.37,8c0,0-2.92,1.95-1.75,6.23h15.95s6.82-3.9,5.65-7a6.41,6.41,0,0,0-3.7-3.89s-2-6-6.23-9.15a36,36,0,0,0,5.65-20.1c-.2-12-4.67-17.26-4.67-17.26l-15.74-29.35s4.16-8.14-5.38-17.09Z" style="fill:#EC407A"></path><g style="opacity:0.8"><path d="M118.46,233.57a14.44,14.44,0,0,0-12.74,4.19c-1.45,1.53-1.23,4.26-1.37,6.43,0,0-8.33-3.79-12.62-5.54l-1.36-9s2.92-5.45,0-5.64a3,3,0,0,0-4.28-.59A4.37,4.37,0,0,0,82,225.81c-1.16,2.53-1.16,7-1.16,7s-3.31,15.33,4.28,21.95S102,264.92,108,268c0,0,.69,12.64,15.68,28.4l-.2,4.67s-8.17,12.26-2.91,19.85l7.2,13.82s-10.9-1.37-9.15,5.06H147a8.69,8.69,0,0,0-2.92-5.84l-1.36-8.37s3.7,6.81,8.37,8c0,0-2.92,1.95-1.75,6.23h15.95s6.82-3.9,5.65-7a6.41,6.41,0,0,0-3.7-3.89s-2-6-6.23-9.15a36,36,0,0,0,5.65-20.1c-.2-12-4.67-17.26-4.67-17.26l-15.74-29.35s4.16-8.14-5.38-17.09Z" style="fill:#fff"></path></g><path d="M140.34,300c-6.65,1.38-8.85,3-8.85,3,11.67-2.77,23.93,4.38,12.55,4.23S128,309.73,128,309.73a15.18,15.18,0,0,1,10.29,6.71,1.16,1.16,0,0,1-1.43,1.72,19.08,19.08,0,0,0-8.86-1.57s6.86,14.74,7.15,18.15c.2,2.27-3,1.52-5.22.76a4.91,4.91,0,0,1-2.77-2.39l-6.36-12.19c-4.21-6.08.2-15.15,2.12-18.52a4.65,4.65,0,0,1,2.08-1.94c9.48-4.46,13.84-3.74,15.8-2.52A1.16,1.16,0,0,1,140.34,300Z" style="opacity:0.1"></path><path d="M89.35,225.81c-.15,3.65-3.79,3.31-3.79,3.31s-2.49,7.78,2.33,9.82,8.9,8.47,13.72,10.66,4.67-4.23,8-2,3.79,5.84,8.32,3.65,8.9,5,14.3,12.26,9.49,14.74,5,17.23-5.25,5.1-5.25,5.1c5.69-.87,16.93,6.28,8.32,5.55s-16.64,5.06-16.64,5.06C108.66,280.65,108,268,108,268c-9.68-5-15.26-6.64-22.85-13.25s-4.28-21.95-4.28-21.95,0-4.47,1.16-7a4.37,4.37,0,0,1,4.09-2.34S89.5,222.16,89.35,225.81Z" style="opacity:0.1"></path><path d="M141.46,317.62c11.28,1,19.85-9.92,19.85-9.92,2.26,7.3-1.58,12.06-4.31,14.39a3.39,3.39,0,0,0-.75,4.32c.83,1.4,1.79,3.08,2.43,4.35,1.31,2.62,14.3,2.77,6.86,5.5a46.12,46.12,0,0,1-13.41,2.22,2.43,2.43,0,0,1-2.06-3.85,4.49,4.49,0,0,1,1-1.05c-4.07-1-7.4-6.31-8.19-7.66l-.18-.32Z" style="opacity:0.1"></path><path d="M134.56,252.1c-2.24-2-6.73-5.12-18.3-5.95a.75.75,0,0,1-.33-1.42c4.67-2.28,14.51-5.27,19.75,6.43C136,251.86,135.13,252.61,134.56,252.1Z" style="opacity:0.1"></path><path d="M103.13,210.52a2.81,2.81,0,0,0-.49,2.7c1-1,2.08-2,3.12-3C104.94,210,103.68,209.88,103.13,210.52Z" style="fill:#263238"></path><path d="M114.3,210.75c0,.5.17.91.43.93s.51-.38.54-.87-.17-.91-.43-.93S114.33,210.26,114.3,210.75Z" style="fill:#263238"></path></g><g id="freepik--Fence--inject-75"><rect x="450.33" y="275.71" width="3.75" height="106.69" transform="translate(904.41 658.1) rotate(180)" style="fill:#EC407A"></rect><path d="M448.89,274.42a3.32,3.32,0,1,0,3.32-3.31A3.32,3.32,0,0,0,448.89,274.42Z" style="fill:#EC407A"></path><rect x="401.28" y="275.71" width="3.75" height="106.69" style="fill:#EC407A"></rect><circle cx="403.16" cy="274.42" r="3.31" style="fill:#EC407A"></circle><rect x="352.23" y="275.71" width="3.75" height="106.69" style="fill:#EC407A"></rect><circle cx="354.11" cy="274.42" r="3.31" style="fill:#EC407A"></circle><rect x="303.18" y="275.71" width="3.75" height="106.69" transform="translate(610.11 658.1) rotate(180)" style="fill:#EC407A"></rect><circle cx="305.06" cy="274.42" r="3.31" style="fill:#EC407A"></circle><rect x="305.06" y="288.75" width="152.75" height="4.37" transform="translate(762.86 581.87) rotate(180)" style="fill:#EC407A"></rect><rect x="305.06" y="360.41" width="152.75" height="9.7" transform="translate(762.86 730.53) rotate(180)" style="fill:#EC407A"></rect><g style="opacity:0.4"><rect x="450.33" y="275.71" width="3.75" height="106.69" transform="translate(904.41 658.1) rotate(180)" style="fill:#fff"></rect><path d="M448.89,274.42a3.32,3.32,0,1,0,3.32-3.31A3.32,3.32,0,0,0,448.89,274.42Z" style="fill:#fff"></path><rect x="401.28" y="275.71" width="3.75" height="106.69" style="fill:#fff"></rect><circle cx="403.16" cy="274.42" r="3.31" style="fill:#fff"></circle><rect x="352.23" y="275.71" width="3.75" height="106.69" style="fill:#fff"></rect><circle cx="354.11" cy="274.42" r="3.31" style="fill:#fff"></circle><rect x="303.18" y="275.71" width="3.75" height="106.69" transform="translate(610.11 658.1) rotate(180)" style="fill:#fff"></rect><circle cx="305.06" cy="274.42" r="3.31" style="fill:#fff"></circle><rect x="305.06" y="288.75" width="152.75" height="4.37" transform="translate(762.86 581.87) rotate(180)" style="fill:#fff"></rect><rect x="305.06" y="360.41" width="152.75" height="9.7" transform="translate(762.86 730.53) rotate(180)" style="fill:#fff"></rect></g><rect x="45.88" y="275.71" width="3.75" height="106.69" style="fill:#EC407A"></rect><path d="M51.07,274.42a3.32,3.32,0,1,1-3.31-3.31A3.31,3.31,0,0,1,51.07,274.42Z" style="fill:#EC407A"></path><rect x="94.93" y="275.71" width="3.75" height="106.69" style="fill:#EC407A"></rect><circle cx="96.81" cy="274.42" r="3.31" style="fill:#EC407A"></circle><rect x="143.98" y="275.71" width="3.75" height="106.69" style="fill:#EC407A"></rect><circle cx="145.86" cy="274.42" r="3.31" style="fill:#EC407A"></circle><rect x="193.03" y="275.71" width="3.75" height="106.69" style="fill:#EC407A"></rect><circle cx="194.91" cy="274.42" r="3.31" style="fill:#EC407A"></circle><rect x="42.16" y="288.75" width="152.75" height="4.37" style="fill:#EC407A"></rect><rect x="42.16" y="360.41" width="152.75" height="9.7" style="fill:#EC407A"></rect><g style="opacity:0.4"><rect x="45.88" y="275.71" width="3.75" height="106.69" style="fill:#fff"></rect><path d="M51.07,274.42a3.32,3.32,0,1,1-3.31-3.31A3.31,3.31,0,0,1,51.07,274.42Z" style="fill:#fff"></path><rect x="94.93" y="275.71" width="3.75" height="106.69" style="fill:#fff"></rect><circle cx="96.81" cy="274.42" r="3.31" style="fill:#fff"></circle><rect x="143.98" y="275.71" width="3.75" height="106.69" style="fill:#fff"></rect><circle cx="145.86" cy="274.42" r="3.31" style="fill:#fff"></circle><rect x="193.03" y="275.71" width="3.75" height="106.69" style="fill:#fff"></rect><circle cx="194.91" cy="274.42" r="3.31" style="fill:#fff"></circle><rect x="42.16" y="288.75" width="152.75" height="4.37" style="fill:#fff"></rect><rect x="42.16" y="360.41" width="152.75" height="9.7" style="fill:#fff"></rect></g></g><g id="freepik--character-2--inject-75"><path d="M278.66,294.29c.19.55.62.89,1,.77s.5-.66.31-1.2-.62-.89-1-.77S278.48,293.75,278.66,294.29Z" style="fill:#263238"></path><path d="M278.82,294.81a13.58,13.58,0,0,0,3.35,1.81,2.25,2.25,0,0,1-1.38,1.3Z" style="fill:#ba4d3c"></path><path d="M275.89,293.56a.25.25,0,0,0,.16-.12,2.7,2.7,0,0,1,2.14-1.18.35.35,0,0,0,.35-.33.33.33,0,0,0-.32-.35h0a3.35,3.35,0,0,0-2.69,1.45.33.33,0,0,0,.06.46h0A.31.31,0,0,0,275.89,293.56Z" style="fill:#263238"></path><path d="M269.32,304.1c.75,3.55.39,9.06-1.8,11.1,0,0,1.59,3.71,10.09,3,9.35-.82,4.14-4.21,4.14-4.21a7.17,7.17,0,0,1-5.19-8.36l-5-3.13a1.53,1.53,0,0,0-2.1.55A1.57,1.57,0,0,0,269.32,304.1Z" style="fill:#ce7a63"></path><path d="M279.74,306.3h0a8.37,8.37,0,0,1-1.42,1.23,8.51,8.51,0,0,1-1.35.76,7.75,7.75,0,0,1-6.3.06c-3.6-1.56-4.48-4.49-6.46-9.22s2-10.25,8.06-10.13,9.2,7.1,9.5,11.88A7.3,7.3,0,0,1,279.74,306.3Z" style="fill:#ce7a63"></path><path d="M263.39,301.91a3.9,3.9,0,0,1-2.15-6.14,1.61,1.61,0,0,1-1-1.33,1.84,1.84,0,0,1,1-1.53,3.52,3.52,0,0,1-.18-3.68,4,4,0,0,1,3.37-1.89,1.62,1.62,0,0,1,3.17.05,6.2,6.2,0,0,1,3.14-2,4.92,4.92,0,0,1,3.06.15,2.36,2.36,0,0,1,1.54,2.32,3.07,3.07,0,0,1,2.69,2.36,2.67,2.67,0,0,1-2.16,3.32,16.84,16.84,0,0,0-.14,2.87Z" style="fill:#263238"></path><path d="M263.39,301.91c.4-.18,4.92,4.93,4.92,4.93a4.78,4.78,0,0,0,1.83,1.28c1.24.52,3.86-.49,3.86-.49s.19-5,1.28-6.33.47-4.87.47-4.87-7.92,2.22-12.36,5.48" style="fill:#ce7a63"></path><path d="M263.39,301.91c.4-.18,4.92,4.93,4.92,4.93a4.78,4.78,0,0,0,1.83,1.28c1.24.52,3.86-.49,3.86-.49s.19-5,1.28-6.33.47-4.87.47-4.87-7.92,2.22-12.36,5.48" style="isolation:isolate;opacity:0.2"></path><path d="M275,296.49a4.13,4.13,0,0,1,2.12,2.39c.46,1.39-.77,2.17-2.12,1.86s-2.92-1.36-2.8-2.79A1.88,1.88,0,0,1,275,296.49Z" style="fill:#ce7a63"></path><path d="M273.45,365.91c.49.58-2.93,19.09-2.93,19.09a25.25,25.25,0,0,1,2.93,9.54c.32,5,1.24,21.07,1.24,21.07l-5.82.14-8.36-31.33v-19.7S269.35,361.14,273.45,365.91Z" style="fill:#ce7a63"></path><path d="M283.75,366.15c.71.14,2.63,16.17,2.63,16.17a33.15,33.15,0,0,1,6.47,5.64c3.13,3.55,10.35,17.52,10.35,17.52L299.38,409l-20.1-22.37-6-13.84S277.89,364.94,283.75,366.15Z" style="fill:#ce7a63"></path><polygon points="275.16 422.09 269.91 422.4 267.24 407.75 273.92 409.95 275.16 422.09" style="fill:#ce7a63"></polygon><path d="M269.41,419l5.74-.35a.47.47,0,0,1,.47.34l1.31,4.61a.76.76,0,0,1-.52.95l-.21,0c-2.09.08-3.89.08-6.49.23-3,.18-2.24.49-5.81.76-2.16.15-2.72-2.27-1.78-2.45,4.14-.77,4.5-2.05,6-3.64A1.82,1.82,0,0,1,269.41,419Z" style="fill:#EC407A"></path><path d="M300.74,300.11a86.55,86.55,0,0,1-1.93,15.67c-.69,2.45-15.48,6-16.59,6.17l-1.31.25-.37.06c-.58.09-1.1.16-1.78.23l-.66-5.84-.11-1,1.37-.22,1.46-.28c.91-.18,2.85-.62,2.91-.64,1.94-.47,10.17-1.22,10.17-1.22l3.87-13.11Z" style="fill:#ce7a63"></path><path d="M297.77,300.38l-1.62-3.33,4.7-2s1.57,2.76-.07,5Z" style="fill:#ce7a63"></path><polygon points="296.15 293.16 300.45 293.2 300.94 295.51 296.14 297.05 296.15 293.16" style="fill:#ce7a63"></polygon><path d="M277.74,322.47c4.64,3.18,12.61-1,12.61-1l-.37-8.09-6.18-.63a9.06,9.06,0,0,0-6.63,1.36C274.06,316.35,273.93,319.87,277.74,322.47Z" style="fill:#EC407A"></path><path d="M277.74,322.47c4.64,3.18,12.61-1,12.61-1l-.37-8.09-6.18-.63a9.06,9.06,0,0,0-6.63,1.36C274.06,316.35,273.93,319.87,277.74,322.47Z" style="fill:#fff;opacity:0.1"></path><path d="M266.7,314.53l.34-.06c2.61-.31,5.23-.51,7.85-.62,1.37-.05,2.72-.08,4.08-.08h.55c-.15-1.32-.45-3.45-.8-3.2-.51.36-7.49-1.58-10.06.38A5.12,5.12,0,0,0,266.7,314.53Z" style="fill:#EC407A"></path><path d="M266.7,314.53l.34-.06c2.61-.31,5.23-.51,7.85-.62,1.37-.05,2.72-.08,4.08-.08h.55c-.15-1.32-.45-3.45-.8-3.2-.51.36-7.49-1.58-10.06.38A5.12,5.12,0,0,0,266.7,314.53Z" style="fill:#fff;opacity:0.4"></path><path d="M258.77,326s.43,1.43.59,2.06.38,1.51.54,2.32c.31,1.58.67,23.17.67,23.17l25.08-1.86c-1.74-10.15-1.73-14.39-.22-28.41.52-4.89-.81-10.1-3.46-10.38l-.18,0-1.63-.08c-.74,0-1.49-.06-2.24-.05h-.55c-1.36,0-2.71,0-4.08.08-2.62.11-5.24.31-7.85.62l-.34.06h0l-.11,0c-.38.11-.47.23-.55.36l0,.06c-.09.16-.23.31-.77.44l-.14.05a4.08,4.08,0,0,0-.85.3,5.78,5.78,0,0,0-2.59,2.3A48.7,48.7,0,0,0,258.77,326Z" style="fill:#EC407A"></path><path d="M263.48,320.16c4.55.16,3.65,3.65,1.62,7.72-2.72,5.48-4.63,11.64-4.65,14.19,0,3.86-.94-16.15.23-21.45C260.84,319.88,262.37,320.12,263.48,320.16Z" style="isolation:isolate;opacity:0.2"></path><path d="M239.62,333.93c.63.24,4.63,1.92,12.65,2.69,2.74.13,6.53-4.47,6.94-4.91.74-.81,1.46-1.62,2.13-2.48a3.76,3.76,0,0,0,.25-.31c.39-.51.78-1,1.15-1.55s.61-.83.89-1.26l.1-.14c.68-1,1.33-2,1.93-3.09.24-.41.47-.82.7-1.25l.18-.36c.3-.56.54-1.07.84-1.74l-5.74-2.66-.94-.44-.69,1.33-.78,1.4c-.49.87-1,1.74-1.54,2.59a1.4,1.4,0,0,1-.1.16,62.62,62.62,0,0,1-3.65,5.28c-.32.42-.64.86-1,1.26l-.51.63-.24.29-.14.19A24.19,24.19,0,0,1,241,331l-.22,0Z" style="fill:#ce7a63"></path><path d="M241,331l-2.85-2.79-3.59,4.13s2.28,2.54,5.11,1.62Z" style="fill:#ce7a63"></path><polygon points="234.13 326.86 232.71 331.26 234.91 332.54 238.11 328.17 234.13 326.86" style="fill:#ce7a63"></polygon><path d="M268.12,318.28c.9,5.61-6.36,11.09-6.36,11.09l-7.24-3.83,2.09-5.92a9.22,9.22,0,0,1,4.1-5.48C264.11,312.26,267.39,313.67,268.12,318.28Z" style="fill:#EC407A"></path><path d="M268.12,318.28c.9,5.61-6.36,11.09-6.36,11.09l-7.24-3.83,2.09-5.92a9.22,9.22,0,0,1,4.1-5.48C264.11,312.26,267.39,313.67,268.12,318.28Z" style="fill:#fff;opacity:0.1"></path><polygon points="308.49 411.16 304.66 414.78 289.54 398.01 297.41 396 308.49 411.16" style="fill:#ce7a63"></polygon><path d="M302.06,411.81l4.19-3.94a.47.47,0,0,1,.57,0l4,2.67a.75.75,0,0,1,.22,1.05l-.12.14c-1.54,1.4-3.8,3.37-5.69,5.16-2.22,2.09-.66.84-3.28,3.29-1.58,1.48-3.51.3-3-.46,2.38-3.48,2.34-4.53,2.47-6.7A1.87,1.87,0,0,1,302.06,411.81Z" style="fill:#EC407A"></path><path d="M284.93,346.84s1.6,6.52.65,12.18,2.68,20.13,2.68,20.13h0a16.61,16.61,0,0,1-9.8,3.21H274L270.2,361l14.73-14.17" style="fill:#263238"></path><path d="M278,363.43l-4,18.93h0l-2.79-15.71S277.16,365.23,278,363.43Z" style="isolation:isolate;opacity:0.30000000000000004"></path><path d="M284.93,346.84H260.69l-.18,8.61c-.75.39-3.12,24-1.61,26.91,0,0,6.39,1,10.05.56l5-.56.7-15.9S285.36,357.79,284.93,346.84Z" style="fill:#263238"></path></g><g id="freepik--character-1--inject-75"><path d="M210.42,241l-4.24-6.39L204,233.29a1.79,1.79,0,0,1-.75-2.12l.25-.73,1.39-1.62h0a1.79,1.79,0,0,1,2.63-.68l1.22.85a2.37,2.37,0,0,1,1,2.14l-.25,2.81,3.6,5.25Z" style="fill:#b55b52"></path><path d="M196.31,226.72H198l.63-1.66H203l.63,1.66h1.73a1.92,1.92,0,0,1,1.92,1.91v3.48A1.92,1.92,0,0,1,205.4,234h-9.09a1.91,1.91,0,0,1-1.91-1.92v-3.48A1.91,1.91,0,0,1,196.31,226.72Z" style="fill:#263238"></path><path d="M196.31,226.72H198l.63-1.66H203l.63,1.66h1.73a1.92,1.92,0,0,1,1.92,1.91v3.48A1.92,1.92,0,0,1,205.4,234h-9.09a1.91,1.91,0,0,1-1.91-1.92v-3.48A1.91,1.91,0,0,1,196.31,226.72Z" style="fill:#fff;opacity:0.2"></path><path d="M197.51,226.72h1.73l.63-1.66h4.36l.64,1.66h1.73a1.92,1.92,0,0,1,1.91,1.91v3.48A1.92,1.92,0,0,1,206.6,234h-9.09a1.92,1.92,0,0,1-1.92-1.92v-3.48A1.92,1.92,0,0,1,197.51,226.72Z" style="fill:#263238"></path><path d="M197.51,226.72h1.73l.63-1.66h4.36l.64,1.66h1.73a1.92,1.92,0,0,1,1.91,1.91v3.48A1.92,1.92,0,0,1,206.6,234h-9.09a1.92,1.92,0,0,1-1.92-1.92v-3.48A1.92,1.92,0,0,1,197.51,226.72Z" style="fill:#fff;opacity:0.5"></path><rect x="200.89" y="225.7" width="2.16" height="1.07" transform="translate(403.94 452.47) rotate(180)" style="fill:#fff"></rect><path d="M196.36,229.46a.92.92,0,0,0,1.83,0,.92.92,0,1,0-1.83,0Z" style="fill:#263238"></path><rect x="199.71" y="227.91" width="7.06" height="4.92" transform="translate(406.48 460.75) rotate(180)" style="fill:#263238"></rect><path d="M218.46,253.65a104.94,104.94,0,0,1-10.52-15.72c.49-2.21,3.5-2.21,3.5-2.21.95,1.32,9.83,9.59,13,12.51Z" style="fill:#EC407A"></path><g style="opacity:0.1"><path d="M218.46,253.65a104.94,104.94,0,0,1-10.52-15.72c.49-2.21,3.5-2.21,3.5-2.21.95,1.32,9.83,9.59,13,12.51Z"></path></g><path d="M224.42,248.23l12.72,3.83a5.93,5.93,0,0,1,3.91,3.77c1.27,3.23-1.15,10.52-3.65,9.65s-18.94-11.83-18.94-11.83S219.16,246.65,224.42,248.23Z" style="fill:#EC407A"></path><path d="M224.42,248.23l12.72,3.83a5.93,5.93,0,0,1,3.91,3.77c1.27,3.23-1.15,10.52-3.65,9.65s-18.94-11.83-18.94-11.83S219.16,246.65,224.42,248.23Z" style="opacity:0.1"></path><polygon points="211.46 235.27 213.59 236.59 207.62 239.65 206.88 237.04 211.46 235.27" style="fill:#EC407A"></polygon><polygon points="211.46 235.27 213.59 236.59 207.62 239.65 206.88 237.04 211.46 235.27" style="fill:#fff;opacity:0.5"></polygon><path d="M218.48,295.78c.8,22.61,4,70.72,4,70.72,7.27,14.46,11.22,23.09,22.27,37.39,2.53-.74,4.13-3.41,5.83-5.41-2.61-7.9-8.73-32.08-12.81-37.21,0,0-3.45-31.66.34-43.26,2.18-6.69-.1-16.61-3.24-22.91Z" style="fill:#263238"></path><path d="M251.2,412.3a.12.12,0,0,1,0,.16.12.12,0,0,1-.15.05c-.11,0-2.4-.67-2.9-1.55a.73.73,0,0,1-.09-.54.53.53,0,0,1,.43-.44c.42-.06,1,.36,1.55.92A9.69,9.69,0,0,1,251.2,412.3Zm-2.64-1.25a6.64,6.64,0,0,0,2.16,1.12c-.67-.89-1.73-1.94-2.19-1.87-.08,0-.16,0-.22.22a.41.41,0,0,0,.06.34,1.14,1.14,0,0,0,.19.19Z" style="fill:#EC407A"></path><path d="M251.24,412.35a.13.13,0,0,1-.05.13,3.85,3.85,0,0,1-2.26.95,1.05,1.05,0,0,1-.73-.38c-.24-.3-.19-.53-.08-.65.4-.55,2.29-.44,3-.17l0,0A.12.12,0,0,1,251.24,412.35Zm-2.77.6a.77.77,0,0,0,.48.2,3.32,3.32,0,0,0,1.84-.73c-.83-.21-2.21-.18-2.45.15,0,0-.1.12.08.3l.06.06Z" style="fill:#EC407A"></path><polygon points="244.87 402.82 249.89 398.58 255.13 409.2 251.44 412.45 244.87 402.82" style="fill:#b55b52"></polygon><polygon points="244.5 402.44 247.54 406.74 251.99 402.83 249.71 398.15 244.5 402.44" style="isolation:isolate;opacity:0.2"></polygon><path d="M249.63,412.82c.21,2.4.31,3.65-1.85,7.86-.48.92,1.84,2,3.39.1,2.55-3.09,1-1.52,3.19-4.15,1.86-2.26,4.11-4.76,5.62-6.53a.85.85,0,0,0,.14-.19.87.87,0,0,0-.38-1.16L255,406.3a.51.51,0,0,0-.63.13l-4.12,5A2,2,0,0,0,249.63,412.82Z" style="fill:#263238"></path><path d="M242.3,403.46l2.61,2.66,8-6.52s-2.13-3.62-2.17-3.59Z" style="fill:#EC407A"></path><path d="M216,418.54c-.79.06-1.5,0-1.77-.31a.51.51,0,0,1-.05-.61.71.71,0,0,1,.42-.36c1-.34,3.11.66,3.23.7a.13.13,0,0,1,.07.14.12.12,0,0,1-.1.12A11.14,11.14,0,0,1,216,418.54Zm-1-1.07a1.23,1.23,0,0,0-.27,0,.38.38,0,0,0-.26.22c-.08.18,0,.26,0,.31.31.35,1.8.24,2.88,0a6.28,6.28,0,0,0-2.37-.56Z" style="fill:#EC407A"></path><path d="M217.78,418.21h-.06c-.74-.27-2.25-1.41-2.19-2.1,0-.16.1-.36.48-.43a1,1,0,0,1,.81.17,3.83,3.83,0,0,1,1.11,2.2.16.16,0,0,1-.06.13A.1.1,0,0,1,217.78,418.21ZM216.15,416h-.08c-.25,0-.26.15-.26.18,0,.41,1,1.33,1.77,1.71a3.34,3.34,0,0,0-.94-1.75.67.67,0,0,0-.51-.16Z" style="fill:#EC407A"></path><polygon points="223.59 403.89 215.85 404.51 218.56 418.02 224.45 417.55 223.59 403.89" style="fill:#b55b52"></polygon><path d="M217,417.91c-3.79,2.78-5,3-9.54,4.37-1,.3-.12,2.7,2.3,2.5,4-.32,4.4-.55,7.8-.82,2.92-.24,6.29-.37,8.61-.52l.21,0a.86.86,0,0,0,.55-1.08l-1.58-5.14a.53.53,0,0,0-.54-.36l-6.43.52A2.74,2.74,0,0,0,217,417.91Z" style="fill:#263238"></path><polygon points="223.6 403.9 224.05 411.23 217.23 411.42 215.85 404.52 223.6 403.9" style="isolation:isolate;opacity:0.2"></polygon><path d="M224,318.83c3.81.16,6,.49,6,.49s-2.06,5.07-4.78,14.18C222.79,341.59,224,318.83,224,318.83Z" style="isolation:isolate;opacity:0.30000000000000004"></path><path d="M229.16,296.67h0a35.93,35.93,0,0,1-2.43,21.74L226,320l-3.9,39.5c-.09,5.8,1.73,16.87,2.07,25.69l.91,23.95-10-.37s-8.27-30.61-9.62-49.39l3.14-63.75,20.32-.27.21,1.33Z" style="fill:#263238"></path><path d="M226.13,404.79l0,4.55H214s-.6-4.55-.56-4.55Z" style="fill:#EC407A"></path><path d="M218.49,227.19a.23.23,0,0,0,.15.15,1.82,1.82,0,0,1,1.23,1.11.23.23,0,0,0,.28.16.25.25,0,0,0,.16-.29,2.24,2.24,0,0,0-1.53-1.42.23.23,0,0,0-.29.15h0A.33.33,0,0,0,218.49,227.19Z" style="fill:#263238"></path><path d="M217.35,229.54c-.16.41-.07.83.19.93s.64-.15.79-.55.08-.83-.19-.93S217.52,229.13,217.35,229.54Z" style="fill:#263238"></path><path d="M217.76,231.09l-3.24,2.42a3,3,0,0,0,2.44,1.21Z" style="fill:#a02724"></path><path d="M229.24,250.36s-3.49-1.42-1.51-8c0,0-2.89-2.48-5.61-1.15s0,7.1-3.19,8.25S229.24,250.36,229.24,250.36Z" style="fill:#b55b52"></path><path d="M224.05,244.44a12.62,12.62,0,0,0,2.65,1.79c-.06-.91,0-1.88-.15-2.75Z" style="opacity:0.1"></path><path d="M233.54,234.37c-1.9,5.53-2.58,7.92-6.22,10-5.16,1.75-11.87-.37-11.67-6.37.19-5.39,3.26-13.51,9.4-14.27a8,8,0,0,1,8.49,10.62Z" style="fill:#b55b52"></path><path d="M232.07,243.48s.55,1,2.56-.22a2.14,2.14,0,0,0,.49-2.57,1.53,1.53,0,0,0,1.26-1,1.37,1.37,0,0,0-.35-1.49,4,4,0,0,0,2.64-2.73,4.47,4.47,0,0,0-.88-3.93,1.84,1.84,0,0,0,1.08-1.56,2.28,2.28,0,0,0-1.14-1.83,4.37,4.37,0,0,0-3.57-6.66,1.89,1.89,0,0,0-1.79-1.5,1.77,1.77,0,0,0-1.68,1.51,6.93,6.93,0,0,0-3.45-2.4,5,5,0,0,0-3.34.13,2.71,2.71,0,0,0-1.63,2.73c-1.3-.42-3,.66-3.63,1.85a3.07,3.07,0,0,0,.69,3.71c-1.13,2-.52,5.16,1,6.88a3.47,3.47,0,0,0-.91,3.25,3.89,3.89,0,0,0,2.22,2.83C221.34,241.61,224.42,248.23,232.07,243.48Z" style="fill:#263238"></path><path d="M221.84,232.12a4.53,4.53,0,0,0-2.29,2.59c-.5,1.5.83,2.35,2.29,2s3.16-1.47,3-3A2,2,0,0,0,221.84,232.12Z" style="fill:#b55b52"></path><path d="M216.5,250.38l.94-1.64a2.15,2.15,0,0,1,1.79-1.09c2.81-.11,9.68-.27,11,.63a4.79,4.79,0,0,1,1.89,2.77Z" style="fill:#EC407A"></path><g style="opacity:0.5"><path d="M216.5,250.38l.94-1.64a2.15,2.15,0,0,1,1.79-1.09c2.81-.11,9.68-.27,11,.63a4.79,4.79,0,0,1,1.89,2.77Z" style="fill:#fff"></path></g><path d="M234.89,295.1s1.09-17.78,3.38-28.69,2.3-15.32-6.5-15.75-24.25-3.49-24.15,7.18c.14,13.31,1,37.77,1,37.77l14.38.14c.39,0,.78,0,1.16,0Z" style="fill:#EC407A"></path><path d="M216.14,257.06h0a18.63,18.63,0,0,1-.82,13.82l-2.22,4.69s3.4-12.37,3-18.51" style="opacity:0.1"></path><path d="M189.32,291c-.11-.24-7.88-1-7.88-1l3.13,6.06,6.57-.93S190.71,294.34,189.32,291Z" style="fill:#b55b52"></path><path d="M181.51,290,179,292.67l2.43,4.07,3.18-.65S184.43,291.55,181.51,290Z" style="fill:#b55b52"></path><path d="M216.77,256.43c-.34,4-.89,7.89-1.6,11.81a98.47,98.47,0,0,1-2.94,11.69,54.52,54.52,0,0,1-2.37,5.31,11.72,11.72,0,0,1-1.32,1.74,21.8,21.8,0,0,1-5.78,4.23,41.12,41.12,0,0,1-11.13,4.09c-1.26.28-1.62-.84-1.92-2-.24-1-.47-2,.43-2.49l-.11.07a69.23,69.23,0,0,0,8.72-5.45,16.49,16.49,0,0,0,3.4-3.27,38.94,38.94,0,0,0,1.67-4.38c.88-3.53,1.52-7.23,2.08-10.92s1.09-7.48,1.5-11.14l0-.06a4.63,4.63,0,0,1,5.11-4,4.55,4.55,0,0,1,4.23,4.88Z" style="fill:#EC407A"></path><polygon points="191.06 288.98 193.5 296.06 190.53 296.75 188.37 290.09 191.06 288.98" style="fill:#EC407A"></polygon><polygon points="191.06 288.98 193.5 296.06 190.53 296.75 188.37 290.09 191.06 288.98" style="fill:#fff;opacity:0.5"></polygon></g></svg>