<svg xmlns="http://www.w3.org/2000/svg" viewBox="0 0 500 500"><g id="freepik--Floor--inject-77"><g id="freepik--floor--inject-77"><path d="M78.83,435.49c-94.53-54.57-94.53-143.06,0-197.64s247.8-54.58,342.34,0,94.53,143.07,0,197.64S173.37,490.07,78.83,435.49Z" style="fill:#EC407A"></path><path d="M78.83,435.49c-94.53-54.57-94.53-143.06,0-197.64s247.8-54.58,342.34,0,94.53,143.07,0,197.64S173.37,490.07,78.83,435.49Z" style="fill:#fafafa;opacity:0.6000000000000001"></path><path d="M157.14,465.77c87.79,21,192.65,10.93,264-30.28S510,333.74,473.6,283.06Z" style="fill:#f5f5f5"></path></g></g><g id="freepik--Sun--inject-77"><circle id="freepik--sun--inject-77" cx="158.91" cy="54.95" r="14.19" style="fill:#ffbda7"></circle></g><g id="freepik--Clouds--inject-77"><path id="freepik--Cloud--inject-77" d="M291.09,55.28c0-2.8-3.07-4.75-6.55-5.08-4.09-.38-7,1.44-7.1,4.67-2.67-1.1-5.5-.4-5.28,2.55-.7-.81-3.31-.78-4.24-.56a3.71,3.71,0,0,0-2.34,2,2.75,2.75,0,0,0-.24,1.51c-1.56-.52-5.11-.83-6,.6-1.58,2.55,4.74,2.63,6,1.86.27,2,7.06,2.31,8.7.48,1.28,1.29,3.13,1.58,5.12,1.7,3.35.2,5.41-.94,8-2.28,2.85,2.42,7.77,2.46,10.34-.3.66.62,2.46.81,3.9.46.95-.22,1.17-.63,1.17-.63a8.46,8.46,0,0,0,1.74.53c1.86.39,5.33,0,3.87-1.7a4.34,4.34,0,0,0-3.07-.76c-.81-1.6-4.07-3.11-5.94-1.76-.07-1.93-1.84-3.45-4.33-3.83C294,54.6,292,54.49,291.09,55.28Z" style="fill:#e0e0e0"></path><path id="freepik--cloud--inject-77" d="M370.63,81.23a8.44,8.44,0,0,0-2.88-.53c-.93-.07-1.23-.26-1.41-.46a6.86,6.86,0,0,0-8.24-2.44,5.27,5.27,0,0,0-6.22-3.51c.1-2.9-3.6-6-6.93-6.72s-6-.4-7.79,1.7c-2-3.81-9.59-4.88-13.72-2.87-2.38,1.16-4.39,2.35-5.38,4.53a9.06,9.06,0,0,0-.89,4.33,7.61,7.61,0,0,0-7-1c-2.32.89-2.49,2.64-2.61,4.42a8.24,8.24,0,0,0-4.22-.08c-1.46.44-2.3,1.58-2.1,2.51-1.16-.06-3.91.87-3.6,2.09s3.5,1.23,4.68,1.19a22.6,22.6,0,0,0,3.29-.52,5.09,5.09,0,0,0,1.71.33c2,0,2.85-.87,3.17-1.62,1,2.06,4.46,3.63,6.91,4.26,4.64,1.18,11.19.46,14-3a5.22,5.22,0,0,0,1.38,1.68,8.09,8.09,0,0,0,4.28,1.74c1.9.17,7,.42,8.45-2.61,1,2,5.56,2.93,9,2.44A13.81,13.81,0,0,0,358.44,86a22.64,22.64,0,0,0,2.23-1.33,1.82,1.82,0,0,1,1.89-.13,11.37,11.37,0,0,0,7.55,0C372,83.67,372.44,82.05,370.63,81.23Z" style="fill:#e0e0e0"></path></g><g id="freepik--Tree--inject-77"><g id="freepik--tree--inject-77"><g id="freepik--tree--inject-77"><path d="M86.21,151.16a7.66,7.66,0,0,0-4.17.76c-2.5,1.21-4.58,3.14-6.8,4.81s-4.76,3.17-7.55,3.26-5.78-1.64-6.29-4.38a3.85,3.85,0,0,0-.35-1.39,2,2,0,0,0-2.38-.61,12.47,12.47,0,0,0-2.29,1.32c-2.82,1.66-6.34,1.28-9.58.81-2.69-.39-6.08-1.58-6.07-4.3,0-1.77,1.55-3.08,2.77-4.37s2.21-3.35,1.1-4.73a3.23,3.23,0,0,0-1.56-1c-3.36-1.1-7.48.36-10.33-1.75a6,6,0,0,1-1.49-7.12,9,9,0,0,1,6.06-4.61c2.26-.58,5.14-.85,6-3,.73-1.91-.75-4-2.42-5.14s-3.69-2-4.85-3.67a5.81,5.81,0,0,1-.17-6,7.37,7.37,0,0,1,5.07-3.48A10.94,10.94,0,0,0,44,105.9a2,2,0,0,0,1.14-2.59c-.31-.55-1-.84-1.31-1.36-.72-1-.1-2.48.9-3.2a12.63,12.63,0,0,1,3.44-1.31c2.44-.82,2.6-3.12,1.88-5.58s-2.05-3.47-3.1-5.94c-.92-2.18.54-4.73,2.5-6.07S53.76,78,55.9,77s4.22-2.8,4.39-5.17-1.64-4.46-3.12-6.38-2.74-4.62-1.44-6.67,4-2.09,6.23-2.8a10.1,10.1,0,0,0,6.13-5.53c.59-1.36.88-2.86,1.58-4.17,2.21-4.08,7.76-5.86,12-5.36,2.25.27,3,1.13,4.09,2.78.63,1,1.28,1.48,1.5,2.82.28,1.68-.47,3.65.46,5.2s3.14,2.12,4.47,3.37a8.13,8.13,0,0,1,2.17,5.66,9.45,9.45,0,0,1-.18,2.6,23.53,23.53,0,0,0-1,3.64,4.53,4.53,0,0,0,2.12,3.87c1.25,1,2.58.88,4.13.87,2.41,0,4.41-.13,6.18,1.69,3.1,3.21,1.26,6.11-1.5,8.58-3.13,2.81-1.47,4-1.06,7.68.2,1.75-.2,2.29,1.36,3.46,3,2.19,4.62,1.45,3.79,5.76-.76,3.93.41,2.59,3.82,4,3,1.3,5,4.56,7.46,6.59,1.57,1.3,4,2.31,4.12,4.6.28,4.38-5.17,3.42-7.76,4.47-4.23,1.71-3,7.27.34,9.35,3.5,2.2,8.6,3,8.88,8,.22,3.85-2,4.7-5,6-2.38,1-2.08,1.33-2.08,4.18,0,5.74-1.93,7.37-7.59,6.43-1.55-.25-3.91-.91-5.46-.45-2.16.66-1.43,1.19-1.49,3-.16,4.64-5.56,3.33-7.84,1.34C93.1,154.17,89.79,151.51,86.21,151.16Z" style="fill:#EC407A"></path><path d="M86.21,151.16a7.66,7.66,0,0,0-4.17.76c-2.5,1.21-4.58,3.14-6.8,4.81s-4.76,3.17-7.55,3.26-5.78-1.64-6.29-4.38a3.85,3.85,0,0,0-.35-1.39,2,2,0,0,0-2.38-.61,12.47,12.47,0,0,0-2.29,1.32c-2.82,1.66-6.34,1.28-9.58.81-2.69-.39-6.08-1.58-6.07-4.3,0-1.77,1.55-3.08,2.77-4.37s2.21-3.35,1.1-4.73a3.23,3.23,0,0,0-1.56-1c-3.36-1.1-7.48.36-10.33-1.75a6,6,0,0,1-1.49-7.12,9,9,0,0,1,6.06-4.61c2.26-.58,5.14-.85,6-3,.73-1.91-.75-4-2.42-5.14s-3.69-2-4.85-3.67a5.81,5.81,0,0,1-.17-6,7.37,7.37,0,0,1,5.07-3.48A10.94,10.94,0,0,0,44,105.9a2,2,0,0,0,1.14-2.59c-.31-.55-1-.84-1.31-1.36-.72-1-.1-2.48.9-3.2a12.63,12.63,0,0,1,3.44-1.31c2.44-.82,2.6-3.12,1.88-5.58s-2.05-3.47-3.1-5.94c-.92-2.18.54-4.73,2.5-6.07S53.76,78,55.9,77s4.22-2.8,4.39-5.17-1.64-4.46-3.12-6.38-2.74-4.62-1.44-6.67,4-2.09,6.23-2.8a10.1,10.1,0,0,0,6.13-5.53c.59-1.36.88-2.86,1.58-4.17,2.21-4.08,7.76-5.86,12-5.36,2.25.27,3,1.13,4.09,2.78.63,1,1.28,1.48,1.5,2.82.28,1.68-.47,3.65.46,5.2s3.14,2.12,4.47,3.37a8.13,8.13,0,0,1,2.17,5.66,9.45,9.45,0,0,1-.18,2.6,23.53,23.53,0,0,0-1,3.64,4.53,4.53,0,0,0,2.12,3.87c1.25,1,2.58.88,4.13.87,2.41,0,4.41-.13,6.18,1.69,3.1,3.21,1.26,6.11-1.5,8.58-3.13,2.81-1.47,4-1.06,7.68.2,1.75-.2,2.29,1.36,3.46,3,2.19,4.62,1.45,3.79,5.76-.76,3.93.41,2.59,3.82,4,3,1.3,5,4.56,7.46,6.59,1.57,1.3,4,2.31,4.12,4.6.28,4.38-5.17,3.42-7.76,4.47-4.23,1.71-3,7.27.34,9.35,3.5,2.2,8.6,3,8.88,8,.22,3.85-2,4.7-5,6-2.38,1-2.08,1.33-2.08,4.18,0,5.74-1.93,7.37-7.59,6.43-1.55-.25-3.91-.91-5.46-.45-2.16.66-1.43,1.19-1.49,3-.16,4.64-5.56,3.33-7.84,1.34C93.1,154.17,89.79,151.51,86.21,151.16Z" style="opacity:0.2"></path><path d="M58.76,100.2l17,36.44V247.37c0,1.41,3.85,1.41,3.85,0V142.31L95,103.87,79.59,134.5V120.4L78,60.37l-2.29,60v9.48Z"></path></g></g></g><g id="freepik--Shadows--inject-77"><path id="freepik--Shadow--inject-77" d="M388.36,270c-1.89.54-3.68,1-5,1.34-6.67,1.89-13.62,2.4-20.12,5.05s-12.29,6.94-18.64,10c-7.58,3.72-15.39,6.43-23.79,6.13-10.64-.38-25.73-1.64-32.52-12.26-12.89-20.16,31.49-28.86,40-31.39,13-3.87,24.1-6.93,37.57-5.91,6,.46,12.9,1,18.61,3.25,5.38,2.09,20.14,11.1,12.67,19.47C395.34,267.73,391.7,269.05,388.36,270Z" style="fill:#EC407A;opacity:0.2"></path><path id="freepik--shadow--inject-77" d="M56.9,339.08c2.17.92,4.25,1.7,5.76,2.34,7.68,3.23,15.93,5,23.27,9s13.57,9.67,20.66,14.15c8.47,5.36,17.37,9.67,27.48,10.85,12.81,1.5,31.1,2.83,41-7.39,18.8-19.42-32.92-36.72-42.66-41-14.9-6.48-27.72-11.77-44-13.07-7.26-.58-15.63-1.21-22.83.17-6.8,1.29-26,8.36-18.42,18.71C48.92,335.37,53.06,337.44,56.9,339.08Z" style="fill:#EC407A;opacity:0.2"></path><path id="freepik--shadow--inject-77" d="M468.64,445.6c12.13,7.08,12.13,18.57,0,25.65s-31.8,7.08-43.93,0-12.13-18.57,0-25.65S456.51,438.52,468.64,445.6Z" style="fill:#e0e0e0"></path><ellipse id="freepik--shadow--inject-77" cx="360.4" cy="457.73" rx="39.05" ry="22.54" style="fill:#e0e0e0"></ellipse></g><g id="freepik--Elephant--inject-77"><g id="freepik--elephant--inject-77"><path d="M399.53,189a6.91,6.91,0,0,0-2.27-3.54,22.08,22.08,0,0,1,1.21,4.15,12.12,12.12,0,0,1-.12,3.94,12.78,12.78,0,0,1-1.38,3.8,14,14,0,0,1-2.59,3.38l-.39.36a9.4,9.4,0,0,0,.51-3.89c.24,1.72-1.42,3.19-2.52,4.69a8.48,8.48,0,0,0-1.64,6.45,11.81,11.81,0,0,1-.4-11.45,6.08,6.08,0,0,0-2.84,5c-1-2.18-.44-4.63.45-6.86s2.1-4.42,2.32-6.74a7.74,7.74,0,0,0-1.44,3.79,5.77,5.77,0,0,0-.37-1.3,10.21,10.21,0,0,1-.21-1.33,11,11,0,0,1,.11-2.75,12.11,12.11,0,0,1,2.2-5.19,2.31,2.31,0,0,0,.28-.48,1.76,1.76,0,0,1,.33-.4,14.16,14.16,0,0,0,.93-1.12,1.46,1.46,0,0,0,.17-.29,1.28,1.28,0,0,1,.21-.4c.26-.35.5-.7.74-1a22.4,22.4,0,0,0,1.24-2.17c.08-.17.16-.33.23-.5a11.17,11.17,0,0,0,1.57,4c.76,1.29,1.64,2.54,2.37,3.85.12.22.28.42.39.64s.16.37.23.55a7.51,7.51,0,0,1,.35,1.14,14.16,14.16,0,0,1,.32,2.34c0,.52,0,1,.06,1.58A1.6,1.6,0,0,0,399.53,189Z" style="fill:#37474f"></path><path d="M367.74,139.55a4.28,4.28,0,0,1,2.65-.92,16.84,16.84,0,0,1,3.33-.09,19.58,19.58,0,0,1,5.65,1.34,21.9,21.9,0,0,1,9.31,7.13c5.41,7.17,6.51,16.54,6.16,25.25-.11,2.88-.38,5.75-.63,8.61-.28,3-.66,6.13-.74,9.17,0,.21-.27.27-.27,0,0-2.4-.11-4.79,0-7.2s.15-5,.2-7.49a70.48,70.48,0,0,0-.81-13.85c-1.39-7.72-5-15.48-12.29-19.21a17.54,17.54,0,0,0-5.68-1.85,14.56,14.56,0,0,0-2.95-.09c-1.23.08-2.38.41-3.62.39C367.2,140.75,367.34,140,367.74,139.55Z" style="fill:#e0e0e0"></path><path d="M367.74,139.55a4.28,4.28,0,0,1,2.65-.92,16.84,16.84,0,0,1,3.33-.09,19.58,19.58,0,0,1,5.65,1.34,21.9,21.9,0,0,1,9.31,7.13c5.41,7.17,6.51,16.54,6.16,25.25-.11,2.88-.38,5.75-.63,8.61-.28,3-.66,6.13-.74,9.17,0,.21-.27.27-.27,0,0-2.4-.11-4.79,0-7.2s.15-5,.2-7.49a70.48,70.48,0,0,0-.81-13.85c-1.39-7.72-5-15.48-12.29-19.21a17.54,17.54,0,0,0-5.68-1.85,14.56,14.56,0,0,0-2.95-.09c-1.23.08-2.38.41-3.62.39C367.2,140.75,367.34,140,367.74,139.55Z" style="opacity:0.1"></path><path d="M290.74,211.06c.17,7.7,2.5,26.64,3.62,29.93s11.81,20.34,14.68,24.13,4.32,5.62,4.32,5.62A16.21,16.21,0,0,0,327.29,261L315,242.39l.12-27.16Z" style="fill:#e0e0e0"></path><path d="M290.74,211.06c.17,7.7,2.5,26.64,3.62,29.93s11.81,20.34,14.68,24.13,4.32,5.62,4.32,5.62A16.21,16.21,0,0,0,327.29,261L315,242.39l.12-27.16Z" style="opacity:0.1"></path><path d="M344.19,215s-1.82,11.83-2.26,15.69S344.61,257,344.61,257s6.64,2.42,12.4.83,6.57-3.46,6.57-3.46l-1.67-18.11L366.62,215Z" style="fill:#e0e0e0"></path><path d="M344.19,215s-1.82,11.83-2.26,15.69S344.61,257,344.61,257s6.64,2.42,12.4.83,6.57-3.46,6.57-3.46l-1.67-18.11L366.62,215Z" style="opacity:0.1"></path><path d="M350.6,258.3a20.72,20.72,0,0,0-1.45-5.17,4,4,0,0,0-.86-1.38,1.53,1.53,0,0,0-1.51-.4c-.7.25-1,1.07-1.14,1.8a20.15,20.15,0,0,0-.38,2.57c0,.48-.09,1-.09,1.5A27.84,27.84,0,0,0,350.6,258.3Z" style="fill:#ebebeb"></path><path d="M354.85,253.64a4,4,0,0,0-1-1.25,1.57,1.57,0,0,0-1.56-.19,2.24,2.24,0,0,0-.87,2,20.35,20.35,0,0,0,0,2.59,12.85,12.85,0,0,0,.16,1.63,17.7,17.7,0,0,0,5.28-.46A20.37,20.37,0,0,0,354.85,253.64Z" style="fill:#ebebeb"></path><path d="M284.59,157.34c6,.27,10.4-2.44,18.57-7.4s19.63-9.21,33.78-13.32,24.93-5.4,34.26.07,16.54,7.31,19.24,16.06,3.89,23.41-2.36,42.44-8.1,23.35-8.48,28.13.77,8,2.9,15.79S390,257.83,390,257.83s-.56,4.87-7.07,7.16-11.07.89-11.07.89-7.76-17.59-10.45-26.51a180.4,180.4,0,0,1-4.48-21.11,58,58,0,0,1-25,2.77s-5.14,20.18-7.85,29.44c-2.22,7.58-1,28.11-1,28.11s-1.51,2.86-9.18,3.5-11.18-4-11.18-4-.55-21.58.4-28.39,5.23-32.07,5.23-32.07-5.84-3.62-8.69-6.65S284.59,157.34,284.59,157.34Z" style="fill:#e0e0e0"></path><path d="M239.9,171c1.74,1.62,3.71,3,4.93,4.57l4.81-6.43-4.07,7.94a8.15,8.15,0,0,1,.83,2.62c.33,1.83,4.42,11,12.81,12l14.78-39s2.73-3.35-1.25-6.77-12.45-.07-19.85,8.2A155.66,155.66,0,0,0,239.9,171Z" style="fill:#ffa8a7"></path><path d="M279.49,151.32c-.93-6.57-7.57-13.72-18.67-5.36s-21.56,24.36-21.56,24.36l.64.67s7.58-11.4,13.71-16.43S266,145.35,271,147c3.56,1.16,3,5.76,3,5.76Z" style="fill:#e0e0e0"></path><path d="M279.49,151.32c-.93-6.57-7.57-13.72-18.67-5.36s-21.56,24.36-21.56,24.36l.64.67s7.58-11.4,13.71-16.43S266,145.35,271,147c3.56,1.16,3,5.76,3,5.76Z" style="opacity:0.1"></path><path d="M300.14,159.73c-3.42-5.22-15-12.29-27.76-6.33S255,169.61,252.67,176.93a45.39,45.39,0,0,1-7,14.12c-7.52,11.21-13.28,28-12.7,42s5.34,22.31,12.77,25.11c4.88,1.84,10.6.7,12.12-2.56s3.16-4.44,3.82-5.66-.62-3.25-3.51-1.67-3.44.48-4.39,1-.84,1.37-.77,2.36-2.67,1.55-4.59-1.45c-3.07-4.78-1.75-10.46,1.08-17.84,5-13,12-18,15.35-20.29,0,0,2.4,3.17,7.84,2.37a42.06,42.06,0,0,0,17.14-6.82c6.07-4,12-8.63,15.8-18C309.9,179.05,305.68,166.78,300.14,159.73Z" style="fill:#e0e0e0"></path><path d="M307.12,184l-1.24-4.37-14.09-3.22c-2.63,5.9-3.86,14.82-4.08,20.87s-10.19,13.39-16,13.7.4-12.88.4-12.88-15.31,8.13-21.87,21.25-8.19,25.86-4.79,31.12,7.88,4.33,8.64,3,.17-2.26,1.24-2.94,3.45-.72,4.31-2.88a4.8,4.8,0,0,0-1.44.54c-2.89,1.58-3.44.48-4.39,1s-.84,1.37-.77,2.36-2.67,1.55-4.59-1.45c-3.07-4.78-1.75-10.46,1.08-17.84,5-13,12-18,15.35-20.29,0,0,2.4,3.17,7.84,2.37a42.06,42.06,0,0,0,17.14-6.82c6.07-4,12-8.63,15.8-18A23.76,23.76,0,0,0,307.12,184Z" style="opacity:0.1"></path><path d="M325.34,200.51l-9.55,5.12-1.31-7.6-1,8.65s-13,6.89-20,8.33-5.3-2.91-4.42-7.81c2.21-12.39-.24-15.5,2.75-30.76,0,0,4.3-13,12.26-15.93s11.95,3.09,14.21,9.68S325.34,200.51,325.34,200.51Z" style="fill:#ffa8a7"></path><path d="M300.14,159.73c6.15-3.7,12.05-3.45,16,3.06s10.35,36.77,10.35,36.77l-1.19.95s-4.45-20.48-6.89-26.87-6.26-13.1-11.81-9-6.88,12.05-14.85,11.81C291.79,176.44,292.8,168.14,300.14,159.73Z" style="fill:#e0e0e0"></path><path d="M300.14,159.73c6.15-3.7,12.05-3.45,16,3.06s10.35,36.77,10.35,36.77l-1.19.95s-4.45-20.48-6.89-26.87-6.26-13.1-11.81-9-6.88,12.05-14.85,11.81C291.79,176.44,292.8,168.14,300.14,159.73Z" style="opacity:0.1"></path><path d="M268.71,205.46c-1.73-.07-2.82,1.56-5.17,1.13-4.06-.74-6.57-5.53-4.41-11.21-2.85,2.15-6,9.44-1.79,15.47a10.77,10.77,0,0,0,13.15,3.81C272.71,213.59,271.56,205.78,268.71,205.46Z" style="fill:#fafafa"></path><path d="M252.37,202.34a9.91,9.91,0,0,0-3.47-3.18,15.51,15.51,0,0,0-4.3-1.92c-.48-.12-.45.54-.08.69a27.47,27.47,0,0,1,3.91,1.87c.54.34,1.08.7,1.6,1.09a24,24,0,0,0,2.25,1.65C252.38,202.59,252.4,202.4,252.37,202.34Zm-5.21.64a11.45,11.45,0,0,0-4.23-1.75c-.23,0-.15.37,0,.44,1.27.64,2.59,1.14,3.82,1.88a17,17,0,0,1,1.75,1.2,9.54,9.54,0,0,0,1.72,1.18c.11,0,.12-.16.09-.21A8.54,8.54,0,0,0,247.16,203Zm-.92,4.62a4.73,4.73,0,0,0,1.4.52c.16,0,.16-.23.06-.3a21.18,21.18,0,0,0-2.59-1.56c-.8-.47-1.58-1-2.41-1.43-.18-.09-.2.22-.11.31a13.29,13.29,0,0,0,2.47,1.81C245.44,207.18,245.83,207.4,246.24,207.6Zm-3.81,13.55a6.14,6.14,0,0,0,2.28.42c.16,0,.11-.31,0-.36a41.38,41.38,0,0,0-3.92-1.38c-.67-.26-1.33-.55-2-.84s-1.42-.72-2.15-1c-.33-.13-.32.38-.14.52a16.41,16.41,0,0,0,3.88,1.95C241.06,220.7,241.74,220.94,242.43,221.15ZM241.09,225a3.86,3.86,0,0,0,1.66.37c.19,0,.09-.33,0-.39a7.26,7.26,0,0,0-1.51-.51,15.73,15.73,0,0,1-1.58-.57c-1.16-.48-2.26-1.1-3.38-1.67-.19-.09-.19.24-.08.33a14.49,14.49,0,0,0,3.21,1.81C240,224.57,240.51,224.78,241.09,225Zm-2.26,3.38a.23.23,0,0,0,0-.35,2,2,0,0,0-.63-.18,5.52,5.52,0,0,1-.54-.16c-.33-.11-.65-.27-1-.4s-.2.24-.08.33a3.91,3.91,0,0,0,1.17.59,4.61,4.61,0,0,0,.53.15C238.44,228.37,238.68,228.45,238.83,228.35Zm2.42,12.39a4.24,4.24,0,0,0-1.4-.44,12.1,12.1,0,0,0-1.34-.23,9.5,9.5,0,0,0-1.31-.06,3.39,3.39,0,0,0-1.45.25c-.16.09-.11.44.09.44.46,0,.91,0,1.36-.06a9.4,9.4,0,0,1,1.4.09c.43.06.87.13,1.3.22a3.65,3.65,0,0,0,1.35.19C241.41,241.11,241.35,240.81,241.25,240.74Zm-1.42,2.37a1.36,1.36,0,0,0-.59-.18l-.52-.07a5.27,5.27,0,0,0-1.05,0c-.15,0-.12.32,0,.35.36.07.74.09,1.1.13l.53.08a1.1,1.1,0,0,0,.51,0A.19.19,0,0,0,239.83,243.11Z" style="opacity:0.1"></path><path d="M274.55,190.62a1.64,1.64,0,1,1,.95-2.39A1.85,1.85,0,0,1,274.55,190.62Z"></path><path d="M378.18,266.12a20.61,20.61,0,0,0-2.65-5,3.94,3.94,0,0,0-1.14-1.16,1.53,1.53,0,0,0-1.56-.07,2.25,2.25,0,0,0-.72,2,20.38,20.38,0,0,0,.19,2.59c.07.5.13,1,.25,1.55A18.73,18.73,0,0,0,378.18,266.12Z" style="fill:#fafafa"></path><path d="M384.24,264.43a21,21,0,0,0-3-4.05,4,4,0,0,0-1.29-1,1.53,1.53,0,0,0-1.56.16,2.23,2.23,0,0,0-.43,2.08,21.65,21.65,0,0,0,.55,2.54,11.67,11.67,0,0,0,.61,1.81,25.21,25.21,0,0,0,3.8-1A13.06,13.06,0,0,0,384.24,264.43Z" style="fill:#fafafa"></path><path d="M314.05,277.41a3.83,3.83,0,0,0-.91-1.35,1.56,1.56,0,0,0-1.53-.35,2.23,2.23,0,0,0-1.06,1.85,22.13,22.13,0,0,0-.29,2.58,12.56,12.56,0,0,0,0,1.84,16.49,16.49,0,0,0,3.63.1c.6-.05,1.14-.12,1.67-.19A20.58,20.58,0,0,0,314.05,277.41Z" style="fill:#fafafa"></path><path d="M309.35,281.81a20.49,20.49,0,0,0-.92-5.49,4,4,0,0,0-.71-1.47,1.55,1.55,0,0,0-1.46-.55c-.73.17-1.09,1-1.32,1.67a22.19,22.19,0,0,0-.65,2.52c-.05.31-.11.62-.16.94A12.66,12.66,0,0,0,309.35,281.81Z" style="fill:#fafafa"></path><path d="M367.46,194.77s-2.14,11.61-9.71,16.46-20.7,3.07-20.7,3.07c.25-3.34-2.08-10.08-2.08-10.08A120,120,0,0,1,331.92,221a58,58,0,0,0,25-2.77A25.52,25.52,0,0,0,367.46,194.77Z" style="opacity:0.05"></path></g></g><g id="freepik--Fence--inject-77"><g id="freepik--fence--inject-77"><polygon id="freepik--shadow--inject-77" points="75.79 252.27 284.34 372.63 291.53 368.4 83 248.03 75.79 252.27" style="fill:#EC407A;opacity:0.30000000000000004"></polygon><g id="freepik--fence--inject-77"><polygon points="280.23 365.12 280.23 310.78 276.2 302.48 272.09 306.1 272.09 360.44 280.23 365.12" style="fill:#37474f"></polygon><polygon points="280.23 310.78 282.26 309.61 282.26 363.95 280.23 365.12 280.23 310.78" style="fill:#263238"></polygon><polygon points="276.2 302.48 278.23 301.27 282.26 309.61 280.23 310.78 276.2 302.48" style="fill:#455a64"></polygon><polygon points="250.14 347.83 250.14 293.49 246.12 285.19 242 288.81 242 343.15 250.14 347.83" style="fill:#37474f"></polygon><polygon points="250.14 293.49 252.18 292.32 252.18 346.66 250.14 347.83 250.14 293.49" style="fill:#263238"></polygon><polygon points="246.12 285.19 248.15 283.98 252.18 292.32 250.14 293.49 246.12 285.19" style="fill:#455a64"></polygon><polygon points="220.06 330.54 220.06 276.2 216.03 267.9 211.92 271.52 211.92 325.86 220.06 330.54" style="fill:#37474f"></polygon><polygon points="220.06 276.2 222.1 275.03 222.1 329.37 220.06 330.54 220.06 276.2" style="fill:#263238"></polygon><polygon points="216.03 267.9 218.07 266.69 222.1 275.03 220.06 276.2 216.03 267.9" style="fill:#455a64"></polygon><polygon points="189.98 313.25 189.98 258.91 185.95 250.61 181.84 254.23 181.84 308.57 189.98 313.25" style="fill:#37474f"></polygon><polygon points="189.98 258.91 192.01 257.74 192.01 312.08 189.98 313.25 189.98 258.91" style="fill:#263238"></polygon><polygon points="185.95 250.61 187.99 249.4 192.01 257.74 189.98 258.91 185.95 250.61" style="fill:#455a64"></polygon><polygon points="159.9 295.96 159.9 241.62 155.87 233.32 151.76 236.94 151.76 291.28 159.9 295.96" style="fill:#37474f"></polygon><polygon points="159.9 241.62 161.93 240.45 161.93 294.79 159.9 295.96 159.9 241.62" style="fill:#263238"></polygon><polygon points="155.87 233.32 157.9 232.11 161.93 240.45 159.9 241.62 155.87 233.32" style="fill:#455a64"></polygon><polygon points="151.76 258.77 159.9 263.45 159.9 260.25 151.76 255.57 151.76 258.77" style="fill:#263238"></polygon><polygon points="189.98 277.53 181.84 272.85 181.84 276.05 189.98 280.73 189.98 277.53" style="fill:#263238"></polygon><polygon points="250.14 312.1 242 307.42 242 310.62 250.14 315.3 250.14 312.1" style="fill:#263238"></polygon><polygon points="220.06 294.81 211.92 290.14 211.92 293.34 220.06 298.01 220.06 294.81" style="fill:#263238"></polygon><polygon points="280.23 329.38 272.09 324.7 272.09 327.9 280.23 332.58 280.23 329.38" style="fill:#263238"></polygon><polygon points="151.76 279.4 159.9 284.08 159.9 280.88 151.76 276.2 151.76 279.4" style="fill:#263238"></polygon><polygon points="189.98 298.16 181.84 293.49 181.84 296.69 189.98 301.36 189.98 298.16" style="fill:#263238"></polygon><polygon points="129.82 278.67 129.82 224.33 125.79 216.03 121.68 219.65 121.68 273.99 129.82 278.67" style="fill:#37474f"></polygon><polygon points="129.82 224.33 131.85 223.16 131.85 277.5 129.82 278.67 129.82 224.33" style="fill:#263238"></polygon><polygon points="125.79 216.03 127.82 214.82 131.85 223.16 129.82 224.33 125.79 216.03" style="fill:#455a64"></polygon><polygon points="99.73 261.38 99.73 207.04 95.71 198.74 91.59 202.36 91.59 256.7 99.73 261.38" style="fill:#37474f"></polygon><polygon points="99.73 207.04 101.77 205.87 101.77 260.21 99.73 261.38 99.73 207.04" style="fill:#263238"></polygon><polygon points="95.71 198.74 97.74 197.53 101.77 205.87 99.73 207.04 95.71 198.74" style="fill:#455a64"></polygon><polygon points="91.59 224.19 99.73 228.87 99.73 225.67 91.59 220.99 91.59 224.19" style="fill:#263238"></polygon><polygon points="129.82 242.95 121.68 238.27 121.68 241.47 129.82 246.15 129.82 242.95" style="fill:#263238"></polygon><polygon points="91.59 244.82 99.73 249.5 99.73 246.3 91.59 241.62 91.59 244.82" style="fill:#263238"></polygon><polygon points="129.82 263.58 121.68 258.91 121.68 262.11 129.82 266.78 129.82 263.58" style="fill:#263238"></polygon><polygon points="250.14 332.73 242 328.05 242 331.25 250.14 335.93 250.14 332.73" style="fill:#263238"></polygon><polygon points="220.06 315.45 211.92 310.77 211.92 313.97 220.06 318.65 220.06 315.45" style="fill:#263238"></polygon><polygon points="280.23 350.01 272.09 345.34 272.09 348.54 280.23 353.21 280.23 350.01" style="fill:#263238"></polygon><polygon points="289.44 353.07 82.97 234.48 82.97 237.68 289.44 356.27 289.44 353.07" style="fill:#37474f"></polygon><polygon points="289.44 353.07 291.53 351.88 291.53 355.07 289.44 356.27 289.44 353.07" style="fill:#263238"></polygon><polygon points="82.97 234.48 289.44 353.07 291.53 351.88 85.08 233.27 82.97 234.48" style="fill:#455a64"></polygon><polygon points="289.44 332.59 82.97 213.99 82.97 217.19 289.44 335.79 289.44 332.59" style="fill:#37474f"></polygon><polygon points="289.44 332.59 291.53 331.39 291.53 334.58 289.44 335.79 289.44 332.59" style="fill:#263238"></polygon><polygon points="82.97 213.99 289.44 332.59 291.53 331.39 85.08 212.78 82.97 213.99" style="fill:#455a64"></polygon></g></g><g id="freepik--fence--inject-77"><polygon points="441.84 287.6 434.64 283.36 287.45 368.14 140.26 452.91 147.45 457.14 294.64 372.37 294.64 372.37 441.84 287.6" style="fill:#EC407A;opacity:0.30000000000000004"></polygon><g id="freepik--fence--inject-77"><polygon points="151.56 449.63 151.56 395.3 155.59 387 159.7 390.62 159.7 444.96 151.56 449.63" style="fill:#37474f"></polygon><polygon points="151.56 395.3 149.53 394.13 149.53 448.47 151.56 449.63 151.56 395.3" style="fill:#263238"></polygon><polygon points="155.59 387 153.56 385.78 149.53 394.13 151.56 395.3 155.59 387" style="fill:#455a64"></polygon><polygon points="181.65 432.35 181.65 378.01 185.67 369.7 189.78 373.33 189.78 427.67 181.65 432.35" style="fill:#37474f"></polygon><polygon points="181.65 378.01 179.61 376.84 179.61 431.18 181.65 432.35 181.65 378.01" style="fill:#263238"></polygon><polygon points="185.67 369.7 183.64 368.49 179.61 376.84 181.65 378.01 185.67 369.7" style="fill:#455a64"></polygon><polygon points="211.73 415.06 211.73 360.72 215.75 352.42 219.87 356.04 219.87 410.38 211.73 415.06" style="fill:#37474f"></polygon><polygon points="211.73 360.72 209.69 359.55 209.69 413.89 211.73 415.06 211.73 360.72" style="fill:#263238"></polygon><polygon points="215.75 352.42 213.72 351.2 209.69 359.55 211.73 360.72 215.75 352.42" style="fill:#455a64"></polygon><polygon points="241.81 397.76 241.81 343.43 245.84 335.13 249.95 338.75 249.95 393.09 241.81 397.76" style="fill:#37474f"></polygon><polygon points="241.81 343.43 239.78 342.26 239.78 396.6 241.81 397.76 241.81 343.43" style="fill:#263238"></polygon><polygon points="245.84 335.13 243.8 333.91 239.78 342.26 241.81 343.43 245.84 335.13" style="fill:#455a64"></polygon><polygon points="271.89 380.48 271.89 326.14 275.92 317.84 280.03 321.46 280.03 375.8 271.89 380.48" style="fill:#37474f"></polygon><polygon points="271.89 326.14 269.86 324.97 269.86 379.31 271.89 380.48 271.89 326.14" style="fill:#263238"></polygon><polygon points="275.92 317.84 273.88 316.62 269.86 324.97 271.89 326.14 275.92 317.84" style="fill:#455a64"></polygon><polygon points="280.03 343.28 271.89 347.96 271.89 344.76 280.03 340.08 280.03 343.28" style="fill:#263238"></polygon><polygon points="241.81 362.04 249.95 357.37 249.95 360.57 241.81 365.24 241.81 362.04" style="fill:#263238"></polygon><polygon points="181.65 396.61 189.78 391.93 189.78 395.13 181.65 399.81 181.65 396.61" style="fill:#263238"></polygon><polygon points="211.73 379.33 219.87 374.65 219.87 377.85 211.73 382.53 211.73 379.33" style="fill:#263238"></polygon><polygon points="151.56 413.89 159.7 409.22 159.7 412.42 151.56 417.09 151.56 413.89" style="fill:#263238"></polygon><polygon points="280.03 363.92 271.89 368.59 271.89 365.39 280.03 360.72 280.03 363.92" style="fill:#263238"></polygon><polygon points="241.81 382.68 249.95 378 249.95 381.2 241.81 385.88 241.81 382.68" style="fill:#263238"></polygon><polygon points="181.65 417.24 189.78 412.57 189.78 415.77 181.65 420.44 181.65 417.24" style="fill:#263238"></polygon><polygon points="211.73 399.96 219.87 395.28 219.87 398.48 211.73 403.16 211.73 399.96" style="fill:#263238"></polygon><polygon points="151.56 434.53 159.7 429.85 159.7 433.05 151.56 437.73 151.56 434.53" style="fill:#263238"></polygon><polygon points="142.35 437.59 288.66 353.53 288.66 356.73 142.35 440.79 142.35 437.59" style="fill:#37474f"></polygon><polygon points="142.35 437.59 140.26 436.39 140.26 439.59 142.35 440.79 142.35 437.59" style="fill:#263238"></polygon><polygon points="288.66 353.53 142.35 437.59 140.26 436.39 286.56 352.32 288.66 353.53" style="fill:#455a64"></polygon><polygon points="142.35 417.1 288.66 333.04 288.66 336.24 142.35 420.3 142.35 417.1" style="fill:#37474f"></polygon><polygon points="142.35 417.1 140.26 415.9 140.26 419.1 142.35 420.3 142.35 417.1" style="fill:#263238"></polygon><polygon points="288.66 333.04 142.35 417.1 140.26 415.9 286.56 331.83 288.66 333.04" style="fill:#455a64"></polygon></g><g id="freepik--fence--inject-77"><polygon points="297.87 365.57 297.87 311.24 301.9 302.94 306.01 306.56 306.01 360.9 297.87 365.57" style="fill:#37474f"></polygon><polygon points="297.87 311.24 295.84 310.07 295.84 364.41 297.87 365.57 297.87 311.24" style="fill:#263238"></polygon><polygon points="301.9 302.94 299.87 301.72 295.84 310.07 297.87 311.24 301.9 302.94" style="fill:#455a64"></polygon><polygon points="327.95 348.29 327.95 293.95 331.98 285.64 336.1 289.27 336.1 343.61 327.95 348.29" style="fill:#37474f"></polygon><polygon points="327.95 293.95 325.92 292.78 325.92 347.12 327.95 348.29 327.95 293.95" style="fill:#263238"></polygon><polygon points="331.98 285.64 329.95 284.43 325.92 292.78 327.95 293.95 331.98 285.64" style="fill:#455a64"></polygon><polygon points="358.04 331 358.04 276.66 362.06 268.36 366.18 271.98 366.18 326.32 358.04 331" style="fill:#37474f"></polygon><polygon points="358.04 276.66 356 275.49 356 329.83 358.04 331 358.04 276.66" style="fill:#263238"></polygon><polygon points="362.06 268.36 360.03 267.14 356 275.49 358.04 276.66 362.06 268.36" style="fill:#455a64"></polygon><polygon points="388.12 313.7 388.12 259.37 392.15 251.07 396.26 254.69 396.26 309.03 388.12 313.7" style="fill:#37474f"></polygon><polygon points="388.12 259.37 386.08 258.2 386.08 312.54 388.12 313.7 388.12 259.37" style="fill:#263238"></polygon><polygon points="392.15 251.07 390.11 249.85 386.08 258.2 388.12 259.37 392.15 251.07" style="fill:#455a64"></polygon><polygon points="418.2 296.42 418.2 242.08 422.23 233.78 426.34 237.4 426.34 291.74 418.2 296.42" style="fill:#37474f"></polygon><polygon points="418.2 242.08 416.17 240.91 416.17 295.25 418.2 296.42 418.2 242.08" style="fill:#263238"></polygon><polygon points="422.23 233.78 420.19 232.56 416.17 240.91 418.2 242.08 422.23 233.78" style="fill:#455a64"></polygon><polygon points="426.34 259.22 418.2 263.9 418.2 260.7 426.34 256.02 426.34 259.22" style="fill:#263238"></polygon><polygon points="388.12 277.98 396.26 273.31 396.26 276.51 388.12 281.18 388.12 277.98" style="fill:#263238"></polygon><polygon points="327.95 312.55 336.1 307.87 336.1 311.07 327.95 315.75 327.95 312.55" style="fill:#263238"></polygon><polygon points="358.04 295.27 366.18 290.59 366.18 293.79 358.04 298.47 358.04 295.27" style="fill:#263238"></polygon><polygon points="297.87 329.83 306.01 325.16 306.01 328.36 297.87 333.03 297.87 329.83" style="fill:#263238"></polygon><polygon points="426.34 279.86 418.2 284.53 418.2 281.33 426.34 276.66 426.34 279.86" style="fill:#263238"></polygon><polygon points="388.12 298.62 396.26 293.94 396.26 297.14 388.12 301.82 388.12 298.62" style="fill:#263238"></polygon><polygon points="327.95 333.18 336.1 328.51 336.1 331.71 327.95 336.38 327.95 333.18" style="fill:#263238"></polygon><polygon points="358.04 315.9 366.18 311.22 366.18 314.42 358.04 319.1 358.04 315.9" style="fill:#263238"></polygon><polygon points="297.87 350.47 306.01 345.79 306.01 348.99 297.87 353.67 297.87 350.47" style="fill:#263238"></polygon><polygon points="288.66 353.53 434.97 269.47 434.97 272.67 288.66 356.73 288.66 353.53" style="fill:#37474f"></polygon><polygon points="434.97 269.47 288.66 353.53 286.57 352.33 432.86 268.26 434.97 269.47" style="fill:#455a64"></polygon><polygon points="288.66 333.04 434.97 248.98 434.97 252.18 288.66 336.24 288.66 333.04" style="fill:#37474f"></polygon><polygon points="434.97 248.98 288.66 333.04 286.57 331.84 432.86 247.77 434.97 248.98" style="fill:#455a64"></polygon></g></g></g><g id="freepik--Giraffe--inject-77"><g id="freepik--giraffe--inject-77"><path d="M218.91,97.18c-16.85,3.25-28.92,7.87-46,20.26S146.32,148.9,132.52,166s-25.34,14.48-25.34,14.48a53.38,53.38,0,0,0,14.69-11.76c6.66-7.73,9.85-12.69,15.88-22.45,3.38-5.49,7.43-12.11,12.37-18.65l3.89,2.32-2.73-3.83a99.89,99.89,0,0,1,8.85-10l3.5,3.26-2.6-4.14c.77-.72,1.57-1.45,2.36-2.16a87.43,87.43,0,0,1,9-6.87l3.63,2.91L174.51,105l3.84,3.44-1.92-4.79a94.31,94.31,0,0,1,15.21-7.16l2.27,4.36L193,96c2.84-1,5.53-1.81,8-2.44,10.72-2.72,14.84-2.3,14.84-2.3Z" style="fill:#455a64"></path><path d="M76.94,209.63c2.81,17.73,4.7,26.86,5.75,33.55s-4,17.78-3,23.06c2.3,12.4,4.06,16.66,5.47,27.44s-.93,16.23-.93,16.23c0,2.6,2.91,1.68,2.45,4.44s-1.53,8.11-1.53,8.11a9.88,9.88,0,0,0,9.19,3.68c6.12-.77,5.05-4.6,5.05-4.6s-2-8.57-3.52-11.17S92.82,306,92.36,299s-.16-28.77-.16-28.77a27.67,27.67,0,0,0,13-15.32,156.35,156.35,0,0,0,5.17-18.82Z" style="fill:#EC407A"></path><path d="M76.94,209.63c2.81,17.73,4.7,26.86,5.75,33.55s-4,17.78-3,23.06c2.3,12.4,4.06,16.66,5.47,27.44s-.93,16.23-.93,16.23c0,2.6,2.91,1.68,2.45,4.44s-1.53,8.11-1.53,8.11a9.88,9.88,0,0,0,9.19,3.68c6.12-.77,5.05-4.6,5.05-4.6s-2-8.57-3.52-11.17S92.82,306,92.36,299s-.16-28.77-.16-28.77a27.67,27.67,0,0,0,13-15.32,156.35,156.35,0,0,0,5.17-18.82Z" style="fill:#fff;opacity:0.30000000000000004"></path><path d="M95.88,310.37c-1.53-2.61-3.06-4.33-3.52-11.35-.3-4.56-.28-15.32-.22-22.31-3.43-2.15-7.45-3.73-10.69-1.91a179.93,179.93,0,0,1,3.72,18.88c1.4,10.77-.93,16.23-.93,16.23,0,2.6,2.91,1.68,2.45,4.44s-1.53,8.11-1.53,8.11a9.88,9.88,0,0,0,9.19,3.68c6.12-.77,5.05-4.6,5.05-4.6S97.41,313,95.88,310.37Z" style="fill:#fff;opacity:0.6000000000000001"></path><path d="M98.33,317.36s-.94,2.28-5,2.41a11.87,11.87,0,0,1-7.18-2.41h0c-.05.25-.1.51-.14.76-.09.45-.17.9-.26,1.32,0,.21-.08.41-.11.61-.08.4-.15.76-.22,1.08,0,.16-.06.31-.08.45-.11.55-.18.88-.18.88a9.21,9.21,0,0,0,2.3,2.13,9.82,9.82,0,0,0,4.73,1.61c.34,0,.69,0,1,0s.73,0,1.12-.08a11.05,11.05,0,0,0,2-.42A4.73,4.73,0,0,0,99,324a3.15,3.15,0,0,0,.45-2.41S99,319.64,98.33,317.36Z" style="fill:#263238"></path><path d="M86.93,256.6a2.17,2.17,0,0,0-.36-1.06c0-.17-.26-.51-.35-.66s-.23-.44-.35-.66a4.13,4.13,0,0,0-.68-1.17c-1.13-1-2.13,2.37-2.35,2.91a21.5,21.5,0,0,0-1.53,4.93,1.4,1.4,0,0,0,0,.86,1.42,1.42,0,0,0,.53.53,7.59,7.59,0,0,0,2.38,1.05l2.45-5.95A2.38,2.38,0,0,0,86.93,256.6Zm4.79-1.27,1,.6c.27.17.54.5.88.28a1.25,1.25,0,0,0,.41-.61l.22-.48A17.45,17.45,0,0,1,96.12,252a.73.73,0,0,0,.16-.3.77.77,0,0,0-.07-.36c-.43-1.11-.85-2.22-1.28-3.34-.13-.34-.24-1.05-.6-1.22a.94.94,0,0,0-.24-.06c-.56-.15-1.12-.32-1.69-.46a15.88,15.88,0,0,0-4.06-.6,48.07,48.07,0,0,0,.24,5.37,10.25,10.25,0,0,0,.23,1.23,3.52,3.52,0,0,0,.94,1.64A10.06,10.06,0,0,0,91.72,255.33Zm-3.55,7.08a.45.45,0,0,0-.14-.32,2,2,0,0,0-.47-.21.67.67,0,0,0-.48.08,1.67,1.67,0,0,0-.51.58,9.21,9.21,0,0,0-1.06,2,1.41,1.41,0,0,0,0,1,3.43,3.43,0,0,0,.49,1,3,3,0,0,0,.62.62,10.58,10.58,0,0,1,1.13.64.49.49,0,0,0,.82-.48c0-.6,0-1.19,0-1.78A25.38,25.38,0,0,0,88.17,262.41Zm15.25-7.26c-.14-.56-.77-.79-1.19-1.11s-1.08-.78-1.64-1.13c-.38-.24-.76-.47-1.15-.68s-.78-.67-1.1-.42a2.34,2.34,0,0,0-.32.53c-.24.42-.46.84-.66,1.27a16.83,16.83,0,0,0-.67,1.57c-.1.27-.19.55-.27.83s.26.77.43,1.1.45.82.67,1.23a1.31,1.31,0,0,0,.33.44,1.26,1.26,0,0,0,1.15,0,10.9,10.9,0,0,0,3.7-2.18A1.65,1.65,0,0,0,103.42,255.15Zm-7.3,3.28c-.29-.45-.62-.94-1.21-.92-1,0-1.79.89-2.86.64-.87-.19-1.67-1.1-2.62-.91a18.75,18.75,0,0,0-.05,2c0,.66,0,1.33,0,2a4.42,4.42,0,0,0,.11,1.26c.37,1.29,1.79,1.93,3.06,2.4a1.13,1.13,0,0,0,1.32-.12l3-2.05c.37-.25.78-.56.82-1a1.47,1.47,0,0,0-.19-.73A22.46,22.46,0,0,0,96.12,258.43Z" style="fill:#EC407A"></path><path d="M86.93,256.6a2.17,2.17,0,0,0-.36-1.06c0-.17-.26-.51-.35-.66s-.23-.44-.35-.66a4.13,4.13,0,0,0-.68-1.17c-1.13-1-2.13,2.37-2.35,2.91a21.5,21.5,0,0,0-1.53,4.93,1.4,1.4,0,0,0,0,.86,1.42,1.42,0,0,0,.53.53,7.59,7.59,0,0,0,2.38,1.05l2.45-5.95A2.38,2.38,0,0,0,86.93,256.6Zm4.79-1.27,1,.6c.27.17.54.5.88.28a1.25,1.25,0,0,0,.41-.61l.22-.48A17.45,17.45,0,0,1,96.12,252a.73.73,0,0,0,.16-.3.77.77,0,0,0-.07-.36c-.43-1.11-.85-2.22-1.28-3.34-.13-.34-.24-1.05-.6-1.22a.94.94,0,0,0-.24-.06c-.56-.15-1.12-.32-1.69-.46a15.88,15.88,0,0,0-4.06-.6,48.07,48.07,0,0,0,.24,5.37,10.25,10.25,0,0,0,.23,1.23,3.52,3.52,0,0,0,.94,1.64A10.06,10.06,0,0,0,91.72,255.33Zm-3.55,7.08a.45.45,0,0,0-.14-.32,2,2,0,0,0-.47-.21.67.67,0,0,0-.48.08,1.67,1.67,0,0,0-.51.58,9.21,9.21,0,0,0-1.06,2,1.41,1.41,0,0,0,0,1,3.43,3.43,0,0,0,.49,1,3,3,0,0,0,.62.62,10.58,10.58,0,0,1,1.13.64.49.49,0,0,0,.82-.48c0-.6,0-1.19,0-1.78A25.38,25.38,0,0,0,88.17,262.41Zm15.25-7.26c-.14-.56-.77-.79-1.19-1.11s-1.08-.78-1.64-1.13c-.38-.24-.76-.47-1.15-.68s-.78-.67-1.1-.42a2.34,2.34,0,0,0-.32.53c-.24.42-.46.84-.66,1.27a16.83,16.83,0,0,0-.67,1.57c-.1.27-.19.55-.27.83s.26.77.43,1.1.45.82.67,1.23a1.31,1.31,0,0,0,.33.44,1.26,1.26,0,0,0,1.15,0,10.9,10.9,0,0,0,3.7-2.18A1.65,1.65,0,0,0,103.42,255.15Zm-7.3,3.28c-.29-.45-.62-.94-1.21-.92-1,0-1.79.89-2.86.64-.87-.19-1.67-1.1-2.62-.91a18.75,18.75,0,0,0-.05,2c0,.66,0,1.33,0,2a4.42,4.42,0,0,0,.11,1.26c.37,1.29,1.79,1.93,3.06,2.4a1.13,1.13,0,0,0,1.32-.12l3-2.05c.37-.25.78-.56.82-1a1.47,1.47,0,0,0-.19-.73A22.46,22.46,0,0,0,96.12,258.43Z" style="opacity:0.2"></path><path d="M110.42,236.11,76.94,209.63c2.81,17.73,4.7,26.86,5.75,33.55s-4,17.78-3,23.06c.1.53.2,1,.29,1.52a158,158,0,0,0,4.87-17.92c7.2.45,9.27,1.08,18,6.66.48.31,1,.59,1.43.86.36-.77.7-1.57,1-2.43A156.35,156.35,0,0,0,110.42,236.11Z" style="opacity:0.2"></path><path d="M125.63,170c-9.54,8.34-17.24,11.82-31.31,9.62s-21.81-.7-29.9,6.82-14.78,15.68-12,33.41,6.85,27.53,7.9,34.21S55.61,272,56.59,277.29c2.3,12.4,2.69,15.87,4.09,26.64s-.92,16.23-.92,16.23c0,2.61,2.91,1.69,2.45,4.44s-1.53,8.12-1.53,8.12a9.85,9.85,0,0,0,9.18,3.67c6.13-.76,5.06-4.59,5.06-4.59s-2-8.57-3.52-11.18-3.07-4.32-3.53-11.35-.15-28.76-.15-28.76a27.68,27.68,0,0,0,13-15.32,155.3,155.3,0,0,0,5.18-18.82c7.2.45,9.27,1.08,18,6.66a36.54,36.54,0,0,0,17.27,5.74s-.34,10.9,0,20.67,1.09,14.14.18,16.5-2.92,5.83-.73,10.75,2.55,6.73,2.55,15.84.73,19.69-.55,23-.18,4.63,1.28,5.91,2,1.09,1.45,5.64-1.09,9.11-1.09,9.11a11.53,11.53,0,0,0,10.56,3.46c6.56-1.28,5.1-5.75,5.1-5.75a115.68,115.68,0,0,0-3.28-12.83c-1.82-5.28-3.82-5.48-4.37-13.94s-.91-24.35.37-28.78,3.64-8.08,3.27-15.36,6-31.82,8.2-39.31l3.19-1.84s-1.92,25.85-2.28,28.59-3.1,5.09-.37,11.29,2,6.91,1.82,13.11.19,27.49-1.27,31.13,2,4,2.91,5.65,0,12.92,0,12.92,5.65,3.46,10.75,2a7.75,7.75,0,0,0,5.64-6.19s-4.19-11.29-5.64-14.75-3.65-6.92-3.46-14.21-.91-20.75.72-26.22,3.46-6.73,4-13.65,1.09-15.4,3.46-24.91,5.83-18.06,5.64-31.54,1.1-30.59,4-41.33,7.8-28.94,14.23-40.23c8.65-15.2,21.75-23.86,32.74-24l-1.32-22.35s-12.41-.56-32,10.11c-21.41,11.67-30.61,24-42.07,38.6C135.32,158.1,131,165.38,125.63,170Z" style="fill:#EC407A"></path><path d="M125.63,170c-9.54,8.34-17.24,11.82-31.31,9.62s-21.81-.7-29.9,6.82-14.78,15.68-12,33.41,6.85,27.53,7.9,34.21S55.61,272,56.59,277.29c2.3,12.4,2.69,15.87,4.09,26.64s-.92,16.23-.92,16.23c0,2.61,2.91,1.69,2.45,4.44s-1.53,8.12-1.53,8.12a9.85,9.85,0,0,0,9.18,3.67c6.13-.76,5.06-4.59,5.06-4.59s-2-8.57-3.52-11.18-3.07-4.32-3.53-11.35-.15-28.76-.15-28.76a27.68,27.68,0,0,0,13-15.32,155.3,155.3,0,0,0,5.18-18.82c7.2.45,9.27,1.08,18,6.66a36.54,36.54,0,0,0,17.27,5.74s-.34,10.9,0,20.67,1.09,14.14.18,16.5-2.92,5.83-.73,10.75,2.55,6.73,2.55,15.84.73,19.69-.55,23-.18,4.63,1.28,5.91,2,1.09,1.45,5.64-1.09,9.11-1.09,9.11a11.53,11.53,0,0,0,10.56,3.46c6.56-1.28,5.1-5.75,5.1-5.75a115.68,115.68,0,0,0-3.28-12.83c-1.82-5.28-3.82-5.48-4.37-13.94s-.91-24.35.37-28.78,3.64-8.08,3.27-15.36,6-31.82,8.2-39.31l3.19-1.84s-1.92,25.85-2.28,28.59-3.1,5.09-.37,11.29,2,6.91,1.82,13.11.19,27.49-1.27,31.13,2,4,2.91,5.65,0,12.92,0,12.92,5.65,3.46,10.75,2a7.75,7.75,0,0,0,5.64-6.19s-4.19-11.29-5.64-14.75-3.65-6.92-3.46-14.21-.91-20.75.72-26.22,3.46-6.73,4-13.65,1.09-15.4,3.46-24.91,5.83-18.06,5.64-31.54,1.1-30.59,4-41.33,7.8-28.94,14.23-40.23c8.65-15.2,21.75-23.86,32.74-24l-1.32-22.35s-12.41-.56-32,10.11c-21.41,11.67-30.61,24-42.07,38.6C135.32,158.1,131,165.38,125.63,170Z" style="fill:#fff;opacity:0.4"></path><path d="M219.61,109.06l-3.82-.36c-.19,2.41-1,7.21,1.6,11.07a23.15,23.15,0,0,1,2.84-.24Z" style="fill:#EC407A"></path><path d="M229.81,95.77c1-2,.2-4.15-2.08-9S225,81,225,81a4.65,4.65,0,0,1,5.66-2.36S233,83.83,234,86a10.49,10.49,0,0,0,4.49,5.13S235.8,97.12,229.81,95.77Z" style="fill:#EC407A"></path><path d="M229.81,95.77c1-2,.2-4.15-2.08-9S225,81,225,81a4.65,4.65,0,0,1,5.66-2.36S233,83.83,234,86a10.49,10.49,0,0,0,4.49,5.13S235.8,97.12,229.81,95.77Z" style="fill:#fff;opacity:0.2"></path><path d="M230.64,78.63A4.65,4.65,0,0,0,225,81s.22.49,1.05,2.24a6.61,6.61,0,0,1,5.65-2.31Z" style="fill:#37474f"></path><path d="M243.34,100.63c1.95-.41,7.55-1,10.85-6.72s-6.56-2.35-6.56-2.35-4.27,3.18-5.09,6.47Z" style="fill:#f28f8f"></path><path d="M242.54,98c2.5-3.89,5-5.28,7.74-5.89s4.16-.47,4.32,0-.41,1.77-.41,1.77,1.54-1.7,1.28-2.7-4.26-2.54-9-1.15a50.41,50.41,0,0,0-6.66,2.27Z" style="fill:#EC407A"></path><path d="M242.54,98c2.5-3.89,5-5.28,7.74-5.89s4.16-.47,4.32,0-.41,1.77-.41,1.77,1.54-1.7,1.28-2.7-4.26-2.54-9-1.15a50.41,50.41,0,0,0-6.66,2.27Z" style="fill:#fff;opacity:0.2"></path><path d="M251.06,117.5c-5-5.91-5.23-9.1-7.28-15.46s-2.95-12.47-10.68-12.37-13.18,2.1-15.46,7.35-2.95,15.93,0,20,6.37,7.83,13.19,9.37a33.36,33.36,0,0,1,12.73,6.09c2,1.36,5.91,4.79,9.54,1.26S256.28,123.86,251.06,117.5Z" style="fill:#EC407A"></path><path d="M251.06,117.5c-5-5.91-5.23-9.1-7.28-15.46s-2.95-12.47-10.68-12.37-13.18,2.1-15.46,7.35-2.95,15.93,0,20,6.37,7.83,13.19,9.37a33.36,33.36,0,0,1,12.73,6.09c2,1.36,5.91,4.79,9.54,1.26S256.28,123.86,251.06,117.5Z" style="fill:#fff;opacity:0.5"></path><path d="M243.56,132.5c2,1.36,5.91,4.79,9.54,1.26s3.18-9.9-2-16.26l-.62-.75a11.26,11.26,0,0,0-5.93,1.84l-.26.18a6.79,6.79,0,0,0-2,2.11,4.23,4.23,0,0,0-.5,1.32,1.23,1.23,0,0,0,0,.63,5.61,5.61,0,0,0,.84,1.63,14.43,14.43,0,0,1,1.48,1.92,2.19,2.19,0,0,1,0,2.3c-.56.78-1.69.84-2.52,1.34a2.46,2.46,0,0,0-.71.65C242,131.39,242.88,132.05,243.56,132.5Z" style="fill:#EC407A"></path><path d="M247.43,128.42c.22.47.79.81,1.15,1.29a4.67,4.67,0,0,1,.81,1.64c.14.4.91.53,1.05-.25a4.06,4.06,0,0,0-.91-3.77C248.5,126.45,246.67,126.79,247.43,128.42Z"></path><path d="M253.23,129c.1.64.55,1.11.53.14s.6-2.53.39-3c-.36-.86-.92.3-1.05,1.44A4.46,4.46,0,0,0,253.23,129Z"></path><path d="M203.44,108.18a11.25,11.25,0,0,0,9.45.74A35.27,35.27,0,0,1,218.5,107V104.1s-3.58-3.6-8.22-2.38S200,106.22,203.44,108.18Z" style="fill:#f28f8f"></path><path d="M217,98.66c-8.79.19-13,3.59-14.6,5.67-1.94,2.57-.5,3.06,1.08,4-.56-1-1.12-3,2.89-4.47s12.09.26,12.09.26Z" style="fill:#EC407A"></path><path d="M217,98.66c-8.79.19-13,3.59-14.6,5.67-1.94,2.57-.5,3.06,1.08,4-.56-1-1.12-3,2.89-4.47s12.09.26,12.09.26Z" style="fill:#fff;opacity:0.5"></path><path d="M232,109.2c2.14,3.61-5.7,2.35-4.65-.9C229,106.77,231.17,108,232,109.2Z"></path><path d="M244.82,105.43a2.85,2.85,0,0,0-1.33,2.48c.12,1.71,1.35,1.43,2.27.52C245.43,107.48,245.13,106.49,244.82,105.43Z"></path><path d="M217.9,96.46c1-2,.21-4.15-2.07-8.95s-2.76-5.83-2.76-5.83a4.65,4.65,0,0,1,5.67-2.36s2.36,5.2,3.38,7.4,1.21,4.19,4.36,3.65C226.48,90.37,223.89,97.81,217.9,96.46Z" style="fill:#EC407A"></path><path d="M217.9,96.46c1-2,.21-4.15-2.07-8.95s-2.76-5.83-2.76-5.83a4.65,4.65,0,0,1,5.67-2.36s2.36,5.2,3.38,7.4,1.21,4.19,4.36,3.65C226.48,90.37,223.89,97.81,217.9,96.46Z" style="fill:#fff;opacity:0.5"></path><path d="M218.74,79.32a4.65,4.65,0,0,0-5.67,2.36l1.05,2.24a6.6,6.6,0,0,1,5.66-2.31Z" style="fill:#37474f"></path><path d="M71.4,320.62c-1.54-2.6-3.07-4.32-3.53-11.35-.3-4.6-.27-15.52-.21-22.51a20.08,20.08,0,0,1-6.34-4.69l-4.74-4.87a.28.28,0,0,1,0,.09c2.3,12.4,2.69,15.87,4.09,26.64s-.92,16.23-.92,16.23c0,2.61,2.91,1.69,2.45,4.44s-1.53,8.12-1.53,8.12a9.85,9.85,0,0,0,9.18,3.67c6.13-.76,5.06-4.59,5.06-4.59S72.93,323.23,71.4,320.62Z" style="fill:#fff;opacity:0.6000000000000001"></path><path d="M136.66,351.11c-1.82-5.28-3.82-5.48-4.37-13.94s-.91-24.35.37-28.78c.45-1.58,1-3.05,1.6-4.63a15.68,15.68,0,0,1-4-.83c-3.48-1.21-6.52-3.4-9.51-5.56a11,11,0,0,0-.14,9.32c2.18,4.91,2.55,6.73,2.55,15.84s.73,19.69-.55,23-.18,4.63,1.28,5.91,2,1.09,1.45,5.64-1.09,9.11-1.09,9.11a11.53,11.53,0,0,0,10.56,3.46c6.56-1.28,5.1-5.75,5.1-5.75A115.68,115.68,0,0,0,136.66,351.11Z" style="fill:#fff;opacity:0.6000000000000001"></path><path d="M158.88,335.64c-1.46-3.46-3.65-6.92-3.46-14.21s-.91-20.75.72-26.22c.21-.69.43-1.32.64-1.9a35.42,35.42,0,0,0-6.48-1.66,9.76,9.76,0,0,0-5.5.4c2.57,5.91,1.87,6.73,1.69,12.82s.19,27.49-1.27,31.13,2,4,2.91,5.65,0,12.92,0,12.92,5.65,3.46,10.75,2a7.75,7.75,0,0,0,5.64-6.19S160.33,339.1,158.88,335.64Z" style="fill:#fff;opacity:0.6000000000000001"></path><path d="M124.87,361.33c-.09.74-.17,1.44-.25,2.05-.2,1.71-.34,2.85-.34,2.85a11.64,11.64,0,0,0,4.34,2.92,11,11,0,0,0,2.81.69,9.51,9.51,0,0,0,1.08.06,11.33,11.33,0,0,0,2.33-.21c4.51-.88,5.23-3.27,5.24-4.67a3.91,3.91,0,0,0-.14-1.08s-.28-1.44-.74-3.49c0,0-.92,2.12-5.91,2.93a11.12,11.12,0,0,1-8.42-2.05Z" style="fill:#263238"></path><path d="M69.86,336.39a8.32,8.32,0,0,0,3.38-1,3.68,3.68,0,0,0,.91-.75,3.08,3.08,0,0,0,.83-1.89,3.49,3.49,0,0,0,0-.87.1.1,0,0,1,0,0s-.34-1.46-.85-3.35C72,331.3,65.43,331,61.6,328h.45l-.41-.23c-.13.66-.25,1.31-.37,1.92-.2,1.06-.38,2-.49,2.52-.06.32-.1.51-.1.51a6,6,0,0,0,.57.68A10.32,10.32,0,0,0,63,334.84,9.91,9.91,0,0,0,69.86,336.39Z" style="fill:#263238"></path><path d="M151.59,356.12a17.06,17.06,0,0,0,1.65.46,14.54,14.54,0,0,0,1.81.3c.31,0,.62.05.94.05a9.91,9.91,0,0,0,2.89-.35,8.55,8.55,0,0,0,2.41-1.12,7.45,7.45,0,0,0,2.32-2.53,8.49,8.49,0,0,0,.47-1,7,7,0,0,0,.44-1.57s-.82-2.21-1.86-5c-.11.35-1,2.77-5.4,4.15a11.6,11.6,0,0,1-8.78-.95h0c-.11,3.06-.35,5.94-.35,5.94a16.81,16.81,0,0,0,2.06,1C150.61,355.77,151.08,356,151.59,356.12Z" style="fill:#263238"></path><path d="M164.74,234.87c-4.13,8.39-11.73,13.6-17.42,17,0,0-.13,1.69-.32,4.26C150.33,253.91,163.2,244.73,164.74,234.87Z" style="fill:#EC407A;opacity:0.6000000000000001"></path><polygon points="121.16 258.77 121.16 247.94 119.65 258.65 121.16 258.77" style="fill:#EC407A;opacity:0.6000000000000001"></polygon><path d="M85.94,246.37c-5.26-.75-11.54-4.93-14-9.89.89,4,4.07,9.44,13.38,12.59Z" style="fill:#EC407A;opacity:0.6000000000000001"></path><path d="M41.6,233.11a6.83,6.83,0,0,1,2.22-3.46,21,21,0,0,0-1.18,4,11.86,11.86,0,0,0,.12,3.85,12.64,12.64,0,0,0,1.34,3.71,14,14,0,0,0,2.53,3.29l.38.35a9.28,9.28,0,0,1-.5-3.79c-.23,1.68,1.39,3.11,2.47,4.57a8.27,8.27,0,0,1,1.59,6.3A11.5,11.5,0,0,0,51,240.8a5.93,5.93,0,0,1,2.77,4.86c1-2.12.43-4.51-.44-6.69s-2-4.31-2.26-6.58a7.58,7.58,0,0,1,1.41,3.7c0-.37.28-.9.36-1.27a11.33,11.33,0,0,0,.2-1.3,11,11,0,0,0-.1-2.68,11.88,11.88,0,0,0-2.15-5.06,2.48,2.48,0,0,1-.27-.47,2,2,0,0,0-.32-.39,13.13,13.13,0,0,1-.91-1.09,1.1,1.1,0,0,1-.17-.29,1.23,1.23,0,0,0-.21-.39c-.25-.34-.49-.68-.71-1A19.54,19.54,0,0,1,47,220c-.08-.16-.16-.32-.23-.48a10.85,10.85,0,0,1-1.54,3.92c-.74,1.27-1.6,2.49-2.31,3.77-.11.21-.27.4-.37.62a4.38,4.38,0,0,0-.23.54,8.72,8.72,0,0,0-.34,1.1,13.58,13.58,0,0,0-.31,2.28c0,.52,0,1-.06,1.55C41.57,233.24,41.59,233.17,41.6,233.11Z" style="fill:#37474f"></path><path d="M72.62,184.83a4.27,4.27,0,0,0-2.58-.9,16.82,16.82,0,0,0-3.25-.08,19,19,0,0,0-5.51,1.31,21.35,21.35,0,0,0-9.09,7c-5.28,7-6.35,16.14-6,24.64.11,2.81.37,5.61.62,8.41.27,3,.64,6,.72,8.94,0,.2.26.26.27,0,0-2.35.1-4.67,0-7s-.15-4.88-.19-7.31a67.91,67.91,0,0,1,.79-13.52c1.35-7.53,4.9-15.1,12-18.75A17.22,17.22,0,0,1,66,185.74a13.89,13.89,0,0,1,2.88-.1c1.2.08,2.33.4,3.53.38C73.15,186,73,185.22,72.62,184.83Z" style="fill:#EC407A"></path><path d="M145.53,205.3a2.72,2.72,0,0,0-2.67-.9,3.39,3.39,0,0,0-1.69,1,8.48,8.48,0,0,0-1.55,3.14c-.14.4-.27.81-.37,1.22a5.45,5.45,0,0,0-.17,1.06c-.1,1.75.83,3.38,1.73,4.89.2.33.46.71.85.74a1.26,1.26,0,0,0,.65-.19,5.66,5.66,0,0,1,1.13-.57l1.16-.6,1.17-.6a1.26,1.26,0,0,0,.67-.77,6.09,6.09,0,0,0,.08-3.39l-.57-3.52A4,4,0,0,0,145.53,205.3Z" style="fill:#EC407A"></path><path d="M135.76,263.58c-.36,0-.7.37-1,.57l-1,.75c0,.05-.37.26-.42.3l-.68.49c-.22.16-.45.31-.66.49a.89.89,0,0,1-.31.19,2.77,2.77,0,0,0-.83.48,3,3,0,0,0-.87,1.45,2.74,2.74,0,0,0,0,.28,5.26,5.26,0,0,0,.65,3.12,2.14,2.14,0,0,0,.69.9,2.41,2.41,0,0,0,2.11-.05l1-.32,1.64-.55a1.92,1.92,0,0,0,.8-.42,1.72,1.72,0,0,0,.33-.93l.27-1.75.21-1.38a1.31,1.31,0,0,0,0-.52,6.73,6.73,0,0,0-.47-1.93C136.91,264.29,136.34,263.56,135.76,263.58Z" style="fill:#EC407A"></path><path d="M148.38,196.22a6.74,6.74,0,0,0,.94-5.69c-.83-3-3.45-5.19-5.93-7.13a4.36,4.36,0,0,0-2.45-1.19,1.76,1.76,0,0,0-1.54.88c-.36.63-.68,1.19-1.08,1.82a23.79,23.79,0,0,0-1.28,3c-.13.28-.31.54-.44.83a9,9,0,0,0-.6,1.75,9.28,9.28,0,0,0-.22,2.35,10.14,10.14,0,0,0,.15,1.35l0,.15a9.08,9.08,0,0,0,1.33,3.1,9.8,9.8,0,0,0,1.09,1.32,4.77,4.77,0,0,0,1.3,1.07,4.62,4.62,0,0,0,1.62.12,9.86,9.86,0,0,0,4.41-1.43A8.54,8.54,0,0,0,148.38,196.22Z" style="fill:#EC407A"></path><path d="M162.82,235.17a7,7,0,0,0-1.18-6c-.44-.56-1.66-1.88-2.41-1.08a11.14,11.14,0,0,0-.72,1.15c-.43.57-.87,1.13-1.3,1.69-1,1.29-2,2.57-3,3.86a2.58,2.58,0,0,0-.65,1.27,2.65,2.65,0,0,0,.64,1.66l1.66,2.43a2.13,2.13,0,0,0,1.17,1,1.92,1.92,0,0,0,1.27-.36A9.5,9.5,0,0,0,162.82,235.17Z" style="fill:#EC407A"></path><path d="M156.26,273.75a6.57,6.57,0,0,0-1-2.95c-.39-.65-1-1.72-1.89-1.5a12.22,12.22,0,0,0-1.85.72.94.94,0,0,0-.43.3,1.07,1.07,0,0,0-.1.36,50.68,50.68,0,0,0-.61,5.89.83.83,0,0,0,.07.42.85.85,0,0,0,.28.22c.72.38,1.44.76,2.15,1.15.24.12.53.25.75.1a.79.79,0,0,0,.24-.35,13.82,13.82,0,0,1,1.93-3.13,2,2,0,0,0,.4-.61A1.62,1.62,0,0,0,156.26,273.75Z" style="fill:#EC407A"></path><path d="M159.13,262a21.07,21.07,0,0,0-1.22,3.18,3,3,0,0,0-.16.84,3.16,3.16,0,0,0,1.27,2.07,20.09,20.09,0,0,0,1.23-3.09,5.36,5.36,0,0,0,.42-2.18C160.58,261.9,159.72,260.72,159.13,262Z" style="fill:#EC407A"></path><path d="M163.51,209.86a13.93,13.93,0,0,0,1.75-5.5l1-6.08a2.28,2.28,0,0,0-.15-1.69,3.44,3.44,0,0,0-1.83-.91l-.57-.17c-.66-.2-1.33-.39-2-.53a8.54,8.54,0,0,0-4,0,11.59,11.59,0,0,0-3.95,2.27c-1.76,1.39-3.46,2.86-5.08,4.41-.28.27-.65.53-.74.92a7.36,7.36,0,0,0-.06,1.24,11.52,11.52,0,0,0,.42,3.31,18.67,18.67,0,0,0,1.24,3.24c.25.54.52,1.07.8,1.59a8.06,8.06,0,0,0,.61,1.21c.5.66,2,.65,2.78.64a10.2,10.2,0,0,0,3.23-.65,30.91,30.91,0,0,0,3.35-1.56c.56-.28,1.12-.57,1.69-.83S163.16,210.4,163.51,209.86Z" style="fill:#EC407A"></path><path d="M137.88,262a.66.66,0,0,0,.43-.18,10.11,10.11,0,0,0,2.21-2.12,2.44,2.44,0,0,0,.48-.86,5.31,5.31,0,0,0,.09-1c0-.64.1-1.28.15-1.92a1.73,1.73,0,0,0-.11-1,1.12,1.12,0,0,0-1-.5,2.41,2.41,0,0,0-1.11.43,5,5,0,0,0-1.59,6.73C137.51,261.73,137.66,261.93,137.88,262Z" style="fill:#EC407A"></path><path d="M127.05,242.4a2.81,2.81,0,0,0,1.17-.49l6.4-4a1.66,1.66,0,0,0,.52-.43,1.72,1.72,0,0,0,.21-.87,67.07,67.07,0,0,0-.26-10.12,1.41,1.41,0,0,0-.34-.94c-.33-.3-.76-.21-1.16-.27s-.58-.15-.89-.17c-1-.07-2,0-3.06,0l-6.12,0a4.21,4.21,0,0,0-1.5.18,2.63,2.63,0,0,0-1.38,1.33c-.06.12-.11.23-.16.35a7.58,7.58,0,0,0-.4,2.12,13.3,13.3,0,0,1-.84,2.92l-1,3a21.62,21.62,0,0,0-.69,2.14q3.93,2.58,8,4.85A2.71,2.71,0,0,0,127.05,242.4Z" style="fill:#EC407A"></path><path d="M136.5,275.63c0-.34.11-.77-.2-1a1.2,1.2,0,0,0-.91-.11,10.1,10.1,0,0,0-1.51.46,2.17,2.17,0,0,0-1.53,1.31,2.37,2.37,0,0,0,0,1.06q.15.94.33,1.89a1.61,1.61,0,0,0,.55,1.11,1.66,1.66,0,0,0,1.41,0,2,2,0,0,0,1-.53,1.89,1.89,0,0,0,.34-.87C136.18,277.82,136.36,276.73,136.5,275.63Z" style="fill:#EC407A"></path><path d="M72.19,210.56l-.75-1.46c-.1-.22-.31-.63-.6-.63s-.75.38-1,.52c-.7.38-1.38.78-2,1.22a.93.93,0,0,0-.52,1.08,29.87,29.87,0,0,0,1.17,6.42.59.59,0,0,0,.22.36c.3.16.58-.24.69-.56a17.19,17.19,0,0,1,2.29-4.34,2.7,2.7,0,0,0,.79-2A2.57,2.57,0,0,0,72.19,210.56Z" style="fill:#EC407A"></path><path d="M76.43,191.87c.23-.48.11-1.54-.42-1.74a8.9,8.9,0,0,0-1.7-.38,5.75,5.75,0,0,0-1.24-.05,3.09,3.09,0,0,0-1,.12c-.28.13-.4.48-.54.73l-1.2,2.17a2.23,2.23,0,0,0,.37,3.13c.12.13.25.28.42.29a.61.61,0,0,0,.41-.19l4.27-3.45A2,2,0,0,0,76.43,191.87Z" style="fill:#EC407A"></path><path d="M74.19,207.71c.27.3.78.19,1.15.2a16.32,16.32,0,0,1,3.24.58,1.64,1.64,0,0,0,.93,0,1.73,1.73,0,0,0,.89-1.18.32.32,0,0,0,0-.19.33.33,0,0,0-.14-.15c-.79-.52-1.62-1-2.45-1.44a2.78,2.78,0,0,1-.41-.29,6.17,6.17,0,0,0-.66-.59c-.61-.4-1.59-1-2.33-.6a2,2,0,0,0-.59.61l-.69,1a.73.73,0,0,0-.19.43.75.75,0,0,0,.26.5Z" style="fill:#EC407A"></path><path d="M94.44,228.54a1.45,1.45,0,0,0-.49-.36,1.37,1.37,0,0,0-1.11.24,34.81,34.81,0,0,0-5.9,4.11,1.15,1.15,0,0,0-.35.41,1.23,1.23,0,0,0,0,.54c.21,3.15.41,6.3.62,9.46a1.85,1.85,0,0,0,.63,1.55,1.81,1.81,0,0,0,.86.19l5.08.22a13.37,13.37,0,0,0,3.16,0c1-.19,1.17-1,1.23-1.89.21-3,.32-6.09.48-9.13a2.84,2.84,0,0,0-.1-1.09,2.73,2.73,0,0,0-.63-.84Q96.15,230.27,94.44,228.54Z" style="fill:#EC407A"></path><path d="M151.14,140.68c-1.1,1.94-.95,4.31-.76,6.53a11,11,0,0,0,1.39,5.39,7.5,7.5,0,0,0,4.95,2.91,22.27,22.27,0,0,0,5.88,0l1.5-3.43,1.37,2.19a2.52,2.52,0,0,0,2.59-1.69,7.39,7.39,0,0,0,.26-3.31c-.27-3.57-.5-7.15-.8-10.73-.1-1.11-.28-2.62-1.4-3.21a4.17,4.17,0,0,0-2.91.07c-1.74.47-3.48.89-5.24,1.29C155.32,137.26,152.48,138.31,151.14,140.68Z" style="fill:#EC407A"></path><path d="M101.26,224.11a2,2,0,0,0,.67-.68,27.78,27.78,0,0,1,6.25-6.37c.82-.61,2-1.13,2-2.28a17.1,17.1,0,0,0-.6-4.31c-.35-1.91-.75-3.82-1.21-5.71a1.56,1.56,0,0,0-.64-1.11,1.58,1.58,0,0,0-1-.05c-2.79.49-5.57,1.09-8.32,1.8a1.53,1.53,0,0,0-.82.41,1.57,1.57,0,0,0-.26,1.07q0,3.17,0,6.33l-4.89.66a2.09,2.09,0,0,0-.82.23A2,2,0,0,0,91,215a16.75,16.75,0,0,0-1.21,7,40.94,40.94,0,0,0,10.53,2.22A1.82,1.82,0,0,0,101.26,224.11Z" style="fill:#EC407A"></path><path d="M206.16,113.36c-.42,0-.83.08-1.24.15-.22,0-.52,0-.61.29a2.39,2.39,0,0,0,0,1,8.47,8.47,0,0,0,.19,1.14,6.19,6.19,0,0,0,1.08,2.29,4.59,4.59,0,0,0,4.5,1.81,6.08,6.08,0,0,0,2.46-1.38,3.16,3.16,0,0,0,1.2-1.71,2.3,2.3,0,0,0-.74-2,5,5,0,0,0-1.9-1A13,13,0,0,0,206.16,113.36Z" style="fill:#EC407A"></path><path d="M58.28,204.54c0-.23.08-.46.11-.7l.48-2.84c.15-.92.38-1.86.45-2.79s-1.11-1.31-1.72-1.7a5.7,5.7,0,0,0-1.36-.66c-.27.42-.52.86-.77,1.3-.14.24-.27.48-.39.73s-.29.57-.43.86c-.21.45-.42.91-.61,1.37-.1.24-.2.48-.29.73s-.26.7-.38,1.07l-.15.49c-.22.69-.41,1.41-.58,2.14,0,.16-.08.32-.11.48-.09.44-.18.88-.26,1.34h0Z" style="fill:#EC407A"></path><path d="M58.48,192.71h0l8,2.42A18.85,18.85,0,0,1,71,187.76a1.29,1.29,0,0,0,.45-.73,1.23,1.23,0,0,0-.19-.64c-.61-1.18-1.18-2.42-1.86-3.57a1.63,1.63,0,0,0-.11-.17c-.35.22-.69.45-1,.69l-.36.25-.87.65c-.21.17-.42.33-.63.51l-.67.53c-.44.39-.89.78-1.34,1.2l0,0c-.52.49-1,1-1.54,1.47l0,0A51,51,0,0,0,58.48,192.71Z" style="fill:#EC407A"></path><path d="M61.09,229a5.13,5.13,0,0,0-.26-.82l-.45-1.34c-.26-.82-.53-1.63-.8-2.45a2.57,2.57,0,0,1-.13-.86,1.86,1.86,0,0,0-.69-1.39,1.6,1.6,0,0,0-.53-.24l-.13,0a46.91,46.91,0,0,0-5.52-1.25l0,.09c.2,1.26.41,2.46.63,3.64,0,.2.07.4.11.6q.49,2.64,1,5l.12.56c.2.93.4,1.83.61,2.7,0,.12.05.24.08.36l.36,1.49h0A28.75,28.75,0,0,1,61.09,229Z" style="fill:#EC407A"></path><path d="M181.77,153.83a10.79,10.79,0,0,1-2.29.69c-1,.16-1.95.22-2.92.34a10.5,10.5,0,0,0-3.13.78,8.65,8.65,0,0,0-3.57,3.32,25.9,25.9,0,0,0-2.09,4.46,3.24,3.24,0,0,0-.23,2.67,2.93,2.93,0,0,0,2.13,1.22,16.41,16.41,0,0,0,8.38-.28c1.4-4.48,3-9.08,4.7-13.39A2.52,2.52,0,0,0,181.77,153.83Z" style="fill:#EC407A"></path><path d="M165.44,242.78a5.53,5.53,0,0,0-1.28.54,7.18,7.18,0,0,0-2.08,1.88,16.19,16.19,0,0,0-1.93,3.54c-.08.17-.16.35-.23.53a6.52,6.52,0,0,0-.77,3.06,5.37,5.37,0,0,0,1.85,3.39c.45.36.84.71,1.26,1.1a7.18,7.18,0,0,0,1.12.85,1.74,1.74,0,0,1,.05-.22c.06-.27.11-.53.18-.8.3-1.19.61-2.37.93-3.55l.24-.85c.14-.49.27-1,.41-1.46.79-2.83,1.58-5.68,2.26-8.72A9.61,9.61,0,0,0,165.44,242.78Z" style="fill:#EC407A"></path><path d="M84,186.61a1.4,1.4,0,0,0-.17.47c0,.21.2.23.38.32l1,.47q2.81,1.27,5.67,2.39a3.61,3.61,0,0,0,1.36.32,3.8,3.8,0,0,0,1-.23l.23-.08,3.7-1.23,1.88-.63c.11,0,.37-.07.46-.16s.07-.15.11-.24a1,1,0,0,0,.17-.62c0-.66-.12-1.31-.22-2s-.32-1.37-.44-2.08a1.2,1.2,0,0,0-.27-.69,1.29,1.29,0,0,0-.8-.27l-8.64-.88a2.65,2.65,0,0,0-1.48.12,9,9,0,0,0-2,2.14l-.49.56c-.24.29-.47.58-.68.89A11.63,11.63,0,0,0,84,186.61Z" style="fill:#EC407A"></path><path d="M167.9,209.75a2.9,2.9,0,0,0-1.2.79,28.11,28.11,0,0,0-3.24,3.4,18.93,18.93,0,0,0-1.93,3.31,3.94,3.94,0,0,0-.34.72,4.16,4.16,0,0,0,.32,2.08,33.36,33.36,0,0,0,1.69,4.77c.27.61.49,1.63,1.23,1.78a6,6,0,0,0,2.81-.25,14.86,14.86,0,0,0,2-.68c0-.19,0-.37,0-.56v0c0-1.05,0-2.13,0-3.22,0-.25,0-.51,0-.77,0-1,0-2,0-3.06a2.17,2.17,0,0,1,0-.26c0-2.47.15-5,.3-7.52h0A2,2,0,0,0,167.9,209.75Z" style="fill:#EC407A"></path><path d="M69.11,245.68a11.75,11.75,0,0,0-.2,1.88c-.07.69-.13,1.39-.2,2.09a2.31,2.31,0,0,0,.05,1,2.36,2.36,0,0,0,.52.75,46.38,46.38,0,0,0,5.53,5.14,1,1,0,0,0,.73.29.89.89,0,0,0,.51-.43c1.13-1.67,1.31-3.78,1.41-5.79a4.33,4.33,0,0,0-.23-2,5.74,5.74,0,0,0-2.34-2.13,18.6,18.6,0,0,0-2.5-1.31C71.31,244.68,69.5,244.07,69.11,245.68Z" style="fill:#EC407A"></path><path d="M172.51,122.4a.82.82,0,0,0,.39.41,2.08,2.08,0,0,0,.9.13l2.84,0h1.84a2.23,2.23,0,0,0,.63-.09,9.53,9.53,0,0,0,1.89-.48,4.71,4.71,0,0,0,1.56-1.8,5.78,5.78,0,0,0,1.12-3.27,3,3,0,0,0-1.78-2.46,3.94,3.94,0,0,0-2.58-.13A8.2,8.2,0,0,0,177,115.8a18.21,18.21,0,0,0-3.06,2.49,5.64,5.64,0,0,0-1.37,1.92,2.75,2.75,0,0,0-.13,1.42,2.32,2.32,0,0,1,.07.52A.56.56,0,0,0,172.51,122.4Z" style="fill:#EC407A"></path><path d="M187,138.33a3,3,0,0,0,2.72-2.45,2.59,2.59,0,0,0-.1-.88,4.39,4.39,0,0,0-.54-1.11c-.18-.28-.26-.59-.45-.87-.53-.77-1.09-1.54-1.63-2.31l-1.64-2.32a3,3,0,0,0-.7-.79,2.22,2.22,0,0,1-.33-.28,9.72,9.72,0,0,0-1.78-1.73,3.28,3.28,0,0,0-2.44-.56,2.18,2.18,0,0,0-.56.19,1.93,1.93,0,0,0-.45.4,1.3,1.3,0,0,1-.18.15,3.52,3.52,0,0,0-.36.5c-.22.34-.43.7-.62,1.07a11.06,11.06,0,0,0-.89,2.3l0,.1a1.74,1.74,0,0,0-.06.93c.09.37.1.75.19,1.12a6.5,6.5,0,0,0,1,2.12q.27.36.57.69a13.35,13.35,0,0,0,4.43,2.86A7.55,7.55,0,0,0,187,138.33Z" style="fill:#EC407A"></path><path d="M171.57,132.84c-1.17.44-1.18,1.85-1.26,2.89-.12,1.49-.24,3-.35,4.46-.09,1.09-.17,2.17-.26,3.26a4.56,4.56,0,0,0,3.39,5.6c1.4.67,3.09,1.35,4.46.59a4,4,0,0,0,1.57-2,10.63,10.63,0,0,0-2.39-12.12,11.4,11.4,0,0,0-2.06-1.54,8.9,8.9,0,0,1-1.23-.63A1.74,1.74,0,0,0,171.57,132.84Z" style="fill:#EC407A"></path><path d="M164.83,132.52a2.16,2.16,0,0,0,1.47-.17,8.38,8.38,0,0,0,2.2-1,2.88,2.88,0,0,0,1.24-2c.09-1.12-.75-1.68-1.1-2.62a1.53,1.53,0,0,0-1.72-1.12,6.41,6.41,0,0,0-2.44,1.3,3.31,3.31,0,0,0-1.49,2.6,4.33,4.33,0,0,0,.9,2.13A2.22,2.22,0,0,0,164.83,132.52Z" style="fill:#EC407A"></path><path d="M198.38,110c.38-.27.81-.63.76-1.09s-.46-.68-.85-.86a10.69,10.69,0,0,0-3-.88,11.87,11.87,0,0,0-1.58-.11,1,1,0,0,0-.87.4,15.9,15.9,0,0,0-1.21,1.25,3,3,0,0,0-.71,1.88,2.3,2.3,0,0,0,1,1.74,2.57,2.57,0,0,0,1.94.43,5.55,5.55,0,0,0,2.06-1Z" style="fill:#EC407A"></path><path d="M192.8,122.49c-.14-.12-.3-.22-.44-.33a1,1,0,0,0-.83-.12,2,2,0,0,0-.63.59,4.56,4.56,0,0,0-.69,2.39,7,7,0,0,0,0,2.24,2.35,2.35,0,0,0,1.34,1.69c1.18.45,2.5-.58,2.86-1.79l.07-.28a4.57,4.57,0,0,0,0-1.33,3.16,3.16,0,0,0-.24-1.22A6.12,6.12,0,0,0,192.8,122.49Z" style="fill:#EC407A"></path><path d="M186.73,116.51a7.17,7.17,0,0,0,.78,2.31c.21.45.48,1,1,1.07a1.66,1.66,0,0,0,1.18-.31,2.25,2.25,0,0,0,1.41-3.26,6.13,6.13,0,0,0-.73-1.77,1.84,1.84,0,0,0-2.19-.85,2.32,2.32,0,0,0-.79.56,2.58,2.58,0,0,0-.36.7A3.31,3.31,0,0,0,186.73,116.51Z" style="fill:#EC407A"></path><path d="M73.12,181.42a12.59,12.59,0,0,0-.16,1.94c0,.46,0,.93,0,1.4a3.59,3.59,0,0,0,.06,1.39c.21.42,1,.52,1.44.66l1.68.55,3.38,1.12c1.28-1.44,2.57-2.88,3.85-4.33a2.86,2.86,0,0,0,.56-.78,3.07,3.07,0,0,0,.16-.8c.12-1.27.16-2.55.16-3.83h0A36.15,36.15,0,0,0,80,179l-.27,0c-.42.05-.84.11-1.25.18h0c-.89.16-1.76.35-2.6.58h0l-1.11.34-.3.11-1.08.39h0A5.8,5.8,0,0,0,73.12,181.42Z" style="fill:#EC407A"></path><path d="M87.06,230.12A14.82,14.82,0,0,1,90,227.74c.65-.3,1.85-1,.88-1.59a11.36,11.36,0,0,0-1.75-.86,16.24,16.24,0,0,0-4.16-1.19,2,2,0,0,0,0,.41c0,.72.08,2.18.1,2.34a16.74,16.74,0,0,0,.6,3,1,1,0,0,0,.32.56C86.26,230.64,86.74,230.39,87.06,230.12Z" style="fill:#EC407A"></path><path d="M81.21,256a.78.78,0,0,0,.33-.44,17.08,17.08,0,0,0,1.19-3.6.69.69,0,0,0,0-.45.68.68,0,0,0-.35-.27c-.6-.27-1.68-.63-2.29-.19s-.66,1.77-.73,2.47a12.22,12.22,0,0,0,0,1.91,11.6,11.6,0,0,0,1.38.54A.73.73,0,0,0,81.21,256Z" style="fill:#EC407A"></path><path d="M109,246.66a3.31,3.31,0,0,0,1.39-.6l7-4.41c-1.14-1.61-3.64-1.94-4.51-3.7s.25-4.13-1-5.58a4.26,4.26,0,0,0-1.91-1.05l-2.87-1c-1.55-.53-3.09-1.17-4.66-1.63s-1.83,1.47-1.9,2.53a85.91,85.91,0,0,0,0,11.79,1.8,1.8,0,0,0,.25,1,1.9,1.9,0,0,0,1,.58l5.94,1.87A3.22,3.22,0,0,0,109,246.66Z" style="fill:#EC407A"></path><path d="M60.44,218.64a.73.73,0,0,0,.44,0,.83.83,0,0,0,.34-.33A27.58,27.58,0,0,0,63.53,214a4.37,4.37,0,0,0,.51-2.91c-.13-.38-.54-.63-.83-.87l-1.44-1.19-1.57-1.3a1.55,1.55,0,0,0-.86-.44,1.53,1.53,0,0,0-.72.23l-3.08,1.62a2.47,2.47,0,0,0-1,.77,2.41,2.41,0,0,0-.28,1,31.65,31.65,0,0,0-.14,6.67Z" style="fill:#EC407A"></path><path d="M108.42,252.92a18.08,18.08,0,0,0,7.74,3,1.56,1.56,0,0,0,1-.1c.43-.25.51-.83.55-1.34l.39-5.56a1.55,1.55,0,0,0-1.19-1.8,5.24,5.24,0,0,0-2-.28,5,5,0,0,0-1.79.75l-2.69,1.55L109,250l-.79.46c-.17.1-.62.25-.72.41C107,251.59,107.73,252.45,108.42,252.92Z" style="fill:#EC407A"></path><path d="M101.09,191a25.51,25.51,0,0,0-5.26,9.39c-.34,1.14-.32,2.59,1.19,2.39a31.67,31.67,0,0,1,4.12-.71,47.27,47.27,0,0,0,6.92-.49,1.42,1.42,0,0,0,.56-.18,1.38,1.38,0,0,0,.39-.55l1.44-3a16,16,0,0,0,1.9-5.67,36.89,36.89,0,0,0-9.11-2,2.5,2.5,0,0,0-1.36.13A2.54,2.54,0,0,0,101.09,191Z" style="fill:#EC407A"></path><path d="M140.06,156.13a7.83,7.83,0,0,0-2.57,5.19,10.63,10.63,0,0,0,.2,2.17,55.36,55.36,0,0,0,1,5.9c.37,1.39.64,3,2.23,3.41a6.57,6.57,0,0,0,3.87-.44q4.78-1.59,9.43-3.55c1-2.72,1.56-5.72.76-8.49a10.33,10.33,0,0,0-1.62-3.21,17.27,17.27,0,0,0-1.63-1.89,29.4,29.4,0,0,0-2.37-2.1c-1-.81-1.74-1.45-3.12-1a18.31,18.31,0,0,0-3.22,1.76A16.43,16.43,0,0,0,140.06,156.13Z" style="fill:#EC407A"></path><path d="M121.85,175c-.12.15-.22.32-.35.47a16.14,16.14,0,0,0-1.1,1.22,6.32,6.32,0,0,0-.76,1.43,6.43,6.43,0,0,0-.13,4.39l4.73-.23L122.45,184c-.38.38-.76,1-1.31,1.14a1.94,1.94,0,0,0-.48.16,2.63,2.63,0,0,0-.82.66,3.27,3.27,0,0,0-.74,2,8.21,8.21,0,0,0,1.09,3.73c.6,1.27,1.46,2.72,2.86,2.81a4.1,4.1,0,0,0,2.08-.67q2.48-1.33,4.94-2.68a11,11,0,0,0,3.47-2.5c1.67-2,1.67-4.88,2.52-7.28a7.26,7.26,0,0,0,.49-1.24c0-.49,0-1,0-1.51a24.5,24.5,0,0,0-.3-3.74c-.35-2.2-1.07-4.27-1.54-6.43-.11-.5.09-1.34-.36-1.7-.73-.59-1.79.16-2.37.59l-8.55,6.36A8.32,8.32,0,0,0,121.85,175Z" style="fill:#EC407A"></path><path d="M145.67,239.28a4.92,4.92,0,0,0-2.77-1.57,5.32,5.32,0,0,0-2.77,1c-1.31.76-3.1,1.63-3.81,3.08a.36.36,0,0,1,0,.09,5,5,0,0,0-.34,1.75c-.11,1.89-.09,3.8-.13,5.7a1.51,1.51,0,0,0,2.13,1.75,33.9,33.9,0,0,0,6.79-1.83,4.37,4.37,0,0,0,1.9-1.18,4.6,4.6,0,0,0,.74-2.64c.07-1.15.11-2.3.13-3.45,0-.61.05-1.33-.49-1.68A12,12,0,0,1,145.67,239.28Z" style="fill:#EC407A"></path><path d="M188.62,141.67l-1-.06h-1a5.44,5.44,0,0,0-2.13.32,2.37,2.37,0,0,0-.64.4,3,3,0,0,0-.91,2.34,2.36,2.36,0,0,0,.08.65,4.61,4.61,0,0,1,.15.84,2.86,2.86,0,0,0,1,1.81,3.28,3.28,0,0,0,.82.5c.81-1.74,1.65-3.39,2.51-4.91C187.86,142.9,188.24,142.29,188.62,141.67Z" style="fill:#EC407A"></path><path d="M126.07,276.4a3.2,3.2,0,0,0,1.4-2.6,18.81,18.81,0,0,0,0-2.49,1.23,1.23,0,0,0-.26-.74c-.23-.34-.41-.72-.61-1.09a9.29,9.29,0,0,0-.67-1.19c-.94-1.27-2.7,1.16-2.93,1.87a4,4,0,0,0,0,1.88l.4,2.5a2.86,2.86,0,0,0,.67,1.7A1.73,1.73,0,0,0,126.07,276.4Z" style="fill:#EC407A"></path><path d="M171.37,173.86a6.47,6.47,0,0,0-3.77-.36c-.7.08-1.39.17-2.08.27s-1.33,0-1.77.62a2.76,2.76,0,0,0-.22,2.46c.3.83.84,1.59,1.19,2.4a2.73,2.73,0,0,0,2.28,1.38,4,4,0,0,0,1.14-.11,11.16,11.16,0,0,0,3.65-1.82,2.93,2.93,0,0,0,.93-1,1.89,1.89,0,0,0,.25-1.07A3.32,3.32,0,0,0,171.37,173.86Z" style="fill:#EC407A"></path><path d="M197.9,123.11a1.31,1.31,0,0,0,1.22.61,1.41,1.41,0,0,0,.66-.55l1.6-2a4.61,4.61,0,0,0,.92-1.51,2.65,2.65,0,0,0-.27-2,3,3,0,0,0-2.12-1.48,3.44,3.44,0,0,0-2.06.38,1.6,1.6,0,0,0-.78.84,5.51,5.51,0,0,0-.25,3.71A5.85,5.85,0,0,0,197.9,123.11Z" style="fill:#EC407A"></path><path d="M165.45,160.82a1.68,1.68,0,0,0,.11-1.46c-.3-.47-1-.52-1.51-.52a6.27,6.27,0,0,0-3.33.74.85.85,0,0,0-.37.33,8.44,8.44,0,0,0-.55,1.7,14.3,14.3,0,0,0-.48,3.58c0,.67,0,1.35.56,1.77a2.85,2.85,0,0,0,1.7.29,1.85,1.85,0,0,0,1.37-.7,4.68,4.68,0,0,0,.78-1.44Z" style="fill:#EC407A"></path><path d="M153.64,266.43a2,2,0,0,0,2.34-1.94c.47-1.8.93-3.61,1.4-5.42a5.68,5.68,0,0,0,.26-1.64,5.74,5.74,0,0,0-1.27-2.86c-.27-.39-.58-.84-1.09-.9s-.67.25-1,.49c-1,.7-2.09,1.35-3.13,2-.6.38-1.19.77-1.78,1.16a1.37,1.37,0,0,0-.53.48,1.47,1.47,0,0,0-.13.54q-.42,4-.69,8.12Q150.82,266.57,153.64,266.43Z" style="fill:#EC407A"></path><path d="M69.5,198.94a1.45,1.45,0,0,0-.72-.33,10.77,10.77,0,0,0-3.44-.56,8.71,8.71,0,0,1-2-.26.67.67,0,0,0-.37,0c-.16.06-.24.23-.32.38q-1.38,2.92-2.64,5.9a.89.89,0,0,0-.1.5.82.82,0,0,0,.34.42,19.74,19.74,0,0,0,3.31,2.11,6.49,6.49,0,0,0,2,.37l2.12.3a1.22,1.22,0,0,0,.63,0,1.28,1.28,0,0,0,.5-.48l1.63-2.3a2.34,2.34,0,0,0,.48-.94,2.39,2.39,0,0,0-.14-1c-.33-1.13-.65-2.26-1-3.4A1.51,1.51,0,0,0,69.5,198.94Z" style="fill:#EC407A"></path><path d="M156.32,226.39a10.86,10.86,0,0,0,.29-4.57,10.28,10.28,0,0,0-.59-2.24c-.1-.27-.17-.56-.28-.83-.18-.45-.77-.66-1.2-.77a7.3,7.3,0,0,0-3.87.5l-6.35,2.05a3.77,3.77,0,0,0-3.34,3.95l-.79,6.41c-.1.76-.27,2.26.63,2.66a4.05,4.05,0,0,0,.5.12c.24.08.47.18.7.25a12.28,12.28,0,0,0,1.45.36,11.57,11.57,0,0,0,8.36-1.72A11.23,11.23,0,0,0,156.32,226.39Z" style="fill:#EC407A"></path><path d="M64.26,269.84c.09.38.25.84.64.9a1,1,0,0,0,.64-.2l2.12-1.21a.58.58,0,0,0,.27-.24.57.57,0,0,0,0-.26,28.83,28.83,0,0,0-.44-3.82c-.07-.35-.17-1.1-.65-1.13s-.66.42-.92.57a15.6,15.6,0,0,0-1.67,1,1,1,0,0,0-.48,1.15A23.76,23.76,0,0,0,64.26,269.84Z" style="fill:#EC407A"></path><path d="M63.47,261.76a.67.67,0,0,0,.42,0l2.57-.6a.55.55,0,0,0,.54-.5l1.29-4.59a1.68,1.68,0,0,0,.07-.91,1.52,1.52,0,0,0-.46-.61,16.75,16.75,0,0,0-1.74-1.41c-.58-.41-1-.14-1.54.08a7.83,7.83,0,0,0-1.78.9,1,1,0,0,0-.36.34,1.14,1.14,0,0,0-.06.45,29.6,29.6,0,0,0,.78,6.37A.63.63,0,0,0,63.47,261.76Z" style="fill:#EC407A"></path><path d="M83.85,218.78a9.06,9.06,0,0,0-.43-2.31l-1.32-4.7a1.73,1.73,0,0,0-.32-.7,1.53,1.53,0,0,0-.71-.35,23,23,0,0,0-4.19-.84,1,1,0,0,0-.58.06,1.06,1.06,0,0,0-.35.43q-1.47,2.77-3,5.55a2.93,2.93,0,0,0-.41,1.17,2.67,2.67,0,0,0,.21,1c.37,1.08.73,2.16,1.1,3.23s.54,2.61,1.54,3.16a7.93,7.93,0,0,0,2.31.64,27.35,27.35,0,0,0,2.84.41,2.54,2.54,0,0,0,1.13-.09c.75-.3,1-1.21,1.21-2s.42-1.81.62-2.71A8.6,8.6,0,0,0,83.85,218.78Z" style="fill:#EC407A"></path><path d="M82.58,242.39c1-.3,1-1.38.83-2.25q-.84-5.17-1.21-10.39a1.63,1.63,0,0,0-.2-.82,1.59,1.59,0,0,0-.76-.53A18.27,18.27,0,0,0,75,227l-2,5.65a4.8,4.8,0,0,0-.36,1.75,4.22,4.22,0,0,0,1.07,2.25,17.87,17.87,0,0,0,2.13,2.22,17.47,17.47,0,0,0,4.59,2.9C81.07,242,81.89,242.58,82.58,242.39Z" style="fill:#EC407A"></path><path d="M77.34,266.63a1.43,1.43,0,0,0,.36-.59,21.9,21.9,0,0,0,1.39-4.68,2.33,2.33,0,0,0-.19-1.56,1.24,1.24,0,0,0-1.33-.42,5,5,0,0,1-2.67-.1,5.89,5.89,0,0,1-1.45-1,11.65,11.65,0,0,0-2.72-1.71.51.51,0,0,0-.36-.06c-.13,0-.2.18-.26.31a18.19,18.19,0,0,0-.76,2,4.25,4.25,0,0,0-.22,1.32,4.41,4.41,0,0,0,.29,1.23l1.68,5.05a1.18,1.18,0,0,0,.39.64,1.15,1.15,0,0,0,.66.11c1.45-.06,2.9-.14,4.35-.26A1.35,1.35,0,0,0,77.34,266.63Z" style="fill:#EC407A"></path><path d="M62.49,221.33a4.11,4.11,0,0,0-.4,1.88,4.51,4.51,0,0,0,.76,1.86l1.77,3a.67.67,0,0,0,1.07.24,28.11,28.11,0,0,0,4.45-2.57.78.78,0,0,0,.28-.29.75.75,0,0,0-.13-.64l-3-5.43c-.39-.71-.8-1.66-1.64-1.93s-1.34.3-1.7.9A24,24,0,0,0,62.49,221.33Z" style="fill:#EC407A"></path><path d="M59.58,234.08a.92.92,0,0,0-.37.67,1,1,0,0,0,.16.39l2.19,3.68a2.14,2.14,0,0,0,.53.66,1.75,1.75,0,0,0,.87.27,26,26,0,0,0,3.63-.18,4.78,4.78,0,0,1,3.42,1c.27.25.53.57.9.61a10.13,10.13,0,0,0-.68-4.39,1.93,1.93,0,0,0-.62-.91,1.9,1.9,0,0,0-.74-.24,14.41,14.41,0,0,0-2.78-.21,3.71,3.71,0,0,1,1.32-1.75c.19-.14.4-.28.45-.5a.77.77,0,0,0-.1-.49,4,4,0,0,0-2.25-2.13,2.86,2.86,0,0,0-2.6.48c-.25.2-.44.45-.67.66-.41.37-.84.72-1.25,1.09S60,233.62,59.58,234.08Z" style="fill:#EC407A"></path><path d="M167.7,192.76a.78.78,0,0,0,.42-.24l.06-.05c.23-.21.43-.35.48-.67l.18-1.21c0-.34.1-.67.16-1,.14-.88.16-1.77.34-2.64.32-1.53-1.44-2.64-2.8-2.56s-2.66,1.33-3.64,2.48a4,4,0,0,0-1,1.74,2.66,2.66,0,0,0,.47,1.94,9.84,9.84,0,0,0,1.14,1.27c.11.13.19.31.33.39a.59.59,0,0,0,.29.07,19.81,19.81,0,0,1,2,.28l.67.1A3.11,3.11,0,0,0,167.7,192.76Z" style="fill:#EC407A"></path><path d="M61.26,248.85a1.46,1.46,0,0,0,.45.59,1.4,1.4,0,0,0,.67.15,11.39,11.39,0,0,0,3-.24l-.12-6c0-.32,0-.7-.32-.86a1,1,0,0,0-.53-.08,8.52,8.52,0,0,1-3-.77c-.55-.22-1.33-.72-1.79-.08a2.66,2.66,0,0,0-.17,2A19.65,19.65,0,0,0,61.26,248.85Z" style="fill:#EC407A"></path><path d="M137.26,209.59a5.16,5.16,0,0,0-.28-2,3.42,3.42,0,0,0-.71-1c-.6-.68-1-1.52-1.66-2.16s-1.55-.25-2.14.07a4,4,0,0,1-2.23.82l-.09-5.09a1.48,1.48,0,0,0-.64-1.38l-.36-.23a1.31,1.31,0,0,0-.58-.18,11,11,0,0,0-2.13.19l-5,.55-2.4.26a8.46,8.46,0,0,0-3.35.85,3.49,3.49,0,0,0-1.66,3.05,13.45,13.45,0,0,0,.28,2.36l.33,2.48c0,.35.09.7.13,1a14.56,14.56,0,0,0,1.77,6.28c1.52,2.31,4.19,3.55,6.72,4.66,1.68.75,3.48,1.5,5.3,1.23,2.46-.38,4.22-2.53,5.65-4.58a15.35,15.35,0,0,0,3-6.42C137.23,210.11,137.25,209.85,137.26,209.59Z" style="fill:#EC407A"></path><path d="M90.24,200.87a38.3,38.3,0,0,0,1.4-6.61,1.33,1.33,0,0,0-.1-.86,1.3,1.3,0,0,0-.62-.45l-4.75-2.18a5,5,0,0,0-3.15-.68,5.24,5.24,0,0,0-1.38.64l-4.24,2.52a6.71,6.71,0,0,0-1.87,1.42,5.67,5.67,0,0,0-.85,1.66A17.73,17.73,0,0,0,74,199a5.68,5.68,0,0,0-.2,2.48c.21.58,1.06.64,1.57.76l2.9.69,3.26.78a3.07,3.07,0,0,0,1,.13,3.36,3.36,0,0,0,1.33-.55A21.81,21.81,0,0,1,90.24,200.87Z" style="fill:#EC407A"></path><path d="M150.62,186.5c1.3,1.12,2.83,2.3,4.52,2.07,1.4-.2,2.46-1.32,3.41-2.37,1.4-1.55,2.86-3.26,3.09-5.34s-.71-3.81-1.61-5.55c-.58-1.14-1.31-2.4-2.56-2.68a4.41,4.41,0,0,0-2.31.33l-3.8,1.25a16.7,16.7,0,0,1-2.41.72,1.46,1.46,0,0,0-.67.21,4.36,4.36,0,0,0-1.26,1.73,7.41,7.41,0,0,0-.56,3,5.32,5.32,0,0,0,.06,2C147.16,183.75,149.17,185.26,150.62,186.5Z" style="fill:#EC407A"></path><path d="M125.51,261.7a2.68,2.68,0,0,0,1.11,1,3.61,3.61,0,0,0,1.7.08,29.67,29.67,0,0,0,4-.51,3.52,3.52,0,0,0,2-.84A3.61,3.61,0,0,0,135,259a16.44,16.44,0,0,0-1-7,10.72,10.72,0,0,0-1.32-2.36c-.25-.33-.52-.61-.75-1a2.35,2.35,0,0,0-.74-.7,2.41,2.41,0,0,0-2.88.31,14.71,14.71,0,0,1-1.71,1.11,5.59,5.59,0,0,0-1.17,1.11,6.64,6.64,0,0,0-1.22,2.59,14.19,14.19,0,0,0,.58,6.7A6.83,6.83,0,0,0,125.51,261.7Z" style="fill:#EC407A"></path><path d="M85.66,210.48c.13.74.28,1.48.46,2.21a3.15,3.15,0,0,0,.46,1.34c.3.32,1,.42,1.21.06a11.17,11.17,0,0,0,.78-2.07,2.41,2.41,0,0,1,.44-.8,2.3,2.3,0,0,1,.86-.49c.84-.32,1.69-.59,2.56-.83a1.5,1.5,0,0,0,1-.6,1.43,1.43,0,0,0-.13-1.17c-.4-.92-.82-1.83-1.27-2.73a1.27,1.27,0,0,0-.67-.73,1.16,1.16,0,0,0-.66.05,18.79,18.79,0,0,0-4.82,2,1,1,0,0,0-.58,1.17C85.38,208.79,85.51,209.64,85.66,210.48Z" style="fill:#EC407A"></path><path d="M113.91,186.66a15.07,15.07,0,0,0,2.09-6.29l-11.48,2.88a1.84,1.84,0,0,0-.64.24c-1.37.91.32,2.45,1.22,2.81a4.34,4.34,0,0,0,1.39.21,22.42,22.42,0,0,1,2.44.36l3.15.53a1.9,1.9,0,0,0,1.23-.07A1.85,1.85,0,0,0,113.91,186.66Z" style="fill:#EC407A"></path><path d="M106.83,227.3l7.62,3.46a.59.59,0,0,0,1-.37l2-5a3.34,3.34,0,0,0-1.16-4.54c-.74-.75-1.46-1.58-2.26-2.27-1.29-1.13-2.84.88-3.74,1.71q-2,1.83-3.77,3.83c-.6.67-1.22,1.61-.78,2.4A2.26,2.26,0,0,0,106.83,227.3Z" style="fill:#EC407A"></path></g></g><g id="freepik--Signs--inject-77"><g id="freepik--Directions--inject-77"><path d="M449.49,65.06a3.43,3.43,0,0,0-6.86,0V279.8h0a1.71,1.71,0,0,0,1,1.4,5.38,5.38,0,0,0,4.85,0,1.71,1.71,0,0,0,1-1.4h0Z" style="fill:#37474f"></path><polygon points="446.06 118.63 446.06 95.76 449.37 93.85 476.21 109.34 486.11 126.49 476.21 132.21 472.9 134.12 446.06 118.63" style="fill:#EC407A"></polygon><polygon points="446.06 118.63 446.06 95.76 449.37 93.85 476.21 109.34 486.11 126.49 476.21 132.21 472.9 134.12 446.06 118.63" style="fill:#fff;opacity:0.30000000000000004"></polygon><rect x="477.6" y="108.97" width="3.81" height="19.81" transform="translate(4.81 255.68) rotate(-30)" style="fill:#EC407A"></rect><rect x="477.6" y="108.97" width="3.81" height="19.81" transform="translate(4.81 255.68) rotate(-30)" style="opacity:0.1"></rect><polygon points="446.06 95.76 472.91 111.25 482.81 128.4 472.91 134.12 446.06 118.63 446.06 95.76" style="fill:#EC407A"></polygon><path d="M465.58,115a2.53,2.53,0,0,0-1-1.85l-.26-.15-2.56-1.47-.26-.15c-.49-.28-.9,0-1,.73l-.5,4a1.26,1.26,0,0,0,.32.94c.24.23.48.11.51-.25l.44-3.57c0-.1.06-.14.13-.1a.34.34,0,0,1,.13.3l-.61,6,.81.47v3.77a1.39,1.39,0,0,0,.52,1.11c.29.16.53-.06.53-.51v-3.77l.46.27v3.77a1.39,1.39,0,0,0,.52,1.11c.29.17.53-.06.53-.51v-3.76l.8.46-.61-6.69c0-.13.06-.2.14-.15a.34.34,0,0,1,.13.25l.43,4.07c0,.4.27.79.52.84s.34-.21.31-.56C466,118.53,465.73,116.75,465.58,115Zm-2.5-3.41c.57.33,1-.12,1-1a2.76,2.76,0,0,0-1-2.21c-.58-.33-1.05.12-1.05,1A2.74,2.74,0,0,0,463.08,111.57Z" style="fill:#fafafa"></path><path d="M454.91,106.85c.58.34,1-.11,1-1a2.74,2.74,0,0,0-1-2.21c-.58-.34-1.05.11-1.05,1A2.74,2.74,0,0,0,454.91,106.85Zm1.63,1.62-.09,0-.26-.15-2.56-1.48-.26-.15-.09,0c-.42-.24-.75.08-.75.73v4.5a1.11,1.11,0,0,0,.42.9c.23.13.42,0,.42-.41v-3.69c0-.11.06-.16.13-.12a.34.34,0,0,1,.13.27v10.14a1.38,1.38,0,0,0,.53,1.11c.29.17.52-.06.52-.5v-5.16c0-.19.1-.29.23-.22a.59.59,0,0,1,.23.49v5.15a1.37,1.37,0,0,0,.53,1.11c.29.17.52,0,.52-.5V110.25c0-.11.06-.17.13-.12a.34.34,0,0,1,.13.27v3.69a1.11,1.11,0,0,0,.42.89c.24.14.43,0,.43-.4v-4.51A2,2,0,0,0,456.54,108.47Z" style="fill:#fafafa"></path><polygon points="446.06 92.4 446.06 69.52 442.76 67.62 398.06 93.43 388.15 110.58 398.06 116.3 401.36 118.21 446.06 92.4" style="fill:#EC407A"></polygon><polygon points="446.06 92.4 446.06 69.52 442.76 67.62 398.06 93.43 388.15 110.58 398.06 116.3 401.36 118.21 446.06 92.4" style="fill:#fff;opacity:0.30000000000000004"></polygon><rect x="384.85" y="101.05" width="19.81" height="3.81" transform="translate(108.21 393.34) rotate(-60)" style="fill:#EC407A"></rect><polygon points="446.06 69.52 401.36 95.33 391.46 112.49 401.36 118.21 446.06 92.4 446.06 69.52" style="fill:#EC407A"></polygon><polygon points="446.06 69.52 401.36 95.33 391.46 112.49 401.36 118.21 446.06 92.4 446.06 69.52" style="opacity:0.15"></polygon><path d="M416.23,101.72l-4.91,2.83,4.8-9.69a2,2,0,0,0,.2-.9V90.57a.52.52,0,0,0-.12-.38.25.25,0,0,0-.3,0l-9.23,5.33a.84.84,0,0,0-.29.36,1.27,1.27,0,0,0-.12.52V100a.51.51,0,0,0,.12.38.21.21,0,0,0,.29,0L411,97.85l-4.87,9.65a2,2,0,0,0-.23,1v3.41a.49.49,0,0,0,.13.38.22.22,0,0,0,.29,0l9.88-5.71a.73.73,0,0,0,.29-.36,1.2,1.2,0,0,0,.12-.52v-3.57a.51.51,0,0,0-.12-.38A.21.21,0,0,0,416.23,101.72Zm24.9-24.54q-1.47-.75-3.69.54a10.34,10.34,0,0,0-3.7,3.73A10.53,10.53,0,0,0,432.28,87v4.11c0,2.08.47,3.37,1.42,3.87s2.18.31,3.73-.58a10.36,10.36,0,0,0,3.74-3.73,10.5,10.5,0,0,0,1.42-5.47V81C442.59,78.94,442.1,77.68,441.13,77.18Zm-2.69,10.5a2.59,2.59,0,0,1-.3,1.19,1.88,1.88,0,0,1-.7.84.57.57,0,0,1-.71,0,1.06,1.06,0,0,1-.3-.87V84.35a2.71,2.71,0,0,1,.29-1.19,1.79,1.79,0,0,1,.72-.84.55.55,0,0,1,.71,0,1.11,1.11,0,0,1,.29.87Zm-10.39-3c-1-.5-2.21-.32-3.7.54A10.31,10.31,0,0,0,420.66,89a10.44,10.44,0,0,0-1.46,5.51v4.11q0,3.12,1.41,3.87c.95.51,2.19.31,3.74-.58a10.29,10.29,0,0,0,3.74-3.73,10.57,10.57,0,0,0,1.42-5.47v-4.2C429.51,86.49,429,85.23,428.05,84.73Zm-2.7,10.5a2.65,2.65,0,0,1-.29,1.2,1.85,1.85,0,0,1-.71.83.57.57,0,0,1-.7,0,1.1,1.1,0,0,1-.3-.88V91.9a2.71,2.71,0,0,1,.29-1.19,1.89,1.89,0,0,1,.71-.84.57.57,0,0,1,.72,0,1.13,1.13,0,0,1,.28.88Z" style="fill:#fafafa"></path></g></g><g id="freepik--character-2--inject-77"><g id="freepik--Character--inject-77"><g id="freepik--Bottom--inject-77"><path d="M459.7,383c.41,3.37.86,7,1.16,10.85.56,7.22,1.65,16,2.34,24.87a54.91,54.91,0,0,1,1.71,11c.28,4.51,0,10.29.06,17.12l.43,2.47c-.4,2.74-4.58,3.06-6.49,1.41-.46-.39-.58-2.47-.73-2.85,0,0-2.74-8.68-5.1-18-1.2-4.75-4.56-18-6.15-25.43l-2.22,13.29a29.2,29.2,0,0,1-.11,9.61c-.7,4.81-3.46,14.79-3.38,20.2a3.38,3.38,0,0,1-2.89,2.7c-2,.36-3.94-1.72-4-2-.08-.68-1.49-22.88-1.82-27.89-.73-11,.45-29.63,1.49-37.36Z" style="fill:#b16668"></path><path d="M432.18,409.6c.11-5.27-.14-21,.57-26.85l28,.82,2.51,34.91a43.13,43.13,0,0,1,1.69,8.45c.4,4.89.22,12.47.22,12.47s-.71,1.73-4.15,2.38a10.35,10.35,0,0,1-5.28-.55s-3.86-14-5.24-19.08c-1.16-4.29-3.68-15.55-3.68-15.55l-2,11.19a41.7,41.7,0,0,1-.57,12.46c-.8,4.18-1.89,10.44-1.89,10.44a9.55,9.55,0,0,1-4.71.71c-3.17-.13-4-1.38-4-1.38s-1.41-16.67-1.62-22.23A49.53,49.53,0,0,1,432.18,409.6Z" style="fill:#37474f"></path><path d="M447,406.6c-.93-4.07-2.19-10.63-2.19-10.63s-4.16,0-6.25-2.93c1.16,3.06,5.06,4.36,5.06,4.36l2.12,9.93-1.07,10.46Z" style="fill:#263238"></path><path d="M423.41,458.34a2,2,0,0,0,.41,2,8.47,8.47,0,0,0,6.21,1.26c3.05-.47,3.89-1.11,5.09-2.16s2.31-2.16,3.68-2.5a12.49,12.49,0,0,0,3.63-1.29c.41-.4.31-2.17.31-2.17Z" style="fill:#263238"></path><path d="M441.38,445.81a.55.55,0,0,1,.53.41c.1.48.24,1.9.46,2.7a19.83,19.83,0,0,1,.32,5.14c-.14.91-2.79,1.54-4.12,2.08a12.56,12.56,0,0,0-3.69,2.46,9.43,9.43,0,0,1-5.61,2.21c-2.37,0-5-.66-5.68-1.74-.79-1.34-.93-2.64,2.54-4.35.65-.32,2.67-1.57,3.45-2.09a14.62,14.62,0,0,0,2.39-1.91,9.07,9.07,0,0,0,1.36-1.61,4.71,4.71,0,0,0,.41-1.08,11.61,11.61,0,0,0,.3-1.16.82.82,0,0,1,.29-.59.8.8,0,0,1,.46,0,11.87,11.87,0,0,1,2.36.46,1.44,1.44,0,0,1,.81.49,1.31,1.31,0,0,1,.17.65,5.08,5.08,0,0,0,0,.68.44.44,0,0,0,.1.22c.12.12.31,0,.41-.08a9.27,9.27,0,0,0,.92-1.15c.16-.21.9-.36,1.1-.53a5.08,5.08,0,0,0,.59-.4C441.49,446.36,441.38,446.09,441.38,445.81Z" style="fill:#37474f"></path><path d="M434.88,458.6a17.46,17.46,0,0,1,1.59-1.28h0s-3.7,1.57-5.39.47a1.49,1.49,0,0,1-.58-1.89c0-.29-2.65-1.44-3.7-1.54h0c-.28.16-.52.3-.67.37-3.47,1.71-3.33,3-2.54,4.35.64,1.08,2.58,1.89,5.64,1.81A9.68,9.68,0,0,0,434.88,458.6Z" style="fill:#455a64"></path><path d="M430.77,455.05c-2.16.92-1.22,1.31-.61,1.38s3.65-1.77,5.84-3.59,4.27-3.9,5.12-4.6c.32-.26.66-.58,1-.88-.06-.48-.12-.91-.17-1.14-.09-.41-.58-.52-.58-.52l-.08.79a1.74,1.74,0,0,1-.6.43,2.74,2.74,0,0,0-1.06.59,9.27,9.27,0,0,1-.92,1.15A24.91,24.91,0,0,1,430.77,455.05Z" style="fill:#263238"></path><path d="M430.31,456.11a.2.2,0,0,0,.14-.06.21.21,0,0,0,0-.3,5.19,5.19,0,0,0-4-1.48.22.22,0,0,0,.06.43,4.8,4.8,0,0,1,3.64,1.33A.25.25,0,0,0,430.31,456.11Z" style="fill:#f0f0f0"></path><path d="M432.19,455a.22.22,0,0,0,.17-.35,5.16,5.16,0,0,0-4-1.57.21.21,0,0,0-.19.23.21.21,0,0,0,.24.19,4.79,4.79,0,0,1,3.61,1.42A.23.23,0,0,0,432.19,455Z" style="fill:#f0f0f0"></path><path d="M433.92,453.73a.18.18,0,0,0,.13-.06.22.22,0,0,0,0-.3,5.21,5.21,0,0,0-4-1.48.23.23,0,0,0-.19.24.22.22,0,0,0,.25.19,4.8,4.8,0,0,1,3.64,1.33A.23.23,0,0,0,433.92,453.73Z" style="fill:#f0f0f0"></path><path d="M435.44,452.59a.24.24,0,0,0,.14,0,.22.22,0,0,0,0-.3,5.16,5.16,0,0,0-4-1.65.21.21,0,0,0-.2.23.22.22,0,0,0,.24.2,4.85,4.85,0,0,1,3.58,1.48A.19.19,0,0,0,435.44,452.59Z" style="fill:#f0f0f0"></path><path d="M437.08,451.25a.24.24,0,0,0,.14-.05.22.22,0,0,0,0-.3,5.3,5.3,0,0,0-4.34-1.66.22.22,0,0,0-.19.24.21.21,0,0,0,.23.19,4.93,4.93,0,0,1,4,1.49A.19.19,0,0,0,437.08,451.25Z" style="fill:#f0f0f0"></path><path d="M459.27,461.72a9.49,9.49,0,0,0,1.53,4.7,3.5,3.5,0,0,0,3.9,1.14c1.51-.41,3.41-1.44,3.75-3.27a10.9,10.9,0,0,0-.26-5Z" style="fill:#263238"></path><path d="M465,446.9c.54.15,1,2.87,1.52,5.69.55,3,1.17,3.92,1.66,6.4.54,2.83.38,3.79-.59,5.54s-4.65,3.56-6.64,1.15c-1.63-2-1.74-3.87-1.75-6.71a47.76,47.76,0,0,0-.69-6.77c-.25-2.15-.83-4-.3-4.27.06.31.76,2.6,1.17,2.32.19,0,.21-.34.13-.89a.88.88,0,0,1,.14-.69,1.16,1.16,0,0,1,.68-.31c.61-.14,1.46-.34,2.08-.41a4.85,4.85,0,0,1,.53-.08,3.76,3.76,0,0,1,1.38,0c.2.09.23.27.29.47s.12.47.2.67.16.24.24.23.17-.38.15-.54,0-.42,0-.62S465.06,447.4,465,446.9Z" style="fill:#37474f"></path><path d="M468,458c.09.41.53,3-.24,3.47s-1.41-1.56-1.41-1.56a8.11,8.11,0,0,0-4.89.77c.17.44-.2,1.91-1,1.62s-1.22-3.06-1.23-3.1c0,2.72.17,4.56,1.75,6.46,2,2.41,5.67.6,6.64-1.15s1.13-2.71.59-5.54C468.09,458.71,468,458.27,468,458Z" style="fill:#455a64"></path><path d="M466.09,460.12c.07,1,1,.64,1.11-.81.11-2.17-.58-4.22-.71-6.72-.51-2.82-.89-5.66-1.52-5.69,0,.49.19,2.13.19,2.13l.06.5c.31,2.12,1,4.23,1,6.42C466.28,457.88,466,459.09,466.09,460.12Z" style="fill:#263238"></path><path d="M461.75,460.66a17.86,17.86,0,0,1-.94-3.18c-.32-1.9-1.35-5.23-1.89-7.29-.23-.8-.73-2.24-.74-2.26-.38.19-.33,1.28.05,2.55s.62,2,.89,3.27c.67,2.43.89,5,1.32,6.43S462,461.67,461.75,460.66Z" style="fill:#263238"></path><path d="M461.51,460.72l.08,0a7.71,7.71,0,0,1,4.82-.62.24.24,0,0,0,.28-.17.22.22,0,0,0-.18-.26,8.15,8.15,0,0,0-5.16.67.21.21,0,0,0-.08.29A.25.25,0,0,0,461.51,460.72Z" style="fill:#f0f0f0"></path><path d="M460.76,458.7l.08,0a10.41,10.41,0,0,1,5.62-.78.22.22,0,1,0,.08-.43,10.72,10.72,0,0,0-5.92.82.21.21,0,0,0-.1.29A.24.24,0,0,0,460.76,458.7Z" style="fill:#f0f0f0"></path><path d="M466.69,456.22a.22.22,0,0,0,.19-.15.21.21,0,0,0-.16-.27c-2.86-.81-6.51.54-6.62.6a.21.21,0,0,0-.08.3.25.25,0,0,0,.32.08s3.59-1.32,6.26-.56Z" style="fill:#f0f0f0"></path><path d="M466.14,454.4a.25.25,0,0,0,.19-.15.22.22,0,0,0-.16-.28,9.05,9.05,0,0,0-6.36.81.2.2,0,0,0-.06.3.25.25,0,0,0,.32.07,8.72,8.72,0,0,1,6-.76Z" style="fill:#f0f0f0"></path><path d="M465.83,452.16A.26.26,0,0,0,466,452a.23.23,0,0,0-.16-.28c-3-.93-6.28.81-6.4.87a.22.22,0,0,0-.07.31.25.25,0,0,0,.32.07s3.26-1.7,6-.83Z" style="fill:#ebebeb"></path></g><g id="freepik--Arm--inject-77"><g id="freepik--arm--inject-77"><path d="M417.42,371c-2.77-3.15-7.42-9-8.4-10.28-1.23-1.64-2.59-1.47-4-2.47a9.4,9.4,0,0,1-3-2.76,1.56,1.56,0,0,1-.31-1.25c.07-.21.22-.4.29-.61a7.93,7.93,0,0,1,.22-1.1c.22-.43.63-.48.82-.93.09-.19.06-.84.2-1a3.89,3.89,0,0,1,.84-.55c.17-.11.57-.26.48-.53s-.58-.84-1.42-2.35-1.19-2.28-.63-2.85c.82-.83,2,.74,3.41,2.6s2.91,3.88,3.39,3.85c.67,0,.31-2.18,1.08-3.28s1.69-.83,1.64.29c-.05,1,.48,2.2.61,3.83a5.55,5.55,0,0,0,1.31,3.22c.63.71,8,7.93,8,7.93s6.82-4.37,11.51-7.17a19.8,19.8,0,0,1,6.07-2.49l-3.07,12.75s-5.76,2.89-10.4,5.12S419.67,373.59,417.42,371Z" style="fill:#b16668"></path><path d="M439.31,353.15c-2.94.28-4.65,1.43-7.52,3.22s-8.12,4.94-8.12,4.94a12.06,12.06,0,0,0,1.31,6.18c1.56,2.53,3.11,2.87,3.11,2.87l9-4.29Z" style="fill:#EC407A"></path><path d="M439.31,353.15c-2.94.28-4.65,1.43-7.52,3.22s-8.12,4.94-8.12,4.94a12.06,12.06,0,0,0,1.31,6.18c1.56,2.53,3.11,2.87,3.11,2.87l9-4.29Z" style="fill:#fff;opacity:0.30000000000000004"></path><path d="M406.25,350.57c.72,1.21,1.83,2.33,1.53,3.09a1.1,1.1,0,0,1-1.61.47,1.11,1.11,0,0,1-.15,1.09,1,1,0,0,1-1,.32,1.05,1.05,0,0,1-1.07,1.1c.39.21,1.27.35,1.39-.53,0,0,1.25-.09,1.27-1.13a2.7,2.7,0,0,0,1.38,2.19,3.9,3.9,0,0,1-.83-2.44,1.62,1.62,0,0,0,1.15-1.18C408.46,352.61,406.25,350.57,406.25,350.57Z" style="fill:#9a4a4d"></path></g></g><path d="M460.62,379.7c-.17-3.08,1.91-17.49,2-18.81a31.43,31.43,0,0,0,0-5.34,55.43,55.43,0,0,0-8.62-2.32,67.11,67.11,0,0,0-8.86-.65,47.5,47.5,0,0,0-7,.71c-1.77,1.55-4.94,6.17-5.4,17.9-.31,8.16-.29,15.92-.29,15.92,5.45,5,21.44,5.76,28.65,1.63C460.69,383.08,461,386.09,460.62,379.7Z" style="fill:#EC407A"></path><path d="M454.21,349.61c1-2.13,3.73-3.61,5.35-6.95,2.21-4.55,3.66-10.12-1.38-12.76-.13-1.81-2.93-4.07-5.41-4.62a13.8,13.8,0,0,0-5.32-.08,17,17,0,0,1-6,.09,4.22,4.22,0,0,0-2.39,0,2.27,2.27,0,0,0-1.24,1.91,3.73,3.73,0,0,0,.66,2.25,1.95,1.95,0,0,0-.23,3.77,2.33,2.33,0,0,0,.35,2.63,4.15,4.15,0,0,0,2.49,1.26s.41,1.92.47,2.1a8.09,8.09,0,0,0,1.1,1.94,7.83,7.83,0,0,0,1.6,1.55,11.46,11.46,0,0,0,2.29,1,7.71,7.71,0,0,1,1.34.6,4.65,4.65,0,0,1,.71.82l4.09,4.66C453,350.16,453.83,349.58,454.21,349.61Z" style="fill:#263238"></path><path d="M455,342.63a.36.36,0,0,0,.1.11c.61.47.7-.65,1.39-1.33a1.7,1.7,0,0,1,1.43-.43,2.14,2.14,0,0,1,1.89,1.41,3.13,3.13,0,0,1-2.24,3.91,3.89,3.89,0,0,1-2.92-.27l-.91,7.87c-2.08,2.42-10.66,4.83-10.66,4.83a8.88,8.88,0,0,1,1.37-5.18l.14-2.65a10.26,10.26,0,0,1-3-.78,6.31,6.31,0,0,1-3.65-5.31c-.16-1.63.46-3,.6-4.65.08-1,.15-2.51.23-3.13s.72-3.82,1.66-4.79c1.11,2.25,7,3.34,11.51,1.95a6.78,6.78,0,0,0,.52,3.41,6.92,6.92,0,0,0,2.49,2.67,3.74,3.74,0,0,0-.12,1.82A1.16,1.16,0,0,0,455,342.63Z" style="fill:#b16668"></path><path d="M448.56,337.48l1.95,1.58a1.32,1.32,0,0,0-.19-1.81A1.22,1.22,0,0,0,448.56,337.48Z" style="fill:#263238"></path><path d="M449.15,340.65a1,1,0,1,1-.86-1.18A1,1,0,0,1,449.15,340.65Z" style="fill:#263238"></path><path d="M442.19,339.29a1,1,0,1,1-.85-1.18A1,1,0,0,1,442.19,339.29Z" style="fill:#263238"></path><path d="M439.82,337.24l2.47-.59a1.23,1.23,0,0,0-1.49-1A1.33,1.33,0,0,0,439.82,337.24Z" style="fill:#263238"></path><polygon points="445.07 338.29 443.71 343.72 441.04 342.03 445.07 338.29" style="fill:#9a4a4d"></polygon><path d="M446.82,344.88l-3.25.63a1.74,1.74,0,0,0,2,1.34A1.61,1.61,0,0,0,446.82,344.88Z" style="fill:#9a4a4d"></path><path d="M445.57,346.85a1.59,1.59,0,0,1-.72,0,1.83,1.83,0,0,1,1.86-1.4l.14,0A1.6,1.6,0,0,1,445.57,346.85Z" style="fill:#ffa8a7"></path><path d="M451.08,349.57a6.21,6.21,0,0,0,2.51-2.7,7.85,7.85,0,0,1-1.63,2.89c-2.4,2.19-6.58,2.38-7.47,2.38l.07-1.24A17.52,17.52,0,0,0,451.08,349.57Z" style="fill:#9a4a4d"></path><path d="M459.58,404.64c1.06-1.51,2.61-4.48,2.48-5.26-.07-.42-.61.05-.79.19s-.35.3-.56.44a3.52,3.52,0,0,1-1.35.56,2,2,0,0,1-1.47-.24.28.28,0,0,1-.17-.21c0-.12.08-.21.18-.31a19.91,19.91,0,0,0,2-2c.65-.84.82-1.47,1.66-2.57,1-1.32,2-1.22,2.19-2.59a97.78,97.78,0,0,0,1.31-10.92c-2.26-4.73-2.84-8.46-5-13.33-.6-4.27-.42-9.45,2.85-12.57,3.33,2.23,4.32,2.6,5.77,7.16.6,1.9,3.9,11.71,4.77,14.3.95,2.83,1,4.1-.15,8.2-.93,3.17-1.23,4.08-3,9.33-.44,1.31-1.39,4.95-2.5,7.8-1,2.58-2.32,4.25-4.75,4.75C459.15,408.17,458,406.92,459.58,404.64Z" style="fill:#b16668"></path><path d="M462.61,355.55c3.29,1.83,4.41,2.65,6.48,7.54,1.84,4.36,3.92,11.4,3.92,11.4a10.56,10.56,0,0,1-9.72,5.34l-3.5-11.24S457.14,361.24,462.61,355.55Z" style="fill:#EC407A"></path><path d="M462.61,355.55c3.29,1.83,4.41,2.65,6.48,7.54,1.84,4.36,3.92,11.4,3.92,11.4a10.56,10.56,0,0,1-9.72,5.34l-3.5-11.24S457.14,361.24,462.61,355.55Z" style="fill:#fff;opacity:0.4"></path></g></g><g id="freepik--character-1--inject-77"><g id="freepik--Chartacter--inject-77"><g id="freepik--bottom--inject-77"><path d="M367.09,440.27l-1.09-9,10.34.54s-.09,4.9-.2,7.67c-.06,1.64,2.19,4.66,2.19,4.66s-4.82,2.66-7.43,1.79a6.9,6.9,0,0,1-4-4.8C366.92,440.42,367.09,440.27,367.09,440.27Z" style="fill:#b16668"></path><path d="M392.16,454a2.25,2.25,0,0,1-.4,2.4,11.47,11.47,0,0,1-7.93,1.95,14.42,14.42,0,0,1-7.78-2.63c-1.63-1.19-3.9-2.88-5.7-3.19a11.14,11.14,0,0,1-4.06-1.41c-.54-.46-.53-2.61-.53-2.61Z" style="fill:#263238"></path><path d="M367.09,440.26a.63.63,0,0,0-.59.51c-.1.6-.18,2.32-.41,3.29a16.13,16.13,0,0,0-.24,5.22c.25,1.09,3,1.77,4.74,2.33a22.53,22.53,0,0,1,5.72,3.15,16.51,16.51,0,0,0,8.45,2.65c3.06-.11,6.47-1.14,7.22-2.49.92-1.67,1.58-3.6-3-5.43-.87-.34-3.93-1.92-5-2.49-2.83-1.55-4.82-3-6.19-5.85a1.62,1.62,0,0,0-.68-.86,1.46,1.46,0,0,0-.88-.05,31.1,31.1,0,0,0-4.43.93c-.6.29-1.45.63-1.42,1.36a2.37,2.37,0,0,0,.19.74c.06.14.11.34,0,.43s-.31,0-.43-.09a11.37,11.37,0,0,1-1.26-1.34,4.66,4.66,0,0,0-.74-.66,6.74,6.74,0,0,1-.79-.45C367.06,440.92,367.11,440.6,367.09,440.26Z" style="fill:#455a64"></path><path d="M376.31,454.76a29.47,29.47,0,0,0-2.52-1.65h0s5.42,2.87,7.53,1.43a1.73,1.73,0,0,0,.62-2.33c0-.34,4.78-2.92,6.13-3.11h0c.38.18.7.32.9.4,4.59,1.83,3.93,3.76,3,5.43-.75,1.35-3.21,2.46-7.16,2.58A17,17,0,0,1,376.31,454.76Z" style="fill:#37474f"></path><path d="M381.54,451.21c2.85,1,1.66,1.49.88,1.62s-5.61-2.31-8.56-4.36-5.06-4.53-6.21-5.31c-.42-.29-.89-.66-1.3-1,.06-.59.11-1.12.15-1.4a.63.63,0,0,1,.59-.51c0,.34,0,.66.25.9a6.74,6.74,0,0,0,.79.45,4.66,4.66,0,0,1,.74.66,11.37,11.37,0,0,0,1.26,1.34A36.62,36.62,0,0,0,381.54,451.21Z" style="fill:#37474f"></path><path d="M382.21,452.45a.27.27,0,0,1-.18-.05.25.25,0,0,1,0-.37c.77-.93,4.47-3.21,6.55-3.06a.26.26,0,0,1,.25.28.27.27,0,0,1-.3.24c-1.94-.14-5.45,2.12-6.06,2.86A.25.25,0,0,1,382.21,452.45Z" style="fill:#263238"></path><path d="M379.71,451.11a.23.23,0,0,1-.18-.05.25.25,0,0,1,0-.37c.77-.93,4.47-3.21,6.55-3.06a.26.26,0,0,1,.25.28.27.27,0,0,1-.3.24c-1.94-.13-5.45,2.12-6.06,2.86A.25.25,0,0,1,379.71,451.11Z" style="fill:#263238"></path><path d="M377.21,449.85a.37.37,0,0,1-.18-.05.26.26,0,0,1,0-.37c.77-.94,4.47-3.22,6.55-3.06a.27.27,0,0,1,.26.28.28.28,0,0,1-.3.24c-1.95-.14-5.46,2.12-6.07,2.86A.28.28,0,0,1,377.21,449.85Z" style="fill:#263238"></path><path d="M374.88,448.39a.34.34,0,0,1-.17-.05.24.24,0,0,1,0-.37c.76-.94,4.48-3.21,6.55-3.06a.25.25,0,0,1,.25.28.27.27,0,0,1-.3.24c-1.94-.14-5.45,2.12-6.06,2.86A.29.29,0,0,1,374.88,448.39Z" style="fill:#263238"></path><path d="M372.61,446.93a.41.41,0,0,1-.18-.05.25.25,0,0,1-.05-.37c1.05-1.32,4.94-3.25,7-3.1a.26.26,0,0,1,.26.28.28.28,0,0,1-.3.24c-1.87-.14-5.6,1.72-6.54,2.89A.29.29,0,0,1,372.61,446.93Z" style="fill:#263238"></path><path d="M346.73,445.47l2.25-8.58-10.54-1.48-.36,8.28s-1.08,3-.42,4.05,7.66,2.21,8.3,1.49S346.73,445.47,346.73,445.47Z" style="fill:#b16668"></path><path d="M345.91,464.13c-.31,2.65-.86,4.37-2,5.81s-3.19,1.68-5.21,1-4.59-2.26-5.06-4.64a13,13,0,0,1,.31-6.37Z" style="fill:#263238"></path><path d="M338.08,443.69c-.84-.05-.63,3.59-1.29,7.13-.71,3.79-2.09,5.22-2.71,8.33-.71,3.54-.57,5.18.75,7.54s6.27,5.12,8.91,2.3c2.15-2.3,2.38-5.12,2.37-8.75a81.1,81.1,0,0,1,.26-9.2c.3-2.68,1.08-5.07.36-5.46-.07.39-.15.89-.23,1.27s-.22,1.75-.69,1.7a4.36,4.36,0,0,1,0-1,1.16,1.16,0,0,0-.19-.9,3.88,3.88,0,0,0-1.36-.69c-.82-.25-2.29-.55-3.13-.72q-.63-.14-1.26-.21a3.83,3.83,0,0,0-1.07,0,.64.64,0,0,0-.48.31.93.93,0,0,0-.06.41,2.5,2.5,0,0,1-.15.72c0,.11-.12.23-.24.19a.24.24,0,0,1-.13-.24c0-.43.1-.74.15-1.25,0-.23.08-.55.09-.78S338.05,443.92,338.08,443.69Z" style="fill:#455a64"></path><path d="M334.32,458.14c-.1.51-.77,3.9.26,4.65s1.88-1.82,1.88-1.82a11.8,11.8,0,0,1,6.56,1.6c-.23.53.29,2.45,1.38,2.2s1.7-4.17,1.71-4.22c0,3.48-.28,6.2-2.37,8.44-2.64,2.82-7.59.06-8.91-2.3s-1.46-4-.75-7.54C334.15,458.79,334.24,458.46,334.32,458.14Z" style="fill:#37474f"></path><path d="M336.75,461.24c-.08,1.3-1.51.69-1.49-1.17s1.38-6.08,1.53-9.25c.24-4.36.45-7.18,1.29-7.13,0,0,0,.09,0,.13l-.2,1.81c0,.27-.07.5-.09.78-.15,2.66-.18,7.83-.56,10.23A37,37,0,0,0,336.75,461.24Z" style="fill:#37474f"></path><path d="M342.57,462.48a38.38,38.38,0,0,0,1-4.48c.4-2.38,1.83-7.14,2.53-9.7a6,6,0,0,0,.37-1.45c.07-.36.14-.81.22-1.19a.31.31,0,0,1,0-.08c.51.29.33,2.35.06,3.42s-.61,2.21-.95,3.74c-.87,3-1,7.55-1.52,9.29S342.23,463.73,342.57,462.48Z" style="fill:#37474f"></path><path d="M343.1,462.69l-.11-.05a11.57,11.57,0,0,0-6.47-1.39.34.34,0,0,1-.37-.24.26.26,0,0,1,.24-.32,12.1,12.1,0,0,1,6.91,1.5.27.27,0,0,1,.11.39A.31.31,0,0,1,343.1,462.69Z" style="fill:#263238"></path><path d="M343.94,459.94l-.1,0a14.34,14.34,0,0,0-7.24-1.56.33.33,0,0,1-.36-.25.25.25,0,0,1,.25-.3,14.81,14.81,0,0,1,7.64,1.64.29.29,0,0,1,.13.39A.29.29,0,0,1,343.94,459.94Z" style="fill:#263238"></path><path d="M336.94,455.68a.36.36,0,0,1-.26-.22.26.26,0,0,1,.21-.33,12.45,12.45,0,0,1,7.64,1.58.28.28,0,0,1,.12.39.33.33,0,0,1-.43.07s-3.58-2.12-7.15-1.49Z" style="fill:#263238"></path><path d="M337.28,453.17A.36.36,0,0,1,337,453a.26.26,0,0,1,.21-.33A11.17,11.17,0,0,1,345,454.2a.26.26,0,0,1,.09.39.32.32,0,0,1-.43,0,10.75,10.75,0,0,0-7.26-1.46Z" style="fill:#263238"></path><path d="M337.67,450.35a.38.38,0,0,1-.25-.21.26.26,0,0,1,.2-.34c4-.81,7.69,1.56,7.85,1.67a.27.27,0,0,1,.09.39.32.32,0,0,1-.43.05s-3.64-2.32-7.31-1.56Z" style="fill:#263238"></path><path d="M343.8,355.21c-1.69,21-2.71,49.75-2.71,49.75-.15,1.59-1.26,4.32-2,12.18-.82,8.3-.69,20-.69,20s5.56,3.13,10.15,1.58c0,0,4.33-18.41,6.72-28.18,2.25-9.24,5.42-23.33,5.42-23.33l2.68,13.93s-.34,6-.18,10.17c.19,4.87,3.17,23.52,3.17,23.52s5.48,3.58,10.25-.14c0,0,1.06-27.33,1.22-33.19.3-11.49,1.7-33.81.27-48.64Z" style="fill:#37474f"></path><path d="M360.65,387.22l2.41-14.93s5.56-.81,8.42-3.42c0,0-1.85,3.46-7.1,4.8L362,387.26l1.34,13.89Z" style="fill:#263238"></path><path d="M338.24,437.39c1.14,1.56,6.24,3.14,10.35,1.73l.72-3.23c-3.1,1-8.48,0-11-2Z" style="fill:#455a64"></path><path d="M366.29,435.33c1.39,1.34,6.55,2,10.36-.1l.17-3.31c-2.89,1.53-8.19,1.59-11,0Z" style="fill:#455a64"></path></g><g id="freepik--Top--inject-77"><g id="freepik--arm--inject-77"><path d="M371.9,315.65c4.32.61,5.08,1.7,11.55,7.16,5.28,4.46,8.1,6.35,8.1,6.35s5.5,6.53,5.74,7.81.72,4.18-1.8,5.83c-1.61,1.06-3.52.14-4.52.25-2.09.23-3.41-1.46-4.29-2-5.95-3.45-10.74-6.61-10.74-6.61Z" style="fill:#37474f"></path><path d="M410.82,311.43c-.89-.52-1,.31-1.34.42,0,0,.89-1.06-.65-2-.94-.55-1.38.77-1.41.6s1.1-2.78,2-5.08.08-2.79-.28-3-.71,0-1.5,1.57-3.14,6.35-3.67,7.34-.91,1.46-1.28.18a7.17,7.17,0,0,0-1.36-3c-1.17-1.21-2.07-.66-1.87.28.27,1.31.27,2.86.49,5,.11,1.13.15,2.18.29,2.95.43,2.7-1.12,4-3,6.12-1.5,1.75-3.06,3.2-6.53,6.74-3.29,3.35-3.05,11.14.26,12.46,3.8,1.52,5.28-.5,8-4.74,2.27-3.6,5.39-10.14,6.24-11.65s1.15-2.44,2.35-3.2a8.74,8.74,0,0,0,3.22-3.71c.43-.76,1.23-2.17,1.75-3.31s.57-1.95-.08-2.42c-.89-.65-1.13.33-1.22.23S412.09,312.16,410.82,311.43Z" style="fill:#b16668"></path><path d="M409.66,317.12c-.3-.43,0-1.22,0-1.22a1.51,1.51,0,0,1-.72.62,1.09,1.09,0,0,1-1.25-.55,1.6,1.6,0,0,1,.16-1,1.74,1.74,0,0,1-.76.43c-.48.14-.92-.16-1.11-.75s.48-2.06,1.18-3.4a6.94,6.94,0,0,0-1.06,1.5,3.5,3.5,0,0,0-.6,1.83,3.77,3.77,0,0,0-1.42-1.15c1.24,1.19,2.15,4.44,1.65,6.6a4.79,4.79,0,0,0,.41-4.28,1,1,0,0,0,1.13-.1,1.16,1.16,0,0,0,.68,1.2,1.11,1.11,0,0,0,1.25,0s-.14.49.5.81,1.14,0,1.49-.66A1,1,0,0,1,409.66,317.12Z" style="fill:#9a4a4d"></path></g><g id="freepik--Chest--inject-77"><path id="freepik--chest--inject-77" d="M353.15,314.28c-5.46,1.31-7.09,1.87-9.67,2.51,0,0-4.49,4.68-.89,21.95A104.32,104.32,0,0,1,343.4,353c0,3.85-.14,6.38-.29,9.07,0,0,7.39,5,22.67,3.27,12-1.4,12.75-5.91,12.75-5.91s.09-14.61-.58-23.51c-.89-11.69-4.61-18.64-6-20.21-.43-.25-8.6-1.37-8.6-1.37Z" style="fill:#455a64"></path></g><g id="freepik--Head--inject-77"><path d="M349,291.11a4.34,4.34,0,0,0-2.82,2.76c-.49,1.2-.69,3.29,1.68,8.91a22.65,22.65,0,0,0,3.73,6,3,3,0,0,0,1.93,1.11l-.65-4.46-.54-3.1s2.4-2.63,2.37-4.9a6.82,6.82,0,0,0-1.43-4.41Z" style="fill:#263238"></path><path d="M348.75,291.2c-1.39-4.39,8.18-9.78,13-6.38,1.87-2.24,5.91-.94,6.15,1.51,1.52-.61,3.55,1.69,2.76,3.45a1.87,1.87,0,0,1,1.69,3c-.87,1.08-.67,2,.65,2.29-.21,1.57-3,1.61-3.45.42-.08.91-.73.46-1.42-.15-4.8-.35-9.78.08-14.64,0Z" style="fill:#263238"></path><path d="M348.12,306.41a2.44,2.44,0,0,0,3.38-.72l.38,10.12c4.47,6,16.38,3.57,11.49-.92l0-2.85a16.52,16.52,0,0,0,2-.22,5.37,5.37,0,0,0,4.36-4c.9-3.31.85-8.64-.4-14.28a3.89,3.89,0,0,0-1.71-2.77c-2.47-1.22-4.75.55-8.19,1.9-1.43.56-4.89.81-5.8.38,1.2,1.34.51,4.79.19,5.88-.45,1.58-1.11,2.34-1.44,2.41-1.41.3-1.58-.91-2.21-1.58a2.59,2.59,0,0,0-4,.94A4.26,4.26,0,0,0,348.12,306.41Z" style="fill:#b16668"></path><path d="M354.55,309.37c.48,2.29,3.57,3.79,8.8,3.91V312a24.15,24.15,0,0,1-3.84-.35A13.36,13.36,0,0,1,354.55,309.37Z" style="fill:#9a4a4d"></path><path d="M359.37,296l-2,1.45a1.29,1.29,0,0,1,.29-1.78A1.2,1.2,0,0,1,359.37,296Z" style="fill:#263238"></path><path d="M368.45,296l-2.29-1a1.2,1.2,0,0,1,1.6-.68A1.31,1.31,0,0,1,368.45,296Z" style="fill:#263238"></path><path d="M360.34,304.89l3.51.6a1.7,1.7,0,0,1-2,1.48A1.86,1.86,0,0,1,360.34,304.89Z" style="fill:#9a4a4d"></path><path d="M362.54,307a1.84,1.84,0,0,0-1.8-1.39,2,2,0,0,0-.35,0,1.85,1.85,0,0,0,1.47,1.37A1.73,1.73,0,0,0,362.54,307Z" style="fill:#f28f8f"></path><path d="M358.79,299.37a1,1,0,1,0,1-1.05A1,1,0,0,0,358.79,299.37Z" style="fill:#263238"></path><path d="M366,298.26a1,1,0,1,0,1-1.05A.92.92,0,0,0,366,298.26Z" style="fill:#263238"></path><path d="M362.89,296.78l1.12,6.54,3.5-1.39A13.39,13.39,0,0,0,362.89,296.78Z" style="fill:#9a4a4d"></path></g><g id="freepik--arm--inject-77"><path d="M337.55,371c-1.79.59-4.19-1.56-4.86-2.32s.08-2.65.4-4.23-.18-4.21,1.8-3.55S341.14,366.67,337.55,371Z" style="fill:#9a4a4d"></path><path d="M343.51,317.24c-4.46.83-6.77,1.48-9.82,7.46-3.3,6.44-9,15.84-9.7,18.68-.64,2.65-2.07,4.58,1,8.44,2.76,3.53,11.38,12.74,12.64,14.09,1.12,1.2.67,4.77-3,4.39,0,0,2.9,2.36,4.43,2,1.32-.29,3.36-1.53,5.11-5.64,1.11-2.58,0-4.54-1.93-7.29-2.34-3.29-7.46-12.51-7.46-12.51l9-14.39S348,321.53,343.51,317.24Z" style="fill:#b16668"></path></g><path d="M343.48,316.79c-4.73,1.06-6.43,1.2-10.5,8.46s-8.4,14.77-9.56,18.54-1.26,4.8.78,7.86c.86,1.32,1.43,1,1.43,1l-.68-.85a8.87,8.87,0,0,1,5.79-4.2c4-.74,4.94,1,4.94,1l.36.64s.29-.41-.27-1.37l-.64-1.09s6.42-9.48,8.59-12.59S348.21,319.84,343.48,316.79Z" style="fill:#37474f"></path></g></g></g></svg>