<svg xmlns="http://www.w3.org/2000/svg" viewBox="0 0 750 500"><g id="freepik--background-simple--inject-76"><path d="M708,162.38c-17.68-34.94-47.63-63.54-77.86-87.59a336.09,336.09,0,0,0-47.81-31.88c-84-46-191-14.27-217.16,14.26s-42.8,72.92-95.11,83.22S148,129.3,101.19,175.27,85.7,283.89,86.94,307.93,53.64,343.29,33,382.13s-4.75,61-4.75,61H686.9S717,396.39,725.73,303.66c3.85-40.91,4.06-84.54-10.29-124A155.28,155.28,0,0,0,708,162.38Z" style="fill:#EC407A"></path><path d="M708,162.38c-17.68-34.94-47.63-63.54-77.86-87.59a336.09,336.09,0,0,0-47.81-31.88c-84-46-191-14.27-217.16,14.26s-42.8,72.92-95.11,83.22S148,129.3,101.19,175.27,85.7,283.89,86.94,307.93,53.64,343.29,33,382.13s-4.75,61-4.75,61H686.9S717,396.39,725.73,303.66c3.85-40.91,4.06-84.54-10.29-124A155.28,155.28,0,0,0,708,162.38Z" style="fill:#fff;opacity:0.7000000000000001"></path></g><g id="freepik--Floor--inject-76"><line x1="11.63" y1="444.57" x2="712.99" y2="444.57" style="fill:none;stroke:#263238;stroke-linecap:round;stroke-linejoin:round"></line></g><g id="freepik--Clouds--inject-76"><path d="M718.16,92.59s-10.44-20-29.59-23.5-23.5,19.14-26.11,22.63-8.7-7-17.4-.87S635.48,103,635.48,103s-9.57-7-15.66-2.61A21.54,21.54,0,0,0,612,110H739.05S738.18,83.88,718.16,92.59Z" style="fill:none;stroke:#263238;stroke-linecap:round;stroke-linejoin:round"></path><path d="M560.91,49.47s-5.5-10.56-15.6-12.39S532.92,47.17,531.54,49s-4.58-3.67-9.17-.46-5,6.42-5,6.42-5.05-3.67-8.26-1.37a11.37,11.37,0,0,0-4.13,5h67S571.47,44.88,560.91,49.47Z" style="fill:none;stroke:#263238;stroke-linecap:round;stroke-linejoin:round"></path><path d="M288.71,170.54s-5.51-10.55-15.6-12.39-12.39,10.09-13.77,11.93-4.59-3.67-9.18-.46-5,6.43-5,6.43-5-3.67-8.26-1.38a11.37,11.37,0,0,0-4.13,5.05h67S299.26,166,288.71,170.54Z" style="fill:none;stroke:#263238;stroke-linecap:round;stroke-linejoin:round"></path></g><g id="freepik--Trees--inject-76"><path d="M156.76,212.62s18-19.86,61.76-7.19C263.79,218.55,270.13,268,270.13,268l-13.53,7.62L271,274a22.51,22.51,0,0,1,1.69,9.31c0,5.92-.42,14.81-.42,14.81S257.87,293,248.14,293s-64.3,13.54-64.3,13.54-16.93-13.54-29.19-25S100.92,271,100.92,271l2.54-21.57s3.39-3.81,11.42-3,17.77,3,17.77,3-10.15-6.35-14.38-11.85a27.68,27.68,0,0,0-8.46-7.61s5.07-10.58,14.38-17.35a23,23,0,0,1,9.73-4.23l12.69,17.77L144.92,208l19-5.08Z" style="fill:#EC407A"></path><path d="M156.76,212.62s18-19.86,61.76-7.19C263.79,218.55,270.13,268,270.13,268l-13.53,7.62L271,274a22.51,22.51,0,0,1,1.69,9.31c0,5.92-.42,14.81-.42,14.81S257.87,293,248.14,293s-64.3,13.54-64.3,13.54-16.93-13.54-29.19-25S100.92,271,100.92,271l2.54-21.57s3.39-3.81,11.42-3,17.77,3,17.77,3-10.15-6.35-14.38-11.85a27.68,27.68,0,0,0-8.46-7.61s5.07-10.58,14.38-17.35a23,23,0,0,1,9.73-4.23l12.69,17.77L144.92,208l19-5.08Z" style="fill:#fff;opacity:0.35000000000000003"></path><polygon points="193.56 253.66 191.03 280.31 223.6 267.19 192.72 284.96 189.76 296.81 191.03 302.73 197.19 334.19 199.06 374.22 204.14 444.02 187.09 444.02 190.6 365.76 189.34 323.88 183.84 306.54 184.68 295.96 171.57 287.08 185.1 290.46 186.37 279.88 187.64 270.16 177.91 262.96 174.11 259.58 189.34 263.81 193.56 253.66" style="fill:#263238"></polygon><polygon points="193.56 253.66 191.03 280.31 223.6 267.19 192.72 284.96 189.76 296.81 191.03 302.73 197.19 334.19 199.06 374.22 204.14 444.02 187.09 444.02 190.6 365.76 189.34 323.88 183.84 306.54 184.68 295.96 171.57 287.08 185.1 290.46 186.37 279.88 187.64 270.16 177.91 262.96 174.11 259.58 189.34 263.81 193.56 253.66" style="fill:#fff;opacity:0.5"></polygon><path d="M444.54,237.62s16.06-17.72,55.09-6.41c40.37,11.69,46,55.84,46,55.84l-12.07,6.79,12.82-1.51a20,20,0,0,1,1.51,8.3c0,5.29-.37,13.21-.37,13.21s-12.83-4.53-21.51-4.53-57.36,12.08-57.36,12.08-15.09-12.08-26-22.26-47.92-9.44-47.92-9.44L397,270.45s3-3.4,10.19-2.64S423,270.45,423,270.45s-9.06-5.66-12.83-10.57a24.76,24.76,0,0,0-7.55-6.79s4.53-9.43,12.83-15.47a20.38,20.38,0,0,1,8.68-3.77l11.32,15.85L434,233.47l17-4.53Z" style="fill:#EC407A"></path><path d="M444.54,237.62s16.06-17.72,55.09-6.41c40.37,11.69,46,55.84,46,55.84l-12.07,6.79,12.82-1.51a20,20,0,0,1,1.51,8.3c0,5.29-.37,13.21-.37,13.21s-12.83-4.53-21.51-4.53-57.36,12.08-57.36,12.08-15.09-12.08-26-22.26-47.92-9.44-47.92-9.44L397,270.45s3-3.4,10.19-2.64S423,270.45,423,270.45s-9.06-5.66-12.83-10.57a24.76,24.76,0,0,0-7.55-6.79s4.53-9.43,12.83-15.47a20.38,20.38,0,0,1,8.68-3.77l11.32,15.85L434,233.47l17-4.53Z" style="fill:#fff;opacity:0.35000000000000003"></path><polygon points="477.36 274.22 475.1 297.99 504.15 286.3 476.61 302.14 473.97 312.71 475.1 317.99 480.6 346.05 482.27 381.76 486.8 444.02 471.59 444.02 474.72 374.21 473.59 336.86 468.69 321.39 469.44 311.95 457.74 304.03 469.82 307.05 470.95 297.62 472.08 288.94 463.4 282.52 460.01 279.5 473.59 283.28 477.36 274.22" style="fill:#263238"></polygon><polygon points="477.36 274.22 475.1 297.99 504.15 286.3 476.61 302.14 473.97 312.71 475.1 317.99 480.6 346.05 482.27 381.76 486.8 444.02 471.59 444.02 474.72 374.21 473.59 336.86 468.69 321.39 469.44 311.95 457.74 304.03 469.82 307.05 470.95 297.62 472.08 288.94 463.4 282.52 460.01 279.5 473.59 283.28 477.36 274.22" style="fill:#fff;opacity:0.5"></polygon><path d="M613.38,237.62s16.07-17.72,55.09-6.41c40.38,11.69,46,55.84,46,55.84l-12.08,6.79,12.83-1.51a20,20,0,0,1,1.51,8.3c0,5.29-.38,13.21-.38,13.21s-12.82-4.53-21.5-4.53-57.36,12.08-57.36,12.08-15.09-12.08-26-22.26-47.92-9.44-47.92-9.44l2.26-19.24s3-3.4,10.19-2.64,15.85,2.64,15.85,2.64-9.06-5.66-12.83-10.57a24.89,24.89,0,0,0-7.55-6.79s4.53-9.43,12.83-15.47a20.38,20.38,0,0,1,8.68-3.77l11.32,15.85-1.51-16.23,17-4.53Z" style="fill:#EC407A"></path><path d="M613.38,237.62s16.07-17.72,55.09-6.41c40.38,11.69,46,55.84,46,55.84l-12.08,6.79,12.83-1.51a20,20,0,0,1,1.51,8.3c0,5.29-.38,13.21-.38,13.21s-12.82-4.53-21.5-4.53-57.36,12.08-57.36,12.08-15.09-12.08-26-22.26-47.92-9.44-47.92-9.44l2.26-19.24s3-3.4,10.19-2.64,15.85,2.64,15.85,2.64-9.06-5.66-12.83-10.57a24.89,24.89,0,0,0-7.55-6.79s4.53-9.43,12.83-15.47a20.38,20.38,0,0,1,8.68-3.77l11.32,15.85-1.51-16.23,17-4.53Z" style="fill:#fff;opacity:0.35000000000000003"></path><polygon points="646.21 274.22 643.95 297.99 673 286.3 645.46 302.14 642.82 312.71 643.95 317.99 649.44 346.05 651.12 381.76 655.64 444.02 640.44 444.02 643.57 374.21 642.44 336.86 637.53 321.39 638.29 311.95 626.59 304.03 638.66 307.05 639.8 297.62 640.93 288.94 632.25 282.52 628.85 279.5 642.44 283.28 646.21 274.22" style="fill:#263238"></polygon><polygon points="646.21 274.22 643.95 297.99 673 286.3 645.46 302.14 642.82 312.71 643.95 317.99 649.44 346.05 651.12 381.76 655.64 444.02 640.44 444.02 643.57 374.21 642.44 336.86 637.53 321.39 638.29 311.95 626.59 304.03 638.66 307.05 639.8 297.62 640.93 288.94 632.25 282.52 628.85 279.5 642.44 283.28 646.21 274.22" style="fill:#fff;opacity:0.5"></polygon><path d="M472.39,71.9s-29-31.95-99.33-11.57c-72.79,21.09-83,100.69-83,100.69l21.77,12.24-23.13-2.72S286,176,286,185.51s.68,23.81.68,23.81,23.13-8.17,38.77-8.17,103.41,21.77,103.41,21.77,27.21-21.77,46.94-40.14,86.4-17,86.4-17l-4.08-34.7s-5.45-6.12-18.37-4.76-28.57,4.76-28.57,4.76,16.32-10.2,23.13-19.05,13.6-12.24,13.6-12.24-8.16-17-23.13-27.89a36.88,36.88,0,0,0-15.65-6.81l-20.4,28.58,2.72-29.26-30.62-8.16Z" style="fill:#EC407A"></path><path d="M472.39,71.9s-29-31.95-99.33-11.57c-72.79,21.09-83,100.69-83,100.69l21.77,12.24-23.13-2.72S286,176,286,185.51s.68,23.81.68,23.81,23.13-8.17,38.77-8.17,103.41,21.77,103.41,21.77,27.21-21.77,46.94-40.14,86.4-17,86.4-17l-4.08-34.7s-5.45-6.12-18.37-4.76-28.57,4.76-28.57,4.76,16.32-10.2,23.13-19.05,13.6-12.24,13.6-12.24-8.16-17-23.13-27.89a36.88,36.88,0,0,0-15.65-6.81l-20.4,28.58,2.72-29.26-30.62-8.16Z" style="fill:#fff;opacity:0.35000000000000003"></path><polygon points="413.2 137.88 417.28 180.74 364.9 159.66 414.56 188.23 419.32 207.28 417.28 216.8 407.37 267.39 404.36 331.77 396.19 444.02 423.61 444.02 417.96 318.16 420 250.81 428.85 222.92 427.49 205.91 448.58 191.63 426.81 197.07 424.77 180.06 422.73 164.42 438.37 152.85 444.5 147.41 420 154.21 413.2 137.88" style="fill:#263238"></polygon><polygon points="413.2 137.88 417.28 180.74 364.9 159.66 414.56 188.23 419.32 207.28 417.28 216.8 407.37 267.39 404.36 331.77 396.19 444.02 423.61 444.02 417.96 318.16 420 250.81 428.85 222.92 427.49 205.91 448.58 191.63 426.81 197.07 424.77 180.06 422.73 164.42 438.37 152.85 444.5 147.41 420 154.21 413.2 137.88" style="fill:#fff;opacity:0.5"></polygon></g><g id="freepik--Zebras--inject-76"><path d="M263.26,369.94a98.82,98.82,0,0,1-2.82,14.53,60.31,60.31,0,0,1-5.63,12.16c-1,1.78-1.63,2.67-1.78,4.3s-.45,2.23-.15,3.71.67,25.94.08,29.06-.75,3.56.14,4.15,1.93,3,2.08,3.71.3,2.22.3,2.22a21.38,21.38,0,0,0,4.3.59c1.92,0,4.15-.14,4.15-.14s1.63-1.19-.45-4.6-3.41-3.41-4.44-4.6-3.19-8.74-2.3-11.41,5.48-13.2,5.48-13.2a88.51,88.51,0,0,0,9.34-19c3.27-9.93,1.78-14.38-1.48-19S263.85,368.16,263.26,369.94Z" style="fill:#cfcfcf;stroke:#263238;stroke-linecap:round;stroke-linejoin:round"></path><path d="M254.84,440.57a5.83,5.83,0,0,1,.34,1c.15.74.3,2.22.3,2.22a21.38,21.38,0,0,0,4.3.59c1.92,0,4.15-.14,4.15-.14s1.63-1.19-.45-4.6l-.36-.57-3.64,1.31Z" style="fill:#263238"></path><path d="M253,434.88a13.43,13.43,0,0,0,2.52.3,17.13,17.13,0,0,0,3-.44l-.67-1.63a5.31,5.31,0,0,1-2.37.44,9.15,9.15,0,0,0-2.52.15Z" style="fill:#263238"></path><polygon points="252.77 426.16 256.33 426.94 256.48 425.31 253.22 423.71 252.77 426.16" style="fill:#263238"></polygon><path d="M252.91,419.63a9.54,9.54,0,0,0,1.75.58c1.19.29,2.82.59,2.82.59l.59-1.33a12.09,12.09,0,0,1-3-.6l-1.77-.74Z" style="fill:#263238"></path><path d="M252.84,413.59a20,20,0,0,0,3.15,1.72,13.57,13.57,0,0,0,3.41.75l.75-1.49s-1.63-.44-3.71-.89a10.27,10.27,0,0,1-3.86-1.92Z" style="fill:#263238"></path><path d="M252.88,407a37.27,37.27,0,0,0,5.34,2.82,14.92,14.92,0,0,0,4,.59l.74-1.63s-5.19-1.48-6.37-1.78a16.08,16.08,0,0,1-3.71-2.37Z" style="fill:#263238"></path><path d="M254.81,396.63a37.66,37.66,0,0,0,5.34,5.64c2.22,1.63,5,1.78,5.33,2.22s1-1,1-1a28.82,28.82,0,0,1-5.19-3c-3.26-2.23-3.85-2.38-4.15-2.82S255.7,395,255.7,395Z" style="fill:#263238"></path><path d="M257.77,391.59s5.19,4.45,7,5.49a15.63,15.63,0,0,0,4.3,1.48l.74-1.93s-6.67-3.41-8.15-4.3a15,15,0,0,1-3.11-3Z" style="fill:#263238"></path><path d="M260.44,384.47s3.26,3.41,5.64,4.6,5.48,2.37,5.48,2.37l.3-1.93s-5.63-3-7.56-4.3-3.41-2.52-3.41-2.52Z" style="fill:#263238"></path><path d="M266.52,324.42s-10.74,3.5-15.67,14.35-6.51,33.34-6.51,33.34l1.38,36.7s7.89-12.43,8.48-24.46-1.58-35.52-.79-41.44,1.19-7.49,3-9.47a40.2,40.2,0,0,1,5.53-4.54Z" style="fill:none;stroke:#263238;stroke-linecap:round;stroke-linejoin:round"></path><path d="M244.34,372.11l1.38,36.7s7.89-12.43,8.48-24.46-1.58-35.52-.79-41.44a40.4,40.4,0,0,1,1.18-6.43,2.81,2.81,0,0,0-.49.33c-2.29,1.95-5,8.3-6.4,11.95A176.92,176.92,0,0,0,244.34,372.11Z" style="fill:#263238;stroke:#263238;stroke-linecap:round;stroke-linejoin:round"></path><path d="M335.7,376.46s2.78,14.25,4.91,20.64,2.95,16.06,2.95,20.81-2,13.93-1.47,15.57,2.31,4,2.47,5.17-.16,4.26.17,4.75,2.62,1,4.09,1a9.76,9.76,0,0,0,3.11-.66s-2-8.94-2.31-13.2.33-23.59-.49-30-3.93-21.31-4.26-22.94l-.33-1.64Z" style="fill:#cfcfcf;stroke:#263238;stroke-linecap:round;stroke-linejoin:round"></path><path d="M344.73,443.4c.32.49,2.62,1,4.09,1a9.76,9.76,0,0,0,3.11-.66s-.28-1.29-.64-3.09l-6.7.22A7.66,7.66,0,0,0,344.73,443.4Z" style="fill:#263238"></path><path d="M349.56,411.93q-.66,0-1.38,0a28.7,28.7,0,0,0-4.86.58c.06.74.11,1.46.14,2.14l6.11-1C349.56,413,349.56,412.48,349.56,411.93Z" style="fill:#263238"></path><path d="M342.61,406.1l6.84-.79c0-.41,0-.8-.05-1.19h-7.11C342.41,404.78,342.51,405.44,342.61,406.1Z" style="fill:#263238"></path><path d="M337.71,386c.18.81.38,1.64.57,2.47l8.35-2.11c-.09-.47-.18-.92-.27-1.37Z" style="fill:#263238"></path><path d="M339.6,393.71c.22.81.44,1.57.65,2.27l8-1.22c-.08-.47-.16-.94-.25-1.42Z" style="fill:#263238"></path><path d="M349.52,425.39h-2l-4.73.68c-.12.85-.24,1.68-.34,2.46l7.12-1.26C349.53,426.7,349.52,426.07,349.52,425.39Z" style="fill:#263238"></path><path d="M385,287.79s6.82-5.48,8.75-7.71,2.22-2.37,2.22.6-.44,8.15-2.37,9.78-6.82,3.27-6.82,3.27Z" style="fill:#fff;stroke:#263238;stroke-linecap:round;stroke-linejoin:round"></path><path d="M388.85,288.39s12.61,6.52,13.35,8.3,3.26,6.53,3.26,6.53,10.68,8.6,11.57,9.49,1.63,4.44,0,7.11-4.3,4.6-6.08,4.15-4.3-2.07-4.9-2.07-1.63-1.34-9-.89a37.71,37.71,0,0,1-13.79-1.93s-2.52,16.76-4.15,27.14a48.22,48.22,0,0,1-7,18.24c-.3.44-7,8.89-7.57,9.19s-1.48,2.37-1.48,2.37-3.11,14.09-4.89,20.32-4.6,22.83-4.3,26.54.74,10.38,1.93,12.16a43.52,43.52,0,0,0,4,4.83c.44.44,1.33,4,1.33,4a13.29,13.29,0,0,1-5.33,1.19c-3.41.14-5.34-.6-5.64-1.34s-.59-4.6-1-5.63-2.72-1.72-2.42-5.43.45-9,.59-16.31-1.33-24.61-3.26-30.25-2.52-7.71-2.52-7.71a112.12,112.12,0,0,1-24.61.45,105.2,105.2,0,0,1-21.8-4.75s-7.41,15.57-12.46,20.91-8.15,6.38-8.15,8.45-.3,12.31-.89,15.87-.75,11.52.88,14.19,1.78,3.85,3.26,4.45,2.37,5.19,2.37,5.19H273c-1.92-2.23-2.81-4-2.81-4.45s-1-1.34-2.38-1.63.15-2.52.45-4.75-2.81-20.12-4.14-24.42-2.52-8.45-2.22-9.93,4.15-1.63,5.48-9.94-7.41-21.94-8.6-24.61-4.59-17.8-.15-30.4,23.88-14.09,27.44-13.94,13.64,3.71,19.72,6.67,12.45,5.19,18.38,2.52,10.68-5.18,13.05-5.18,11.42,2.37,12.61,1.63,2.81-1.93,2.07-3.86-3.85-2.22-3.85-2.22a59.62,59.62,0,0,1,9.63-18.83c6.82-8.6,13.35-13.65,20.76-14.68S388.85,288.39,388.85,288.39Z" style="fill:#fff;stroke:#263238;stroke-linecap:round;stroke-linejoin:round"></path><path d="M396.56,303.66a1.63,1.63,0,1,1-1.63-1.63A1.63,1.63,0,0,1,396.56,303.66Z" style="fill:#263238"></path><path d="M417,319.82c1.63-2.67.89-6.22,0-7.11-.35-.35-2.14-1.84-4.22-3.53-.42.14-.82.71-.08,2.64,1.18,3.11,1.92,4.89-2.08,5.93-2.71.7-5.29,2.22-6.34,3.59,1.08.27,1.47.56,1.74.56.6,0,3.12,1.63,4.9,2.07S415.39,322.49,417,319.82Z" style="fill:#263238"></path><path d="M379.51,285.27l.75-.29a16.82,16.82,0,0,0-1.79.15c-7.41,1-13.94,6.08-20.76,14.68a59.62,59.62,0,0,0-9.63,18.83,7.32,7.32,0,0,1,1.77.44,1.53,1.53,0,0,0,.3-.89c0-.89,1.34-2.37,1.34-2.37a1.56,1.56,0,0,1,.44-1.78l1.93-1.93s-.89.15.44-1.48,1.93-1.93,2.08-2.52.44-1.63.44-1.63-.14-.15.45-1.34.3-1.33,1-2.22-.15.15.74-.89a14.6,14.6,0,0,1,1.63-1.93l1.33-1.33s.89-1.34,1.34-1.93-.59-.74,1.18-1.78,2.67-1.48,2.67-1.48a30.5,30.5,0,0,0,2.67-2.52,7.26,7.26,0,0,1,1.49-1.49c.89-.74.29-.44,1.48-1.18a19.65,19.65,0,0,1,2.37-1.48c1.19-.6-.3,0,1.19-.6S378,285.87,379.51,285.27Z" style="fill:#263238;stroke:#263238;stroke-linecap:round;stroke-linejoin:round"></path><path d="M390.19,299.81a9.9,9.9,0,0,1-.6-5.19c.45-3,.75-4.16.75-4.16" style="fill:none;stroke:#263238;stroke-linecap:round;stroke-linejoin:round"></path><path d="M393.45,299.51a18,18,0,0,1-.15-3v-3.85" style="fill:none;stroke:#263238;stroke-linecap:round;stroke-linejoin:round"></path><path d="M396.56,299.81v-3.12a7.86,7.86,0,0,0-.44-2.82" style="fill:none;stroke:#263238;stroke-linecap:round;stroke-linejoin:round"></path><path d="M401.16,302a13,13,0,0,0-1.33-4l-.89-1.34" style="fill:none;stroke:#263238;stroke-linecap:round;stroke-linejoin:round"></path><path d="M401.6,305.74s.6,1.92-2.07,3.56-7.86,1.48-7.86,3.11.3,8,.3,8" style="fill:none;stroke:#263238;stroke-linecap:round;stroke-linejoin:round"></path><path d="M397,321s-.89-4,.15-5.64,3.7-.59,6.52-2.52,3.56-5.19,3.41-5.93" style="fill:none;stroke:#263238;stroke-linecap:round;stroke-linejoin:round"></path><path d="M409.46,308.55s.6,1.19-1.33,3.56a10.12,10.12,0,0,1-4.6,3.71c-1.93.89-2.07,3.85-2.07,3.85" style="fill:none;stroke:#263238;stroke-linecap:round;stroke-linejoin:round"></path><path d="M385.89,289.57s-3.12,2.38-2.52,5.49,3.7,5.49,4.74,8.75a16.42,16.42,0,0,1,0,8.9c-.59,2.37-.89,5.33,1.19,7.26" style="fill:none;stroke:#263238;stroke-linecap:round;stroke-linejoin:round"></path><path d="M379.36,289.43a124,124,0,0,0,7-10.68c1.93-3.71,3.26-5,3.86-2.08s2.37,7.42.89,9.79-2.82,4.75-5.19,5.19a45.55,45.55,0,0,0-4.75,1.19" style="fill:#fff;stroke:#263238;stroke-linecap:round;stroke-linejoin:round"></path><path d="M380.25,295.21s-2.52,3,1.34,9,1.33,7.42,2.07,11,2.08,4.44,2.08,4.44" style="fill:none;stroke:#263238;stroke-linecap:round;stroke-linejoin:round"></path><path d="M374.17,288.68s-1.78,6.68,1,12,5.78,10.23,6.53,13,1.48,5.34,1.48,5.34" style="fill:none;stroke:#263238;stroke-linecap:round;stroke-linejoin:round"></path><path d="M379.21,308.85a11.29,11.29,0,0,0-4-5.93c-3.11-2.22-5.78-3.86-6.37-6.23a5.51,5.51,0,0,0-1.64-3.11" style="fill:none;stroke:#263238;stroke-linecap:round;stroke-linejoin:round"></path><path d="M382.18,324.42s-3.26-5-5.34-6.82-5-3-9.64-9.94-4.89-8-4.89-8a72.42,72.42,0,0,0,2.52,8c.89,1.78,5.78,6.83,5.78,6.83a73.12,73.12,0,0,1-6.82-5.79,14.16,14.16,0,0,0-6.52-3.56s6.67,4.9,9.19,7.86,4.15,3.56,6.23,4.75a14.16,14.16,0,0,1,4.75,4.59c.74,1.34,4.44,4.75,4.44,4.75Z" style="fill:#263238"></path><path d="M355.79,309.89s6.52.59,9.34,5.19,7.26,13.64,9.64,17.2,5.33,7.26,5.33,7.26l-.29,2.08s-2.82-3.56-5.64-6.82-3.11-4.6-7.86-9.79-4.59-5.19-7-6.82-7.86-2.37-7.86-2.37l.44-1.78s.3-.3,2.37.15a16.27,16.27,0,0,1,5.19,1.93c1.49.89,7.57,6.82,7.57,6.82s-2.82-8.6-5.05-9.64-8.15-1.19-8.15-1.19Z" style="fill:#263238"></path><path d="M349.85,319.08s2.82,1,6.08,5,12.76,18.54,14.39,20.76,8.15,5,8.15,5l-.44,1.49a22.72,22.72,0,0,1-7-2.52c-3.26-1.93-7.27-8.16-8.9-11.27l-1.63-3.12s5.34,11.87,6.67,16.46,2.52,5.64,3.41,6.53,3.41,3,3.41,3l-.59,1.93s-4-1.19-5.48-3.71A61.37,61.37,0,0,1,361.87,344c-2.38-8-4.9-11.41-6.08-14.38a43.64,43.64,0,0,0-3.56-6.52S353.26,321.15,349.85,319.08Z" style="fill:#263238"></path><path d="M347.63,324.57s2.52,13.19,2.67,20.16-4,16.17-6.82,20.76-4.15,7.42-3.56,8.75a11.54,11.54,0,0,1,.74,3.12s-2.07-7.86-.74-10.83,3.11-7.12,6.38-13.34,2.52-16.17,1.92-18.54-2.07-9.49-2.07-9.49Z" style="fill:#263238"></path><path d="M347.93,327.68s3.7,16.76,5.78,22.24,5.19,12.31,6.38,13.94a66.69,66.69,0,0,1,3.41,6.08l-.45,4.75s-4.74-7.27-6.52-10.23a51,51,0,0,1-5-12.46c-.75-3.56-2.08-9.64-2.08-9.64Z" style="fill:#263238"></path><path d="M341.85,324.12s1.48,5.34-2.37,23-8.9,20.76-8.9,23.72.74,4.3-.45,5.64a27.22,27.22,0,0,1-4.89,3.41l5.78-.15s2.08-2.08,2.38-3.26-2.82-1.64-.6-5.94,10.68-21.64,11.27-26.83-.15-18.84-.15-18.84Z" style="fill:#263238"></path><path d="M336.07,323.68s1.92,5.93.59,9.93-8.75,12-8.75,17.35a49.41,49.41,0,0,1-2.08,15.27c-1.78,6.53-8.89,12.61-8.89,12.61h-2.08a86.49,86.49,0,0,0,7.86-11.57c3.56-6.37,3.11-14.83,3.41-16.31A90.68,90.68,0,0,1,333,336c2.52-4,.3-12,.3-12Z" style="fill:#263238"></path><path d="M328.5,327.39a11.31,11.31,0,0,1-1.33,4.3c-1.19,2.07-5.49,8.6-5.49,8.6a49.61,49.61,0,0,0-4.3-6.68,47.42,47.42,0,0,0-4-4.3l-1.93-.74a36.17,36.17,0,0,1,4.45,5.34c1.19,2.08,5.63,8,5.78,8.45s4.75-5.78,7.27-10.38,2.82-7.12,2.82-7.12Z" style="fill:#263238"></path><path d="M305.82,325.75s.29,4.3,4.44,11.72,7.57,10.38,6.08,13.34-3.41,6.68-3.41,11.27-.44,16.31-.44,16.31l-2.37-.44a49,49,0,0,0,1-10.23c.15-6.82-.89-7.71.3-10.53s4.45-5.78,3.56-8.45-7.27-11-8.3-14.39-3.41-9.49-3.41-9.49Z" style="fill:#263238"></path><path d="M294,321.45s2.08,8.16,4.45,11.27,7,12,6.53,15-1.78,8.45-.6,11.71,2.82,8.75,2.82,10.83-2.22,6.82-2.22,6.82l2.22.59a42.71,42.71,0,0,0,1.63-7.26c.15-2.52-2.52-9.79-2.67-15s1.63-6.52,1.49-9.64-6.68-12.16-6.68-14.53a38.87,38.87,0,0,1,1-6.67L300,323.38a10.12,10.12,0,0,0-1.48,4.3,15.63,15.63,0,0,1-.15,2.67,73,73,0,0,1-2.37-7l-.3-1.63Z" style="fill:#263238"></path><path d="M268.3,323.38a84.22,84.22,0,0,0,9.49,1.48c4,.3,13.49,4.3,15.27,8s4.75,10.83,6.38,14.24,3.41,13.34,2.82,17.35-1.78,9.63-1.78,9.63l-.45,1.78-3.41-.74s3.56-5.93,3.86-11.71-3.71-17.05-5.93-22.1-2.67-5.93-5.34-8.6-8.75-3.56-12.31-4.59-10.38-3.71-10.38-3.71Z" style="fill:#263238"></path><path d="M259.85,331.69s12.16,2.81,16.76,4.89,13.49,13.34,13.49,13.34,7.41,11.87,7.41,14.54a46.63,46.63,0,0,1-.59,6.22s-3.26-11-5.64-16-13.64-15-17.2-16.61-7.71-2.52-9.19-3.26a44.33,44.33,0,0,0-6.23-1.78Z" style="fill:#263238"></path><path d="M257,343.1s4.45.74,13.64,6.38,12.31,6.82,17.2,11.12,6.08,8.45,6.68,9.34a21,21,0,0,1,1.33,2.67,27.82,27.82,0,0,0-10.53-11.86c-7.86-5-13.49-6.23-19.27-10.08s-9.2-6.53-9.2-6.53Z" style="fill:#263238"></path><path d="M257.92,358.82s-.74.45,9.94,4.3,10.38,4.89,16.46,5.19a19.27,19.27,0,0,1,10.38,3.86s-8.6-1.78-12.31-2.67-13.05-1.93-16.16-3.27a61.83,61.83,0,0,1-8.46-5.19Z" style="fill:#263238"></path><path d="M265,375.28a44.65,44.65,0,0,0,13,3.56c8,1,10.67.59,12.31,0a22,22,0,0,0,3-1.34,12.3,12.3,0,0,1-7.26,3.86c-4.75.74-9.79,1.63-9.79,1.63s-3.71-.15-4.75-.3-3.85-.59-3.85-.59l-.74-2.22s3.85,1.78,6.08,1.63,8.3-.6,8.3-.6-8.9-1.33-10.08-1.78-5-1.18-5-1.18Z" style="fill:#263238"></path><path d="M267.41,388s.6,1,7.56,1.48,10.24-.59,11-1A16.65,16.65,0,0,0,288,386.7s-2.22,3.7-3.26,4.45-5.63,3.7-7.56,3.85-9.94-.3-9.94-.3l-1.33-.59.89-1.63a26.94,26.94,0,0,0,4.74.3c3.27,0,4,.44,5.34.29s5-2.07,5-2.07-8.75.89-10.38.44-4.59-1.18-4.59-1.18Z" style="fill:#263238"></path><path d="M263.11,397.52a19.59,19.59,0,0,0,5.93,1c3.71.15,3.41.59,4.9.3s6.67-1.19,6.67-1.19-5.49,2.67-8.3,2.82a85.89,85.89,0,0,1-9.49-.15c-.45-.15-.6,0-.75-1.19A1.62,1.62,0,0,1,263.11,397.52Z" style="fill:#263238"></path><path d="M263.11,403.6a47.21,47.21,0,0,0,5.93.74,14.16,14.16,0,0,0,5.49-.89l.15,2.38a16,16,0,0,1-5.34.88,22.36,22.36,0,0,1-5.64-.74Z" style="fill:#263238"></path><path d="M264.89,411.16a48.08,48.08,0,0,0,5.34,1,10.61,10.61,0,0,0,4.15-.89l-.15,2.08a13.28,13.28,0,0,1-4.45.74,24.17,24.17,0,0,1-5-1.34Z" style="fill:#263238"></path><path d="M266.37,417.54a10,10,0,0,0,3.86.3c2.82-.15,3.85-1,3.85-1l-.14,1.63a4.88,4.88,0,0,1-2.52.89,25.71,25.71,0,0,1-5.34-.15Z" style="fill:#263238"></path><path d="M267.22,423.16s.64.16,2.56.46a6,6,0,0,0,3.45-.52v1.64a3.84,3.84,0,0,1-3,.81,20.23,20.23,0,0,0-2.86-.31Z" style="fill:#263238"></path><path d="M268.29,432.32s1.63-.15,2.22-.15,3.12-.14,3.12-.14,1.3,1.22.54,1.56c-2.18,1-6.62.36-6.62.36Z" style="fill:#263238"></path><path d="M270.81,439.88l-.07.08a20.06,20.06,0,0,0,2.29,3.19h7.12s-.89-4.6-2.37-5.19c-.12,0-.21-.11-.31-.16-1.19.55-2.38,1.13-2.81,1.34C273.77,439.59,270.81,439.44,270.81,439.88Z" style="fill:#263238"></path><path d="M341.55,378.39s2.67-6.52,6.23-8.15,6.82,0,10.38,2.82,4,5.19,4,5.19l-.15,1.48a48.62,48.62,0,0,0-6.82-5.64c-3.26-2.07-4.3-3.26-6.37-1.92s-5.79,9.19-5.79,9.19Z" style="fill:#263238"></path><path d="M343.33,383.14s4.75-3.56,7.12-3.71a28.47,28.47,0,0,1,9.19,1.93c.89.59,1.19,2.67,1.19,2.67l-.3,2.07s-4.6-4.74-7.41-4.89-9.05,4.89-9.05,4.89Z" style="fill:#263238"></path><path d="M345.26,390.55a38.52,38.52,0,0,1,7.56-1.63c3-.15,6.23,2.37,6.23,2.37l-.59,2.82s-2.08-3.41-5.34-3.11a24.13,24.13,0,0,0-7.12,2.22Z" style="fill:#263238"></path><path d="M346.59,399a28.54,28.54,0,0,1,5.79-1.18,14.63,14.63,0,0,1,4.89,1.48l-.89,2.82a4,4,0,0,0-4.15-2.23,21.65,21.65,0,0,0-5.64,1.78Z" style="fill:#263238"></path><path d="M346.89,407.31a14.59,14.59,0,0,1,3.56-.3,39.7,39.7,0,0,1,5.34.45l-.3,2.37a33.86,33.86,0,0,0-4.3-.45c-1.63,0-4.3.15-4.3.15Z" style="fill:#263238"></path><polygon points="347.33 415.31 354.15 415.91 353.86 417.98 347.33 417.69 347.33 415.31" style="fill:#263238"></polygon><path d="M353.86,424.36a5.41,5.41,0,0,1-2.52.74c-1.34,0-3.86.3-3.86.3l-.59,2.67a40,40,0,0,1,4-.3,23.92,23.92,0,0,0,3.41-.3Z" style="fill:#263238"></path><path d="M350,442.53a7.58,7.58,0,0,0,.25,1.19c.3.74,2.23,1.48,5.64,1.34a13.29,13.29,0,0,0,5.33-1.19s-.89-3.56-1.33-4c0,0-7.56,1.78-9.49,2.52Z" style="fill:#263238;stroke:#263238;stroke-linecap:round;stroke-linejoin:round"></path><path d="M403.76,369.94a98.82,98.82,0,0,1-2.82,14.53,59.75,59.75,0,0,1-5.63,12.16c-1,1.78-1.63,2.67-1.78,4.3s-.44,2.23-.15,3.71.67,25.94.08,29.06-.74,3.56.15,4.15,1.92,3,2.07,3.71.3,2.22.3,2.22a21.38,21.38,0,0,0,4.3.59c1.93,0,4.15-.14,4.15-.14s1.63-1.19-.44-4.6-3.41-3.41-4.45-4.6-3.19-8.74-2.3-11.41,5.48-13.2,5.48-13.2a88.82,88.82,0,0,0,9.35-19c3.26-9.93,1.77-14.38-1.49-19S404.36,368.16,403.76,369.94Z" style="fill:#cfcfcf;stroke:#263238;stroke-linecap:round;stroke-linejoin:round"></path><path d="M395.34,440.57a5.83,5.83,0,0,1,.34,1c.15.74.3,2.22.3,2.22a21.38,21.38,0,0,0,4.3.59c1.93,0,4.15-.14,4.15-.14s1.63-1.19-.44-4.6l-.36-.57L400,440.37Z" style="fill:#263238"></path><path d="M393.46,434.88a13.43,13.43,0,0,0,2.52.3,17,17,0,0,0,3-.44l-.67-1.63a5.27,5.27,0,0,1-2.37.44,9.15,9.15,0,0,0-2.52.15Z" style="fill:#263238"></path><polygon points="393.28 426.16 396.83 426.94 396.98 425.31 393.73 423.71 393.28 426.16" style="fill:#263238"></polygon><path d="M393.41,419.63a9.93,9.93,0,0,0,1.75.58c1.19.29,2.82.59,2.82.59l.59-1.33a12,12,0,0,1-3-.6l-1.78-.74Z" style="fill:#263238"></path><path d="M393.35,413.59a19.51,19.51,0,0,0,3.15,1.72,13.49,13.49,0,0,0,3.41.75l.74-1.49s-1.63-.44-3.71-.89a10.28,10.28,0,0,1-3.85-1.92Z" style="fill:#263238"></path><path d="M393.38,407a37.27,37.27,0,0,0,5.34,2.82,14.92,14.92,0,0,0,4,.59l.75-1.63s-5.19-1.48-6.38-1.78a16.08,16.08,0,0,1-3.71-2.37Z" style="fill:#263238"></path><path d="M395.31,396.63a37.66,37.66,0,0,0,5.34,5.64c2.22,1.63,5,1.78,5.34,2.22s1-1,1-1a29.24,29.24,0,0,1-5.19-3c-3.26-2.23-3.85-2.38-4.15-2.82S396.2,395,396.2,395Z" style="fill:#263238"></path><path d="M398.28,391.59s5.19,4.45,7,5.49a15.63,15.63,0,0,0,4.3,1.48l.75-1.93s-6.68-3.41-8.16-4.3a15,15,0,0,1-3.11-3Z" style="fill:#263238"></path><path d="M400.94,384.47s3.27,3.41,5.64,4.6,5.49,2.37,5.49,2.37l.29-1.93s-5.63-3-7.56-4.3-3.41-2.52-3.41-2.52Z" style="fill:#263238"></path><path d="M407,324.42s-10.74,3.5-15.67,14.35-6.51,33.34-6.51,33.34l1.38,36.7s7.89-12.43,8.48-24.46-1.58-35.52-.79-41.44,1.19-7.49,3-9.47a40.2,40.2,0,0,1,5.53-4.54Z" style="fill:none;stroke:#263238;stroke-linecap:round;stroke-linejoin:round"></path><path d="M384.84,372.11l1.38,36.7s7.89-12.43,8.48-24.46-1.58-35.52-.79-41.44a39,39,0,0,1,1.19-6.43,2.54,2.54,0,0,0-.5.33c-2.29,1.95-5,8.3-6.39,11.95A177.84,177.84,0,0,0,384.84,372.11Z" style="fill:#263238;stroke:#263238;stroke-linecap:round;stroke-linejoin:round"></path><path d="M476.2,376.46s2.78,14.25,4.91,20.64,2.95,16.06,2.95,20.81-2,13.93-1.47,15.57,2.31,4,2.47,5.17-.16,4.26.17,4.75,2.62,1,4.09,1a9.86,9.86,0,0,0,3.12-.66s-2-8.94-2.32-13.2.33-23.59-.49-30-3.93-21.31-4.26-22.94l-.32-1.64Z" style="fill:#cfcfcf;stroke:#263238;stroke-linecap:round;stroke-linejoin:round"></path><path d="M485.23,443.4c.33.49,2.62,1,4.09,1a9.86,9.86,0,0,0,3.12-.66s-.29-1.29-.65-3.09l-6.7.22A8,8,0,0,0,485.23,443.4Z" style="fill:#263238"></path><path d="M490.06,411.93c-.44,0-.89,0-1.38,0a28.7,28.7,0,0,0-4.86.58c.06.74.11,1.46.14,2.14l6.11-1C490.07,413,490.07,412.48,490.06,411.93Z" style="fill:#263238"></path><path d="M483.11,406.1l6.84-.79c0-.41,0-.8,0-1.19h-7.12C482.91,404.78,483,405.44,483.11,406.1Z" style="fill:#263238"></path><path d="M478.21,386c.19.81.38,1.64.57,2.47l8.35-2.11c-.09-.47-.18-.92-.27-1.37Z" style="fill:#263238"></path><path d="M480.11,393.71c.21.81.43,1.57.65,2.27l7.95-1.22c-.08-.47-.16-.94-.25-1.42Z" style="fill:#263238"></path><path d="M490,425.39h-2l-4.73.68c-.12.85-.23,1.68-.34,2.46l7.12-1.26Z" style="fill:#263238"></path><path d="M525.5,287.79s6.82-5.48,8.75-7.71,2.22-2.37,2.22.6-.44,8.15-2.37,9.78-6.82,3.27-6.82,3.27Z" style="fill:#fff;stroke:#263238;stroke-linecap:round;stroke-linejoin:round"></path><path d="M529.35,288.39s12.61,6.52,13.35,8.3,3.26,6.53,3.26,6.53,10.68,8.6,11.57,9.49,1.63,4.44,0,7.11-4.3,4.6-6.08,4.15-4.3-2.07-4.9-2.07-1.63-1.34-9-.89a37.77,37.77,0,0,1-13.79-1.93s-2.52,16.76-4.15,27.14a48,48,0,0,1-7,18.24c-.3.44-7,8.89-7.56,9.19s-1.49,2.37-1.49,2.37-3.11,14.09-4.89,20.32-4.6,22.83-4.3,26.54.74,10.38,1.93,12.16a44.66,44.66,0,0,0,4,4.83c.45.44,1.34,4,1.34,4a13.37,13.37,0,0,1-5.34,1.19c-3.41.14-5.34-.6-5.64-1.34s-.59-4.6-1-5.63-2.71-1.72-2.42-5.43.45-9,.6-16.31-1.34-24.61-3.27-30.25-2.52-7.71-2.52-7.71a112.08,112.08,0,0,1-24.61.45,105.2,105.2,0,0,1-21.8-4.75s-7.41,15.57-12.45,20.91-8.16,6.38-8.16,8.45-.3,12.31-.89,15.87-.75,11.52.88,14.19,1.78,3.85,3.26,4.45,2.37,5.19,2.37,5.19h-7.11c-1.93-2.23-2.82-4-2.82-4.45s-1-1.34-2.37-1.63.14-2.52.44-4.75-2.8-20.12-4.14-24.42-2.52-8.45-2.22-9.93,4.15-1.63,5.48-9.94-7.41-21.94-8.6-24.61-4.59-17.8-.14-30.4S423,318.93,426.6,319.08s13.64,3.71,19.72,6.67,12.45,5.19,18.38,2.52,10.68-5.18,13.05-5.18,11.42,2.37,12.61,1.63,2.81-1.93,2.07-3.86-3.85-2.22-3.85-2.22a59.77,59.77,0,0,1,9.64-18.83c6.82-8.6,13.34-13.65,20.75-14.68S529.35,288.39,529.35,288.39Z" style="fill:#fff;stroke:#263238;stroke-linecap:round;stroke-linejoin:round"></path><path d="M537.07,303.66a1.64,1.64,0,1,1-1.64-1.63A1.64,1.64,0,0,1,537.07,303.66Z" style="fill:#263238"></path><path d="M557.53,319.82c1.63-2.67.89-6.22,0-7.11-.35-.35-2.14-1.84-4.22-3.53-.41.14-.82.71-.08,2.64,1.18,3.11,1.93,4.89-2.08,5.93-2.71.7-5.29,2.22-6.34,3.59,1.08.27,1.47.56,1.74.56.6,0,3.12,1.63,4.9,2.07S555.9,322.49,557.53,319.82Z" style="fill:#263238"></path><path d="M520,285.27l.75-.29a17,17,0,0,0-1.79.15c-7.41,1-13.93,6.08-20.75,14.68a59.77,59.77,0,0,0-9.64,18.83,7.32,7.32,0,0,1,1.77.44,1.53,1.53,0,0,0,.3-.89c0-.89,1.34-2.37,1.34-2.37a1.56,1.56,0,0,1,.44-1.78l1.93-1.93s-.89.15.45-1.48,1.92-1.93,2.07-2.52.45-1.63.45-1.63-.15-.15.44-1.34.3-1.33,1-2.22-.15.15.74-.89a14.6,14.6,0,0,1,1.63-1.93l1.34-1.33s.89-1.34,1.33-1.93-.59-.74,1.19-1.78,2.67-1.48,2.67-1.48a30.85,30.85,0,0,0,2.66-2.52,7.51,7.51,0,0,1,1.49-1.49c.89-.74.29-.44,1.48-1.18a21.35,21.35,0,0,1,2.37-1.48c1.19-.6-.29,0,1.19-.6S518.53,285.87,520,285.27Z" style="fill:#263238;stroke:#263238;stroke-linecap:round;stroke-linejoin:round"></path><path d="M530.69,299.81a9.84,9.84,0,0,1-.59-5.19c.44-3,.74-4.16.74-4.16" style="fill:none;stroke:#263238;stroke-linecap:round;stroke-linejoin:round"></path><path d="M534,299.51a18,18,0,0,1-.15-3v-3.85" style="fill:none;stroke:#263238;stroke-linecap:round;stroke-linejoin:round"></path><path d="M537.07,299.81v-3.12a7.71,7.71,0,0,0-.45-2.82" style="fill:none;stroke:#263238;stroke-linecap:round;stroke-linejoin:round"></path><path d="M541.66,302a13,13,0,0,0-1.33-4l-.89-1.34" style="fill:none;stroke:#263238;stroke-linecap:round;stroke-linejoin:round"></path><path d="M542.11,305.74s.59,1.92-2.08,3.56-7.86,1.48-7.86,3.11.3,8,.3,8" style="fill:none;stroke:#263238;stroke-linecap:round;stroke-linejoin:round"></path><path d="M537.51,321s-.89-4,.15-5.64,3.71-.59,6.52-2.52,3.56-5.19,3.41-5.93" style="fill:none;stroke:#263238;stroke-linecap:round;stroke-linejoin:round"></path><path d="M550,308.55s.59,1.19-1.34,3.56a10.12,10.12,0,0,1-4.6,3.71c-1.92.89-2.07,3.85-2.07,3.85" style="fill:none;stroke:#263238;stroke-linecap:round;stroke-linejoin:round"></path><path d="M526.39,289.57s-3.12,2.38-2.52,5.49,3.71,5.49,4.74,8.75a16.32,16.32,0,0,1,0,8.9c-.59,2.37-.89,5.33,1.19,7.26" style="fill:none;stroke:#263238;stroke-linecap:round;stroke-linejoin:round"></path><path d="M519.86,289.43a121.53,121.53,0,0,0,7-10.68c1.93-3.71,3.27-5,3.86-2.08s2.37,7.42.89,9.79-2.82,4.75-5.19,5.19a46.35,46.35,0,0,0-4.75,1.19" style="fill:#fff;stroke:#263238;stroke-linecap:round;stroke-linejoin:round"></path><path d="M520.75,295.21s-2.52,3,1.34,9,1.33,7.42,2.07,11,2.08,4.44,2.08,4.44" style="fill:none;stroke:#263238;stroke-linecap:round;stroke-linejoin:round"></path><path d="M514.67,288.68s-1.77,6.68,1,12,5.79,10.23,6.53,13,1.48,5.34,1.48,5.34" style="fill:none;stroke:#263238;stroke-linecap:round;stroke-linejoin:round"></path><path d="M519.72,308.85a11.27,11.27,0,0,0-4-5.93c-3.11-2.22-5.78-3.86-6.37-6.23a5.54,5.54,0,0,0-1.63-3.11" style="fill:none;stroke:#263238;stroke-linecap:round;stroke-linejoin:round"></path><path d="M522.68,324.42s-3.26-5-5.34-6.82-5-3-9.63-9.94-4.9-8-4.9-8a72.42,72.42,0,0,0,2.52,8c.89,1.78,5.79,6.83,5.79,6.83a71.73,71.73,0,0,1-6.82-5.79,14.22,14.22,0,0,0-6.53-3.56S504.44,310,507,313s4.16,3.56,6.23,4.75a14.06,14.06,0,0,1,4.75,4.59c.74,1.34,4.45,4.75,4.45,4.75Z" style="fill:#263238"></path><path d="M496.29,309.89s6.52.59,9.34,5.19,7.27,13.64,9.64,17.2,5.34,7.26,5.34,7.26l-.3,2.08s-2.82-3.56-5.64-6.82-3.11-4.6-7.85-9.79-4.6-5.19-7-6.82-7.86-2.37-7.86-2.37l.44-1.78s.3-.3,2.38.15a16.45,16.45,0,0,1,5.19,1.93c1.48.89,7.56,6.82,7.56,6.82s-2.82-8.6-5-9.64-8.16-1.19-8.16-1.19Z" style="fill:#263238"></path><path d="M490.35,319.08s2.82,1,6.09,5,12.75,18.54,14.38,20.76,8.15,5,8.15,5l-.44,1.49a22.72,22.72,0,0,1-7-2.52c-3.26-1.93-7.26-8.16-8.9-11.27L501,334.5s5.34,11.87,6.68,16.46,2.52,5.64,3.41,6.53,3.41,3,3.41,3l-.6,1.93s-4-1.19-5.48-3.71A61.37,61.37,0,0,1,502.37,344c-2.37-8-4.9-11.41-6.08-14.38a43.64,43.64,0,0,0-3.56-6.52S493.76,321.15,490.35,319.08Z" style="fill:#263238"></path><path d="M488.13,324.57s2.52,13.19,2.67,20.16-4,16.17-6.82,20.76-4.15,7.42-3.56,8.75a11.13,11.13,0,0,1,.74,3.12s-2.07-7.86-.74-10.83,3.12-7.12,6.38-13.34,2.52-16.17,1.93-18.54-2.08-9.49-2.08-9.49Z" style="fill:#263238"></path><path d="M488.43,327.68s3.71,16.76,5.78,22.24,5.19,12.31,6.38,13.94a66.69,66.69,0,0,1,3.41,6.08l-.45,4.75s-4.74-7.27-6.52-10.23A51,51,0,0,1,492,352c-.74-3.56-2.08-9.64-2.08-9.64Z" style="fill:#263238"></path><path d="M482.35,324.12s1.48,5.34-2.37,23-8.9,20.76-8.9,23.72.74,4.3-.44,5.64a27.55,27.55,0,0,1-4.9,3.41l5.79-.15s2.07-2.08,2.37-3.26-2.82-1.64-.6-5.94S484,348.89,484.57,343.7s-.14-18.84-.14-18.84Z" style="fill:#263238"></path><path d="M476.57,323.68s1.92,5.93.59,9.93-8.75,12-8.75,17.35a49.38,49.38,0,0,1-2.07,15.27c-1.78,6.53-8.9,12.61-8.9,12.61h-2.08a86.49,86.49,0,0,0,7.86-11.57c3.56-6.37,3.12-14.83,3.41-16.31a90.68,90.68,0,0,1,6.82-15c2.52-4,.3-12,.3-12Z" style="fill:#263238"></path><path d="M469,327.39a11.1,11.1,0,0,1-1.33,4.3c-1.19,2.07-5.49,8.6-5.49,8.6a49.61,49.61,0,0,0-4.3-6.68,47.42,47.42,0,0,0-4-4.3l-1.93-.74a36.17,36.17,0,0,1,4.45,5.34c1.19,2.08,5.64,8,5.78,8.45s4.75-5.78,7.27-10.38,2.82-7.12,2.82-7.12Z" style="fill:#263238"></path><path d="M446.32,325.75s.29,4.3,4.45,11.72,7.56,10.38,6.08,13.34-3.41,6.68-3.41,11.27-.45,16.31-.45,16.31l-2.37-.44a49.33,49.33,0,0,0,1-10.23c.14-6.82-.89-7.71.29-10.53s4.45-5.78,3.56-8.45-7.26-11-8.3-14.39-3.41-9.49-3.41-9.49Z" style="fill:#263238"></path><path d="M434.46,321.45s2.07,8.16,4.44,11.27,7,12,6.53,15-1.78,8.45-.59,11.71,2.81,8.75,2.81,10.83-2.22,6.82-2.22,6.82l2.22.59a41.71,41.71,0,0,0,1.63-7.26c.15-2.52-2.52-9.79-2.67-15s1.64-6.52,1.49-9.64-6.68-12.16-6.68-14.53a38.87,38.87,0,0,1,1-6.67l-1.92-1.19a10.08,10.08,0,0,0-1.49,4.3,15.63,15.63,0,0,1-.15,2.67,73,73,0,0,1-2.37-7l-.29-1.63Z" style="fill:#263238"></path><path d="M408.8,323.38a84.22,84.22,0,0,0,9.49,1.48c4,.3,13.5,4.3,15.28,8s4.74,10.83,6.37,14.24,3.41,13.34,2.82,17.35-1.78,9.63-1.78,9.63l-.44,1.78-3.42-.74s3.56-5.93,3.86-11.71-3.71-17.05-5.93-22.1-2.67-5.93-5.34-8.6-8.75-3.56-12.31-4.59S407,324.42,407,324.42Z" style="fill:#263238"></path><path d="M400.35,331.69s12.16,2.81,16.76,4.89,13.49,13.34,13.49,13.34S438,361.79,438,364.46a46.63,46.63,0,0,1-.59,6.22s-3.26-11-5.63-16-13.64-15-17.2-16.61-7.71-2.52-9.2-3.26a44.29,44.29,0,0,0-6.22-1.78Z" style="fill:#263238"></path><path d="M397.53,343.1s4.45.74,13.65,6.38,12.3,6.82,17.2,11.12a25.86,25.86,0,0,1,6.67,9.34,21,21,0,0,1,1.33,2.67,27.84,27.84,0,0,0-10.52-11.86c-7.86-5-13.5-6.23-19.28-10.08s-9.19-6.53-9.19-6.53Z" style="fill:#263238"></path><path d="M398.42,358.82s-.74.45,9.94,4.3,10.38,4.89,16.46,5.19a19.27,19.27,0,0,1,10.38,3.86s-8.6-1.78-12.31-2.67-13.05-1.93-16.16-3.27a61.49,61.49,0,0,1-8.45-5.19Z" style="fill:#263238"></path><path d="M405.54,375.28a44.65,44.65,0,0,0,13,3.56c8,1,10.68.59,12.31,0a22,22,0,0,0,3-1.34,12.3,12.3,0,0,1-7.26,3.86c-4.75.74-9.79,1.63-9.79,1.63s-3.71-.15-4.74-.3-3.86-.59-3.86-.59l-.74-2.22s3.85,1.78,6.08,1.63,8.3-.6,8.3-.6-8.89-1.33-10.08-1.78-5-1.18-5-1.18Z" style="fill:#263238"></path><path d="M407.91,388s.6,1,7.57,1.48,10.23-.59,11-1a16.65,16.65,0,0,0,2.07-1.78s-2.22,3.7-3.26,4.45-5.63,3.7-7.56,3.85-9.93-.3-9.93-.3l-1.34-.59.89-1.63a27,27,0,0,0,4.75.3c3.26,0,4,.44,5.33.29s5.05-2.07,5.05-2.07-8.75.89-10.38.44-4.6-1.18-4.6-1.18Z" style="fill:#263238"></path><path d="M403.61,397.52a19.59,19.59,0,0,0,5.93,1c3.71.15,3.42.59,4.9.3s6.67-1.19,6.67-1.19-5.49,2.67-8.3,2.82a85.89,85.89,0,0,1-9.49-.15c-.45-.15-.6,0-.74-1.19A1.61,1.61,0,0,1,403.61,397.52Z" style="fill:#263238"></path><path d="M403.61,403.6a47.21,47.21,0,0,0,5.93.74,14.16,14.16,0,0,0,5.49-.89l.15,2.38a15.88,15.88,0,0,1-5.34.88,22.23,22.23,0,0,1-5.63-.74Z" style="fill:#263238"></path><path d="M405.39,411.16a48.08,48.08,0,0,0,5.34,1,10.61,10.61,0,0,0,4.15-.89l-.15,2.08a13.26,13.26,0,0,1-4.44.74,24.13,24.13,0,0,1-5.05-1.34Z" style="fill:#263238"></path><path d="M406.88,417.54a9.88,9.88,0,0,0,3.85.3c2.82-.15,3.86-1,3.86-1l-.15,1.63a4.88,4.88,0,0,1-2.52.89,25.71,25.71,0,0,1-5.34-.15Z" style="fill:#263238"></path><path d="M407.72,423.16s.64.16,2.57.46a6,6,0,0,0,3.44-.52v1.64a3.84,3.84,0,0,1-3,.81,20.23,20.23,0,0,0-2.86-.31Z" style="fill:#263238"></path><path d="M408.79,432.32s1.63-.15,2.22-.15,3.12-.14,3.12-.14,1.3,1.22.54,1.56c-2.18,1-6.62.36-6.62.36Z" style="fill:#263238"></path><path d="M411.31,439.88l-.07.08a19.6,19.6,0,0,0,2.3,3.19h7.11s-.89-4.6-2.37-5.19c-.12,0-.21-.11-.31-.16-1.19.55-2.38,1.13-2.8,1.34C414.28,439.59,411.31,439.44,411.31,439.88Z" style="fill:#263238"></path><path d="M482.05,378.39s2.67-6.52,6.23-8.15,6.82,0,10.38,2.82,4,5.19,4,5.19l-.14,1.48a49.29,49.29,0,0,0-6.82-5.64c-3.27-2.07-4.3-3.26-6.38-1.92s-5.78,9.19-5.78,9.19Z" style="fill:#263238"></path><path d="M483.83,383.14s4.75-3.56,7.12-3.71a28.47,28.47,0,0,1,9.19,1.93c.89.59,1.19,2.67,1.19,2.67l-.3,2.07s-4.59-4.74-7.41-4.89-9.05,4.89-9.05,4.89Z" style="fill:#263238"></path><path d="M485.76,390.55a38.52,38.52,0,0,1,7.56-1.63c3-.15,6.23,2.37,6.23,2.37l-.59,2.82s-2.08-3.41-5.34-3.11a24.13,24.13,0,0,0-7.12,2.22Z" style="fill:#263238"></path><path d="M487.09,399a28.54,28.54,0,0,1,5.79-1.18,14.54,14.54,0,0,1,4.89,1.48l-.89,2.82a4,4,0,0,0-4.15-2.23,21.65,21.65,0,0,0-5.64,1.78Z" style="fill:#263238"></path><path d="M487.39,407.31A14.59,14.59,0,0,1,491,407a39.7,39.7,0,0,1,5.34.45l-.3,2.37a33.86,33.86,0,0,0-4.3-.45c-1.63,0-4.3.15-4.3.15Z" style="fill:#263238"></path><polygon points="487.84 415.31 494.66 415.91 494.36 417.98 487.84 417.69 487.84 415.31" style="fill:#263238"></polygon><path d="M494.36,424.36a5.41,5.41,0,0,1-2.52.74c-1.33,0-3.86.3-3.86.3l-.59,2.67a40,40,0,0,1,4-.3,23.92,23.92,0,0,0,3.41-.3Z" style="fill:#263238"></path><path d="M490.46,442.53a6.79,6.79,0,0,0,.24,1.19c.3.74,2.23,1.48,5.64,1.34a13.37,13.37,0,0,0,5.34-1.19s-.89-3.56-1.34-4c0,0-7.56,1.78-9.49,2.52Z" style="fill:#263238;stroke:#263238;stroke-linecap:round;stroke-linejoin:round"></path></g><g id="freepik--Elephant--inject-76"><path d="M615.05,338.09s-5.75,9-9,27-7.48,55.12-10.22,61.62-.5,13.24-4.25,13.49-14.24,1-19.49.5-6.5-.5-5.5-3.25,6.5-14.49,6.5-14.49a218.3,218.3,0,0,0,2.23-42.13c-1-23.73.74-46.22,1.74-50.47S615.05,338.09,615.05,338.09Z" style="fill:#263238;stroke:#263238;stroke-linecap:round;stroke-linejoin:round"></path><path d="M478.13,256.39s5,11.74,7,18.24,4.75,18.73,4.75,18.73-1,39.23,2.74,55.72,13,56.22,13.25,59-4,21.89-4,21.89-5.25,7-7.75,8.24-2.49,3.25-2,4.5.25,2,11,2.75,24.23,0,26.23-2.25,2.75-3.5.75-8.75-3.75-4.24-4.25-10.24,2.23-37.88,2-47.63.5-27.48.75-33.23,1.25-14.24,3.5-14.49,10.24,3.25,10.24,3.25,41.73,7,50.47,6.25,21.74,5,23.24,9,8,43.23,8.25,53.47-2.56,19.36-2.06,22.86.75,6.25.75,6.25a75.16,75.16,0,0,0-4.5,8c-1,2.5-3,5.25.5,6.25s14.25,4.75,23.24,2,11.24-5.75,11.49-9.5S652,428.16,652,426.41s1.5-3,1.75-9.25-2.69-32.1-1.19-43.34,11.74-36,16.24-46.73,26.23-36,26.23-68.7-1-42.73-29.23-65.47-31.48-37.47-73.95-39.47-51,8.24-67.71,10.49-23.24,2-24.24,2-13,13.74-12.74,34.73,2.25,35.48-.75,41.47S478.13,256.39,478.13,256.39Z" style="fill:#cfcfcf;stroke:#263238;stroke-linecap:round;stroke-linejoin:round"></path><path d="M574.33,247.39s8,11.49,7.24,29.73" style="fill:none;stroke:#263238;stroke-linecap:round;stroke-linejoin:round"></path><path d="M585.25,285.14c-.27,1.54-.57,3.05-.93,4.48" style="fill:none;stroke:#263238;stroke-linecap:round;stroke-linejoin:round"></path><path d="M586.82,262.88A152.91,152.91,0,0,1,586,280" style="fill:none;stroke:#263238;stroke-linecap:round;stroke-linejoin:round"></path><path d="M625.49,430.16a27.38,27.38,0,0,0,8.49-.5" style="fill:none;stroke:#263238;stroke-linecap:round;stroke-linejoin:round"></path><path d="M638.73,433.15s-9.24,4.25-16-.5" style="fill:none;stroke:#263238;stroke-linecap:round;stroke-linejoin:round"></path><path d="M504.14,431.44s3,2,8.24,1.25" style="fill:none;stroke:#263238;stroke-linecap:round;stroke-linejoin:round"></path><path d="M506.14,426.94s4,3.5,8.24,3.25" style="fill:none;stroke:#263238;stroke-linecap:round;stroke-linejoin:round"></path><path d="M613.37,329.54a36.46,36.46,0,0,1-5.56,2" style="fill:none;stroke:#263238;stroke-linecap:round;stroke-linejoin:round"></path><path d="M638.79,310.6s-10.46,10.94-22.2,17.33" style="fill:none;stroke:#263238;stroke-linecap:round;stroke-linejoin:round"></path><path d="M658.53,257.64s-6.75,34-13,45" style="fill:none;stroke:#263238;stroke-linecap:round;stroke-linejoin:round"></path><path d="M485.88,257.64s12.44,9.93,22.95,3.41" style="fill:none;stroke:#263238;stroke-linecap:round;stroke-linejoin:round"></path><path d="M512.86,280.37s7.75,18,16,28,13.49,23.73,13.49,23.73,5.75,36.73,10.25,50.22,8.77,40.88,8.77,43.13-4.75,11-4.75,11-3.5,5.75-2,6.5,5.75,2.75,17.74,3.5,18.49-.25,19.24-6.25-5.25-13.74-6.25-17.74-.77-40.38-.77-52.87,5.75-27.23,3-44-5-21-5-21-1.5-15.49-4-29.73-5.49-19-10.24-23" style="fill:#cfcfcf;stroke:#263238;stroke-linecap:round;stroke-linejoin:round"></path><path d="M514.64,268.25c.46,6.29,1.53,17.56,3.47,21.62" style="fill:none;stroke:#263238;stroke-linecap:round;stroke-linejoin:round"></path><path d="M514.36,263.88s0,.67.11,1.81" style="fill:none;stroke:#263238;stroke-linecap:round;stroke-linejoin:round"></path><path d="M563.1,427.94s9.5,3,14.25,2" style="fill:none;stroke:#263238;stroke-linecap:round;stroke-linejoin:round"></path><path d="M579.59,432.69s-8.24,1-13-.25" style="fill:none;stroke:#263238;stroke-linecap:round;stroke-linejoin:round"></path><path d="M450.9,154s-32.73,28-34.73,34.23-1,23.48-1,23.48-13,12.5-37.23,23.49-33.48,12.24-38.22,12.49-16.24,3-19.49,6.75a18.85,18.85,0,0,0-4,6.49s-5.75,1.25-5.75,3,3,4.5,5,6.25,2.5,5,6.5,1a26,26,0,0,0,5.49-7.75,27.59,27.59,0,0,1,14.74-3.75c8,.5,38,2.75,52.72-2s36.48-11.75,40.73-14.5,10.74-6,10.74-6a48,48,0,0,1-2.75,15.24c-2.74,7-6.49,14.24-4,13.74s3.49-4.5,9.74-8.49,1.25-5.25,14.24-1.75,15.24,3,22.24,1.75,12-6,13.49-10.75a40.21,40.21,0,0,0,1.75-8.49s5.75,8,9.49,5.24,9.75-10.74,12.5-14.49,17.49-3.5,21.48-4.74,5.75-5.25,3.5-11.5-6-28-16-37.48-26.73-8.24-27.48-9.24-3.75-8.74-21.24-15S450.9,154,450.9,154Z" style="fill:#cfcfcf;stroke:#263238;stroke-linecap:round;stroke-linejoin:round"></path><path d="M501.12,238.4s-10.74-24.49-9.74-37.48" style="fill:none;stroke:#263238;stroke-linecap:round;stroke-linejoin:round"></path><path d="M481.29,222.65c-2.33,1.15-4.16,2-4.16,2" style="fill:none;stroke:#263238;stroke-linecap:round;stroke-linejoin:round"></path><path d="M492.62,214.16s.5,2-3.24,4.25c-1,.58-2.24,1.27-3.61,2" style="fill:none;stroke:#263238;stroke-linecap:round;stroke-linejoin:round"></path><line x1="504.62" y1="166.19" x2="496.12" y2="165.69" style="fill:none;stroke:#263238;stroke-linecap:round;stroke-linejoin:round"></line><path d="M500.12,174.44s23.74.74,27.73,4,17,33.73,17.49,36.48.75,5.25-1.75,6" style="fill:none;stroke:#263238;stroke-linecap:round;stroke-linejoin:round"></path><path d="M453.15,191.18s2.5-4.75,6-4.25,6.5,9.24,6.5,9.24" style="fill:none;stroke:#263238;stroke-linecap:round;stroke-linejoin:round"></path><path d="M451.4,206.42s6,9.49,15.24,4" style="fill:none;stroke:#263238;stroke-linecap:round;stroke-linejoin:round"></path><path d="M458.89,200c0,1.87-1,3.38-2.24,3.38s-2.25-1.51-2.25-3.38,1-3.37,2.25-3.37S458.89,198.18,458.89,200Z" style="fill:#263238"></path><path d="M440.91,261.88s10.49-16.49,11.74-19.74,1.5-18.48,1.5-18.48-1,4.74-1.75,7.74-6,5.75-6,5.75a48,48,0,0,1-2.75,15.24c-1.56,4-3.44,8-4.32,10.7Z" style="fill:#263238;stroke:#263238;stroke-linecap:round;stroke-linejoin:round"></path><line x1="452.15" y1="221.66" x2="457.4" y2="223.66" style="fill:none;stroke:#263238;stroke-linecap:round;stroke-linejoin:round"></line></g><g id="freepik--Fence--inject-76"><polyline points="14.71 324.71 78.37 324.71 78.37 308.21 14.71 308.21" style="fill:#fff;stroke:#263238;stroke-linecap:round;stroke-linejoin:round"></polyline><polyline points="14.71 376.58 78.37 376.58 78.37 360.08 14.71 360.08" style="fill:#fff;stroke:#263238;stroke-linecap:round;stroke-linejoin:round"></polyline><path d="M522.64,328.83c31.2,0,62.21,2.15,77.75,3.4s106.94-1.36,106.94-1.36v-17s-85.82,4.08-107.9,3.4-44.16-6.12-72-5.44c-23,.56-59.6,2.51-81.72,2,.45-6.94.9-13.46.9-13.46s-4.68-.66-6.84-.66a32,32,0,0,0-6.47,1.32,24.94,24.94,0,0,1-.36,4.64c-.1.3-.18,3.27-.23,7.37-18.15-1.88-53.92-.84-66.56-.56-12.91.28-142.08-.68-142.08-.68v16.32s67.2-1.36,85.44,0,85.94,1.92,108.48,3.4c4,.26,9,.34,14.6.3,0,4.51,0,8.07,0,9,0,3,0,13.26-1.44,21.54a46.27,46.27,0,0,0-.54,6.7c-18.68-1.6-52.28-.63-64.45-.36-12.91.28-142.08-.68-142.08-.68v16.32s67.2-1.36,85.44,0,85.94,1.92,108.48,3.4c3.78.24,8.36.33,13.51.31v56.18l14.75.33a85.44,85.44,0,0,1-1.44-9.95c0-2.66-.72-22.54-1.08-25.85-.18-1.63,0-11.28,0-20.93,24.78-.71,56.76-2.81,78.86-2.81,31.2,0,62.21,2.15,77.75,3.4s106.94-1.36,106.94-1.36v-17s-85.82,4.08-107.9,3.4-44.16-6.12-72-5.44c-23.67.58-61.89,2.63-83.74,2a14.54,14.54,0,0,0-.32-3.33c-.86-1.87,1-27.65,1.38-35.07C469.4,330.88,500.83,328.83,522.64,328.83Z" style="fill:#fff"></path><polygon points="447.65 370.24 448.31 387.34 443.78 387.84 443.7 370.01 447.65 370.24" style="fill:#263238;stroke:#263238;stroke-linecap:round;stroke-linejoin:round"></polygon><polygon points="449.94 314.38 449.94 331.19 444.76 331.61 445.72 313.86 449.94 314.38" style="fill:#263238;stroke:#263238;stroke-linecap:round;stroke-linejoin:round"></polygon><path d="M224.08,311.83s129.17,1,142.08.68,49.92-1.36,67.68.68,65.76-.68,93.6-1.36,49.91,4.76,72,5.44,107.9-3.4,107.9-3.4" style="fill:none;stroke:#263238;stroke-linecap:round;stroke-linejoin:round"></path><path d="M707.33,330.87s-91.39,2.61-106.94,1.36-46.55-3.4-77.75-3.4S440.53,333,418,331.55s-90.24-2-108.48-3.4-85.44,0-85.44,0" style="fill:none;stroke:#263238;stroke-linecap:round;stroke-linejoin:round"></path><path d="M224.08,368s129.17,1,142.08.68,49.92-1.36,67.68.68,65.76-.68,93.6-1.36,49.91,4.76,72,5.44,107.9-3.4,107.9-3.4" style="fill:none;stroke:#263238;stroke-linecap:round;stroke-linejoin:round"></path><line x1="692.39" y1="379.72" x2="667.86" y2="380.58" style="fill:none;stroke:#263238;stroke-linecap:round;stroke-linejoin:round"></line><line x1="700.57" y1="380.15" x2="695.84" y2="380.15" style="fill:none;stroke:#263238;stroke-linecap:round;stroke-linejoin:round"></line><path d="M707.33,387.07s-91.39,2.61-106.94,1.36-46.55-3.4-77.75-3.4-82.11,4.2-104.64,2.72-90.24-2-108.48-3.4-85.44,0-85.44,0" style="fill:none;stroke:#263238;stroke-linecap:round;stroke-linejoin:round"></path><path d="M431.51,444.29h14.58a89,89,0,0,1-1.27-9.67c0-2.66-.72-22.54-1.08-25.85s.59-40-.36-42.09,1.44-33.47,1.44-36.78,1.8-29.5,1.8-29.5-4.68-.66-6.84-.66a32,32,0,0,0-6.47,1.32,24.94,24.94,0,0,1-.36,4.64c-.36,1-.36,32.15-.36,35.13s0,13.26-1.44,21.54.36,23.2.36,23.2Z" style="fill:#fff;stroke:#263238;stroke-linecap:round;stroke-linejoin:round"></path><line x1="436.71" y1="300.28" x2="436.02" y2="307.42" style="fill:none;stroke:#263238;stroke-linecap:round;stroke-linejoin:round"></line><line x1="440.86" y1="303.27" x2="440.17" y2="313.64" style="fill:none;stroke:#263238;stroke-linecap:round;stroke-linejoin:round"></line><line x1="445.7" y1="319.86" x2="457.91" y2="320.09" style="fill:none;stroke:#263238;stroke-linecap:round;stroke-linejoin:round"></line><line x1="449.16" y1="324.24" x2="464.36" y2="324.47" style="fill:none;stroke:#263238;stroke-linecap:round;stroke-linejoin:round"></line><line x1="415.98" y1="377.69" x2="400.54" y2="377.69" style="fill:none;stroke:#263238;stroke-linecap:round;stroke-linejoin:round"></line><line x1="403.54" y1="382.3" x2="386.95" y2="382.76" style="fill:none;stroke:#263238;stroke-linecap:round;stroke-linejoin:round"></line><line x1="277.27" y1="323.09" x2="287.64" y2="322.86" style="fill:none;stroke:#263238;stroke-linecap:round;stroke-linejoin:round"></line><line x1="269.67" y1="321.25" x2="282.11" y2="321.48" style="fill:none;stroke:#263238;stroke-linecap:round;stroke-linejoin:round"></line><line x1="227.05" y1="380.69" x2="240.18" y2="380.23" style="fill:none;stroke:#263238;stroke-linecap:round;stroke-linejoin:round"></line><line x1="242.71" y1="380" x2="247.55" y2="380" style="fill:none;stroke:#263238;stroke-linecap:round;stroke-linejoin:round"></line></g><g id="freepik--Sign--inject-76"><rect x="78.33" y="82.71" width="7.84" height="361.86" style="fill:#fff;stroke:#263238;stroke-linecap:round;stroke-linejoin:round"></rect><rect x="222.26" y="82.71" width="7.84" height="361.86" style="fill:#fff;stroke:#263238;stroke-linecap:round;stroke-linejoin:round"></rect><path d="M226.77,153.79c-20.89-6.07-44.33-9.15-69.66-9.15a330.94,330.94,0,0,0-78,9.28l-9.59,2.62L66.78,147,47.91,79.57l9.62-2.7c1.79-.5,44.29-12.26,99.3-12.26,33,0,64,4.16,92.27,12.36l9.6,2.79-22.32,76.82Z" style="fill:#EC407A;stroke:#263238;stroke-linecap:round;stroke-linejoin:round"></path><path d="M76.41,144.28,60.24,86.5c3.86-1.08,95.51-26.24,186.07.07l-16.74,57.62C155.84,122.77,77.2,144.06,76.41,144.28Z" style="fill:#fff;stroke:#263238;stroke-linecap:round;stroke-linejoin:round"></path><path d="M112.6,97.37,99.43,99.09a7,7,0,0,1-.9-1.52,6.7,6.7,0,0,1-.6-2.1,4.12,4.12,0,0,1,.54-3.12,3.39,3.39,0,0,1,2.32-1.23l20-2.6a6.36,6.36,0,0,1,3,4.84,6.28,6.28,0,0,1-.27,2.73,12.16,12.16,0,0,1-1.26,2.69L112,115l13.71-1.79a7,7,0,0,1,.9,1.52,6.7,6.7,0,0,1,.6,2.1,4.12,4.12,0,0,1-.54,3.12,3.39,3.39,0,0,1-2.32,1.23L103.27,124a5.57,5.57,0,0,1-1.76-1.84,7,7,0,0,1-1-2.86,6.23,6.23,0,0,1,.34-2.82,14.31,14.31,0,0,1,1.33-2.79Z" style="fill:#263238"></path><path d="M129.37,104.05a19.68,19.68,0,0,1,1.18-7.47,15.09,15.09,0,0,1,8.86-8.92,20.46,20.46,0,0,1,13.44-.25,15.76,15.76,0,0,1,5.49,3.22A15.33,15.33,0,0,1,162.08,96a19.57,19.57,0,0,1,1.47,7.42,20.34,20.34,0,0,1-1.16,7.51,15.15,15.15,0,0,1-3.49,5.52,15.48,15.48,0,0,1-5.36,3.42,20.12,20.12,0,0,1-6.78,1.26,19.46,19.46,0,0,1-6.83-1,15.24,15.24,0,0,1-5.46-3.28,15.61,15.61,0,0,1-3.67-5.38A19.88,19.88,0,0,1,129.37,104.05Zm9.72-.18c.06,3.28.77,5.71,2.13,7.31a6.6,6.6,0,0,0,5.39,2.33A6.67,6.67,0,0,0,152,111q2-2.48,1.86-7.38c-.06-3.24-.77-5.66-2.11-7.26A6.53,6.53,0,0,0,146.3,94a6.65,6.65,0,0,0-5.32,2.5Q139,99,139.09,103.87Z" style="fill:#263238"></path><path d="M168.27,103.61a19.46,19.46,0,0,1,2.07-7.28,15.26,15.26,0,0,1,4.14-5,15.42,15.42,0,0,1,5.71-2.77,19.58,19.58,0,0,1,6.8-.45,19.35,19.35,0,0,1,6.57,1.8,15.51,15.51,0,0,1,5.07,3.85,15.28,15.28,0,0,1,3.08,5.76,19.66,19.66,0,0,1,.57,7.55,20.11,20.11,0,0,1-2,7.31,15,15,0,0,1-4.12,5.07,15.19,15.19,0,0,1-5.73,2.76,20,20,0,0,1-6.88.45,19.53,19.53,0,0,1-6.66-1.84,15.2,15.2,0,0,1-5-3.9,15.5,15.5,0,0,1-3-5.79A20,20,0,0,1,168.27,103.61Zm9.67,1c-.32,3.26.09,5.76,1.26,7.51a6.55,6.55,0,0,0,5.07,3,6.62,6.62,0,0,0,5.62-1.88c1.49-1.48,2.39-3.84,2.72-7.1s-.08-5.71-1.23-7.45a6.52,6.52,0,0,0-5.1-3,6.7,6.7,0,0,0-5.59,1.85Q178.44,99.7,177.94,104.59Z" style="fill:#263238"></path><path d="M64.17,100.18s8.49-1.63,14-2.61" style="fill:none;stroke:#263238;stroke-linecap:round;stroke-linejoin:round"></path><line x1="81.47" y1="97.57" x2="86.7" y2="96.91" style="fill:none;stroke:#263238;stroke-linecap:round;stroke-linejoin:round"></line><path d="M72.33,126.3s9.8-3.26,16.33-3.92" style="fill:none;stroke:#263238;stroke-linecap:round;stroke-linejoin:round"></path><path d="M236.91,119.12a86,86,0,0,0-14.7-3.27" style="fill:none;stroke:#263238;stroke-linecap:round;stroke-linejoin:round"></path><path d="M219,99.2s6.2,1,10.45,2" style="fill:none;stroke:#263238;stroke-linecap:round;stroke-linejoin:round"></path><line x1="213.72" y1="114.55" x2="218.95" y2="115.2" style="fill:none;stroke:#263238;stroke-linecap:round;stroke-linejoin:round"></line></g><g id="freepik--character-2--inject-76"><path d="M204.17,304.59a3.52,3.52,0,0,0,1.73-2.45c.29-1.73-.72-7.5-4.48-11.54s-16.15-3.61-20.19,1.29-2.89,13.28-1.3,15.44,4.9,5.77,4.9,5.77l-.57,5s1.29,1.3,5.62,1.3a46.12,46.12,0,0,1,7.5.58v-1s2.46.57,3.9-.72,3.9-5.78,3.75-8.95A14.09,14.09,0,0,0,204.17,304.59Z" style="fill:#fff;stroke:#263238;stroke-linecap:round;stroke-linejoin:round"></path><path d="M181.23,291.89c-4,4.91-2.89,13.28-1.3,15.44,1.33,1.81,3.86,4.63,4.65,5.5a25.81,25.81,0,0,0,6.17.13c3.32-.44,3.46-.72,3.89-1.73a32.62,32.62,0,0,0,.87-5.05s3.32-.87,3.75-1.59-.43-2.31-.43-2.31a24.5,24.5,0,0,1,3.32-1.59c1.87-.72.57-2,.57-2.88s.87-.75,2.14-1.48a17.1,17.1,0,0,0-3.44-5.73C197.67,286.56,185.27,287,181.23,291.89Z" style="fill:#263238;stroke:#263238;stroke-linecap:round;stroke-linejoin:round"></path><path d="M197.53,306.75s-1.44-4.18-2.74-1.87-1.3,6.92-.58,7.36a1.88,1.88,0,0,0,2.45-.58" style="fill:#fff;stroke:#263238;stroke-linecap:round;stroke-linejoin:round"></path><path d="M216.43,324.21l25.68-3.75,5.48-3.75s3.75-2.74,4.47-3.9,1.88,0,1.45,1.16-3.32,3.89-3.32,3.89a5.42,5.42,0,0,1,2.74,1.16,2.77,2.77,0,0,1,.29,3.17c-.58,1.3-.43,3.32-1.59,2.74s-.72-2.59-.72-2.59a5.22,5.22,0,0,1-2.89,1.87,59.65,59.65,0,0,1-6.34.72l-26.41,10Z" style="fill:#fff;stroke:#263238;stroke-linecap:round;stroke-linejoin:round"></path><path d="M171.85,400.68s-3.18,4.18-3.9,7.79-3.35,22.69-3.35,22.69-2.89,9.38-2.17,9.82a10.87,10.87,0,0,0,5.63,1.87c2.74,0,2.89,1.44,4.62,1.3,3.45-.29,5.77.29,6.49-.87s-1.59-2.16-3-3.89-4.76-5.48-4.91-7.22,8.41-21.25,9-24.28,1.29-6.06,1.29-6.06Z" style="fill:#fff;stroke:#263238;stroke-linecap:round;stroke-linejoin:round"></path><path d="M162.43,441a10.87,10.87,0,0,0,5.63,1.87c2.74,0,2.89,1.44,4.62,1.3,3.45-.29,5.77.29,6.49-.87s-1.59-2.16-3-3.89-4.76-5.48-4.91-7.22l-1.29,2.31s-4.33-2-5.34-3.32C164.6,431.16,161.71,440.54,162.43,441Z" style="fill:#fff;stroke:#263238;stroke-linecap:round;stroke-linejoin:round"></path><path d="M188.15,404.57s0,.43,0,1a12.47,12.47,0,0,1-.17,2.73c-.29,1.16-2,3.75-1.88,7.79s-1.35,16.76-1.35,16.76c-.43,2.31-1,3.9-1.3,5.63s-1.15,5.62-.29,5.91a60.08,60.08,0,0,0,11.4,1c5.19,0,8.22,0,8.8-1.15s-2.74-2.89-2.74-2.89-4.33-3.32-5.77-5.48-2.17-3-2.17-3,4.67-11.71,5-17.48,1-11.25,1-11.25Z" style="fill:#fff;stroke:#263238;stroke-linecap:round;stroke-linejoin:round"></path><path d="M183.19,444.41a60.08,60.08,0,0,0,11.4,1c5.19,0,8.22,0,8.8-1.15s-2.74-2.89-2.74-2.89-4.33-3.32-5.77-5.48-2.17-3-2.17-3-1,1.16-1,1.73a13,13,0,0,1-.29,1.88s-.43.43-2.16-.58-2.74-3-4.47-3c-.43,2.31-1,3.9-1.3,5.63S182.33,444.12,183.19,444.41Z" style="fill:#fff;stroke:#263238;stroke-linecap:round;stroke-linejoin:round"></path><path d="M204.45,372.83s.73,16.59,1.3,22.36.87,10.54.87,10.54a97.73,97.73,0,0,1-10.39,1.15,83.9,83.9,0,0,1-12.12-1.15l-.29-2.6s-2.16,1.87-5.91.72-9.52-2.16-9.52-2.16.72-13.71,1.15-15.3,3.9-5.05,3.9-5.05l-.15-9.23S193.06,376.73,204.45,372.83Z" style="fill:#263238;stroke:#263238;stroke-linecap:round;stroke-linejoin:round"></path><path d="M183.82,403.13s-.72-17.31-1-20.2a16.24,16.24,0,0,0-1.73-5.48" style="fill:none;stroke:#fff;stroke-linecap:round;stroke-linejoin:round"></path><path d="M164.72,343.88s-.32,3.7-.32,4.66,1,4.5,3.38,4.5,5.14-1.61,5.78-5.46,1.45-5.95.81-6.43S164.72,343.88,164.72,343.88Z" style="fill:#fff;stroke:#263238;stroke-linecap:round;stroke-linejoin:round"></path><path d="M199.4,320.75a19.72,19.72,0,0,0-3.75-2c-1.15-.29-11.54-1.88-12.69-1.88s-1.73,1.45-1.88,1.88-.86.86-.86.86-9.67,4.62-9.67,5.78-7.5,19.18-7.5,19.18a10.19,10.19,0,0,0,3.17,3,18.5,18.5,0,0,0,4.47,1.59c.44,0,2.89.58,2.89.58s-1.44,7.21-1.88,9.52.15,13.71.15,13.71a89.46,89.46,0,0,0,16.73,4.32c8.8,1.3,19-3.17,19-3.17s-3.9-11.83-3.9-13.85,1.16-21.21,1.16-21.21l10.24,1.3s3.46-9.95,3.46-12.12a32,32,0,0,0-.57-5.05l-4.48.15Z" style="fill:#EC407A;stroke:#263238;stroke-linecap:round;stroke-linejoin:round"></path><path d="M202,339.11c.95.16,1.59.25,1.59.25" style="fill:none;stroke:#263238;stroke-linecap:round;stroke-linejoin:round"></path><path d="M190.46,332.72s2.31,3.9,5.19,4.91a30.94,30.94,0,0,0,3.22.87" style="fill:none;stroke:#263238;stroke-linecap:round;stroke-linejoin:round"></path><path d="M179.36,352.88c-.32,1.23-.55,2.05-.59,2.21" style="fill:none;stroke:#263238;stroke-linecap:round;stroke-linejoin:round"></path><path d="M185.84,324.5s-3.32,8.22-3.75,14.28a79.3,79.3,0,0,1-2.1,11.61" style="fill:none;stroke:#263238;stroke-linecap:round;stroke-linejoin:round"></path><path d="M173.58,349.75a41.55,41.55,0,0,1-1.44-10.68,103,103,0,0,1,1.3-11.83" style="fill:none;stroke:#263238;stroke-linecap:round;stroke-linejoin:round"></path></g><g id="freepik--character-1--inject-76"><path d="M105.18,431.94s2,2.65,3.27,4.16,6.17,4.41,6.42,5.29.63,2.26-.25,2.52,0,.25-.88.25H94.22a17.42,17.42,0,0,1,.13-5.79A43,43,0,0,1,96,433.2Z" style="fill:#fff;stroke:#263238;stroke-linecap:round;stroke-linejoin:round"></path><path d="M94.22,444.16h19.52c.88,0,0,0,.88-.25.51-.15.59-.68.53-1.26H94.07C94.13,443.55,94.22,444.16,94.22,444.16Z" style="fill:#fff;stroke:#263238;stroke-linecap:round;stroke-linejoin:round"></path><path d="M129.35,431.32a14.48,14.48,0,0,0,3.15,3.52c1.63,1.13,8.18,4.28,9.06,4.66s2.14.5,1.64,1.76-4.91,2.39-8.18,2.9-21.28,0-21.28,0-.38.38-.38-3.28a24.91,24.91,0,0,1,.88-6.54s7.43-2.4,8.81-3S129.35,431.32,129.35,431.32Z" style="fill:#fff;stroke:#263238;stroke-linecap:round;stroke-linejoin:round"></path><path d="M142.53,439.86a15.46,15.46,0,0,1-6.76,2.79c-3.62.65-18.58-.4-22.4-.69.07,2.49.37,2.2.37,2.2s18,.5,21.28,0,7.68-1.64,8.18-2.9C143.53,440.44,143.1,440.1,142.53,439.86Z" style="fill:#fff;stroke:#263238;stroke-linecap:round;stroke-linejoin:round"></path><rect x="128.72" y="212.62" width="14.48" height="8.06" style="fill:#263238;stroke:#263238;stroke-linecap:round;stroke-linejoin:round"></rect><path d="M135.14,221.06s3.9,2.26,4.91,3.52,1.76,1.51,3.53,2.65l1.76,1.13,3,19.14,2.52,15.1s7.05,3.4,8.69,2.65,3-6.42,2.26-11.58S151.76,229,151.13,227.6s-1-2.26-1-2.26.38-6.42.38-8.31,0-2.9-1.26-3.4-2.77-.76-3.4-1.26-1.89-2.14-2.89-1.64a5.58,5.58,0,0,0-1.77,1.64l-.5,8.31Z" style="fill:#fff;stroke:#263238;stroke-linecap:round;stroke-linejoin:round"></path><path d="M122.42,211.87a28.18,28.18,0,0,1,4.16-1.26c.76,0,3.78.63,4.41.63s2.64,0,1.88.75a3.87,3.87,0,0,1-2.77.76c-.75,0-3.77.5-3.77.5s-3.65,3.78-3.65,4.66,2.89,3.4,3.77,3.52,2.77-.75,3.91-.75,3.27.38,3,.88-1.51.38-2.77.88-3.4,1.76-4.79,2.52-5.66-.13-6.67-.76-6.17,4.66-6.17,4.66L110.09,230l-.51-9.07s5.54-.38,6.93-2.64S122.42,211.87,122.42,211.87Z" style="fill:#fff;stroke:#263238;stroke-linecap:round;stroke-linejoin:round"></path><path d="M95,228.11s-9.32,2.64-12.34,7.8-2.9,12-1.13,18.89,7.42,36.64,7.42,36.64-2.26,15.23-2.39,23A108.43,108.43,0,0,0,88.18,332s1.38,32.86,1.89,42,3.27,35.63,3.9,40.16,1,11.71,1,11.71-1.51,1-1.39,2.27,1.77,6.54,1.77,6.54a16.52,16.52,0,0,0,4.15.13c1.89-.25,7.18-1.51,7.18-1.51a11.12,11.12,0,0,0,0-3.65c-.38-1.39-.88-1.39-1-2.77S109,372.77,109,372.77l2.77-21.28s1.51,15.36,1.51,25.56-1,19-.37,27.2,1.13,25.3,1.13,25.68.25,4.41.25,4.41a23.82,23.82,0,0,0,7.43,1.13c3.15-.25,7.68-4.15,7.68-4.15a39,39,0,0,0-1.13-4c-.51-1.26-1-1.39-1-2.52s5-37.14,5.41-39.91S136.27,346,136.27,346s1-25.93,1.14-26.44.5-4.78.5-4.78-2-29.09-2.52-33.11-2.14-17.88-2.14-17.88l12.47,8.68s8.68-5.28,9.06-11.07a60.2,60.2,0,0,0-.25-10.58s-10.2-5-12.46-6.42-9.32-8.81-10.33-9.44-14-4-14-4-8.57.25-12.59-.88A84.42,84.42,0,0,0,95,228.11Z" style="fill:#263238;stroke:#263238;stroke-linecap:round;stroke-linejoin:round"></path><path d="M154.78,261.35a60.2,60.2,0,0,0-.25-10.58s-10.2-5-12.46-6.42-9.32-8.81-10.33-9.44-14-4-14-4-8.57.25-12.59-.88A84.42,84.42,0,0,0,95,228.11s-9.32,2.64-12.34,7.8-2.9,12-1.13,18.89,7.42,36.64,7.42,36.64-1.31,8.83-2,16.49c4.82,2,13.93,4.59,26.42,3.53a55.37,55.37,0,0,0,23.78-7.57c-.62-8.72-1.45-19.89-1.75-22.27-.5-4-2.14-17.88-2.14-17.88l12.47,8.68S154.4,267.14,154.78,261.35Z" style="fill:#EC407A;stroke:#263238;stroke-linecap:round;stroke-linejoin:round"></path><path d="M122.3,195.88s1.38,2.77,1,4.28-1.51,4.28-1.26,5,3.14,3.65,2.64,5.16-2.64,3-2.64,3a39.26,39.26,0,0,1-1,6.42c-.76,2.77-1.89,3.77-2.9,3.77h-4.91l.13,3.91s.88,1.76-6.17,1.26-8.81-2.65-8.81-2.65l.37-14.85s-.62-4.16-.88-8.82,11.33-7.43,14.23-8.18S122.3,195.88,122.3,195.88Z" style="fill:#fff;stroke:#263238;stroke-linecap:round;stroke-linejoin:round"></path><path d="M124.82,191.09s-.63,4.16-2.65,6a13,13,0,0,1-4.28,2.65s1.51,2,1.14,2.77a11.64,11.64,0,0,1-2,2.14s.25,3.52-.75,4.15-4.54,2.65-4.66.76-1.51-4-3.15-2.9-2.77,5.42-1.76,6.93,4.53,2.77,4.53,2.77-3.15,1.76-5.29,3.27-5,1.26-6.29.25-4.41-10.57-7.56-15.73-.63-10.08,2.9-14.74,16.87-4.53,20.27-3.65S124.82,191.09,124.82,191.09Z" style="fill:#263238;stroke:#263238;stroke-linecap:round;stroke-linejoin:round"></path><path d="M96,223.07s.38,2.14,7.69,3.27,9.94.13,10.7-.12S120,231,120,231s-1.26,0-5.91,2-9.83,1.51-14.74-.38a38.51,38.51,0,0,1-6.79-3.15l.48-.91Z" style="fill:#EC407A;stroke:#263238;stroke-linecap:round;stroke-linejoin:round"></path><path d="M87.42,231.38s17.76,39.28,28.08,51.37,14.23,16,14.23,16,5.79,10.32,7.17,12.84,1.39,2.9,2.14,2.52,4-3.15,4.54-8.56-1.64-8.44-3.65-9.7a16.51,16.51,0,0,0-3.15-1.63,22.38,22.38,0,0,1-6.05-1.14,31.87,31.87,0,0,1-3.77-1.63,65.91,65.91,0,0,1-15.24-18.76C105.43,261,93,235.79,91.7,234a12.92,12.92,0,0,1-1.76-4.15Z" style="fill:#263238;stroke:#263238;stroke-linecap:round;stroke-linejoin:round"></path><path d="M122.3,246s.38,5.28,2.39,8.43,8.56,9.32,8.56,9.32" style="fill:none;stroke:#263238;stroke-linecap:round;stroke-linejoin:round"></path><path d="M119.53,251.4s1.38,3.78,6.29,7" style="fill:none;stroke:#263238;stroke-linecap:round;stroke-linejoin:round"></path><path d="M94.6,294.46s19,6.8,28.08,6.29" style="fill:none;stroke:#263238;stroke-linecap:round;stroke-linejoin:round"></path><path d="M106.31,301.89s8.56,1.76,15.86.63" style="fill:none;stroke:#263238;stroke-linecap:round;stroke-linejoin:round"></path><polyline points="111.85 349.35 109.58 332.99 99.38 329.08" style="fill:none;stroke:#fff;stroke-linecap:round;stroke-linejoin:round"></polyline></g><g id="freepik--Plant--inject-76"><path d="M43,402.63a15.69,15.69,0,0,0,5.48.07c0,1.11,0,2.28.08,3.5a29.68,29.68,0,0,0,.8,5.27.14.14,0,0,0,0,.06c-.3-.49-1.18-1.81-1.26-1.91-1.11-1.33-4.05-3.24-5.85-2.51a2.3,2.3,0,0,0-1.07,3.25,4.81,4.81,0,0,0,3.49,2,16,16,0,0,0,4.75-.67,40.11,40.11,0,0,0,1.77,5.14c.4,1,.84,1.94,1.29,2.91-.27-.41-.52-.77-.56-.82-1.11-1.33-4-3.25-5.85-2.51A2.29,2.29,0,0,0,45,419.7a4.81,4.81,0,0,0,3.49,2,15.13,15.13,0,0,0,4.62-.64c.17.37.34.74.52,1.11.86,1.77,1.72,3.53,2.51,5.29.28.61.53,1.23.79,1.85-.25-.36-.45-.67-.49-.71-1.11-1.33-4-3.25-5.85-2.52a2.31,2.31,0,0,0-1.07,3.26,4.81,4.81,0,0,0,3.49,2,14.52,14.52,0,0,0,4.49-.61c.24.64.49,1.28.69,1.92.13.43.29.84.39,1.28s.23.88.34,1.3c.19.84.39,1.7.55,2.51.12.57.22,1.12.32,1.66-.27-.62-.83-1.82-.88-1.91-.9-1.48-3.52-3.82-5.41-3.37a2.3,2.3,0,0,0-1.55,3.05,4.8,4.8,0,0,0,3.15,2.55,16.2,16.2,0,0,0,4.76.06c.17.9.32,1.78.46,2.62q.15.94.27,1.83l1.22,0c-.11-.65-.23-1.33-.36-2.05-.17-.92-.36-1.9-.57-2.9a26.62,26.62,0,0,0,2.68-1.21,16.87,16.87,0,0,0,3.83,2.56c-.36.85-.72,1.67-1.07,2.44l-.56,1.22,1.28,0,.34-.78c.37-.86.74-1.78,1.12-2.74a15.73,15.73,0,0,0,4.75.44,4.76,4.76,0,0,0,3.39-2.19,2.29,2.29,0,0,0-1.22-3.2c-1.83-.65-4.67,1.4-5.73,2.78-.06.08-.63,1-1,1.65.16-.39.31-.77.46-1.17.31-.8.59-1.6.9-2.47.13-.42.27-.85.4-1.28s.24-.89.37-1.34c.27-1.05.49-2.12.68-3.21A15,15,0,0,0,76,432a4.88,4.88,0,0,0,3.69-1.66A2.3,2.3,0,0,0,79,427c-1.71-.92-4.83.68-6.08,1.88-.08.08-.88,1-1.31,1.58.12-.65.23-1.31.33-2,.26-1.93.48-3.88.7-5.83.06-.6.14-1.19.21-1.79A15.9,15.9,0,0,0,77.46,422a4.81,4.81,0,0,0,3.69-1.66,2.3,2.3,0,0,0-.73-3.35c-1.71-.92-4.83.68-6.08,1.88-.09.09-1.24,1.49-1.52,1.85.16-1.31.33-2.61.55-3.89a41.12,41.12,0,0,1,1.2-5.12,16.16,16.16,0,0,0,4.67,1.18,4.78,4.78,0,0,0,3.69-1.66,2.29,2.29,0,0,0-.72-3.35c-1.71-.92-4.83.68-6.08,1.88-.08.08-1,1.14-1.36,1.66l-.1-.06a29.57,29.57,0,0,1,2.11-4.84c.46-.86.94-1.65,1.43-2.42a15.15,15.15,0,0,0,4.41,1.63,4.79,4.79,0,0,0,3.85-1.24,2.3,2.3,0,0,0-.35-3.41c-1.6-1.1-4.88.15-6.25,1.21l-.77.73c0-.08,0-.17,0-.28l.16-.25c.84-1.21,1.67-2.27,2.42-3.2.43-.53.83-1,1.21-1.43a15.19,15.19,0,0,0,4.64-.59,4.8,4.8,0,0,0,2.85-2.88,2.3,2.3,0,0,0-1.88-2.86c-1.93-.23-4.27,2.38-5,3.95-.06.14-.8,2.38-.77,2.38h0l-1.19,1.35c-.76.91-1.62,1.95-2.47,3.14,0-1.87-.26-5.76-2.73-6-3.25-.36-4.24,3.35-2.25,5.39a5.91,5.91,0,0,0,4.25,1.66c-.64.93-1.28,1.92-1.89,3a29.93,29.93,0,0,0-2.24,4.84s0,0,0,.06c0-.57,0-2.16,0-2.29-.2-1.72-1.59-4.94-3.5-5.32a2.29,2.29,0,0,0-2.68,2.12,4.8,4.8,0,0,0,1.79,3.63,16,16,0,0,0,4.33,2.06,39.71,39.71,0,0,0-1.36,5.26c-.21,1-.38,2.09-.53,3.14,0-.49,0-.93,0-1-.2-1.73-1.59-4.94-3.5-5.33a2.31,2.31,0,0,0-2.69,2.13,4.81,4.81,0,0,0,1.79,3.62,15.12,15.12,0,0,0,4.2,2c0,.4-.12.81-.17,1.22-.26,1.94-.52,3.89-.82,5.79-.11.66-.24,1.32-.37,2,0-.44,0-.81,0-.87-.2-1.72-1.59-4.94-3.5-5.32a2.3,2.3,0,0,0-2.69,2.12,4.81,4.81,0,0,0,1.8,3.63,14.54,14.54,0,0,0,4.07,2c-.15.67-.3,1.34-.48,2-.13.44-.23.86-.38,1.29s-.29.85-.43,1.27c-.31.8-.62,1.63-.93,2.4-.22.54-.44,1-.65,1.56.11-.67.31-2,.32-2.09a8.93,8.93,0,0,0-1.14-4.36,2.18,2.18,0,0,0,0-.51,2.29,2.29,0,0,0-2.78-2c-1.89.47-3.13,3.75-3.25,5.48,0,.1.05,1.22.09,1.92-.09-.41-.17-.81-.26-1.23-.19-.83-.4-1.66-.62-2.55-.12-.42-.24-.85-.37-1.29s-.29-.88-.43-1.32c-.36-1-.77-2-1.2-3.06a15.1,15.1,0,0,0,4.35-1.55,4.8,4.8,0,0,0,2.17-3.42,2.31,2.31,0,0,0-2.45-2.4c-1.94.19-3.66,3.24-4,4.93,0,.11-.15,1.35-.21,2-.27-.61-.54-1.22-.83-1.82-.83-1.76-1.73-3.51-2.63-5.25l-.8-1.61a16.1,16.1,0,0,0,4.51-1.59,4.83,4.83,0,0,0,2.17-3.42,2.31,2.31,0,0,0-2.45-2.4c-1.94.18-3.66,3.24-4,4.93,0,.13-.22,1.92-.24,2.38-.59-1.18-1.17-2.36-1.69-3.55a39.29,39.29,0,0,1-1.82-4.93c.12,0,3.34-.71,4.54-1.6a4.78,4.78,0,0,0,2.16-3.42,2.3,2.3,0,0,0-2.45-2.39c-1.93.18-3.66,3.23-4,4.93,0,.11-.17,1.48-.23,2.13h-.11a30.33,30.33,0,0,1-.91-5.21c-.09-1-.13-1.9-.14-2.8a15.77,15.77,0,0,0,4.58-1.08,4.83,4.83,0,0,0,2.53-3.16,2.31,2.31,0,0,0-2.17-2.65c-2,0-4,2.81-4.56,4.46,0,.09-.24,1-.38,1.72,0-.41,0-.83,0-1.22,0-1.47.14-2.82.25-4,.07-.67.14-1.28.22-1.85a15.56,15.56,0,0,0,3.55-3.06,4.79,4.79,0,0,0,.78-4,2.29,2.29,0,0,0-3.14-1.35c-1.74.87-2.25,4.34-2,6.05,0,.15.64,2.43.67,2.41l0,0c-.08.55-.17,1.13-.25,1.78-.13,1.19-.28,2.53-.33,4l0,.83c-.72-1.16-3-4.39-5.55-3.75C39.84,399.28,40.51,402,43,402.63Z" style="fill:#263238"></path></g></svg>